# 3ds Max Wavefront OBJ Exporter v0.97b - (c)2007 guruware
# File Created: 04.10.2012 20:19:05

#
# object Box001
#

v  -3.3465 142.7165 -0.0000
v  -3.3465 95.0787 0.0000
v  3.3465 95.0787 0.0000
v  3.3465 142.7165 -0.0000
v  -3.3465 142.7165 -9.8425
v  3.3465 142.7165 -9.8425
v  3.3465 101.9685 -9.8425
v  -3.3465 101.9685 -9.8425
v  -4.9213 142.7165 -8.2677
v  -4.9213 142.7165 -1.5748
v  4.9213 142.7165 -1.5748
v  4.9213 95.9818 -1.2994
v  4.9213 101.0654 -8.5420
v  4.9213 142.7165 -8.2677
v  3.3465 24.6071 -16.9331
v  3.3465 24.6055 -26.7756
v  4.9213 24.6057 -25.2008
v  4.9213 24.6069 -18.5079
v  -4.9213 95.9818 -1.2994
v  -4.9213 101.0654 -8.5420
v  3.3465 92.2138 -0.9031
v  -3.3465 92.2138 -0.9031
v  -3.3465 70.6041 -16.0299
v  3.3465 70.6041 -16.0299
v  -4.9213 93.1169 -2.1932
v  -4.9213 98.2005 -9.4555
v  -4.9213 76.5908 -24.5822
v  -4.9213 71.5072 -17.3200
v  -3.3465 99.1036 -10.7456
v  3.3465 99.1036 -10.7456
v  3.3465 77.4939 -25.8724
v  -3.3465 77.4939 -25.8724
v  4.9213 98.2005 -9.4555
v  4.9213 93.1169 -2.1932
v  4.9213 71.5072 -17.3200
v  4.9213 76.5908 -24.5822
v  3.3465 67.7392 -16.9329
v  -3.3465 67.7392 -16.9329
v  -3.3465 24.6071 -16.9331
v  -4.9213 68.6423 -18.2329
v  -4.9213 73.7259 -25.4765
v  -4.9213 24.6057 -25.2008
v  -4.9213 24.6069 -18.5079
v  -3.3465 74.6290 -26.7755
v  3.3465 74.6290 -26.7755
v  -3.3465 24.6055 -26.7756
v  4.9213 73.7259 -25.4765
v  4.9213 68.6423 -18.2329
v  -3.3465 93.5751 -0.2258
v  3.3465 93.5751 -0.2258
v  3.3465 100.4649 -10.0683
v  -3.3465 100.4649 -10.0683
v  4.9213 94.4782 -1.5182
v  4.9213 99.5618 -8.7756
v  -4.9213 99.5618 -8.7756
v  -4.9213 94.4782 -1.5182
v  -3.3465 69.2429 -16.7072
v  3.3465 69.2429 -16.7072
v  -4.9213 75.2295 -25.2573
v  -4.9213 70.1460 -17.9998
v  3.3465 76.1326 -26.5497
v  -3.3465 76.1326 -26.5497
v  4.9213 70.1460 -17.9998
v  4.9213 75.2295 -25.2573
# 64 vertices

vn 0.0000 0.0000 1.0000
vn 0.0000 -0.0000 -1.0000
vn 0.0000 1.0000 -0.0000
vn 1.0000 0.0000 -0.0000
vn 0.0000 -1.0000 0.0002
vn -0.0000 -1.0000 0.0002
vn -1.0000 0.0000 -0.0000
vn 0.0000 -0.5735 0.8192
vn 0.0000 0.5735 -0.8192
vn 0.0000 -0.0000 1.0000
vn 0.0000 0.0000 -1.0000
vn 0.6746 0.0025 -0.7382
vn -0.6746 0.0025 -0.7382
vn -0.7071 0.4055 -0.5793
vn 0.7071 0.4055 -0.5793
vn -0.6737 -0.0021 -0.7390
vn 0.6737 -0.0021 -0.7390
vn -0.6737 0.0022 0.7390
vn 0.6737 0.0022 0.7390
vn 0.7071 -0.4055 0.5793
vn -0.7071 -0.4055 0.5793
vn 0.6745 -0.0023 0.7383
vn -0.6745 -0.0023 0.7383
vn 0.0000 -0.4455 0.8953
vn 0.0000 0.4455 -0.8953
vn 0.0000 -0.1485 0.9889
vn 0.0000 0.1485 -0.9889
vn -0.6692 0.1122 -0.7346
vn 0.7035 0.3171 -0.6361
vn -0.6681 0.1089 -0.7361
vn 0.6681 0.1089 -0.7361
vn -0.7034 -0.3162 0.6366
vn 0.7034 -0.3162 0.6366
vn 0.6691 -0.1121 0.7347
vn -0.6691 -0.1121 0.7347
vn -0.7035 0.3171 -0.6361
vn 0.6692 0.1122 -0.7346
vn -0.7033 0.3162 -0.6366
vn 0.7033 0.3162 -0.6366
vn -0.6681 -0.1088 0.7361
vn 0.6681 -0.1088 0.7361
vn 0.7034 -0.3171 0.6361
vn -0.7034 -0.3171 0.6361
# 43 vertex normals

vt 1.0000 0.1600 0.0000
vt 1.0000 0.8400 0.0000
vt 0.6324 0.1600 0.0000
vt 0.6324 0.8400 0.0000
vt 1.0000 0.0000 0.0000
vt 0.0000 0.1600 0.0000
vt 0.9674 0.1320 0.0000
vt 0.9636 0.8679 0.0000
vt 0.0000 0.8400 0.0000
vt 0.1600 0.0000 0.0000
vt 0.1600 1.0000 0.0000
vt 0.0326 0.1320 0.0000
vt 0.0364 0.8679 0.0000
vt 0.9663 0.8400 0.0000
vt 0.9663 0.1600 0.0000
vt 0.4013 0.1600 0.0000
vt 0.4013 0.8400 0.0000
vt 0.0533 0.1311 0.0000
vt 0.0533 0.8689 0.0000
vt 0.9467 0.8689 0.0000
vt 0.9467 0.1311 0.0000
vt 0.5987 0.1600 0.0000
vt 0.5987 0.8400 0.0000
vt 0.0337 0.8400 0.0000
vt 0.0337 0.1600 0.0000
vt 0.3676 0.8400 0.0000
vt 0.3676 0.1600 0.0000
vt 1.0000 0.1321 0.0000
vt 1.0000 0.8680 0.0000
vt 0.0000 0.8680 0.0000
vt 0.0000 0.1321 0.0000
vt 0.6646 0.5713 0.0000
vt 0.7420 0.4287 0.0000
vt 0.7420 0.4535 0.0000
vt 0.3354 0.5713 0.0000
vt 0.2580 0.4535 0.0000
vt 0.2580 0.4287 0.0000
vt -0.0000 0.4571 0.0000
vt 0.1600 0.5435 0.0000
vt 0.1600 0.5433 0.0000
vt 0.0000 0.4569 0.0000
vt 0.8400 0.5435 0.0000
vt 1.0000 0.4571 0.0000
vt 1.0000 0.4569 0.0000
vt 0.8400 0.5433 0.0000
vt -0.0000 0.9298 0.0000
vt -0.0000 0.9149 0.0000
vt 0.8400 1.0000 0.0000
vt 1.0000 0.9298 0.0000
vt 1.0000 0.9149 0.0000
vt -1.7765 0.3183 0.0000
vt -1.7765 0.5488 0.0000
vt 2.6902 0.5488 0.0000
vt 2.7765 0.3183 0.0000
vt 0.9515 1.0000 0.0000
vt 0.9412 1.0000 0.0000
vt 0.3050 0.5801 0.0000
vt 0.3674 0.4201 0.0000
vt 0.3674 0.4197 0.0000
vt 0.3050 0.5797 0.0000
vt -0.2421 0.4201 0.0000
vt -0.2421 0.5801 0.0000
vt 1.2420 0.5797 0.0000
vt 1.2420 0.4197 0.0000
vt 0.3190 1.0000 0.0000
vt 0.3088 1.0000 0.0000
vt 0.3190 -0.0000 0.0000
vt 0.3088 -0.0000 0.0000
vt 0.9916 0.1600 0.0000
vt 0.9916 0.8400 0.0000
vt 0.6240 0.8400 0.0000
vt 0.6240 0.1600 0.0000
vt 0.9570 0.1315 0.0000
vt 0.9551 0.8684 0.0000
vt 0.0449 0.8684 0.0000
vt 0.0430 0.1315 0.0000
vt 0.3760 0.1600 0.0000
vt 0.3760 0.8400 0.0000
vt 0.9733 0.8685 0.0000
vt 0.9733 0.1316 0.0000
vt 0.0084 0.8400 0.0000
vt 0.0084 0.1600 0.0000
vt 0.0267 0.1316 0.0000
vt 0.0267 0.8685 0.0000
vt -0.0000 0.4694 0.0000
vt -0.0000 0.5062 0.0000
vt 0.1600 0.5931 0.0000
vt 0.1600 0.5559 0.0000
vt 0.8836 0.4569 0.0000
vt 1.0577 0.4562 0.0000
vt 1.0340 0.5446 0.0000
vt 0.8601 0.5454 0.0000
vt 0.5932 0.5313 0.0000
vt 0.5711 0.5320 0.0000
vt 0.5605 0.4634 0.0000
vt 0.5826 0.4629 0.0000
vt 0.4967 0.4579 0.0000
vt 0.5093 0.4585 0.0000
vt 0.5033 0.5355 0.0000
vt 0.4907 0.5348 0.0000
vt -0.3266 0.6032 0.0000
vt -0.3267 0.4430 0.0000
vt 0.3278 1.0000 0.0000
vt 0.3278 -0.0000 0.0000
vt 0.5913 0.4574 0.0000
vt 0.6457 0.4584 0.0000
vt 0.6197 0.5426 0.0000
vt 0.5653 0.5418 0.0000
vt 0.0645 0.5445 0.0000
vt -0.0392 0.5437 0.0000
vt -0.0532 0.4555 0.0000
vt 0.0504 0.4563 0.0000
vt 0.5756 0.4578 0.0000
vt 0.6709 0.4570 0.0000
vt 0.6581 0.5361 0.0000
vt 0.5626 0.5368 0.0000
vt 0.9515 0.0000 0.0000
vt 0.9433 0.0000 0.0000
vt 0.9433 1.0000 0.0000
vt 1.3266 0.3968 0.0000
vt 1.3267 0.5570 0.0000
vt 1.0000 1.0000 0.0000
vt 0.8400 0.0000 0.0000
# 123 texture coords

g Box001
s 2
f 1/1/1 2/1/1 3/2/1 4/2/1 
s 4
f 5/3/2 6/4/2 7/4/2 8/3/2 
s 8
f 1/1/3 5/1/3 9/5/3 10/5/3 
s 16
f 11/6/4 12/7/4 13/8/4 14/9/4 
s 32
f 15/10/5 16/11/6 17/9/6 18/6/5 
s 64
f 19/12/7 10/1/7 9/2/7 20/13/7 
s off
f 21/14/8 22/15/8 23/16/8 24/17/8 
f 25/18/7 26/19/7 27/20/7 28/21/7 
f 29/22/9 30/23/9 31/24/9 32/25/9 
f 33/20/4 34/21/4 35/18/4 36/19/4 
f 37/26/10 38/27/10 39/27/10 15/26/10 
f 40/28/7 41/29/7 42/2/7 43/1/7 
f 44/6/11 45/9/11 16/9/11 46/6/11 
f 47/30/4 48/31/4 18/6/4 17/9/4 
f 6/32/12 14/33/12 13/34/12 7/32/12 
f 8/35/13 20/36/13 9/37/13 5/35/13 
f 26/38/14 29/39/14 32/40/14 27/41/14 
f 30/42/15 33/43/15 36/44/15 31/45/15 
f 41/46/16 44/11/16 46/11/16 42/47/16 
f 45/48/17 47/49/17 17/50/17 16/48/17 
f 1/51/18 10/52/18 19/53/18 2/54/18 
f 3/2/19 12/55/19 11/56/19 4/2/19 
f 34/57/20 21/58/20 24/59/20 35/60/20 
f 22/61/21 25/62/21 28/63/21 23/64/21 
f 48/65/22 37/26/22 15/26/22 18/66/22 
f 38/27/23 40/67/23 43/68/23 39/27/23 
f 49/69/24 22/15/24 21/14/24 50/70/24 
f 51/71/25 30/23/25 29/22/25 52/72/25 
f 53/73/4 34/21/4 33/20/4 54/74/4 
f 55/75/7 26/19/7 25/18/7 56/76/7 
f 57/77/26 38/27/26 37/26/26 58/78/26 
f 59/79/7 41/29/7 40/28/7 60/80/7 
f 61/81/27 45/9/27 44/6/27 62/82/27 
f 63/83/4 48/31/4 47/30/4 64/84/4 
f 55/85/28 20/86/28 8/87/28 52/88/28 
f 54/89/29 33/90/29 30/91/29 51/92/29 
f 62/93/30 44/94/30 41/95/30 59/96/30 
f 64/97/31 47/98/31 45/99/31 61/100/31 
f 56/101/32 25/62/32 22/61/32 49/102/32 
f 50/102/33 21/61/33 34/62/33 53/101/33 
f 58/78/34 37/26/34 48/65/34 63/103/34 
f 60/104/35 40/67/35 38/27/35 57/77/35 
f 2/1/26 49/69/26 50/70/26 3/2/26 
f 7/4/27 51/71/27 52/72/27 8/3/27 
f 12/7/4 53/73/4 54/74/4 13/8/4 
f 20/13/7 55/75/7 56/76/7 19/12/7 
f 23/16/24 57/77/24 58/78/24 24/17/24 
f 27/20/7 59/79/7 60/80/7 28/21/7 
f 31/24/25 61/81/25 62/82/25 32/25/25 
f 35/18/4 63/83/4 64/84/4 36/19/4 
f 26/38/36 55/85/36 52/88/36 29/39/36 
f 13/105/37 54/106/37 51/107/37 7/108/37 
f 32/109/38 62/110/38 59/111/38 27/112/38 
f 36/113/39 64/114/39 61/115/39 31/116/39 
f 19/117/40 56/118/40 49/69/40 2/1/40 
f 3/2/41 50/70/41 53/119/41 12/55/41 
f 24/64/42 58/120/42 63/121/42 35/63/42 
f 28/63/43 60/121/43 57/120/43 23/64/43 
s 8
f 11/122/3 14/122/3 6/2/3 4/2/3 
f 4/2/3 6/2/3 5/1/3 1/1/3 
s 32
f 39/123/6 46/48/5 16/11/6 15/10/5 
f 43/1/6 42/2/5 46/48/5 39/123/6 
# 62 polygons

