# 3ds Max Wavefront OBJ Exporter v0.97b - (c)2007 guruware
# File Created: 27.09.2012 21:32:12

#
# object Object001
#

v  6.3957 0.8513 -8.2882
v  6.3957 0.8513 -9.8425
v  -6.3957 0.8513 -9.8425
v  -6.3957 0.8513 -8.2882
v  -9.8451 6.9616 -9.8425
v  -9.8451 6.9616 -8.2882
v  -1.4136 28.7146 -9.8425
v  -1.4136 28.7146 -8.2882
v  1.4136 28.7146 -9.8425
v  1.4136 28.7146 -8.2882
v  -1.9685 29.5276 -7.8945
v  -10.8268 6.8898 -7.8945
v  -10.2378 6.9329 -7.8945
v  -1.6356 29.0398 -7.8945
v  -6.8898 0.0000 -7.8945
v  -6.5934 0.5108 -7.8945
v  6.8898 0.0000 -7.8945
v  6.5934 0.5108 -7.8945
v  1.6356 29.0398 -7.8945
v  9.8451 6.9616 -8.2882
v  9.8451 6.9616 -9.8425
v  1.9685 29.5276 -7.8945
v  10.2378 6.9329 -7.8945
v  10.8268 6.8898 -7.8945
# 24 vertices

vn 0.0000 1.0000 -0.0000
vn 0.8708 0.4916 -0.0000
vn 0.9324 -0.3614 -0.0000
vn 0.0000 -1.0000 -0.0000
vn 0.0000 0.0000 1.0000
vn 0.0000 -0.7710 0.6368
vn 0.7054 -0.2740 0.6537
vn 0.6522 0.3692 0.6621
vn -0.8708 0.4916 -0.0000
vn -0.9324 -0.3614 -0.0000
vn -0.7054 -0.2740 0.6537
vn -0.6522 0.3692 0.6621
vn 0.0000 0.7563 0.6542
# 13 vertex normals

vt 0.1000 0.9210 0.0000
vt 0.1000 1.0000 0.0000
vt 0.0000 1.0000 0.0000
vt 0.0000 0.9210 0.0000
vt 0.0000 0.9010 0.0000
vt 0.1000 0.9010 0.0000
# 6 texture coords

g Object001
s 1
f 1/1/1 2/2/1 3/2/1 4/1/1 
s off
f 3/2/2 5/3/2 6/4/2 4/1/2 
f 5/3/3 7/3/3 8/4/3 6/4/3 
f 7/3/4 9/3/4 10/4/4 8/4/4 
f 11/5/5 12/5/5 13/5/5 14/5/5 
f 12/5/5 15/6/5 16/6/5 13/5/5 
f 15/6/5 17/6/5 18/6/5 16/6/5 
f 10/4/6 19/5/6 14/5/6 8/4/6 
f 8/4/7 14/5/7 13/5/7 6/4/7 
f 6/4/8 13/5/8 16/6/8 4/1/8 
f 2/2/9 1/1/9 20/4/9 21/3/9 
f 21/3/10 20/4/10 10/4/10 9/3/10 
f 11/5/5 14/5/5 19/5/5 22/5/5 
f 22/5/5 19/5/5 23/5/5 24/5/5 
f 24/5/5 23/5/5 18/6/5 17/6/5 
f 10/4/11 20/4/11 23/5/11 19/5/11 
f 20/4/12 1/1/12 18/6/12 23/5/12 
f 4/1/13 16/6/13 18/6/13 1/1/13 
# 18 polygons

#
# object Object002
#

v  -7.8778 -1.7026 9.8425
v  7.8778 -1.7026 9.8425
v  7.8778 -1.7026 8.3866
v  -7.8778 -1.7026 8.3866
v  -12.7900 6.7460 9.8425
v  -12.7900 6.7460 8.3866
v  -3.0782 31.1535 9.8425
v  -3.0782 31.1535 8.3866
v  -6.8898 0.0000 7.8945
v  -7.6308 -1.2769 7.8945
v  7.6308 -1.2769 7.8945
v  6.8898 0.0000 7.8945
v  -10.8268 6.8898 7.8945
v  -12.2992 6.7820 7.8945
v  -1.9685 29.5276 7.8945
v  -2.8008 30.7470 7.8945
v  1.9685 29.5276 7.8945
v  2.8008 30.7470 7.8945
v  12.7900 6.7460 9.8425
v  12.7900 6.7460 8.3866
v  3.0782 31.1535 9.8425
v  3.0782 31.1535 8.3866
v  12.2992 6.7820 7.8945
v  10.8268 6.8898 7.8945
# 24 vertices

vn 0.0000 1.0000 -0.0000
vn 0.8645 0.5026 -0.0000
vn 0.9291 -0.3697 -0.0000
vn 0.0000 0.0000 1.0000
vn 0.6481 0.3761 0.6622
vn 0.7031 -0.2792 0.6539
vn -0.8645 0.5026 -0.0000
vn -0.9291 -0.3697 -0.0000
vn 0.0000 -1.0000 -0.0000
vn 0.0000 0.7563 0.6542
vn -0.6481 0.3761 0.6622
vn -0.7031 -0.2792 0.6539
vn 0.0000 -0.7710 0.6368
# 13 vertex normals

vt 0.1000 0.0000 0.0000
vt 0.1000 0.0740 0.0000
vt 0.0000 0.0000 0.0000
vt 0.0000 0.0740 0.0000
vt 0.1000 0.0990 0.0000
vt 0.0000 0.0990 0.0000
# 6 texture coords

g Object002
s 1
f 25/7/14 26/7/14 27/8/14 28/8/14 
s off
f 29/9/15 25/7/15 28/8/15 30/10/15 
f 31/9/16 29/9/16 30/10/16 32/10/16 
f 33/11/17 34/11/17 35/11/17 36/11/17 
f 33/11/17 37/12/17 38/12/17 34/11/17 
f 37/12/17 39/12/17 40/12/17 38/12/17 
f 39/12/17 41/12/17 42/12/17 40/12/17 
f 28/8/18 34/11/18 38/12/18 30/10/18 
f 30/10/19 38/12/19 40/12/19 32/10/19 
f 43/9/20 44/10/20 27/8/20 26/7/20 
f 45/9/21 46/10/21 44/10/21 43/9/21 
f 46/10/22 45/9/22 31/9/22 32/10/22 
f 36/11/17 35/11/17 47/12/17 48/12/17 
f 48/12/17 47/12/17 42/12/17 41/12/17 
f 27/8/23 35/11/23 34/11/23 28/8/23 
f 27/8/24 44/10/24 47/12/24 35/11/24 
f 44/10/25 46/10/25 42/12/25 47/12/25 
f 32/10/26 40/12/26 42/12/26 46/10/26 
# 18 polygons

