# 3ds Max Wavefront OBJ Exporter v0.97b - (c)2007 guruware
# File Created: 01.09.2012 00:31:23

mtllib Arch_02.mtl

#
# object Cube
#

v  5.0000 71.5154 30.0000
v  5.0000 79.0154 22.5000
v  -5.0000 79.0154 22.5000
v  -5.0000 71.5154 30.0000
v  5.0000 61.5154 20.0000
v  5.0000 69.0154 12.5000
v  -5.0000 69.0154 -60.0000
v  -5.0000 79.0154 -60.0000
v  5.0000 79.0154 -60.0000
v  5.0000 69.0154 -60.0000
v  -5.0000 69.0154 12.5000
v  -5.0000 61.5154 20.0000
v  5.0000 -10.9846 20.0000
v  5.0000 -10.9846 30.0000
v  -5.0000 -10.9846 30.0000
v  -5.0000 -10.9846 20.0000
# 16 vertices

vn 0.6303 0.2971 0.7173
vn 0.6303 0.7173 0.2971
vn -0.6303 0.7173 0.2971
vn -0.6303 0.2971 0.7173
vn 0.8042 -0.2275 -0.5491
vn 0.8042 -0.5491 -0.2275
vn -0.5774 -0.5774 -0.5774
vn -0.5774 0.5774 -0.5774
vn 0.5774 0.5774 -0.5774
vn 0.5774 -0.5774 -0.5774
vn -0.8042 -0.5491 -0.2275
vn -0.8042 -0.2275 -0.5491
vn 0.5774 -0.5774 0.5774
vn -0.5774 -0.5774 0.5774
# 14 vertex normals

vt 1.0303 0.9714 0.0000
vt -0.0303 0.9714 0.0000
vt -0.0303 0.0286 0.0000
vt 1.0303 0.0286 0.0000
vt 1.0687 -0.0598 0.0000
vt -0.0687 -0.0598 0.0000
vt -0.0687 1.0598 0.0000
vt 1.0687 1.0598 0.0000
vt 0.0000 -0.0000 0.0000
vt 1.0000 -0.0000 0.0000
vt 1.0000 1.0000 0.0000
vt 0.0000 1.0000 0.0000
vt 1.0000 0.0000 0.0000
vt 1.0084 -0.2112 0.0000
vt 1.0084 -0.0496 0.0000
vt 0.8467 -0.0496 0.0000
vt 0.8467 -0.2112 0.0000
vt 0.8788 0.0000 0.0000
vt 0.0000 0.0000 0.0000
vt 0.8788 1.0000 0.0000
vt -0.0000 -0.0000 0.0000
vt -0.0000 1.0000 0.0000
# 22 texture coords

g Cube
usemtl wire_143224087
s 1
f 1/1/1 2/2/2 3/3/3 4/4/4 
f 5/5/5 6/6/6 2/7/2 1/8/1 
f 7/9/7 8/10/8 9/11/9 10/12/10 
f 11/6/11 12/5/12 4/8/4 3/7/3 
f 2/11/2 9/12/9 8/9/8 3/13/3 
f 13/14/10 14/15/13 15/16/14 16/17/7 
f 6/18/6 10/19/10 9/12/9 2/11/2 
f 11/18/11 3/11/3 8/12/8 7/19/7 
f 11/18/11 7/9/7 10/12/10 6/20/6 
f 5/11/5 13/12/10 16/9/7 12/13/12 
f 1/13/1 14/21/13 13/22/10 5/20/5 
f 4/13/4 15/21/14 14/22/13 1/11/1 
f 12/20/12 16/22/7 15/9/14 4/13/4 
f 6/3/6 5/4/5 12/1/12 11/2/11 
# 14 polygons

