# 3ds Max Wavefront OBJ Exporter v0.97b - (c)2007 guruware
# File Created: 27.09.2012 21:31:52

#
# object Plane003
#

v  -3.4449 -0.0000 -0.9843
v  3.4449 -0.0000 -0.9843
v  6.8898 0.0000 -7.8945
v  -6.8898 0.0000 -7.8945
v  -7.8740 1.7224 0.9843
v  -7.8740 1.7224 -0.9843
v  -10.8268 6.8898 -7.8945
v  -10.8268 6.8898 7.8945
v  -1.9685 29.5276 7.8945
v  -1.9685 29.5276 -7.8945
v  -6.8898 -0.0000 0.9843
v  -3.4449 -0.0000 0.9843
v  -3.6417 -0.3937 0.7874
v  -7.0874 -0.3405 0.7874
v  -3.6417 -0.3937 -0.7874
v  -6.8898 -0.0000 -0.9843
v  -7.0874 -0.3405 -0.7874
v  -8.0709 1.3780 -0.7874
v  -8.0709 1.3780 0.7874
v  -6.8898 0.0000 7.8945
v  7.8740 1.7224 0.9843
v  10.8268 6.8898 7.8945
v  10.8268 6.8898 -7.8945
v  7.8740 1.7224 -0.9843
v  1.9685 29.5276 7.8945
v  1.9685 29.5276 -7.8945
v  6.8898 -0.0000 0.9843
v  7.0874 -0.3405 0.7874
v  3.6417 -0.3937 0.7874
v  3.4449 -0.0000 0.9843
v  3.6417 -0.3937 -0.7874
v  7.0874 -0.3405 -0.7874
v  6.8898 -0.0000 -0.9843
v  8.0709 1.3780 -0.7874
v  8.0709 1.3780 0.7874
v  6.8898 0.0000 7.8945
# 36 vertices

vn -0.0000 1.0000 0.0000
vn 0.0000 1.0000 0.0000
vn 0.8682 0.4961 -0.0000
vn 0.9312 -0.3644 -0.0000
vn 0.0036 0.4711 -0.8821
vn -0.8944 0.4472 0.0000
vn 0.0036 0.4711 0.8821
vn 0.4338 0.2481 0.8662
vn 0.8682 -0.4961 0.0000
vn 0.4338 0.2481 -0.8662
vn 0.8682 0.4961 0.0000
vn -0.8682 0.4961 -0.0000
vn -0.9312 -0.3644 -0.0000
vn 0.0000 -1.0000 -0.0000
vn -0.0036 0.4711 -0.8821
vn 0.8944 0.4472 0.0000
vn -0.0036 0.4711 0.8821
vn -0.4338 0.2481 0.8662
vn -0.8682 -0.4961 0.0000
vn -0.4338 0.2481 -0.8662
vn -0.8682 0.4961 0.0000
vn -0.0000 1.0000 -0.0000
vn 0.0000 1.0000 -0.0000
# 23 vertex normals

vt 0.3916 0.5159 0.0000
vt 0.6084 0.5159 0.0000
vt 0.7169 0.6277 0.0000
vt 0.2831 0.6277 0.0000
vt 0.1548 0.4841 0.0000
vt 0.1548 0.5159 0.0000
vt 0.2937 0.6277 0.0000
vt 0.2937 0.3723 0.0000
vt 0.9021 0.3723 0.0000
vt 0.9021 0.6277 0.0000
vt 0.2553 -0.0000 0.0000
vt 1.0000 0.0000 0.0000
vt 0.9574 0.1000 0.0000
vt 0.2126 0.1000 0.0000
vt 0.1085 0.4841 0.0000
vt 0.1085 0.5159 0.0000
vt 0.0979 0.5127 0.0000
vt 0.0979 0.4873 0.0000
vt 1.0000 1.0000 0.0000
vt 0.2553 1.0000 0.0000
vt 0.2126 0.9000 0.0000
vt 0.9574 0.9000 0.0000
vt 0.0426 1.0000 0.0000
vt 0.0000 0.9000 0.0000
vt 0.1455 0.4873 0.0000
vt 0.1455 0.5127 0.0000
vt 0.0426 -0.0000 0.0000
vt 0.0000 0.1000 0.0000
vt 0.1085 0.3723 0.0000
vt 0.1085 0.6277 0.0000
vt 0.5620 0.6277 0.0000
vt 0.5620 0.3723 0.0000
vt 0.4380 0.3723 0.0000
vt 0.4380 0.6277 0.0000
vt 0.7447 0.0000 0.0000
vt 0.7874 0.1000 0.0000
vt 0.0426 0.1000 0.0000
vt 0.0000 0.0000 0.0000
vt -0.0000 1.0000 0.0000
vt 0.0426 0.9000 0.0000
vt 0.7874 0.9000 0.0000
vt 0.7447 1.0000 0.0000
vt 1.0000 0.9000 0.0000
vt 0.9574 1.0000 0.0000
vt 0.9574 0.0000 0.0000
vt 1.0000 0.1000 0.0000
vt 0.2831 0.3723 0.0000
vt 0.7169 0.3723 0.0000
vt 0.6084 0.4841 0.0000
vt 0.3916 0.4841 0.0000
vt 0.2831 0.5159 0.0000
vt 0.2831 0.4841 0.0000
vt 0.7169 0.4841 0.0000
vt 0.7169 0.5159 0.0000
# 54 texture coords

g Plane003
s 1
f 1/1/1 2/2/2 3/3/2 4/4/1 
s off
f 5/5/3 6/6/3 7/7/3 8/8/3 
f 9/9/4 8/8/4 7/7/4 10/10/4 
f 11/11/5 12/12/5 13/13/5 14/14/5 
f 12/15/6 1/16/6 15/17/6 13/18/6 
f 1/19/7 16/20/7 17/21/7 15/22/7 
f 16/20/8 6/23/8 18/24/8 17/21/8 
f 6/6/9 5/5/9 19/25/9 18/26/9 
f 5/27/10 11/11/10 14/14/10 19/28/10 
f 20/29/3 11/15/3 5/5/3 8/8/3 
f 6/6/11 16/16/11 4/30/11 7/7/11 
f 21/5/12 22/8/12 23/7/12 24/6/12 
f 25/9/13 26/10/13 23/7/13 22/8/13 
f 26/31/14 25/32/14 9/33/14 10/34/14 
f 27/35/15 28/36/15 29/37/15 30/38/15 
f 30/15/16 29/18/16 31/17/16 2/16/16 
f 2/39/17 31/40/17 32/41/17 33/42/17 
f 33/42/18 32/41/18 34/43/18 24/44/18 
f 24/6/19 34/26/19 35/25/19 21/5/19 
f 21/45/20 35/46/20 28/36/20 27/35/20 
f 36/29/12 22/8/12 21/5/12 27/15/12 
f 24/6/21 23/7/21 3/30/21 33/16/21 
s 1
f 20/47/22 36/48/23 30/49/23 12/50/22 
f 1/1/1 12/50/22 30/49/23 2/2/2 
f 4/4/1 16/51/1 1/1/1 
f 12/50/22 11/52/22 20/47/22 
f 36/48/23 27/53/23 30/49/23 
f 2/2/2 33/54/2 3/3/2 
# 24 polygons - 4 triangles

#
# object Plane008
#

v  7.8778 -1.7026 7.8945
v  6.8898 -0.0000 7.8945
v  -6.8898 -0.0000 7.8945
v  -7.8778 -1.7026 7.8945
v  -12.7900 6.7460 7.8945
v  -10.8268 6.8898 7.8945
v  -1.9685 29.5276 7.8945
v  -3.0782 31.1535 7.8945
v  3.0782 31.1535 7.8945
v  1.9685 29.5276 7.8945
v  10.8268 6.8898 7.8945
v  12.7900 6.7460 7.8945
v  -7.8778 -1.7026 -7.8945
v  -6.8898 -0.0000 -7.8945
v  6.8898 -0.0000 -7.8945
v  7.8778 -1.7026 -7.8945
v  -3.0782 31.1535 -7.8945
v  -1.9685 29.5276 -7.8945
v  -10.8268 6.8898 -7.8945
v  -12.7900 6.7460 -7.8945
v  12.7900 6.7460 -7.8945
v  10.8268 6.8898 -7.8945
v  1.9685 29.5276 -7.8945
v  3.0782 31.1535 -7.8945
v  3.6331 31.9664 6.9103
v  3.6331 31.9664 -6.9103
v  -3.6331 31.9664 -6.9103
v  -3.6331 31.9664 6.9103
v  13.7716 6.6742 6.9103
v  13.7716 6.6742 -6.9103
v  -13.7716 6.6742 -6.9103
v  -13.7716 6.6742 6.9103
v  -8.3718 -2.5539 -6.9102
v  -8.3718 -2.5539 6.9102
v  8.3718 -2.5539 -6.9102
v  8.3718 -2.5539 6.9102
# 36 vertices

vn 0.0000 0.0000 1.0000
vn 0.0000 -0.0000 1.0000
vn -0.0000 -0.0000 1.0000
vn 0.0000 0.0000 -1.0000
vn 0.0000 -0.0000 -1.0000
vn -0.0000 -0.0000 -1.0000
vn 0.0000 1.0000 -0.0000
vn 0.9282 0.3721 -0.0000
vn -0.9282 0.3721 -0.0000
vn -0.8631 -0.5050 -0.0000
vn -0.0000 -1.0000 -0.0000
vn 0.0000 -1.0000 -0.0000
vn 0.8631 -0.5050 -0.0000
vn -0.7025 0.2806 0.6540
vn -0.7025 0.2806 -0.6540
vn 0.0000 0.7710 -0.6368
vn -0.0000 -0.7563 0.6542
vn -0.6472 -0.3776 -0.6622
vn -0.6472 -0.3776 0.6622
vn 0.0000 -0.7563 -0.6542
vn 0.7025 0.2806 0.6540
vn 0.7025 0.2806 -0.6540
vn 0.0000 0.7710 0.6368
vn 0.6472 -0.3776 -0.6622
vn 0.6472 -0.3776 0.6622
# 25 vertex normals

vt 0.7860 0.3644 0.0000
vt 0.7501 0.3644 0.0000
vt 0.2499 0.3644 0.0000
vt 0.2140 0.3644 0.0000
vt 0.0356 0.3644 0.0000
vt 0.1069 0.3644 0.0000
vt 0.4285 0.3644 0.0000
vt 0.3882 0.3644 0.0000
vt 0.6118 0.3644 0.0000
vt 0.5715 0.3644 0.0000
vt 0.8931 0.3644 0.0000
vt 0.9644 0.3644 0.0000
vt 0.2140 0.6356 0.0000
vt 0.2499 0.6356 0.0000
vt 0.7501 0.6356 0.0000
vt 0.7860 0.6356 0.0000
vt 0.3882 0.6356 0.0000
vt 0.4285 0.6356 0.0000
vt 0.1069 0.6356 0.0000
vt 0.0356 0.6356 0.0000
vt 0.9644 0.6356 0.0000
vt 0.8931 0.6356 0.0000
vt 0.5715 0.6356 0.0000
vt 0.6118 0.6356 0.0000
vt 0.6319 0.3813 0.0000
vt 0.6319 0.6187 0.0000
vt 0.3681 0.6187 0.0000
vt 0.3681 0.3813 0.0000
vt 1.0000 0.3813 0.0000
vt 1.0000 0.6187 0.0000
vt -0.0000 0.6187 0.0000
vt -0.0000 0.3813 0.0000
vt 0.1960 0.6187 0.0000
vt 0.1960 0.3813 0.0000
vt 0.8040 0.6187 0.0000
vt 0.8040 0.3813 0.0000
# 36 texture coords

g Plane008
s off
f 37/55/24 38/56/24 39/57/24 40/58/24 
f 41/59/24 42/60/24 43/61/24 44/62/24 
f 40/58/25 39/57/25 42/60/25 41/59/25 
f 45/63/24 46/64/24 47/65/24 48/66/24 
f 44/62/24 43/61/24 46/64/24 45/63/24 
f 48/66/26 47/65/26 38/56/26 37/55/26 
f 49/67/27 50/68/27 51/69/27 52/70/27 
f 53/71/27 54/72/27 55/73/27 56/74/27 
f 56/74/28 55/73/28 50/68/28 49/67/28 
f 57/75/27 58/76/27 59/77/27 60/78/27 
f 60/78/27 59/77/27 54/72/27 53/71/27 
f 52/70/29 51/69/29 58/76/29 57/75/29 
s 1
f 61/79/30 62/80/30 63/81/30 64/82/30 
s 2
f 62/80/31 61/79/31 65/83/31 66/84/31 
f 67/85/32 68/86/32 64/82/32 63/81/32 
s 1
f 68/86/33 67/85/33 69/87/33 70/88/33 
s 2
f 71/89/34 72/90/34 70/88/34 69/87/35 
s 1
f 72/90/36 71/89/36 66/84/36 65/83/36 
s off
f 44/62/37 64/82/37 68/86/37 41/59/37 
f 56/74/38 67/85/38 63/81/38 53/71/38 
f 53/71/39 63/81/39 62/80/39 60/78/39 
f 40/58/40 70/88/40 72/90/40 37/55/40 
f 49/67/41 69/87/41 67/85/41 56/74/41 
f 41/59/42 68/86/42 70/88/42 40/58/42 
f 52/70/43 71/89/43 69/87/43 49/67/43 
f 48/66/44 65/83/44 61/79/44 45/63/44 
f 60/78/45 62/80/45 66/84/45 57/75/45 
f 45/63/46 61/79/46 64/82/46 44/62/46 
f 57/75/47 66/84/47 71/89/47 52/70/47 
f 37/55/48 72/90/48 65/83/48 48/66/48 
# 30 polygons

