# 3ds Max Wavefront OBJ Exporter v0.97b - (c)2007 guruware
# File Created: 04.10.2012 17:57:16

#
# object Box001
#

v  -50.1969 105.5118 1.9685
v  -50.1969 101.1811 1.9685
v  -50.1968 101.1811 30.5118
v  -50.1968 105.5118 30.5118
v  -1.9685 101.1811 98.4252
v  -1.9685 101.1811 74.8031
v  -1.9685 101.5010 74.8031
v  -1.9685 105.5118 98.4252
v  -1.9685 105.1919 74.8031
v  -1.9685 105.5118 74.8031
v  -13.7795 105.1919 44.2913
v  -13.7795 105.5118 44.2913
v  -13.7795 106.2992 45.0787
v  -13.7795 105.1919 50.1968
v  -13.7795 106.2992 50.1968
v  -2.3092 106.2992 74.0933
v  -21.8504 106.2992 115.3543
v  -18.0701 106.2992 115.3543
v  -2.6308 106.2992 97.9994
v  -21.9754 106.2992 85.5636
v  -14.5626 106.2992 44.2093
v  -32.4768 106.2992 53.8890
v  -38.8330 106.2992 41.6667
v  -1.9685 101.5010 68.8976
v  -1.9685 105.1919 68.8976
v  -39.6161 105.5118 41.5846
v  -39.6161 101.1811 41.5846
v  -33.2493 101.1811 54.0416
v  -33.2493 105.5118 54.0416
v  -45.2756 105.5118 30.5118
v  -45.2756 101.1811 30.5118
v  -49.4095 106.2992 2.7559
v  -49.4094 106.2992 29.7244
v  -44.9963 106.2992 29.7756
v  -34.7281 106.2992 2.7047
v  -22.6378 101.1811 74.8031
v  -22.6378 105.5118 74.8031
v  -2.7559 106.2992 74.8031
v  -21.8504 106.2992 74.8031
v  -34.4488 105.5118 1.9685
v  -17.7165 105.5118 116.1417
v  -22.6378 105.5118 116.1417
v  -22.6378 105.5118 85.1378
v  -34.4488 101.1811 1.9685
v  -17.7165 101.1811 137.7953
v  -17.7165 105.5118 137.7953
v  -22.6378 105.5118 137.7953
v  -22.6378 101.1811 137.7953
v  -1.9685 101.1811 122.0472
v  -1.9685 105.5118 122.0472
v  -13.7795 101.1811 44.2913
v  -13.7795 101.5010 44.2913
v  -13.7795 100.3937 45.0787
v  -13.7795 101.5010 50.1968
v  -13.7795 100.3937 50.1968
v  -2.3092 100.3937 74.0933
v  -22.6378 101.1811 85.1378
v  -22.6378 101.1811 116.1417
v  -21.8504 100.3937 115.3543
v  -21.9754 100.3937 85.5636
v  -2.6308 100.3937 97.9994
v  -18.0701 100.3937 115.3543
v  -32.4768 100.3937 53.8890
v  -38.8330 100.3937 41.6667
v  -14.5626 100.3937 44.2093
v  -49.4095 100.3937 2.7559
v  -34.7281 100.3937 2.7047
v  -44.9963 100.3937 29.7756
v  -49.4094 100.3937 29.7244
v  -21.8504 100.3937 74.8031
v  -2.7559 100.3937 74.8031
v  -17.7165 101.1811 116.1417
# 72 vertices

vn -1.0000 0.0000 -0.0000
vn 1.0000 0.0000 -0.0000
vn 0.9015 0.0000 -0.4327
vn 0.0000 1.0000 -0.0000
vn -0.8904 0.0000 0.4551
vn 0.0000 0.0000 1.0000
vn 0.6460 0.6460 0.4065
vn 0.6175 0.5562 -0.5562
vn -0.0039 0.6967 0.7174
vn -0.0012 0.6955 -0.7185
vn -0.7071 0.7071 -0.0000
vn 0.0000 0.7071 0.7071
vn 0.5300 0.7050 0.4713
vn 0.7360 0.6770 -0.0020
vn -0.7351 0.6779 -0.0044
vn 0.7060 0.6191 -0.3439
vn -0.7355 0.6775 0.0015
vn -0.6612 0.6684 0.3409
vn -0.6977 0.6199 0.3592
vn -0.6536 0.6796 0.3331
vn 0.0000 0.0000 -1.0000
vn 0.7071 0.0000 0.7071
vn 0.8986 0.0000 -0.4388
vn 0.0000 -1.0000 -0.0000
vn 0.6460 -0.6460 0.4065
vn 0.6175 -0.5562 -0.5562
vn -0.0039 -0.6967 0.7174
vn -0.0012 -0.6955 -0.7185
vn -0.7071 -0.7071 -0.0000
vn 0.0000 -0.7071 0.7071
vn 0.5300 -0.7050 0.4713
vn 0.7360 -0.6770 -0.0020
vn -0.7351 -0.6779 -0.0044
vn 0.7060 -0.6191 -0.3439
vn -0.7355 -0.6775 0.0015
vn -0.6612 -0.6684 0.3409
vn -0.6977 -0.6199 0.3592
vn -0.6536 -0.6796 0.3331
# 38 vertex normals

vt -0.0000 0.5965 0.0000
vt -0.0000 0.4035 0.0000
vt 0.2101 0.4035 0.0000
vt 0.2101 0.5965 0.0000
vt 0.7101 0.4035 0.0000
vt 0.5362 0.4035 0.0000
vt 0.5362 0.4178 0.0000
vt 0.7101 0.5965 0.0000
vt 0.5362 0.5822 0.0000
vt 0.5362 0.5965 0.0000
vt 0.3116 0.5822 0.0000
vt 0.3116 0.5965 0.0000
vt 0.3174 0.6316 0.0000
vt 0.3551 0.5822 0.0000
vt 0.3551 0.6316 0.0000
vt 0.5310 0.6316 0.0000
vt 1.1669 0.3701 0.0000
vt 1.1669 0.4215 0.0000
vt 1.0212 0.6316 0.0000
vt 0.9167 0.3684 0.0000
vt 0.1719 0.5257 0.0000
vt 0.1389 0.5614 0.0000
vt 0.1307 0.5568 0.0000
vt 0.1343 0.2439 0.0000
vt 0.0344 0.2421 0.0000
vt 0.4928 0.4178 0.0000
vt 0.4928 0.5822 0.0000
vt 0.3547 0.4624 0.0000
vt 0.7161 0.4759 0.0000
vt 0.6453 0.5863 0.0000
vt 0.2839 0.5728 0.0000
vt 0.2917 0.5965 0.0000
vt 0.2917 0.4035 0.0000
vt 0.3834 0.4035 0.0000
vt 0.3834 0.5965 0.0000
vt 0.3226 0.5681 0.0000
vt 0.3226 0.2471 0.0000
vt 0.2925 0.2465 0.0000
vt 0.2224 0.5687 0.0000
vt -0.0627 0.2407 0.0000
vt -0.2037 0.5702 0.0000
vt 0.8263 0.6299 0.0000
vt 0.8263 0.3701 0.0000
vt 0.3043 0.2435 0.0000
vt 0.3671 0.5050 0.0000
vt 0.3640 0.5161 0.0000
vt 0.5362 0.6316 0.0000
vt 0.3110 0.6316 0.0000
vt 0.2047 0.6316 0.0000
vt 0.2043 0.6316 0.0000
vt 0.0058 0.6316 0.0000
vt 0.0054 0.6316 0.0000
vt 0.8406 0.5965 0.0000
vt 0.8348 0.6316 0.0000
vt 0.7070 0.6316 0.0000
vt 0.6123 0.5965 0.0000
vt 0.6155 0.6316 0.0000
vt 0.2923 0.6316 0.0000
vt 0.3823 0.6316 0.0000
vt 1.0000 0.4035 0.0000
vt 1.0000 0.5965 0.0000
vt 0.8841 0.4035 0.0000
vt 0.8841 0.5965 0.0000
vt 0.3116 0.4035 0.0000
vt 0.3116 0.4178 0.0000
vt 0.3174 0.3684 0.0000
vt 0.3551 0.4178 0.0000
vt 0.3551 0.3684 0.0000
vt 0.5310 0.3684 0.0000
vt 0.6123 0.4035 0.0000
vt 0.8406 0.4035 0.0000
vt 0.9749 0.3638 0.0000
vt 1.0000 0.3659 0.0000
vt 1.0000 0.3056 0.0000
vt 0.4946 0.0008 0.0000
vt 1.0000 0.0299 0.0000
vt 0.9800 0.0208 0.0000
vt 0.5362 0.3684 0.0000
vt 0.3110 0.3684 0.0000
vt 0.2043 0.3684 0.0000
vt 0.2047 0.3684 0.0000
vt 0.0054 0.3684 0.0000
vt 0.0058 0.3684 0.0000
vt 0.8348 0.3684 0.0000
vt 0.7070 0.3684 0.0000
vt 0.6155 0.3684 0.0000
vt 0.2923 0.3684 0.0000
vt 0.3823 0.3684 0.0000
vt 0.8520 0.4261 0.0000
vt 0.8520 0.3589 0.0000
vt 1.0520 0.3589 0.0000
vt 1.0520 0.4261 0.0000
vt 0.6885 0.6411 0.0000
vt 0.9066 0.6411 0.0000
# 94 texture coords

g Box001
s off
f 1/1/1 2/2/1 3/3/1 4/4/1 
f 5/5/2 6/6/2 7/7/2 8/8/2 
f 8/8/2 7/7/2 9/9/2 10/10/2 
f 11/11/2 12/12/2 13/13/2 14/14/2 
f 15/15/2 14/14/2 13/13/2 
f 9/9/3 14/14/3 15/15/3 10/10/3 
f 16/16/3 10/10/3 15/15/3 
s 2
f 17/17/4 18/18/4 19/19/4 20/20/4 
f 15/21/4 13/22/4 21/23/4 22/24/4 
f 22/24/4 21/23/4 23/25/4 
s off
f 9/9/2 7/7/2 24/26/2 25/27/2 
s 2
f 25/28/4 11/29/4 14/30/4 9/31/4 
s off
f 26/32/5 27/33/5 28/34/5 29/35/5 
s 1
f 30/4/6 4/4/6 3/3/6 31/3/6 
s 2
f 32/36/4 33/37/4 34/38/4 35/39/4 
s 4
f 34/40/4 23/25/4 21/23/4 35/41/4 
s 8
f 26/32/5 30/4/5 31/3/5 27/33/5 
f 28/34/5 36/6/5 37/10/5 29/35/5 
s 1
f 20/20/4 19/19/4 38/42/4 39/43/4 
s 16
f 39/44/4 38/45/4 16/46/4 15/21/4 
f 39/44/4 15/21/4 22/24/4 
s off
f 16/16/7 38/47/7 10/10/7 
f 21/48/8 13/13/8 12/12/8 
f 30/4/9 34/49/9 33/50/9 4/4/9 
f 1/1/10 32/51/10 35/52/10 40/1/10 
f 4/4/11 33/50/11 32/51/11 1/1/11 
f 41/53/12 18/54/12 17/54/12 42/53/12 
f 8/8/13 19/55/13 18/54/13 41/53/13 
f 10/10/14 38/47/14 19/55/14 8/8/14 
f 43/56/15 20/57/15 39/47/15 37/10/15 
f 40/1/16 35/52/16 21/48/16 12/12/16 
f 42/53/17 17/54/17 20/57/17 43/56/17 
f 23/58/18 26/32/18 29/35/18 22/59/18 
f 34/49/19 30/4/19 26/32/19 23/58/19 
f 37/10/20 39/47/20 22/59/20 29/35/20 
f 2/2/21 1/1/21 40/1/21 44/2/21 
f 45/60/6 46/61/6 47/61/6 48/60/6 
f 49/62/22 50/63/22 46/61/22 45/60/22 
f 51/64/23 44/2/23 40/1/23 52/65/23 
f 40/1/23 12/12/23 11/11/23 52/65/23 
f 53/66/2 51/64/2 52/65/2 54/67/2 
f 55/68/2 53/66/2 54/67/2 
f 55/68/3 54/67/3 7/7/3 6/6/3 
f 56/69/3 55/68/3 6/6/3 
f 57/70/1 58/71/1 42/53/1 43/56/1 
s 2
f 59/17/24 60/20/24 61/19/24 62/18/24 
f 63/24/24 64/25/24 65/23/24 55/21/24 
f 65/72/24 53/73/24 55/74/24 
s 1
f 24/26/3 52/65/3 11/11/3 25/27/3 
s 2
f 24/28/24 7/31/24 54/30/24 52/29/24 
s 4
f 57/70/1 43/56/1 37/10/1 36/6/1 
s 2
f 66/36/24 67/39/24 68/38/24 69/37/24 
s 4
f 68/40/24 67/41/24 65/23/24 64/25/24 
s 1
f 60/20/24 70/43/24 71/42/24 61/19/24 
s 16
f 70/44/24 63/24/24 55/21/24 56/46/24 
f 70/75/24 56/76/24 71/77/24 
s off
f 56/69/25 6/6/25 71/78/25 
f 65/79/26 51/64/26 53/66/26 
f 31/3/27 3/3/27 69/80/27 68/81/27 
f 2/2/28 44/2/28 67/82/28 66/83/28 
f 3/3/29 2/2/29 66/83/29 69/80/29 
f 72/71/30 58/71/30 59/84/30 62/84/30 
f 5/5/31 72/71/31 62/84/31 61/85/31 
f 6/6/32 5/5/32 61/85/32 71/78/32 
f 57/70/33 36/6/33 70/78/33 60/86/33 
f 44/2/34 51/64/34 65/79/34 67/82/34 
f 58/71/35 57/70/35 60/86/35 59/84/35 
f 64/87/36 63/88/36 28/34/36 27/33/36 
f 68/81/37 64/87/37 27/33/37 31/3/37 
f 36/6/38 28/34/38 63/88/38 70/78/38 
f 41/89/4 42/90/4 47/91/4 46/92/4 
f 42/53/1 58/71/1 48/60/1 47/61/1 
f 58/90/24 72/89/24 45/92/24 48/91/24 
f 72/89/24 5/93/24 49/94/24 45/92/24 
f 5/5/2 8/8/2 50/63/2 49/62/2 
f 8/93/4 41/89/4 46/92/4 50/94/4 
# 64 polygons - 12 triangles

