# 3ds Max Wavefront OBJ Exporter v0.97b - (c)2007 guruware
# File Created: 01.09.2012 00:03:17

mtllib Box_03.mtl

#
# object Box001
#

v  -7.1850 -1.2802 -14.5669
v  1.4518 -1.2802 -14.5669
v  1.4518 -1.2802 14.5669
v  -7.1850 -1.2802 14.5669
v  1.4518 -0.4928 14.5669
v  1.4518 -0.4928 -14.5669
v  -7.1850 -0.4928 -14.5669
v  -7.1850 -0.4928 14.5669
v  1.4518 -1.0833 14.7638
v  1.4518 -0.6896 14.7638
v  -7.3819 -0.6896 14.7638
v  -7.3819 -1.0833 14.7638
v  7.3819 -0.9849 -7.0374
v  7.3819 -0.7881 -7.0374
v  7.3819 -0.7881 14.7638
v  7.3819 -0.9849 14.7638
v  2.2392 -0.9849 -14.7638
v  2.2392 -0.7881 -14.7638
v  7.3819 -0.7881 -14.7638
v  7.3819 -0.9849 -14.7638
v  -7.3819 -1.0833 -14.7638
v  -7.3819 -0.6896 -14.7638
v  7.0866 -1.2802 -14.4685
v  7.0866 -1.2802 -7.4311
v  2.2392 -1.2802 -7.4311
v  2.2392 -1.2802 -14.4685
v  7.0866 -0.4928 14.4685
v  7.0866 -0.4928 -7.0374
v  2.2392 -0.4928 -7.0374
v  2.2392 -0.4928 14.4685
v  2.2392 -0.7881 14.7638
v  2.2392 -0.9849 14.7638
v  1.4518 -0.6896 -14.7638
v  1.4518 -1.0833 -14.7638
v  1.8455 -1.0833 14.5669
v  1.6125 -1.1998 14.6834
v  1.8455 -1.0833 -7.2835
v  1.6125 -0.5732 14.6834
v  1.8455 -0.6896 14.5669
v  1.8455 -0.6896 -7.2343
v  1.9981 -1.1596 -14.6432
v  1.8455 -1.0833 -14.5669
v  1.8455 -0.6896 -14.5669
v  1.9981 -0.6133 -14.6432
v  2.0642 -1.1927 -7.2561
v  2.0631 -0.5808 -7.2343
v  1.9981 -0.6133 14.6432
v  1.9981 -1.1596 14.6432
v  1.6125 -1.1998 -14.6834
v  1.6125 -0.5732 -14.6834
v  2.2392 -1.2802 14.4685
v  2.2392 -0.4928 -14.4685
v  7.3819 -0.9849 -7.4311
v  7.0866 -1.2802 14.4685
v  7.0866 -0.4928 -14.4685
v  7.3819 -0.7881 -7.4311
v  2.2392 -1.2802 -7.0374
v  7.0866 -1.2802 -7.0374
v  2.2392 -0.4928 -7.4311
v  7.0866 -0.4928 -7.4311
v  7.2910 -0.9473 -7.0374
v  7.2910 -0.9473 -7.4311
v  7.2910 -0.8257 -7.4311
v  7.2910 -0.8257 -7.0374
v  7.0489 -1.1893 -7.4311
v  7.0489 -1.1893 -7.0374
v  2.3622 -1.1818 -7.0374
v  2.3622 -1.1818 -7.4311
v  7.0489 -0.5837 -7.0374
v  7.0489 -0.5837 -7.4311
v  2.3622 -0.5912 -7.4311
v  2.3622 -0.5912 -7.0374
# 72 vertices

vn 0.0000 -1.0000 -0.0000
vn 0.2651 -0.9642 0.0000
vn 0.2651 -0.9642 -0.0000
vn 0.2651 0.9642 -0.0000
vn 0.0000 1.0000 -0.0000
vn 0.2651 -0.0000 0.9642
vn 0.0000 0.0000 1.0000
vn 1.0000 0.0000 -0.0000
vn -0.2651 0.0000 -0.9642
vn -0.2651 -0.0000 -0.9642
vn 0.0000 0.0000 -1.0000
vn -1.0000 0.0000 -0.0000
vn -0.3054 -0.9522 -0.0000
vn -0.2651 -0.9642 -0.0000
vn -0.3054 0.9522 0.0000
vn -0.2651 0.9642 -0.0000
vn -0.2651 0.0000 0.9642
vn 0.2651 0.0000 -0.9642
vn 0.2651 -0.0000 -0.9642
vn 0.4472 -0.8944 -0.0000
vn -0.0000 -1.0000 0.0000
vn 0.4472 0.8944 -0.0000
vn -0.0000 1.0000 -0.0000
vn 0.4472 -0.0000 0.8944
vn 0.0000 -0.0000 1.0000
vn 0.4472 0.0000 0.8944
vn -0.4472 -0.0000 -0.8944
vn -0.0000 -0.0000 -1.0000
vn 0.0000 -0.0000 -1.0000
vn -0.4472 -0.8944 0.0000
vn -0.4472 -0.8944 -0.0000
vn 0.0000 -1.0000 0.0000
vn -0.4472 0.8944 -0.0000
vn -0.4472 0.8944 0.0000
vn -0.4472 -0.0000 0.8944
vn -0.4472 0.0000 0.8944
vn 0.4472 -0.0000 -0.8944
vn 0.1569 -0.6983 -0.6983
vn 0.1569 -0.6983 0.6983
vn 0.1569 0.6983 0.6983
vn 0.1570 0.6983 -0.6983
vn 0.7071 -0.7071 -0.0000
vn 0.0000 -0.7071 0.7071
vn 0.7071 0.7071 -0.0000
vn 0.0000 0.7071 -0.7071
vn 0.0000 -0.7071 -0.7071
vn 0.0000 0.7071 0.7071
vn -0.1569 -0.6983 -0.6983
vn -0.1569 -0.6983 0.6983
vn -0.1569 0.6983 0.6983
vn -0.1570 0.6983 -0.6983
vn -0.7071 -0.7071 -0.0000
vn -0.7071 0.7071 -0.0000
vn -0.3054 -0.9522 0.0000
vn -0.2651 0.9642 0.0000
vn -0.3054 0.9522 -0.0000
vn 0.4472 -0.8944 0.0000
vn -0.0016 -1.0000 -0.0000
vn -0.0016 1.0000 -0.0000
vn 0.6247 -0.7809 -0.0000
vn -0.0000 -0.0000 1.0000
vn 0.6247 0.7809 -0.0000
vn -0.0000 0.0000 -1.0000
# 63 vertex normals

vt 0.0017 -0.9809 0.0000
vt 0.0017 -0.8347 0.0000
vt 0.2483 -0.8347 0.0000
vt 0.2483 -0.9809 0.0000
vt 0.2500 -0.8347 0.0000
vt 0.2500 -0.9843 0.0000
vt 0.0654 -0.7343 0.0000
vt 0.2500 -0.7343 0.0000
vt 0.0000 -0.8213 0.0000
vt 0.0000 -0.7343 0.0000
vt 0.0000 -0.9843 0.0000
vt 0.0025 -0.7393 0.0000
vt 0.0621 -0.7393 0.0000
vt 0.0621 -0.8213 0.0000
vt 0.0025 -0.8213 0.0000
vt 0.2475 -0.7393 0.0000
vt 0.0654 -0.7393 0.0000
vt 0.0654 -0.8213 0.0000
vt 0.2475 -0.8213 0.0000
vt 0.2500 -0.8213 0.0000
vt 0.0000 -0.8347 0.0000
vt 0.2483 -0.8280 0.0000
vt 0.2493 -0.8319 0.0000
vt 0.0633 -0.8280 0.0000
vt 0.0637 -0.8280 0.0000
vt 0.0010 -0.8254 0.0000
vt 0.0017 -0.8280 0.0000
vt 0.0636 -0.8243 0.0000
vt 0.0637 -0.8243 0.0000
vt 0.2490 -0.8254 0.0000
vt 0.0007 -0.8319 0.0000
vt 0.0621 -0.7343 0.0000
vt 0.0654 -0.7358 0.0000
vt 0.0621 -0.7358 0.0000
vt 0.0621 -0.7399 0.0000
vt 0.0654 -0.7399 0.0000
vt 0.0654 -0.8193 0.0000
vt 0.0621 -0.8193 0.0000
# 38 texture coords

g Box001
usemtl wire_088199225
s 2
f 1/1/1 2/2/2 3/3/3 4/4/1 
s 4
f 5/3/4 6/2/4 7/1/5 8/4/5 
s 8
f 9/5/6 10/5/6 11/6/7 12/6/7 
s 16
f 13/7/8 14/7/8 15/8/8 16/8/8 
s 32
f 17/9/9 18/9/10 19/10/11 20/10/11 
s 64
f 21/11/12 12/6/12 11/6/12 22/11/12 
s 2
f 23/12/1 24/13/1 25/14/13 26/15/14 
s 4
f 27/16/5 28/17/5 29/18/15 30/19/16 
s 8
f 16/8/7 15/8/7 31/20/17 32/20/17 
s 32
f 21/11/11 22/11/11 33/21/18 34/21/19 
s 2
f 35/22/1 36/23/20 3/3/3 37/24/21 
f 2/2/2 37/24/21 3/3/3 
s 4
f 38/23/22 39/22/23 40/25/23 6/2/4 
f 5/3/4 38/23/22 6/2/4 
s 8
f 36/23/24 35/22/25 39/22/7 10/5/6 
f 39/22/7 38/23/26 10/5/6 
f 9/5/6 36/23/24 10/5/6 
s 32
f 41/26/27 42/27/28 43/27/29 18/9/10 
f 43/27/29 44/26/27 18/9/10 
f 17/9/9 41/26/27 18/9/10 
s 2
f 26/15/14 25/14/13 45/28/30 37/24/21 
f 41/26/31 26/15/14 37/24/21 42/27/32 
s 4
f 30/19/16 29/18/15 46/29/33 40/25/23 
f 47/30/34 30/19/16 40/25/23 39/22/23 
s 8
f 35/22/25 48/30/35 32/20/17 47/30/36 
f 32/20/17 31/20/17 47/30/36 
f 35/22/25 47/30/36 39/22/7 
s 32
f 42/27/28 49/31/37 34/21/19 50/31/37 
f 34/21/19 33/21/18 50/31/37 
f 42/27/28 50/31/37 43/27/29 
s off
f 26/15/38 41/26/38 17/9/38 
f 32/20/39 48/30/39 51/19/39 
f 30/19/40 47/30/40 31/20/40 
f 18/9/41 44/26/41 52/15/41 
f 23/12/42 20/10/42 53/32/42 24/13/42 
f 54/16/43 16/8/43 32/20/43 51/19/43 
f 27/16/44 15/8/44 14/7/44 28/17/44 
f 55/12/45 19/10/45 18/9/45 52/15/45 
f 26/15/46 17/9/46 20/10/46 23/12/46 
f 30/19/47 31/20/47 15/8/47 27/16/47 
f 34/21/48 49/31/48 2/2/48 
f 3/3/49 36/23/49 9/5/49 
f 10/5/50 38/23/50 5/3/50 
f 6/2/51 50/31/51 33/21/51 
f 4/4/52 12/6/52 21/11/52 1/1/52 
f 1/1/46 21/11/46 34/21/46 2/2/46 
f 8/4/47 11/6/47 10/5/47 5/3/47 
f 7/1/53 22/11/53 11/6/53 8/4/53 
f 3/3/43 9/5/43 12/6/43 4/4/43 
f 6/2/45 33/21/45 22/11/45 7/1/45 
s 16
f 20/10/8 19/10/8 56/32/8 53/32/8 
s 2
f 54/16/1 51/19/14 57/18/54 58/17/1 
s 4
f 55/12/5 52/15/55 59/14/56 60/13/5 
s 2
f 51/19/14 48/30/31 35/22/1 37/24/21 
f 57/18/54 51/19/14 37/24/21 45/28/30 
s 4
f 52/15/55 44/26/33 43/27/5 40/25/23 
f 59/14/56 52/15/55 40/25/23 46/29/33 
s off
f 13/7/42 16/8/42 54/16/42 58/17/42 
f 56/32/44 19/10/44 55/12/44 60/13/44 
s 4
f 43/27/5 50/31/22 6/2/4 40/25/23 
s 2
f 2/2/2 49/31/57 42/27/32 37/24/21 
f 25/14/13 57/18/54 45/28/30 
s 4
f 29/18/15 59/14/56 46/29/33 
s 16
f 61/33/8 62/34/8 63/34/8 64/33/8 
s 2
f 65/35/58 66/36/58 67/37/58 68/38/58 
s 4
f 69/36/59 70/35/59 71/38/59 72/37/59 
s off
f 62/34/42 61/33/42 66/36/42 65/35/42 
f 64/33/44 63/34/44 70/35/44 69/36/44 
f 14/7/29 13/7/29 61/33/29 64/33/29 
f 13/7/11 58/17/11 66/36/11 61/33/11 
f 58/17/11 57/18/11 67/37/11 66/36/11 
f 57/18/60 25/14/60 68/38/60 67/37/60 
f 25/14/7 24/13/7 65/35/7 68/38/7 
f 24/13/61 53/32/61 62/34/61 65/35/61 
f 53/32/7 56/32/7 63/34/7 62/34/7 
f 56/32/25 60/13/25 70/35/25 63/34/25 
f 60/13/61 59/14/61 71/38/61 70/35/61 
f 59/14/62 29/18/62 72/37/62 71/38/62 
f 29/18/11 28/17/11 69/36/11 72/37/11 
f 28/17/63 14/7/63 64/33/63 69/36/63 
# 60 polygons - 20 triangles

