# 3ds Max Wavefront OBJ Exporter v0.97b - (c)2007 guruware
# File Created: 02.09.2012 15:52:09

mtllib Box_04.mtl

#
# object Box001
#

v  -14.3701 0.0000 9.4488
v  -14.3701 0.0000 -9.4488
v  14.3701 0.0000 -9.4488
v  14.3701 0.0000 9.4488
v  -14.3701 9.8425 9.4488
v  14.3701 9.8425 9.4488
v  14.3701 9.8425 -9.4488
v  -14.3701 9.8425 -9.4488
v  -14.7638 0.3937 9.8425
v  14.7638 0.3937 9.8425
v  14.7638 9.4488 9.8425
v  -14.7638 9.4488 9.8425
v  14.7638 0.3937 -9.8425
v  14.7638 9.4488 -9.8425
v  -14.7638 0.3937 -9.8425
v  -14.7638 9.4488 -9.8425
# 16 vertices

vn 0.0000 -1.0000 -0.0000
vn 0.0000 1.0000 -0.0000
vn 0.0000 0.0000 1.0000
vn 1.0000 0.0000 -0.0000
vn 0.0000 0.0000 -1.0000
vn -1.0000 0.0000 -0.0000
vn -0.7071 -0.7071 -0.0000
vn 0.0000 -0.7071 -0.7071
vn 0.7071 -0.7071 -0.0000
vn 0.0000 -0.7071 0.7071
vn 0.0000 0.7071 0.7071
vn 0.7071 0.7071 -0.0000
vn 0.0000 0.7071 -0.7071
vn -0.7071 0.7071 -0.0000
# 14 vertex normals

vt 0.9867 0.0200 0.0000
vt 0.9867 0.9800 0.0000
vt 0.0133 0.9800 0.0000
vt 0.0133 0.0200 0.0000
vt 0.0000 0.0400 0.0000
vt 1.0000 0.0400 0.0000
vt 1.0000 0.9600 0.0000
vt 0.0000 0.9600 0.0000
vt 0.9800 0.0038 0.0000
vt 0.0200 0.0038 0.0000
vt 0.9867 0.0120 0.0000
vt 0.0133 0.0120 0.0000
vt 0.0133 0.9880 0.0000
vt 0.9867 0.9880 0.0000
vt 0.0200 0.9962 0.0000
vt 0.9800 0.9962 0.0000
# 16 texture coords

g Box001
usemtl wire_214228153
s 2
f 1/1/1 2/2/1 3/3/1 4/4/1 
s 4
f 5/4/2 6/1/2 7/2/2 8/3/2 
s 8
f 9/5/3 10/6/3 11/7/3 12/8/3 
s 16
f 10/5/4 13/6/4 14/7/4 11/8/4 
s 32
f 13/5/5 15/6/5 16/7/5 14/8/5 
s 64
f 15/5/6 9/6/6 12/7/6 16/8/6 
s off
f 1/9/7 9/6/7 15/5/7 2/10/7 
f 2/11/8 15/6/8 13/5/8 3/12/8 
f 3/9/9 13/6/9 10/5/9 4/10/9 
f 4/11/10 10/6/10 9/5/10 1/12/10 
f 5/13/11 12/8/11 11/7/11 6/14/11 
f 6/15/12 11/8/12 14/7/12 7/16/12 
f 7/13/13 14/8/13 16/7/13 8/14/13 
f 8/15/14 16/8/14 12/7/14 5/16/14 
# 14 polygons

