# 3ds Max Wavefront OBJ Exporter v0.97b - (c)2007 guruware
# File Created: 31.08.2012 22:50:48

mtllib C_Struct_02.mtl

#
# object Box001
#

v  0.2953 -1.2157 -3.9370
v  1.4764 -1.2157 -2.2835
v  1.4764 -1.2157 2.2835
v  0.2953 -1.2157 3.9370
v  1.4764 -0.5267 -2.2835
v  0.2953 -0.5267 -3.9370
v  0.2953 -0.5267 3.9370
v  1.4764 -0.5267 2.2835
v  -1.4764 -1.2157 9.8425
v  1.4764 -1.2157 7.8740
v  1.4764 -0.5267 7.8740
v  -1.4764 -0.5267 9.8425
v  1.4764 -1.2157 -7.8740
v  -1.4764 -1.2157 -9.8425
v  -1.4764 -0.5267 -9.8425
v  1.4764 -0.5267 -7.8740
v  1.4764 -1.2157 -6.8504
v  -1.4764 -1.2157 -6.8504
v  -1.4764 -1.2157 6.8504
v  1.4764 -1.2157 6.8504
v  -1.4764 -0.5267 -6.8504
v  1.4764 -0.5267 -6.8504
v  1.4764 -0.5267 6.8504
v  -1.4764 -0.5267 6.8504
v  -1.3082 -1.1173 6.9527
v  0.4848 -1.1173 3.9901
v  -1.3082 -0.7236 6.9527
v  0.4848 -0.7236 3.9901
v  0.4848 -0.7236 -3.9901
v  -1.3082 -0.7236 -6.9527
v  -1.3082 -1.1173 -6.9527
v  0.4848 -1.1173 -3.9901
# 32 vertices

vn 0.0000 -1.0000 -0.0000
vn 0.0000 1.0000 -0.0000
vn 0.5547 0.0000 0.8321
vn 1.0000 0.0000 -0.0000
vn 0.5547 0.0000 -0.8321
vn -1.0000 0.0000 -0.0000
vn -0.3881 0.8911 -0.2354
vn 0.5196 0.0000 -0.8544
vn -0.6101 -0.7005 -0.3701
vn -0.7203 -0.6936 -0.0000
vn -0.6101 -0.7005 0.3701
vn 0.5196 -0.0000 0.8544
vn -0.3881 0.8911 0.2354
vn -0.4608 0.8875 -0.0000
vn -0.8555 0.0000 -0.5178
vn -0.8555 -0.0000 0.5178
vn -0.8555 0.0000 0.5178
# 17 vertex normals

vt 1.0000 0.6160 0.0000
vt 0.0000 0.6160 0.0000
vt 0.0000 0.3840 0.0000
vt 1.0000 0.3840 0.0000
vt 0.0000 0.0000 0.0000
vt 1.0000 0.0000 0.0000
vt 1.0000 1.0000 0.0000
vt 0.0000 1.0000 0.0000
vt 0.6160 0.0000 0.0000
vt 0.6160 1.0000 0.0000
vt 0.3840 1.0000 0.0000
vt 0.3840 0.0000 0.0000
vt 0.0000 0.8480 0.0000
vt 1.0000 0.8480 0.0000
vt 1.0000 0.1520 0.0000
vt 0.0000 0.1520 0.0000
vt 0.8480 1.0000 0.0000
vt 0.8480 0.0000 0.0000
vt 0.1520 0.0000 0.0000
vt 0.1520 1.0000 0.0000
# 20 texture coords

g Box001
usemtl wire_214228153
s 2
f 1/1/1 2/2/1 3/3/1 4/4/1 
s 4
f 5/1/2 6/2/2 7/3/2 8/4/2 
s 8
f 9/5/3 10/6/3 11/7/3 12/8/3 
s 16
f 2/9/4 5/10/4 8/11/4 3/12/4 
s 32
f 13/5/5 14/6/5 15/7/5 16/8/5 
s 2
f 14/7/1 13/8/1 17/13/1 18/14/1 
f 18/14/1 17/13/1 2/2/1 1/1/1 
f 10/5/1 9/6/1 19/15/1 20/16/1 
f 20/16/1 19/15/1 4/4/1 3/3/1 
s 4
f 16/7/2 15/8/2 21/13/2 22/14/2 
f 22/14/2 21/13/2 6/2/2 5/1/2 
f 12/5/2 11/6/2 23/15/2 24/16/2 
f 24/16/2 23/15/2 8/4/2 7/3/2 
s 16
f 13/6/4 16/7/4 22/17/4 17/18/4 
f 17/18/4 22/17/4 5/10/4 2/9/4 
f 11/8/4 10/5/4 20/19/4 23/20/4 
f 23/20/4 20/19/4 3/12/4 8/11/4 
s 64
f 9/6/6 12/7/6 24/17/6 19/18/6 
f 15/8/6 14/5/6 18/19/6 21/20/6 
s off
f 4/4/7 19/15/7 25/18/7 26/9/7 
f 19/18/8 24/17/8 27/17/8 25/18/8 
f 24/16/9 7/3/9 28/10/9 27/17/9 
f 7/3/10 6/2/10 29/11/10 28/10/10 
f 6/2/11 21/13/11 30/20/11 29/11/11 
f 21/20/12 18/19/12 31/19/12 30/20/12 
f 18/14/13 1/1/13 32/12/13 31/19/13 
f 1/1/14 4/4/14 26/9/14 32/12/14 
s 1
f 26/15/6 28/14/6 29/18/6 32/2/6 
s 2
f 28/14/15 26/15/15 25/4/15 27/1/15 
f 32/2/16 29/18/17 30/19/16 31/13/16 
# 30 polygons

