# 3ds Max Wavefront OBJ Exporter v0.97b - (c)2007 guruware
# File Created: 06.09.2012 18:38:20

mtllib Curve_01.mtl

#
# object Cylinder001
#

v  68.8976 0.0000 -0.0000
v  68.8976 19.6850 -0.0000
v  68.5202 19.6850 -7.2018
v  68.5202 0.0000 -7.2018
v  67.3921 19.6850 -14.3246
v  67.3921 0.0000 -14.3246
v  65.5255 19.6850 -21.2905
v  65.5255 0.0000 -21.2905
v  62.9411 19.6850 -28.0232
v  62.9411 0.0000 -28.0232
v  59.6671 19.6850 -34.4488
v  59.6671 0.0000 -34.4488
v  55.7394 19.6850 -40.4970
v  55.7394 0.0000 -40.4970
v  51.2009 19.6850 -46.1015
v  51.2009 0.0000 -46.1015
v  46.1015 19.6850 -51.2009
v  46.1015 0.0000 -51.2009
v  40.4970 19.6850 -55.7394
v  40.4970 0.0000 -55.7394
v  34.4488 19.6850 -59.6671
v  34.4488 0.0000 -59.6671
v  28.0232 19.6850 -62.9411
v  28.0232 0.0000 -62.9411
v  21.2905 19.6850 -65.5255
v  21.2905 0.0000 -65.5255
v  14.3246 19.6850 -67.3921
v  14.3246 0.0000 -67.3921
v  7.2018 19.6850 -68.5202
v  7.2018 0.0000 -68.5202
v  -0.0000 19.6850 -68.8976
v  -0.0000 0.0000 -68.8976
# 32 vertices

vn -0.9986 0.0000 0.0523
vn -0.9945 0.0000 0.1045
vn -0.9781 0.0000 0.2079
vn -0.9511 0.0000 0.3090
vn -0.9135 0.0000 0.4067
vn -0.8660 0.0000 0.5000
vn -0.8090 0.0000 0.5878
vn -0.7431 0.0000 0.6691
vn -0.6691 0.0000 0.7431
vn -0.5878 0.0000 0.8090
vn -0.5000 0.0000 0.8660
vn -0.4067 0.0000 0.9135
vn -0.3090 0.0000 0.9511
vn -0.2079 0.0000 0.9781
vn -0.1045 0.0000 0.9945
vn -0.0523 0.0000 0.9986
# 16 vertex normals

vt 0.7500 0.0000 1.0000
vt 0.7500 1.0000 1.0000
vt 0.7667 1.0000 1.0000
vt 0.7667 0.0000 1.0000
vt 0.7833 1.0000 1.0000
vt 0.7833 0.0000 1.0000
vt 0.8000 1.0000 1.0000
vt 0.8000 0.0000 1.0000
vt 0.8167 1.0000 1.0000
vt 0.8167 0.0000 1.0000
vt 0.8333 1.0000 1.0000
vt 0.8333 0.0000 1.0000
vt 0.8500 1.0000 1.0000
vt 0.8500 0.0000 1.0000
vt 0.8667 1.0000 1.0000
vt 0.8667 0.0000 1.0000
vt 0.8833 1.0000 1.0000
vt 0.8833 0.0000 1.0000
vt 0.9000 1.0000 1.0000
vt 0.9000 0.0000 1.0000
vt 0.9167 1.0000 1.0000
vt 0.9167 0.0000 1.0000
vt 0.9333 1.0000 1.0000
vt 0.9333 0.0000 1.0000
vt 0.9500 1.0000 1.0000
vt 0.9500 0.0000 1.0000
vt 0.9667 1.0000 1.0000
vt 0.9667 0.0000 1.0000
vt 0.9833 1.0000 1.0000
vt 0.9833 0.0000 1.0000
vt 1.0000 1.0000 1.0000
vt 1.0000 0.0000 1.0000
# 32 texture coords

g Cylinder001
usemtl wire_153228214
s 8
f 1/1/1 2/2/1 3/3/2 4/4/2 
f 4/4/2 3/3/2 5/5/3 6/6/3 
f 6/6/3 5/5/3 7/7/4 8/8/4 
f 8/8/4 7/7/4 9/9/5 10/10/5 
f 10/10/5 9/9/5 11/11/6 12/12/6 
f 12/12/6 11/11/6 13/13/7 14/14/7 
f 14/14/7 13/13/7 15/15/8 16/16/8 
f 16/16/8 15/15/8 17/17/9 18/18/9 
f 18/18/9 17/17/9 19/19/10 20/20/10 
f 20/20/10 19/19/10 21/21/11 22/22/11 
f 22/22/11 21/21/11 23/23/12 24/24/12 
f 24/24/12 23/23/12 25/25/13 26/26/13 
f 26/26/13 25/25/13 27/27/14 28/28/14 
f 28/28/14 27/27/14 29/29/15 30/30/15 
f 30/30/15 29/29/15 31/31/16 32/32/16 
# 15 polygons

