# 3ds Max Wavefront OBJ Exporter v0.97b - (c)2007 guruware
# File Created: 02.09.2012 17:49:02

mtllib Cyl_01a.mtl

#
# object Cylinder001
#

v  19.0666 1.6732 -4.8955
v  19.6850 1.6732 -0.0000
v  19.6850 0.2953 -0.0000
v  19.0666 0.2953 -4.8955
v  17.2501 1.6732 -9.4833
v  17.2501 0.2953 -9.4833
v  14.3498 1.6732 -13.4753
v  14.3498 0.2953 -13.4753
v  10.5478 1.6732 -16.6206
v  10.5478 0.2953 -16.6206
v  6.0830 1.6732 -18.7216
v  6.0830 0.2953 -18.7216
v  1.2360 1.6732 -19.6462
v  1.2360 0.2953 -19.6462
v  -3.6886 1.6732 -19.3364
v  -3.6886 0.2953 -19.3364
v  -8.3815 1.6732 -17.8116
v  -8.3815 0.2953 -17.8116
v  -12.5477 1.6732 -15.1676
v  -12.5477 0.2953 -15.1676
v  -15.9255 1.6732 -11.5706
v  -15.9255 0.2953 -11.5706
v  -18.3027 1.6732 -7.2465
v  -18.3027 0.2953 -7.2465
v  -19.5298 1.6732 -2.4672
v  -19.5298 0.2953 -2.4672
v  -19.5298 1.6732 2.4672
v  -19.5298 0.2953 2.4672
v  -18.3027 1.6732 7.2466
v  -18.3027 0.2953 7.2466
v  -15.9255 1.6732 11.5706
v  -15.9255 0.2953 11.5706
v  -12.5477 1.6732 15.1676
v  -12.5477 0.2953 15.1676
v  -8.3815 1.6732 17.8116
v  -8.3815 0.2953 17.8116
v  -3.6886 1.6732 19.3364
v  -3.6886 0.2953 19.3364
v  1.2361 1.6732 19.6462
v  1.2361 0.2953 19.6462
v  6.0830 1.6732 18.7216
v  6.0830 0.2953 18.7216
v  10.5478 1.6732 16.6206
v  10.5478 0.2953 16.6206
v  14.3498 1.6732 13.4753
v  14.3498 0.2953 13.4753
v  17.2501 1.6732 9.4833
v  17.2501 0.2953 9.4833
v  19.0666 1.6732 4.8954
v  19.0666 0.2953 4.8954
v  18.0118 1.9685 0.0000
v  19.3898 1.9685 0.0000
v  18.7806 1.9685 -4.8220
v  17.4459 1.9685 -4.4794
v  16.9914 1.9685 -9.3411
v  15.7839 1.9685 -8.6773
v  14.1345 1.9685 -13.2732
v  13.1300 1.9685 -12.3299
v  10.3896 1.9685 -16.3713
v  9.6512 1.9685 -15.2079
v  5.9918 1.9685 -18.4408
v  5.5660 1.9685 -17.1303
v  1.2175 1.9685 -19.3515
v  1.1310 1.9685 -17.9763
v  -3.6333 1.9685 -19.0463
v  -3.3751 1.9685 -17.6928
v  -8.2558 1.9685 -17.5444
v  -7.6691 1.9685 -16.2976
v  -12.3595 1.9685 -14.9401
v  -11.4812 1.9685 -13.8783
v  -15.6867 1.9685 -11.3970
v  -14.5719 1.9685 -10.5871
v  -18.0282 1.9685 -7.1378
v  -16.7470 1.9685 -6.6306
v  -19.2369 1.9685 -2.4302
v  -17.8698 1.9685 -2.2575
v  -19.2369 1.9685 2.4302
v  -17.8698 1.9685 2.2575
v  -18.0281 1.9685 7.1379
v  -16.7470 1.9685 6.6306
v  -15.6866 1.9685 11.3970
v  -14.5719 1.9685 10.5871
v  -12.3595 1.9685 14.9401
v  -11.4811 1.9685 13.8783
v  -8.2557 1.9685 17.5444
v  -7.6690 1.9685 16.2976
v  -3.6333 1.9685 19.0463
v  -3.3751 1.9685 17.6928
v  1.2175 1.9685 19.3515
v  1.1310 1.9685 17.9763
v  5.9918 1.9685 18.4408
v  5.5660 1.9685 17.1302
v  10.3896 1.9685 16.3713
v  9.6512 1.9685 15.2079
v  14.1345 1.9685 13.2732
v  13.1301 1.9685 12.3299
v  16.9914 1.9685 9.3411
v  15.7839 1.9685 8.6772
v  18.7806 1.9685 4.8220
v  17.4459 1.9685 4.4793
v  17.4459 0.0000 -4.4794
v  18.7806 0.0000 -4.8220
v  19.3898 0.0000 0.0000
v  18.0118 0.0000 0.0000
v  15.7839 0.0000 -8.6773
v  16.9914 0.0000 -9.3411
v  13.1300 0.0000 -12.3299
v  14.1345 0.0000 -13.2732
v  9.6512 0.0000 -15.2079
v  10.3896 0.0000 -16.3713
v  5.5660 0.0000 -17.1303
v  5.9918 0.0000 -18.4408
v  1.1310 0.0000 -17.9763
v  1.2175 0.0000 -19.3515
v  -3.3751 0.0000 -17.6928
v  -3.6333 0.0000 -19.0463
v  -7.6691 0.0000 -16.2976
v  -8.2558 0.0000 -17.5444
v  -11.4812 0.0000 -13.8783
v  -12.3595 0.0000 -14.9401
v  -14.5719 0.0000 -10.5871
v  -15.6867 0.0000 -11.3970
v  -16.7470 0.0000 -6.6306
v  -18.0282 0.0000 -7.1378
v  -17.8698 0.0000 -2.2575
v  -19.2369 0.0000 -2.4302
v  -17.8698 0.0000 2.2575
v  -19.2369 0.0000 2.4302
v  -16.7470 0.0000 6.6306
v  -18.0281 0.0000 7.1379
v  -14.5719 0.0000 10.5871
v  -15.6866 0.0000 11.3970
v  -11.4811 0.0000 13.8783
v  -12.3595 0.0000 14.9401
v  -7.6690 0.0000 16.2976
v  -8.2557 0.0000 17.5444
v  -3.3751 0.0000 17.6928
v  -3.6333 0.0000 19.0463
v  1.1310 0.0000 17.9763
v  1.2175 0.0000 19.3515
v  5.5660 0.0000 17.1302
v  5.9918 0.0000 18.4408
v  9.6512 0.0000 15.2079
v  10.3896 0.0000 16.3713
v  13.1301 0.0000 12.3299
v  14.1345 0.0000 13.2732
v  15.7839 0.0000 8.6772
v  16.9914 0.0000 9.3411
v  17.4459 0.0000 4.4793
v  18.7806 0.0000 4.8220
v  -3.3197 1.6732 -17.4027
v  -3.3197 0.2953 -17.4027
v  1.1124 0.2953 -17.6816
v  1.1124 1.6732 -17.6816
v  5.4747 1.6732 -16.8494
v  5.4747 0.2953 -16.8494
v  9.4930 0.2953 -14.9586
v  9.4930 1.6732 -14.9586
v  12.9148 1.6732 -12.1278
v  12.9148 0.2953 -12.1278
v  15.5251 0.2953 -8.5350
v  15.5251 1.6732 -8.5350
v  -7.5433 1.6732 -16.0304
v  -7.5433 0.2953 -16.0304
v  -11.2929 1.6732 -13.6508
v  -11.2929 0.2953 -13.6508
v  -14.3330 1.6732 -10.4135
v  -14.3330 0.2953 -10.4135
v  -16.4724 1.6732 -6.5219
v  -16.4724 0.2953 -6.5219
v  -17.5768 1.6732 -2.2205
v  -17.5768 0.2953 -2.2205
v  -17.5768 1.6732 2.2205
v  -17.5768 0.2953 2.2205
v  -16.4724 1.6732 6.5219
v  -16.4724 0.2953 6.5219
v  -14.3330 1.6732 10.4135
v  -14.3330 0.2953 10.4135
v  -11.2929 1.6732 13.6508
v  -11.2929 0.2953 13.6508
v  -7.5433 1.6732 16.0304
v  -7.5433 0.2953 16.0304
v  -3.3197 1.6732 17.4027
v  -3.3197 0.2953 17.4027
v  1.1124 1.6732 17.6816
v  1.1124 0.2953 17.6816
v  5.4747 1.6732 16.8494
v  5.4747 0.2953 16.8494
v  9.4930 1.6732 14.9586
v  9.4930 0.2953 14.9586
v  12.9148 1.6732 12.1278
v  12.9148 0.2953 12.1278
v  15.5251 1.6732 8.5350
v  15.5251 0.2953 8.5350
v  17.1599 1.6732 -4.4059
v  17.1599 0.2953 -4.4059
v  17.7165 0.2953 0.0000
v  17.7165 1.6732 0.0000
v  17.1599 1.6732 4.4059
v  17.1599 0.2953 4.4059
# 200 vertices

vn 0.9686 0.0000 -0.2487
vn 1.0000 0.0000 -0.0000
vn 0.8763 0.0000 -0.4818
vn 0.7290 0.0000 -0.6845
vn 0.5358 0.0000 -0.8443
vn 0.3090 0.0000 -0.9511
vn 0.0628 0.0000 -0.9980
vn -0.1874 0.0000 -0.9823
vn -0.4258 0.0000 -0.9048
vn -0.6374 0.0000 -0.7705
vn -0.8090 0.0000 -0.5878
vn -0.9298 0.0000 -0.3681
vn -0.9921 0.0000 -0.1253
vn -0.9921 0.0000 0.1253
vn -0.9298 0.0000 0.3681
vn -0.8090 0.0000 0.5878
vn -0.6374 0.0000 0.7705
vn -0.4258 0.0000 0.9048
vn -0.1874 0.0000 0.9823
vn 0.0628 0.0000 0.9980
vn 0.3090 0.0000 0.9511
vn 0.5358 0.0000 0.8443
vn 0.7290 0.0000 0.6845
vn 0.8763 0.0000 0.4818
vn 0.9686 0.0000 0.2487
vn 0.0000 1.0000 -0.0000
vn 0.0000 -1.0000 -0.0000
vn -0.7043 -0.7043 0.0890
vn -0.7043 0.7043 0.0890
vn -0.6600 -0.7043 0.2613
vn -0.6600 0.7043 0.2613
vn -0.5743 -0.7043 0.4173
vn -0.5743 0.7043 0.4173
vn -0.4525 -0.7043 0.5470
vn -0.4525 0.7043 0.5470
vn -0.3023 -0.7043 0.6423
vn -0.3023 0.7043 0.6423
vn -0.1330 -0.7043 0.6973
vn -0.1330 0.7043 0.6973
vn 0.0446 -0.7043 0.7085
vn 0.0446 0.7043 0.7085
vn 0.2194 -0.7043 0.6752
vn 0.2194 0.7043 0.6752
vn 0.3804 -0.7043 0.5994
vn 0.3804 0.7043 0.5994
vn 0.5175 -0.7043 0.4860
vn 0.5175 0.7043 0.4860
vn 0.6221 -0.7043 0.3420
vn 0.6221 0.7043 0.3420
vn 0.6876 -0.7043 0.1765
vn 0.6876 0.7043 0.1765
vn 0.7099 -0.7043 -0.0000
vn 0.7099 0.7043 -0.0000
vn 0.6876 -0.7043 -0.1765
vn 0.6876 0.7043 -0.1765
vn 0.6221 -0.7043 -0.3420
vn 0.6221 0.7043 -0.3420
vn 0.5175 -0.7043 -0.4860
vn 0.5175 0.7043 -0.4860
vn 0.3804 -0.7043 -0.5994
vn 0.3804 0.7043 -0.5994
vn 0.2194 -0.7043 -0.6752
vn 0.2194 0.7043 -0.6752
vn 0.0446 -0.7043 -0.7085
vn 0.0446 0.7043 -0.7085
vn -0.1330 -0.7043 -0.6973
vn -0.1330 0.7043 -0.6973
vn -0.3023 -0.7043 -0.6423
vn -0.3023 0.7043 -0.6423
vn -0.4525 -0.7043 -0.5470
vn -0.4525 0.7043 -0.5470
vn -0.5743 -0.7043 -0.4173
vn -0.5743 0.7043 -0.4173
vn -0.6600 -0.7043 -0.2613
vn -0.6600 0.7043 -0.2613
vn -0.7043 -0.7043 -0.0890
vn -0.7043 0.7043 -0.0890
vn 0.7043 0.7043 -0.0890
vn 0.6600 0.7043 -0.2613
vn 0.5743 0.7043 -0.4173
vn 0.4525 0.7043 -0.5470
vn 0.3023 0.7043 -0.6423
vn 0.1330 0.7043 -0.6973
vn -0.0446 0.7043 -0.7085
vn -0.2194 0.7043 -0.6752
vn -0.3804 0.7043 -0.5994
vn -0.5175 0.7043 -0.4860
vn -0.6221 0.7043 -0.3420
vn -0.6876 0.7043 -0.1765
vn -0.7099 0.7043 0.0000
vn -0.6876 0.7043 0.1765
vn -0.6221 0.7043 0.3420
vn -0.5175 0.7043 0.4860
vn -0.3804 0.7043 0.5994
vn -0.2194 0.7043 0.6752
vn -0.0446 0.7043 0.7085
vn 0.1330 0.7043 0.6973
vn 0.3023 0.7043 0.6423
vn 0.4525 0.7043 0.5470
vn 0.5743 0.7043 0.4173
vn 0.6600 0.7043 0.2613
vn 0.7043 0.7043 0.0890
vn 0.7043 -0.7043 -0.0890
vn 0.6600 -0.7043 -0.2613
vn 0.5743 -0.7043 -0.4173
vn 0.4525 -0.7043 -0.5470
vn 0.3023 -0.7043 -0.6423
vn 0.1330 -0.7043 -0.6973
vn -0.0446 -0.7043 -0.7085
vn -0.2194 -0.7043 -0.6752
vn -0.3804 -0.7043 -0.5994
vn -0.5175 -0.7043 -0.4860
vn -0.6221 -0.7043 -0.3420
vn -0.6876 -0.7043 -0.1765
vn -0.7099 -0.7043 0.0000
vn -0.6876 -0.7043 0.1765
vn -0.6221 -0.7043 0.3420
vn -0.5175 -0.7043 0.4860
vn -0.3804 -0.7043 0.5994
vn -0.2194 -0.7043 0.6752
vn -0.0446 -0.7043 0.7085
vn 0.1330 -0.7043 0.6973
vn 0.3023 -0.7043 0.6423
vn 0.4525 -0.7043 0.5470
vn 0.5743 -0.7043 0.4173
vn 0.6600 -0.7043 0.2613
vn 0.7043 -0.7043 0.0890
# 127 vertex normals

vt 0.7900 0.8500 1.0000
vt 0.7500 0.8500 1.0000
vt 0.7500 0.1500 1.0000
vt 0.7900 0.1500 1.0000
vt 0.8300 0.8500 1.0000
vt 0.8300 0.1500 1.0000
vt 0.8700 0.8500 1.0000
vt 0.8700 0.1500 1.0000
vt 0.9100 0.8500 1.0000
vt 0.9100 0.1500 1.0000
vt 0.9500 0.8500 1.0000
vt 0.9500 0.1500 1.0000
vt 0.9900 0.8500 1.0000
vt 0.9900 0.1500 1.0000
vt 1.0300 0.8500 1.0000
vt 1.0300 0.1500 1.0000
vt 0.0700 0.8500 1.0000
vt 0.0300 0.8500 1.0000
vt 0.0300 0.1500 1.0000
vt 0.0700 0.1500 1.0000
vt 0.1100 0.8500 1.0000
vt 0.1100 0.1500 1.0000
vt 0.1500 0.8500 1.0000
vt 0.1500 0.1500 1.0000
vt 0.1900 0.8500 1.0000
vt 0.1900 0.1500 1.0000
vt 0.2300 0.8500 1.0000
vt 0.2300 0.1500 1.0000
vt 0.2700 0.8500 1.0000
vt 0.2700 0.1500 1.0000
vt 0.3100 0.8500 1.0000
vt 0.3100 0.1500 1.0000
vt 0.3500 0.8500 1.0000
vt 0.3500 0.1500 1.0000
vt 0.3900 0.8500 1.0000
vt 0.3900 0.1500 1.0000
vt 0.4300 0.8500 1.0000
vt 0.4300 0.1500 1.0000
vt 0.4700 0.8500 1.0000
vt 0.4700 0.1500 1.0000
vt 0.5100 0.8500 1.0000
vt 0.5100 0.1500 1.0000
vt 0.5500 0.8500 1.0000
vt 0.5500 0.1500 1.0000
vt 0.5900 0.8500 1.0000
vt 0.5900 0.1500 1.0000
vt 0.6300 0.8500 1.0000
vt 0.6300 0.1500 1.0000
vt 0.6700 0.8500 1.0000
vt 0.6700 0.1500 1.0000
vt 0.7100 0.8500 1.0000
vt 0.7100 0.1500 1.0000
vt 0.7500 1.0000 1.0000
vt 0.7900 1.0000 1.0000
vt 0.8300 1.0000 1.0000
vt 0.8700 1.0000 1.0000
vt 0.9100 1.0000 1.0000
vt 0.9500 1.0000 1.0000
vt 0.9900 1.0000 1.0000
vt 1.0300 1.0000 1.0000
vt 0.0300 1.0000 1.0000
vt 0.0700 1.0000 1.0000
vt 0.1100 1.0000 1.0000
vt 0.1500 1.0000 1.0000
vt 0.1900 1.0000 1.0000
vt 0.2300 1.0000 1.0000
vt 0.2700 1.0000 1.0000
vt 0.3100 1.0000 1.0000
vt 0.3500 1.0000 1.0000
vt 0.3900 1.0000 1.0000
vt 0.4300 1.0000 1.0000
vt 0.4700 1.0000 1.0000
vt 0.5100 1.0000 1.0000
vt 0.5500 1.0000 1.0000
vt 0.5900 1.0000 1.0000
vt 0.6300 1.0000 1.0000
vt 0.6700 1.0000 1.0000
vt 0.7100 1.0000 1.0000
vt 0.7900 0.0000 1.0000
vt 0.7500 0.0000 1.0000
vt 0.8300 0.0000 1.0000
vt 0.8700 0.0000 1.0000
vt 0.9100 0.0000 1.0000
vt 0.9500 0.0000 1.0000
vt 0.9900 0.0000 1.0000
vt 1.0300 0.0000 1.0000
vt 0.0700 0.0000 1.0000
vt 0.0300 0.0000 1.0000
vt 0.1100 0.0000 1.0000
vt 0.1500 0.0000 1.0000
vt 0.1900 0.0000 1.0000
vt 0.2300 0.0000 1.0000
vt 0.2700 0.0000 1.0000
vt 0.3100 0.0000 1.0000
vt 0.3500 0.0000 1.0000
vt 0.3900 0.0000 1.0000
vt 0.4300 0.0000 1.0000
vt 0.4700 0.0000 1.0000
vt 0.5100 0.0000 1.0000
vt 0.5500 0.0000 1.0000
vt 0.5900 0.0000 1.0000
vt 0.6300 0.0000 1.0000
vt 0.6700 0.0000 1.0000
vt 0.7100 0.0000 1.0000
# 104 texture coords

g Cylinder001
usemtl wire_026177148
s 8
f 1/1/1 2/2/2 3/3/2 4/4/1 
f 5/5/3 1/1/1 4/4/1 6/6/3 
f 7/7/4 5/5/3 6/6/3 8/8/4 
f 9/9/5 7/7/4 8/8/4 10/10/5 
f 11/11/6 9/9/5 10/10/5 12/12/6 
f 13/13/7 11/11/6 12/12/6 14/14/7 
f 15/15/8 13/13/7 14/14/7 16/16/8 
f 17/17/9 15/18/8 16/19/8 18/20/9 
f 19/21/10 17/17/9 18/20/9 20/22/10 
f 21/23/11 19/21/10 20/22/10 22/24/11 
f 23/25/12 21/23/11 22/24/11 24/26/12 
f 25/27/13 23/25/12 24/26/12 26/28/13 
f 27/29/14 25/27/13 26/28/13 28/30/14 
f 29/31/15 27/29/14 28/30/14 30/32/15 
f 31/33/16 29/31/15 30/32/15 32/34/16 
f 33/35/17 31/33/16 32/34/16 34/36/17 
f 35/37/18 33/35/17 34/36/17 36/38/18 
f 37/39/19 35/37/18 36/38/18 38/40/19 
f 39/41/20 37/39/19 38/40/19 40/42/20 
f 41/43/21 39/41/20 40/42/20 42/44/21 
f 43/45/22 41/43/21 42/44/21 44/46/22 
f 45/47/23 43/45/22 44/46/22 46/48/23 
f 47/49/24 45/47/23 46/48/23 48/50/24 
f 49/51/25 47/49/24 48/50/24 50/52/25 
f 2/2/2 49/51/25 50/52/25 3/3/2 
s off
f 51/53/26 52/53/26 53/54/26 54/54/26 
f 54/54/26 53/54/26 55/55/26 56/55/26 
f 56/55/26 55/55/26 57/56/26 58/56/26 
f 58/56/26 57/56/26 59/57/26 60/57/26 
f 60/57/26 59/57/26 61/58/26 62/58/26 
f 62/58/26 61/58/26 63/59/26 64/59/26 
f 64/59/26 63/59/26 65/60/26 66/60/26 
f 66/61/26 65/61/26 67/62/26 68/62/26 
f 68/62/26 67/62/26 69/63/26 70/63/26 
f 70/63/26 69/63/26 71/64/26 72/64/26 
f 72/64/26 71/64/26 73/65/26 74/65/26 
f 74/65/26 73/65/26 75/66/26 76/66/26 
f 76/66/26 75/66/26 77/67/26 78/67/26 
f 78/67/26 77/67/26 79/68/26 80/68/26 
f 80/68/26 79/68/26 81/69/26 82/69/26 
f 82/69/26 81/69/26 83/70/26 84/70/26 
f 84/70/26 83/70/26 85/71/26 86/71/26 
f 86/71/26 85/71/26 87/72/26 88/72/26 
f 88/72/26 87/72/26 89/73/26 90/73/26 
f 90/73/26 89/73/26 91/74/26 92/74/26 
f 92/74/26 91/74/26 93/75/26 94/75/26 
f 94/75/26 93/75/26 95/76/26 96/76/26 
f 96/76/26 95/76/26 97/77/26 98/77/26 
f 98/77/26 97/77/26 99/78/26 100/78/26 
f 100/78/26 99/78/26 52/53/26 51/53/26 
f 101/79/27 102/79/27 103/80/27 104/80/27 
f 105/81/27 106/81/27 102/79/27 101/79/27 
f 107/82/27 108/82/27 106/81/27 105/81/27 
f 109/83/27 110/83/27 108/82/27 107/82/27 
f 111/84/27 112/84/27 110/83/27 109/83/27 
f 113/85/27 114/85/27 112/84/27 111/84/27 
f 115/86/27 116/86/27 114/85/27 113/85/27 
f 117/87/27 118/87/27 116/88/27 115/88/27 
f 119/89/27 120/89/27 118/87/27 117/87/27 
f 121/90/27 122/90/27 120/89/27 119/89/27 
f 123/91/27 124/91/27 122/90/27 121/90/27 
f 125/92/27 126/92/27 124/91/27 123/91/27 
f 127/93/27 128/93/27 126/92/27 125/92/27 
f 129/94/27 130/94/27 128/93/27 127/93/27 
f 131/95/27 132/95/27 130/94/27 129/94/27 
f 133/96/27 134/96/27 132/95/27 131/95/27 
f 135/97/27 136/97/27 134/96/27 133/96/27 
f 137/98/27 138/98/27 136/97/27 135/97/27 
f 139/99/27 140/99/27 138/98/27 137/98/27 
f 141/100/27 142/100/27 140/99/27 139/99/27 
f 143/101/27 144/101/27 142/100/27 141/100/27 
f 145/102/27 146/102/27 144/101/27 143/101/27 
f 147/103/27 148/103/27 146/102/27 145/102/27 
f 149/104/27 150/104/27 148/103/27 147/103/27 
f 104/80/27 103/80/27 150/104/27 149/104/27 
s 1
f 151/18/20 152/19/20 153/14/20 154/13/20 
f 155/11/18 156/12/18 157/10/18 158/9/18 
f 159/7/16 160/8/16 161/6/16 162/5/16 
s 2
f 158/9/17 157/10/17 160/8/17 159/7/17 
f 154/13/19 153/14/19 156/12/19 155/11/19 
f 163/17/21 164/20/21 152/19/21 151/18/21 
s 1
f 165/21/22 166/22/22 164/20/22 163/17/22 
s 2
f 167/23/23 168/24/23 166/22/23 165/21/23 
s 1
f 169/25/24 170/26/24 168/24/24 167/23/24 
s 2
f 171/27/25 172/28/25 170/26/25 169/25/25 
s 1
f 173/29/2 174/30/2 172/28/2 171/27/2 
s 2
f 175/31/1 176/32/1 174/30/1 173/29/1 
s 1
f 177/33/3 178/34/3 176/32/3 175/31/3 
s 2
f 179/35/4 180/36/4 178/34/4 177/33/4 
s 1
f 181/37/5 182/38/5 180/36/5 179/35/5 
s 2
f 183/39/6 184/40/6 182/38/6 181/37/6 
s 1
f 185/41/7 186/42/7 184/40/7 183/39/7 
s 2
f 187/43/8 188/44/8 186/42/8 185/41/8 
s 1
f 189/45/9 190/46/9 188/44/9 187/43/9 
s 2
f 191/47/10 192/48/10 190/46/10 189/45/10 
s 1
f 193/49/11 194/50/11 192/48/11 191/47/11 
f 195/1/14 196/4/14 197/3/14 198/2/14 
s 2
f 199/51/12 200/52/12 194/50/12 193/49/12 
s 4
f 198/2/13 197/3/13 200/52/13 199/51/13 
s 2
f 162/5/15 161/6/15 196/4/15 195/1/15 
s off
f 104/80/28 197/3/28 196/4/28 101/79/28 
f 54/54/29 195/1/29 198/2/29 51/53/29 
f 101/79/30 196/4/30 161/6/30 105/81/30 
f 56/55/31 162/5/31 195/1/31 54/54/31 
f 105/81/32 161/6/32 160/8/32 107/82/32 
f 58/56/33 159/7/33 162/5/33 56/55/33 
f 107/82/34 160/8/34 157/10/34 109/83/34 
f 60/57/35 158/9/35 159/7/35 58/56/35 
f 109/83/36 157/10/36 156/12/36 111/84/36 
f 62/58/37 155/11/37 158/9/37 60/57/37 
f 111/84/38 156/12/38 153/14/38 113/85/38 
f 64/59/39 154/13/39 155/11/39 62/58/39 
f 113/85/40 153/14/40 152/19/40 115/88/40 
f 66/61/41 151/18/41 154/13/41 64/59/41 
f 115/88/42 152/19/42 164/20/42 117/87/42 
f 68/62/43 163/17/43 151/18/43 66/61/43 
f 117/87/44 164/20/44 166/22/44 119/89/44 
f 70/63/45 165/21/45 163/17/45 68/62/45 
f 119/89/46 166/22/46 168/24/46 121/90/46 
f 72/64/47 167/23/47 165/21/47 70/63/47 
f 121/90/48 168/24/48 170/26/48 123/91/48 
f 74/65/49 169/25/49 167/23/49 72/64/49 
f 123/91/50 170/26/50 172/28/50 125/92/50 
f 76/66/51 171/27/51 169/25/51 74/65/51 
f 125/92/52 172/28/52 174/30/52 127/93/52 
f 78/67/53 173/29/53 171/27/53 76/66/53 
f 127/93/54 174/30/54 176/32/54 129/94/54 
f 80/68/55 175/31/55 173/29/55 78/67/55 
f 129/94/56 176/32/56 178/34/56 131/95/56 
f 82/69/57 177/33/57 175/31/57 80/68/57 
f 131/95/58 178/34/58 180/36/58 133/96/58 
f 84/70/59 179/35/59 177/33/59 82/69/59 
f 133/96/60 180/36/60 182/38/60 135/97/60 
f 86/71/61 181/37/61 179/35/61 84/70/61 
f 135/97/62 182/38/62 184/40/62 137/98/62 
f 88/72/63 183/39/63 181/37/63 86/71/63 
f 137/98/64 184/40/64 186/42/64 139/99/64 
f 90/73/65 185/41/65 183/39/65 88/72/65 
f 139/99/66 186/42/66 188/44/66 141/100/66 
f 92/74/67 187/43/67 185/41/67 90/73/67 
f 141/100/68 188/44/68 190/46/68 143/101/68 
f 94/75/69 189/45/69 187/43/69 92/74/69 
f 143/101/70 190/46/70 192/48/70 145/102/70 
f 96/76/71 191/47/71 189/45/71 94/75/71 
f 145/102/72 192/48/72 194/50/72 147/103/72 
f 98/77/73 193/49/73 191/47/73 96/76/73 
f 147/103/74 194/50/74 200/52/74 149/104/74 
f 100/78/75 199/51/75 193/49/75 98/77/75 
f 149/104/76 200/52/76 197/3/76 104/80/76 
f 51/53/77 198/2/77 199/51/77 100/78/77 
f 1/1/78 53/54/78 52/53/78 2/2/78 
f 5/5/79 55/55/79 53/54/79 1/1/79 
f 7/7/80 57/56/80 55/55/80 5/5/80 
f 9/9/81 59/57/81 57/56/81 7/7/81 
f 11/11/82 61/58/82 59/57/82 9/9/82 
f 13/13/83 63/59/83 61/58/83 11/11/83 
f 15/15/84 65/60/84 63/59/84 13/13/84 
f 17/17/85 67/62/85 65/61/85 15/18/85 
f 19/21/86 69/63/86 67/62/86 17/17/86 
f 21/23/87 71/64/87 69/63/87 19/21/87 
f 23/25/88 73/65/88 71/64/88 21/23/88 
f 25/27/89 75/66/89 73/65/89 23/25/89 
f 27/29/90 77/67/90 75/66/90 25/27/90 
f 29/31/91 79/68/91 77/67/91 27/29/91 
f 31/33/92 81/69/92 79/68/92 29/31/92 
f 33/35/93 83/70/93 81/69/93 31/33/93 
f 35/37/94 85/71/94 83/70/94 33/35/94 
f 37/39/95 87/72/95 85/71/95 35/37/95 
f 39/41/96 89/73/96 87/72/96 37/39/96 
f 41/43/97 91/74/97 89/73/97 39/41/97 
f 43/45/98 93/75/98 91/74/98 41/43/98 
f 45/47/99 95/76/99 93/75/99 43/45/99 
f 47/49/100 97/77/100 95/76/100 45/47/100 
f 49/51/101 99/78/101 97/77/101 47/49/101 
f 2/2/102 52/53/102 99/78/102 49/51/102 
f 3/3/103 103/80/103 102/79/103 4/4/103 
f 4/4/104 102/79/104 106/81/104 6/6/104 
f 6/6/105 106/81/105 108/82/105 8/8/105 
f 8/8/106 108/82/106 110/83/106 10/10/106 
f 10/10/107 110/83/107 112/84/107 12/12/107 
f 12/12/108 112/84/108 114/85/108 14/14/108 
f 14/14/109 114/85/109 116/86/109 16/16/109 
f 16/19/110 116/88/110 118/87/110 18/20/110 
f 18/20/111 118/87/111 120/89/111 20/22/111 
f 20/22/112 120/89/112 122/90/112 22/24/112 
f 22/24/113 122/90/113 124/91/113 24/26/113 
f 24/26/114 124/91/114 126/92/114 26/28/114 
f 26/28/115 126/92/115 128/93/115 28/30/115 
f 28/30/116 128/93/116 130/94/116 30/32/116 
f 30/32/117 130/94/117 132/95/117 32/34/117 
f 32/34/118 132/95/118 134/96/118 34/36/118 
f 34/36/119 134/96/119 136/97/119 36/38/119 
f 36/38/120 136/97/120 138/98/120 38/40/120 
f 38/40/121 138/98/121 140/99/121 40/42/121 
f 40/42/122 140/99/122 142/100/122 42/44/122 
f 42/44/123 142/100/123 144/101/123 44/46/123 
f 44/46/124 144/101/124 146/102/124 46/48/124 
f 46/48/125 146/102/125 148/103/125 48/50/125 
f 48/50/126 148/103/126 150/104/126 50/52/126 
f 50/52/127 150/104/127 103/80/127 3/3/127 
# 200 polygons

