# 3ds Max Wavefront OBJ Exporter v0.97b - (c)2007 guruware
# File Created: 02.09.2012 17:53:10

mtllib Cyl_01c.mtl

#
# object Cylinder001
#

v  19.0666 1.6732 -4.8955
v  19.6850 1.6732 -0.0000
v  19.6850 0.2953 -0.0000
v  19.0666 0.2953 -4.8955
v  17.2501 1.6732 -9.4833
v  17.2501 0.2953 -9.4833
v  14.3498 1.6732 -13.4753
v  14.3498 0.2953 -13.4753
v  10.5478 1.6732 -16.6206
v  10.5478 0.2953 -16.6206
v  6.0830 1.6732 -18.7216
v  6.0830 0.2953 -18.7216
v  1.2360 1.6732 -19.6462
v  1.2360 0.2953 -19.6462
v  -3.6886 1.6732 -19.3364
v  -3.6886 0.2953 -19.3364
v  -8.3815 1.6732 -17.8116
v  -8.3815 0.2953 -17.8116
v  -12.5477 1.6732 -15.1676
v  -12.5477 0.2953 -15.1676
v  -15.9255 1.6732 -11.5706
v  -15.9255 0.2953 -11.5706
v  -18.3027 1.6732 -7.2465
v  -18.3027 0.2953 -7.2465
v  -19.5298 1.6732 -2.4672
v  -19.5298 0.2953 -2.4672
v  -19.5298 1.6732 2.4672
v  -19.5298 0.2953 2.4672
v  17.2501 1.6732 9.4833
v  14.3498 1.6732 13.4753
v  14.3498 0.2953 13.4753
v  17.2501 0.2953 9.4833
v  19.0666 1.6732 4.8954
v  19.0666 0.2953 4.8954
v  18.0118 1.9685 0.0000
v  19.3898 1.9685 0.0000
v  18.7806 1.9685 -4.8220
v  17.4459 1.9685 -4.4794
v  16.9914 1.9685 -9.3411
v  15.7839 1.9685 -8.6773
v  14.1345 1.9685 -13.2732
v  13.1300 1.9685 -12.3299
v  10.3896 1.9685 -16.3713
v  9.6512 1.9685 -15.2079
v  5.9918 1.9685 -18.4408
v  5.5660 1.9685 -17.1303
v  1.2175 1.9685 -19.3515
v  1.1310 1.9685 -17.9763
v  -3.6333 1.9685 -19.0463
v  -3.3751 1.9685 -17.6928
v  -8.2558 1.9685 -17.5444
v  -7.6691 1.9685 -16.2976
v  -12.3595 1.9685 -14.9401
v  -11.4812 1.9685 -13.8783
v  -15.6867 1.9685 -11.3970
v  -14.5719 1.9685 -10.5871
v  -18.0282 1.9685 -7.1378
v  -16.7470 1.9685 -6.6306
v  -19.2369 1.9685 -2.4302
v  -17.8698 1.9685 -2.2575
v  -19.2369 1.9685 2.4302
v  -17.8698 1.9685 2.2575
v  13.1301 1.9685 12.3299
v  14.1345 1.9685 13.2732
v  16.9914 1.9685 9.3411
v  15.7839 1.9685 8.6772
v  18.7806 1.9685 4.8220
v  17.4459 1.9685 4.4793
v  17.4459 0.0000 -4.4794
v  18.7806 0.0000 -4.8220
v  19.3898 0.0000 0.0000
v  18.0118 0.0000 0.0000
v  15.7839 0.0000 -8.6773
v  16.9914 0.0000 -9.3411
v  13.1300 0.0000 -12.3299
v  14.1345 0.0000 -13.2732
v  9.6512 0.0000 -15.2079
v  10.3896 0.0000 -16.3713
v  5.5660 0.0000 -17.1303
v  5.9918 0.0000 -18.4408
v  1.1310 0.0000 -17.9763
v  1.2175 0.0000 -19.3515
v  -3.3751 0.0000 -17.6928
v  -3.6333 0.0000 -19.0463
v  -7.6691 0.0000 -16.2976
v  -8.2558 0.0000 -17.5444
v  -11.4812 0.0000 -13.8783
v  -12.3595 0.0000 -14.9401
v  -14.5719 0.0000 -10.5871
v  -15.6867 0.0000 -11.3970
v  -16.7470 0.0000 -6.6306
v  -18.0282 0.0000 -7.1378
v  -17.8698 0.0000 -2.2575
v  -19.2369 0.0000 -2.4302
v  -17.8698 0.0000 2.2575
v  -19.2369 0.0000 2.4302
v  15.7839 0.0000 8.6772
v  16.9914 0.0000 9.3411
v  14.1345 0.0000 13.2732
v  13.1301 0.0000 12.3299
v  17.4459 0.0000 4.4793
v  18.7806 0.0000 4.8220
v  -3.3197 1.6732 -17.4027
v  -3.3197 0.2953 -17.4027
v  1.1124 0.2953 -17.6816
v  1.1124 1.6732 -17.6816
v  5.4747 1.6732 -16.8494
v  5.4747 0.2953 -16.8494
v  9.4930 0.2953 -14.9586
v  9.4930 1.6732 -14.9586
v  12.9148 1.6732 -12.1278
v  12.9148 0.2953 -12.1278
v  15.5251 0.2953 -8.5350
v  15.5251 1.6732 -8.5350
v  -7.5433 1.6732 -16.0304
v  -7.5433 0.2953 -16.0304
v  -11.2929 1.6732 -13.6508
v  -11.2929 0.2953 -13.6508
v  -14.3330 1.6732 -10.4135
v  -14.3330 0.2953 -10.4135
v  -16.4724 1.6732 -6.5219
v  -16.4724 0.2953 -6.5219
v  -17.5768 1.6732 -2.2205
v  -17.5768 0.2953 -2.2205
v  -17.5768 1.6732 2.2205
v  -17.5768 0.2953 2.2205
v  15.5251 1.6732 8.5350
v  15.5251 0.2953 8.5350
v  12.9148 0.2953 12.1278
v  12.9148 1.6732 12.1278
v  17.1599 1.6732 -4.4059
v  17.1599 0.2953 -4.4059
v  17.7165 0.2953 0.0000
v  17.7165 1.6732 0.0000
v  17.1599 1.6732 4.4059
v  17.1599 0.2953 4.4059
# 136 vertices

vn 0.9686 0.0000 -0.2487
vn 1.0000 0.0000 -0.0000
vn 0.8763 0.0000 -0.4818
vn 0.7290 0.0000 -0.6845
vn 0.5358 0.0000 -0.8443
vn 0.3090 0.0000 -0.9511
vn 0.0628 0.0000 -0.9980
vn -0.1874 0.0000 -0.9823
vn -0.4258 0.0000 -0.9048
vn -0.6374 0.0000 -0.7705
vn -0.8090 0.0000 -0.5878
vn -0.9298 0.0000 -0.3681
vn -0.9921 0.0000 -0.1253
vn -1.0000 0.0000 0.0000
vn 0.8763 0.0000 0.4818
vn 0.8090 0.0000 0.5878
vn 0.9686 0.0000 0.2487
vn 0.0000 1.0000 -0.0000
vn 0.0000 -1.0000 -0.0000
vn 0.0628 0.0000 0.9980
vn -0.4258 0.0000 0.9048
vn -0.8090 0.0000 0.5878
vn -0.6374 0.0000 0.7705
vn -0.1874 0.0000 0.9823
vn 0.3090 0.0000 0.9511
vn 0.5358 0.0000 0.8443
vn 0.7290 0.0000 0.6845
vn -0.9921 0.0000 0.1253
vn -0.9298 0.0000 0.3681
vn -0.7043 -0.7043 0.0890
vn -0.7043 0.7043 0.0890
vn -0.6600 -0.7043 0.2613
vn -0.6600 0.7043 0.2613
vn -0.5743 -0.7043 0.4173
vn -0.5743 0.7043 0.4173
vn -0.4525 -0.7043 0.5470
vn -0.4525 0.7043 0.5470
vn -0.3023 -0.7043 0.6423
vn -0.3023 0.7043 0.6423
vn -0.1330 -0.7043 0.6973
vn -0.1330 0.7043 0.6973
vn 0.0446 -0.7043 0.7085
vn 0.0446 0.7043 0.7085
vn 0.2194 -0.7043 0.6752
vn 0.2194 0.7043 0.6752
vn 0.3804 -0.7043 0.5994
vn 0.3804 0.7043 0.5994
vn 0.5175 -0.7043 0.4860
vn 0.5175 0.7043 0.4860
vn 0.6221 -0.7043 0.3420
vn 0.6221 0.7043 0.3420
vn 0.6876 -0.7043 0.1765
vn 0.6876 0.7043 0.1765
vn 0.7099 -0.7043 -0.0000
vn 0.7099 0.7043 -0.0000
vn -0.5743 -0.7043 -0.4173
vn -0.5743 0.7043 -0.4173
vn -0.6600 -0.7043 -0.2613
vn -0.6600 0.7043 -0.2613
vn -0.7043 -0.7043 -0.0890
vn -0.7043 0.7043 -0.0890
vn 0.7043 0.7043 -0.0890
vn 0.6600 0.7043 -0.2613
vn 0.5743 0.7043 -0.4173
vn 0.4525 0.7043 -0.5470
vn 0.3023 0.7043 -0.6423
vn 0.1330 0.7043 -0.6973
vn -0.0446 0.7043 -0.7085
vn -0.2194 0.7043 -0.6752
vn -0.3804 0.7043 -0.5994
vn -0.5175 0.7043 -0.4860
vn -0.6221 0.7043 -0.3420
vn -0.6876 0.7043 -0.1765
vn -0.7099 0.7043 0.0000
vn 0.5743 0.7043 0.4173
vn 0.6600 0.7043 0.2613
vn 0.7043 0.7043 0.0890
vn 0.7043 -0.7043 -0.0890
vn 0.6600 -0.7043 -0.2613
vn 0.5743 -0.7043 -0.4173
vn 0.4525 -0.7043 -0.5470
vn 0.3023 -0.7043 -0.6423
vn 0.1330 -0.7043 -0.6973
vn -0.0446 -0.7043 -0.7085
vn -0.2194 -0.7043 -0.6752
vn -0.3804 -0.7043 -0.5994
vn -0.5175 -0.7043 -0.4860
vn -0.6221 -0.7043 -0.3420
vn -0.6876 -0.7043 -0.1765
vn -0.7099 -0.7043 0.0000
vn 0.5743 -0.7043 0.4173
vn 0.6600 -0.7043 0.2613
vn 0.7043 -0.7043 0.0890
vn 0.1253 -0.0000 0.9921
vn 0.1253 0.0000 0.9921
vn -0.6845 -0.0000 0.7290
vn -0.6845 0.0000 0.7290
# 97 vertex normals

vt 0.7900 0.8500 1.0000
vt 0.7500 0.8500 1.0000
vt 0.7500 0.1500 1.0000
vt 0.7900 0.1500 1.0000
vt 0.8300 0.8500 1.0000
vt 0.8300 0.1500 1.0000
vt 0.8700 0.8500 1.0000
vt 0.8700 0.1500 1.0000
vt 0.9100 0.8500 1.0000
vt 0.9100 0.1500 1.0000
vt 0.9500 0.8500 1.0000
vt 0.9500 0.1500 1.0000
vt 0.9900 0.8500 1.0000
vt 0.9900 0.1500 1.0000
vt 1.0300 0.8500 1.0000
vt 1.0300 0.1500 1.0000
vt 0.0700 0.8500 1.0000
vt 0.0300 0.8500 1.0000
vt 0.0300 0.1500 1.0000
vt 0.0700 0.1500 1.0000
vt 0.1100 0.8500 1.0000
vt 0.1100 0.1500 1.0000
vt 0.1500 0.8500 1.0000
vt 0.1500 0.1500 1.0000
vt 0.1900 0.8500 1.0000
vt 0.1900 0.1500 1.0000
vt 0.2300 0.8500 1.0000
vt 0.2300 0.1500 1.0000
vt 0.2700 0.8500 1.0000
vt 0.2700 0.1500 1.0000
vt 0.6700 0.8500 1.0000
vt 0.6300 0.8500 1.0000
vt 0.6300 0.1500 1.0000
vt 0.6700 0.1500 1.0000
vt 0.7100 0.8500 1.0000
vt 0.7100 0.1500 1.0000
vt 0.7500 1.0000 1.0000
vt 0.7900 1.0000 1.0000
vt 0.8300 1.0000 1.0000
vt 0.8700 1.0000 1.0000
vt 0.9100 1.0000 1.0000
vt 0.9500 1.0000 1.0000
vt 0.9900 1.0000 1.0000
vt 1.0300 1.0000 1.0000
vt 0.0300 1.0000 1.0000
vt 0.0700 1.0000 1.0000
vt 0.1100 1.0000 1.0000
vt 0.1500 1.0000 1.0000
vt 0.1900 1.0000 1.0000
vt 0.2300 1.0000 1.0000
vt 0.2700 1.0000 1.0000
vt 0.6300 1.0000 1.0000
vt 0.6700 1.0000 1.0000
vt 0.7100 1.0000 1.0000
vt 0.7900 0.0000 1.0000
vt 0.7500 0.0000 1.0000
vt 0.8300 0.0000 1.0000
vt 0.8700 0.0000 1.0000
vt 0.9100 0.0000 1.0000
vt 0.9500 0.0000 1.0000
vt 0.9900 0.0000 1.0000
vt 1.0300 0.0000 1.0000
vt 0.0700 0.0000 1.0000
vt 0.0300 0.0000 1.0000
vt 0.1100 0.0000 1.0000
vt 0.1500 0.0000 1.0000
vt 0.1900 0.0000 1.0000
vt 0.2300 0.0000 1.0000
vt 0.2700 0.0000 1.0000
vt 0.6700 0.0000 1.0000
vt 0.6300 0.0000 1.0000
vt 0.7100 0.0000 1.0000
# 72 texture coords

g Cylinder001
usemtl wire_026177148
s 8
f 1/1/1 2/2/2 3/3/2 4/4/1 
f 5/5/3 1/1/1 4/4/1 6/6/3 
f 7/7/4 5/5/3 6/6/3 8/8/4 
f 9/9/5 7/7/4 8/8/4 10/10/5 
f 11/11/6 9/9/5 10/10/5 12/12/6 
f 13/13/7 11/11/6 12/12/6 14/14/7 
f 15/15/8 13/13/7 14/14/7 16/16/8 
f 17/17/9 15/18/8 16/19/8 18/20/9 
f 19/21/10 17/17/9 18/20/9 20/22/10 
f 21/23/11 19/21/10 20/22/10 22/24/11 
f 23/25/12 21/23/11 22/24/11 24/26/12 
f 25/27/13 23/25/12 24/26/12 26/28/13 
f 27/29/14 25/27/13 26/28/13 28/30/14 
f 29/31/15 30/32/16 31/33/16 32/34/15 
f 33/35/17 29/31/15 32/34/15 34/36/17 
f 2/2/2 33/35/17 34/36/17 3/3/2 
s off
f 35/37/18 36/37/18 37/38/18 38/38/18 
f 38/38/18 37/38/18 39/39/18 40/39/18 
f 40/39/18 39/39/18 41/40/18 42/40/18 
f 42/40/18 41/40/18 43/41/18 44/41/18 
f 44/41/18 43/41/18 45/42/18 46/42/18 
f 46/42/18 45/42/18 47/43/18 48/43/18 
f 48/43/18 47/43/18 49/44/18 50/44/18 
f 50/45/18 49/45/18 51/46/18 52/46/18 
f 52/46/18 51/46/18 53/47/18 54/47/18 
f 54/47/18 53/47/18 55/48/18 56/48/18 
f 56/48/18 55/48/18 57/49/18 58/49/18 
f 58/49/18 57/49/18 59/50/18 60/50/18 
f 60/50/18 59/50/18 61/51/18 62/51/18 
f 63/52/18 64/52/18 65/53/18 66/53/18 
f 66/53/18 65/53/18 67/54/18 68/54/18 
f 68/54/18 67/54/18 36/37/18 35/37/18 
f 69/55/19 70/55/19 71/56/19 72/56/19 
f 73/57/19 74/57/19 70/55/19 69/55/19 
f 75/58/19 76/58/19 74/57/19 73/57/19 
f 77/59/19 78/59/19 76/58/19 75/58/19 
f 79/60/19 80/60/19 78/59/19 77/59/19 
f 81/61/19 82/61/19 80/60/19 79/60/19 
f 83/62/19 84/62/19 82/61/19 81/61/19 
f 85/63/19 86/63/19 84/64/19 83/64/19 
f 87/65/19 88/65/19 86/63/19 85/63/19 
f 89/66/19 90/66/19 88/65/19 87/65/19 
f 91/67/19 92/67/19 90/66/19 89/66/19 
f 93/68/19 94/68/19 92/67/19 91/67/19 
f 95/69/19 96/69/19 94/68/19 93/68/19 
f 97/70/19 98/70/19 99/71/19 100/71/19 
f 101/72/19 102/72/19 98/70/19 97/70/19 
f 72/56/19 71/56/19 102/72/19 101/72/19 
s 1
f 103/18/20 104/19/20 105/14/20 106/13/20 
f 107/11/21 108/12/21 109/10/21 110/9/21 
f 111/7/22 112/8/22 113/6/22 114/5/22 
s 2
f 110/9/23 109/10/23 112/8/23 111/7/23 
f 106/13/24 105/14/24 108/12/24 107/11/24 
f 115/17/25 116/20/25 104/19/25 103/18/25 
s 1
f 117/21/26 118/22/26 116/20/26 115/17/26 
s 2
f 119/23/27 120/24/27 118/22/27 117/21/27 
s 1
f 121/25/15 122/26/15 120/24/15 119/23/15 
s 2
f 123/27/17 124/28/17 122/26/17 121/25/17 
s 1
f 125/29/2 126/30/2 124/28/2 123/27/2 
f 127/31/11 128/34/11 129/33/11 130/32/11 
f 131/1/28 132/4/28 133/3/28 134/2/28 
s 2
f 135/35/12 136/36/12 128/34/12 127/31/12 
s 4
f 134/2/13 133/3/13 136/36/13 135/35/13 
s 2
f 114/5/29 113/6/29 132/4/29 131/1/29 
s off
f 72/56/30 133/3/30 132/4/30 69/55/30 
f 38/38/31 131/1/31 134/2/31 35/37/31 
f 69/55/32 132/4/32 113/6/32 73/57/32 
f 40/39/33 114/5/33 131/1/33 38/38/33 
f 73/57/34 113/6/34 112/8/34 75/58/34 
f 42/40/35 111/7/35 114/5/35 40/39/35 
f 75/58/36 112/8/36 109/10/36 77/59/36 
f 44/41/37 110/9/37 111/7/37 42/40/37 
f 77/59/38 109/10/38 108/12/38 79/60/38 
f 46/42/39 107/11/39 110/9/39 44/41/39 
f 79/60/40 108/12/40 105/14/40 81/61/40 
f 48/43/41 106/13/41 107/11/41 46/42/41 
f 81/61/42 105/14/42 104/19/42 83/64/42 
f 50/45/43 103/18/43 106/13/43 48/43/43 
f 83/64/44 104/19/44 116/20/44 85/63/44 
f 52/46/45 115/17/45 103/18/45 50/45/45 
f 85/63/46 116/20/46 118/22/46 87/65/46 
f 54/47/47 117/21/47 115/17/47 52/46/47 
f 87/65/48 118/22/48 120/24/48 89/66/48 
f 56/48/49 119/23/49 117/21/49 54/47/49 
f 89/66/50 120/24/50 122/26/50 91/67/50 
f 58/49/51 121/25/51 119/23/51 56/48/51 
f 91/67/52 122/26/52 124/28/52 93/68/52 
f 60/50/53 123/27/53 121/25/53 58/49/53 
f 93/68/54 124/28/54 126/30/54 95/69/54 
f 62/51/55 125/29/55 123/27/55 60/50/55 
f 100/71/56 129/33/56 128/34/56 97/70/56 
f 66/53/57 127/31/57 130/32/57 63/52/57 
f 97/70/58 128/34/58 136/36/58 101/72/58 
f 68/54/59 135/35/59 127/31/59 66/53/59 
f 101/72/60 136/36/60 133/3/60 72/56/60 
f 35/37/61 134/2/61 135/35/61 68/54/61 
f 1/1/62 37/38/62 36/37/62 2/2/62 
f 5/5/63 39/39/63 37/38/63 1/1/63 
f 7/7/64 41/40/64 39/39/64 5/5/64 
f 9/9/65 43/41/65 41/40/65 7/7/65 
f 11/11/66 45/42/66 43/41/66 9/9/66 
f 13/13/67 47/43/67 45/42/67 11/11/67 
f 15/15/68 49/44/68 47/43/68 13/13/68 
f 17/17/69 51/46/69 49/45/69 15/18/69 
f 19/21/70 53/47/70 51/46/70 17/17/70 
f 21/23/71 55/48/71 53/47/71 19/21/71 
f 23/25/72 57/49/72 55/48/72 21/23/72 
f 25/27/73 59/50/73 57/49/73 23/25/73 
f 27/29/74 61/51/74 59/50/74 25/27/74 
f 29/31/75 65/53/75 64/52/75 30/32/75 
f 33/35/76 67/54/76 65/53/76 29/31/76 
f 2/2/77 36/37/77 67/54/77 33/35/77 
f 3/3/78 71/56/78 70/55/78 4/4/78 
f 4/4/79 70/55/79 74/57/79 6/6/79 
f 6/6/80 74/57/80 76/58/80 8/8/80 
f 8/8/81 76/58/81 78/59/81 10/10/81 
f 10/10/82 78/59/82 80/60/82 12/12/82 
f 12/12/83 80/60/83 82/61/83 14/14/83 
f 14/14/84 82/61/84 84/62/84 16/16/84 
f 16/19/85 84/64/85 86/63/85 18/20/85 
f 18/20/86 86/63/86 88/65/86 20/22/86 
f 20/22/87 88/65/87 90/66/87 22/24/87 
f 22/24/88 90/66/88 92/67/88 24/26/88 
f 24/26/89 92/67/89 94/68/89 26/28/89 
f 26/28/90 94/68/90 96/69/90 28/30/90 
f 31/33/91 99/71/91 98/70/91 32/34/91 
f 32/34/92 98/70/92 102/72/92 34/36/92 
f 34/36/93 102/72/93 71/56/93 3/3/93 
s 2
f 27/17/94 125/29/95 62/47/95 61/48/94 
s 4
f 125/29/95 27/17/95 28/19/95 126/30/95 
s 2
f 28/19/95 96/65/95 95/65/94 126/30/94 
f 64/49/96 63/48/97 130/32/97 30/21/96 
s 4
f 129/33/97 31/20/97 30/21/97 130/32/97 
s 2
f 129/33/96 100/66/96 99/66/97 31/20/97 
# 134 polygons

