# 3ds Max Wavefront OBJ Exporter v0.97b - (c)2007 guruware
# File Created: 02.09.2012 17:52:04

mtllib Cyl_01b.mtl

#
# object Cylinder001
#

v  19.0666 1.6732 -4.8955
v  19.6850 1.6732 -0.0000
v  19.6850 0.2953 -0.0000
v  19.0666 0.2953 -4.8955
v  17.2501 1.6732 -9.4833
v  17.2501 0.2953 -9.4833
v  14.3498 1.6732 -13.4753
v  14.3498 0.2953 -13.4753
v  10.5478 1.6732 -16.6206
v  10.5478 0.2953 -16.6206
v  6.0830 1.6732 -18.7216
v  6.0830 0.2953 -18.7216
v  1.2360 1.6732 -19.6462
v  1.2360 0.2953 -19.6462
v  -3.6886 1.6732 -19.3364
v  -3.6886 0.2953 -19.3364
v  -8.3815 1.6732 -17.8116
v  -8.3815 0.2953 -17.8116
v  -12.5477 1.6732 -15.1676
v  -12.5477 0.2953 -15.1676
v  -15.9255 1.6732 -11.5706
v  -15.9255 0.2953 -11.5706
v  -18.3027 1.6732 -7.2465
v  -18.3027 0.2953 -7.2465
v  -19.5298 1.6732 -2.4672
v  -19.5298 0.2953 -2.4672
v  -19.5298 1.6732 2.4672
v  -19.5298 0.2953 2.4672
v  6.0830 1.6732 18.7216
v  1.2361 1.6732 19.6462
v  1.2361 0.2953 19.6462
v  6.0830 0.2953 18.7216
v  10.5478 1.6732 16.6206
v  10.5478 0.2953 16.6206
v  14.3498 1.6732 13.4753
v  14.3498 0.2953 13.4753
v  17.2501 1.6732 9.4833
v  17.2501 0.2953 9.4833
v  19.0666 1.6732 4.8954
v  19.0666 0.2953 4.8954
v  18.0118 1.9685 0.0000
v  19.3898 1.9685 0.0000
v  18.7806 1.9685 -4.8220
v  17.4459 1.9685 -4.4794
v  16.9914 1.9685 -9.3411
v  15.7839 1.9685 -8.6773
v  14.1345 1.9685 -13.2732
v  13.1300 1.9685 -12.3299
v  10.3896 1.9685 -16.3713
v  9.6512 1.9685 -15.2079
v  5.9918 1.9685 -18.4408
v  5.5660 1.9685 -17.1303
v  1.2175 1.9685 -19.3515
v  1.1310 1.9685 -17.9763
v  -3.6333 1.9685 -19.0463
v  -3.3751 1.9685 -17.6928
v  -8.2558 1.9685 -17.5444
v  -7.6691 1.9685 -16.2976
v  -12.3595 1.9685 -14.9401
v  -11.4812 1.9685 -13.8783
v  -15.6867 1.9685 -11.3970
v  -14.5719 1.9685 -10.5871
v  -18.0282 1.9685 -7.1378
v  -16.7470 1.9685 -6.6306
v  -19.2369 1.9685 -2.4302
v  -17.8698 1.9685 -2.2575
v  -19.2369 1.9685 2.4302
v  -17.8698 1.9685 2.2575
v  1.1310 1.9685 17.9763
v  1.2175 1.9685 19.3515
v  5.9918 1.9685 18.4408
v  5.5660 1.9685 17.1302
v  10.3896 1.9685 16.3713
v  9.6512 1.9685 15.2079
v  14.1345 1.9685 13.2732
v  13.1301 1.9685 12.3299
v  16.9914 1.9685 9.3411
v  15.7839 1.9685 8.6772
v  18.7806 1.9685 4.8220
v  17.4459 1.9685 4.4793
v  17.4459 0.0000 -4.4794
v  18.7806 0.0000 -4.8220
v  19.3898 0.0000 0.0000
v  18.0118 0.0000 0.0000
v  15.7839 0.0000 -8.6773
v  16.9914 0.0000 -9.3411
v  13.1300 0.0000 -12.3299
v  14.1345 0.0000 -13.2732
v  9.6512 0.0000 -15.2079
v  10.3896 0.0000 -16.3713
v  5.5660 0.0000 -17.1303
v  5.9918 0.0000 -18.4408
v  1.1310 0.0000 -17.9763
v  1.2175 0.0000 -19.3515
v  -3.3751 0.0000 -17.6928
v  -3.6333 0.0000 -19.0463
v  -7.6691 0.0000 -16.2976
v  -8.2558 0.0000 -17.5444
v  -11.4812 0.0000 -13.8783
v  -12.3595 0.0000 -14.9401
v  -14.5719 0.0000 -10.5871
v  -15.6867 0.0000 -11.3970
v  -16.7470 0.0000 -6.6306
v  -18.0282 0.0000 -7.1378
v  -17.8698 0.0000 -2.2575
v  -19.2369 0.0000 -2.4302
v  -17.8698 0.0000 2.2575
v  -19.2369 0.0000 2.4302
v  5.5660 0.0000 17.1302
v  5.9918 0.0000 18.4408
v  1.2175 0.0000 19.3515
v  1.1310 0.0000 17.9763
v  9.6512 0.0000 15.2079
v  10.3896 0.0000 16.3713
v  13.1301 0.0000 12.3299
v  14.1345 0.0000 13.2732
v  15.7839 0.0000 8.6772
v  16.9914 0.0000 9.3411
v  17.4459 0.0000 4.4793
v  18.7806 0.0000 4.8220
v  -3.3197 1.6732 -17.4027
v  -3.3197 0.2953 -17.4027
v  1.1124 0.2953 -17.6816
v  1.1124 1.6732 -17.6816
v  5.4747 1.6732 -16.8494
v  5.4747 0.2953 -16.8494
v  9.4930 0.2953 -14.9586
v  9.4930 1.6732 -14.9586
v  12.9148 1.6732 -12.1278
v  12.9148 0.2953 -12.1278
v  15.5251 0.2953 -8.5350
v  15.5251 1.6732 -8.5350
v  -7.5433 1.6732 -16.0304
v  -7.5433 0.2953 -16.0304
v  -11.2929 1.6732 -13.6508
v  -11.2929 0.2953 -13.6508
v  -14.3330 1.6732 -10.4135
v  -14.3330 0.2953 -10.4135
v  -16.4724 1.6732 -6.5219
v  -16.4724 0.2953 -6.5219
v  -17.5768 1.6732 -2.2205
v  -17.5768 0.2953 -2.2205
v  -17.5768 1.6732 2.2205
v  -17.5768 0.2953 2.2205
v  5.4747 1.6732 16.8494
v  5.4747 0.2953 16.8494
v  1.1124 0.2953 17.6816
v  1.1124 1.6732 17.6816
v  9.4930 1.6732 14.9586
v  9.4930 0.2953 14.9586
v  12.9148 1.6732 12.1278
v  12.9148 0.2953 12.1278
v  15.5251 1.6732 8.5350
v  15.5251 0.2953 8.5350
v  17.1599 1.6732 -4.4059
v  17.1599 0.2953 -4.4059
v  17.7165 0.2953 0.0000
v  17.7165 1.6732 0.0000
v  17.1599 1.6732 4.4059
v  17.1599 0.2953 4.4059
# 160 vertices

vn 0.9686 0.0000 -0.2487
vn 1.0000 0.0000 -0.0000
vn 0.8763 0.0000 -0.4818
vn 0.7290 0.0000 -0.6845
vn 0.5358 0.0000 -0.8443
vn 0.3090 0.0000 -0.9511
vn 0.0628 0.0000 -0.9980
vn -0.1874 0.0000 -0.9823
vn -0.4258 0.0000 -0.9048
vn -0.6374 0.0000 -0.7705
vn -0.8090 0.0000 -0.5878
vn -0.9298 0.0000 -0.3681
vn -0.9921 0.0000 -0.1253
vn -1.0000 0.0000 0.0000
vn 0.3090 0.0000 0.9511
vn 0.1874 0.0000 0.9823
vn 0.5358 0.0000 0.8443
vn 0.7290 0.0000 0.6845
vn 0.8763 0.0000 0.4818
vn 0.9686 0.0000 0.2487
vn 0.0000 1.0000 -0.0000
vn 0.0000 -1.0000 -0.0000
vn 0.0628 0.0000 0.9980
vn -0.4258 0.0000 0.9048
vn -0.8090 0.0000 0.5878
vn -0.6374 0.0000 0.7705
vn -0.1874 0.0000 0.9823
vn -0.9921 0.0000 0.1253
vn -0.9298 0.0000 0.3681
vn -0.7043 -0.7043 0.0890
vn -0.7043 0.7043 0.0890
vn -0.6600 -0.7043 0.2613
vn -0.6600 0.7043 0.2613
vn -0.5743 -0.7043 0.4173
vn -0.5743 0.7043 0.4173
vn -0.4525 -0.7043 0.5470
vn -0.4525 0.7043 0.5470
vn -0.3023 -0.7043 0.6423
vn -0.3023 0.7043 0.6423
vn -0.1330 -0.7043 0.6973
vn -0.1330 0.7043 0.6973
vn 0.0446 -0.7043 0.7085
vn 0.0446 0.7043 0.7085
vn 0.2194 -0.7043 0.6752
vn 0.2194 0.7043 0.6752
vn 0.3804 -0.7043 0.5994
vn 0.3804 0.7043 0.5994
vn 0.5175 -0.7043 0.4860
vn 0.5175 0.7043 0.4860
vn 0.6221 -0.7043 0.3420
vn 0.6221 0.7043 0.3420
vn 0.6876 -0.7043 0.1765
vn 0.6876 0.7043 0.1765
vn 0.7099 -0.7043 -0.0000
vn 0.7099 0.7043 -0.0000
vn -0.1330 -0.7043 -0.6973
vn -0.1330 0.7043 -0.6973
vn -0.3023 -0.7043 -0.6423
vn -0.3023 0.7043 -0.6423
vn -0.4525 -0.7043 -0.5470
vn -0.4525 0.7043 -0.5470
vn -0.5743 -0.7043 -0.4173
vn -0.5743 0.7043 -0.4173
vn -0.6600 -0.7043 -0.2613
vn -0.6600 0.7043 -0.2613
vn -0.7043 -0.7043 -0.0890
vn -0.7043 0.7043 -0.0890
vn 0.7043 0.7043 -0.0890
vn 0.6600 0.7043 -0.2613
vn 0.5743 0.7043 -0.4173
vn 0.4525 0.7043 -0.5470
vn 0.3023 0.7043 -0.6423
vn 0.1330 0.7043 -0.6973
vn -0.0446 0.7043 -0.7085
vn -0.2194 0.7043 -0.6752
vn -0.3804 0.7043 -0.5994
vn -0.5175 0.7043 -0.4860
vn -0.6221 0.7043 -0.3420
vn -0.6876 0.7043 -0.1765
vn -0.7099 0.7043 0.0000
vn 0.1330 0.7043 0.6973
vn 0.3023 0.7043 0.6423
vn 0.4525 0.7043 0.5470
vn 0.5743 0.7043 0.4173
vn 0.6600 0.7043 0.2613
vn 0.7043 0.7043 0.0890
vn 0.7043 -0.7043 -0.0890
vn 0.6600 -0.7043 -0.2613
vn 0.5743 -0.7043 -0.4173
vn 0.4525 -0.7043 -0.5470
vn 0.3023 -0.7043 -0.6423
vn 0.1330 -0.7043 -0.6973
vn -0.0446 -0.7043 -0.7085
vn -0.2194 -0.7043 -0.6752
vn -0.3804 -0.7043 -0.5994
vn -0.5175 -0.7043 -0.4860
vn -0.6221 -0.7043 -0.3420
vn -0.6876 -0.7043 -0.1765
vn -0.7099 -0.7043 0.0000
vn 0.1330 -0.7043 0.6973
vn 0.3023 -0.7043 0.6423
vn 0.4525 -0.7043 0.5470
vn 0.5743 -0.7043 0.4173
vn 0.6600 -0.7043 0.2613
vn 0.7043 -0.7043 0.0890
vn 0.1253 -0.0000 0.9921
vn 0.1253 0.0000 0.9921
vn -0.9980 0.0000 0.0628
vn -0.9980 -0.0000 0.0628
# 109 vertex normals

vt 0.7900 0.8500 1.0000
vt 0.7500 0.8500 1.0000
vt 0.7500 0.1500 1.0000
vt 0.7900 0.1500 1.0000
vt 0.8300 0.8500 1.0000
vt 0.8300 0.1500 1.0000
vt 0.8700 0.8500 1.0000
vt 0.8700 0.1500 1.0000
vt 0.9100 0.8500 1.0000
vt 0.9100 0.1500 1.0000
vt 0.9500 0.8500 1.0000
vt 0.9500 0.1500 1.0000
vt 0.9900 0.8500 1.0000
vt 0.9900 0.1500 1.0000
vt 1.0300 0.8500 1.0000
vt 1.0300 0.1500 1.0000
vt 0.0700 0.8500 1.0000
vt 0.0300 0.8500 1.0000
vt 0.0300 0.1500 1.0000
vt 0.0700 0.1500 1.0000
vt 0.1100 0.8500 1.0000
vt 0.1100 0.1500 1.0000
vt 0.1500 0.8500 1.0000
vt 0.1500 0.1500 1.0000
vt 0.1900 0.8500 1.0000
vt 0.1900 0.1500 1.0000
vt 0.2300 0.8500 1.0000
vt 0.2300 0.1500 1.0000
vt 0.2700 0.8500 1.0000
vt 0.2700 0.1500 1.0000
vt 0.5500 0.8500 1.0000
vt 0.5100 0.8500 1.0000
vt 0.5100 0.1500 1.0000
vt 0.5500 0.1500 1.0000
vt 0.5900 0.8500 1.0000
vt 0.5900 0.1500 1.0000
vt 0.6300 0.8500 1.0000
vt 0.6300 0.1500 1.0000
vt 0.6700 0.8500 1.0000
vt 0.6700 0.1500 1.0000
vt 0.7100 0.8500 1.0000
vt 0.7100 0.1500 1.0000
vt 0.7500 1.0000 1.0000
vt 0.7900 1.0000 1.0000
vt 0.8300 1.0000 1.0000
vt 0.8700 1.0000 1.0000
vt 0.9100 1.0000 1.0000
vt 0.9500 1.0000 1.0000
vt 0.9900 1.0000 1.0000
vt 1.0300 1.0000 1.0000
vt 0.0300 1.0000 1.0000
vt 0.0700 1.0000 1.0000
vt 0.1100 1.0000 1.0000
vt 0.1500 1.0000 1.0000
vt 0.1900 1.0000 1.0000
vt 0.2300 1.0000 1.0000
vt 0.2700 1.0000 1.0000
vt 0.5100 1.0000 1.0000
vt 0.5500 1.0000 1.0000
vt 0.5900 1.0000 1.0000
vt 0.6300 1.0000 1.0000
vt 0.6700 1.0000 1.0000
vt 0.7100 1.0000 1.0000
vt 0.7900 0.0000 1.0000
vt 0.7500 0.0000 1.0000
vt 0.8300 0.0000 1.0000
vt 0.8700 0.0000 1.0000
vt 0.9100 0.0000 1.0000
vt 0.9500 0.0000 1.0000
vt 0.9900 0.0000 1.0000
vt 1.0300 0.0000 1.0000
vt 0.0700 0.0000 1.0000
vt 0.0300 0.0000 1.0000
vt 0.1100 0.0000 1.0000
vt 0.1500 0.0000 1.0000
vt 0.1900 0.0000 1.0000
vt 0.2300 0.0000 1.0000
vt 0.2700 0.0000 1.0000
vt 0.5500 0.0000 1.0000
vt 0.5100 0.0000 1.0000
vt 0.5900 0.0000 1.0000
vt 0.6300 0.0000 1.0000
vt 0.6700 0.0000 1.0000
vt 0.7100 0.0000 1.0000
# 84 texture coords

g Cylinder001
usemtl wire_026177148
s 8
f 1/1/1 2/2/2 3/3/2 4/4/1 
f 5/5/3 1/1/1 4/4/1 6/6/3 
f 7/7/4 5/5/3 6/6/3 8/8/4 
f 9/9/5 7/7/4 8/8/4 10/10/5 
f 11/11/6 9/9/5 10/10/5 12/12/6 
f 13/13/7 11/11/6 12/12/6 14/14/7 
f 15/15/8 13/13/7 14/14/7 16/16/8 
f 17/17/9 15/18/8 16/19/8 18/20/9 
f 19/21/10 17/17/9 18/20/9 20/22/10 
f 21/23/11 19/21/10 20/22/10 22/24/11 
f 23/25/12 21/23/11 22/24/11 24/26/12 
f 25/27/13 23/25/12 24/26/12 26/28/13 
f 27/29/14 25/27/13 26/28/13 28/30/14 
f 29/31/15 30/32/16 31/33/16 32/34/15 
f 33/35/17 29/31/15 32/34/15 34/36/17 
f 35/37/18 33/35/17 34/36/17 36/38/18 
f 37/39/19 35/37/18 36/38/18 38/40/19 
f 39/41/20 37/39/19 38/40/19 40/42/20 
f 2/2/2 39/41/20 40/42/20 3/3/2 
s off
f 41/43/21 42/43/21 43/44/21 44/44/21 
f 44/44/21 43/44/21 45/45/21 46/45/21 
f 46/45/21 45/45/21 47/46/21 48/46/21 
f 48/46/21 47/46/21 49/47/21 50/47/21 
f 50/47/21 49/47/21 51/48/21 52/48/21 
f 52/48/21 51/48/21 53/49/21 54/49/21 
f 54/49/21 53/49/21 55/50/21 56/50/21 
f 56/51/21 55/51/21 57/52/21 58/52/21 
f 58/52/21 57/52/21 59/53/21 60/53/21 
f 60/53/21 59/53/21 61/54/21 62/54/21 
f 62/54/21 61/54/21 63/55/21 64/55/21 
f 64/55/21 63/55/21 65/56/21 66/56/21 
f 66/56/21 65/56/21 67/57/21 68/57/21 
f 69/58/21 70/58/21 71/59/21 72/59/21 
f 72/59/21 71/59/21 73/60/21 74/60/21 
f 74/60/21 73/60/21 75/61/21 76/61/21 
f 76/61/21 75/61/21 77/62/21 78/62/21 
f 78/62/21 77/62/21 79/63/21 80/63/21 
f 80/63/21 79/63/21 42/43/21 41/43/21 
f 81/64/22 82/64/22 83/65/22 84/65/22 
f 85/66/22 86/66/22 82/64/22 81/64/22 
f 87/67/22 88/67/22 86/66/22 85/66/22 
f 89/68/22 90/68/22 88/67/22 87/67/22 
f 91/69/22 92/69/22 90/68/22 89/68/22 
f 93/70/22 94/70/22 92/69/22 91/69/22 
f 95/71/22 96/71/22 94/70/22 93/70/22 
f 97/72/22 98/72/22 96/73/22 95/73/22 
f 99/74/22 100/74/22 98/72/22 97/72/22 
f 101/75/22 102/75/22 100/74/22 99/74/22 
f 103/76/22 104/76/22 102/75/22 101/75/22 
f 105/77/22 106/77/22 104/76/22 103/76/22 
f 107/78/22 108/78/22 106/77/22 105/77/22 
f 109/79/22 110/79/22 111/80/22 112/80/22 
f 113/81/22 114/81/22 110/79/22 109/79/22 
f 115/82/22 116/82/22 114/81/22 113/81/22 
f 117/83/22 118/83/22 116/82/22 115/82/22 
f 119/84/22 120/84/22 118/83/22 117/83/22 
f 84/65/22 83/65/22 120/84/22 119/84/22 
s 1
f 121/18/23 122/19/23 123/14/23 124/13/23 
f 125/11/24 126/12/24 127/10/24 128/9/24 
f 129/7/25 130/8/25 131/6/25 132/5/25 
s 2
f 128/9/26 127/10/26 130/8/26 129/7/26 
f 124/13/27 123/14/27 126/12/27 125/11/27 
f 133/17/15 134/20/15 122/19/15 121/18/15 
s 1
f 135/21/17 136/22/17 134/20/17 133/17/17 
s 2
f 137/23/18 138/24/18 136/22/18 135/21/18 
s 1
f 139/25/19 140/26/19 138/24/19 137/23/19 
s 2
f 141/27/20 142/28/20 140/26/20 139/25/20 
s 1
f 143/29/2 144/30/2 142/28/2 141/27/2 
s 2
f 145/31/8 146/34/8 147/33/8 148/32/8 
s 1
f 149/35/9 150/36/9 146/34/9 145/31/9 
s 2
f 151/37/10 152/38/10 150/36/10 149/35/10 
s 1
f 153/39/11 154/40/11 152/38/11 151/37/11 
f 155/1/28 156/4/28 157/3/28 158/2/28 
s 2
f 159/41/12 160/42/12 154/40/12 153/39/12 
s 4
f 158/2/13 157/3/13 160/42/13 159/41/13 
s 2
f 132/5/29 131/6/29 156/4/29 155/1/29 
s off
f 84/65/30 157/3/30 156/4/30 81/64/30 
f 44/44/31 155/1/31 158/2/31 41/43/31 
f 81/64/32 156/4/32 131/6/32 85/66/32 
f 46/45/33 132/5/33 155/1/33 44/44/33 
f 85/66/34 131/6/34 130/8/34 87/67/34 
f 48/46/35 129/7/35 132/5/35 46/45/35 
f 87/67/36 130/8/36 127/10/36 89/68/36 
f 50/47/37 128/9/37 129/7/37 48/46/37 
f 89/68/38 127/10/38 126/12/38 91/69/38 
f 52/48/39 125/11/39 128/9/39 50/47/39 
f 91/69/40 126/12/40 123/14/40 93/70/40 
f 54/49/41 124/13/41 125/11/41 52/48/41 
f 93/70/42 123/14/42 122/19/42 95/73/42 
f 56/51/43 121/18/43 124/13/43 54/49/43 
f 95/73/44 122/19/44 134/20/44 97/72/44 
f 58/52/45 133/17/45 121/18/45 56/51/45 
f 97/72/46 134/20/46 136/22/46 99/74/46 
f 60/53/47 135/21/47 133/17/47 58/52/47 
f 99/74/48 136/22/48 138/24/48 101/75/48 
f 62/54/49 137/23/49 135/21/49 60/53/49 
f 101/75/50 138/24/50 140/26/50 103/76/50 
f 64/55/51 139/25/51 137/23/51 62/54/51 
f 103/76/52 140/26/52 142/28/52 105/77/52 
f 66/56/53 141/27/53 139/25/53 64/55/53 
f 105/77/54 142/28/54 144/30/54 107/78/54 
f 68/57/55 143/29/55 141/27/55 66/56/55 
f 112/80/56 147/33/56 146/34/56 109/79/56 
f 72/59/57 145/31/57 148/32/57 69/58/57 
f 109/79/58 146/34/58 150/36/58 113/81/58 
f 74/60/59 149/35/59 145/31/59 72/59/59 
f 113/81/60 150/36/60 152/38/60 115/82/60 
f 76/61/61 151/37/61 149/35/61 74/60/61 
f 115/82/62 152/38/62 154/40/62 117/83/62 
f 78/62/63 153/39/63 151/37/63 76/61/63 
f 117/83/64 154/40/64 160/42/64 119/84/64 
f 80/63/65 159/41/65 153/39/65 78/62/65 
f 119/84/66 160/42/66 157/3/66 84/65/66 
f 41/43/67 158/2/67 159/41/67 80/63/67 
f 1/1/68 43/44/68 42/43/68 2/2/68 
f 5/5/69 45/45/69 43/44/69 1/1/69 
f 7/7/70 47/46/70 45/45/70 5/5/70 
f 9/9/71 49/47/71 47/46/71 7/7/71 
f 11/11/72 51/48/72 49/47/72 9/9/72 
f 13/13/73 53/49/73 51/48/73 11/11/73 
f 15/15/74 55/50/74 53/49/74 13/13/74 
f 17/17/75 57/52/75 55/51/75 15/18/75 
f 19/21/76 59/53/76 57/52/76 17/17/76 
f 21/23/77 61/54/77 59/53/77 19/21/77 
f 23/25/78 63/55/78 61/54/78 21/23/78 
f 25/27/79 65/56/79 63/55/79 23/25/79 
f 27/29/80 67/57/80 65/56/80 25/27/80 
f 29/31/81 71/59/81 70/58/81 30/32/81 
f 33/35/82 73/60/82 71/59/82 29/31/82 
f 35/37/83 75/61/83 73/60/83 33/35/83 
f 37/39/84 77/62/84 75/61/84 35/37/84 
f 39/41/85 79/63/85 77/62/85 37/39/85 
f 2/2/86 42/43/86 79/63/86 39/41/86 
f 3/3/87 83/65/87 82/64/87 4/4/87 
f 4/4/88 82/64/88 86/66/88 6/6/88 
f 6/6/89 86/66/89 88/67/89 8/8/89 
f 8/8/90 88/67/90 90/68/90 10/10/90 
f 10/10/91 90/68/91 92/69/91 12/12/91 
f 12/12/92 92/69/92 94/70/92 14/14/92 
f 14/14/93 94/70/93 96/71/93 16/16/93 
f 16/19/94 96/73/94 98/72/94 18/20/94 
f 18/20/95 98/72/95 100/74/95 20/22/95 
f 20/22/96 100/74/96 102/75/96 22/24/96 
f 22/24/97 102/75/97 104/76/97 24/26/97 
f 24/26/98 104/76/98 106/77/98 26/28/98 
f 26/28/99 106/77/99 108/78/99 28/30/99 
f 31/33/100 111/80/100 110/79/100 32/34/100 
f 32/34/101 110/79/101 114/81/101 34/36/101 
f 34/36/102 114/81/102 116/82/102 36/38/102 
f 36/38/103 116/82/103 118/83/103 38/40/103 
f 38/40/104 118/83/104 120/84/104 40/42/104 
f 40/42/105 120/84/105 83/65/105 3/3/105 
s 2
f 27/17/106 143/29/107 68/53/107 67/54/106 
s 4
f 143/29/107 27/17/107 28/19/107 144/30/107 
s 2
f 28/19/107 108/74/107 107/74/106 144/30/106 
s 1
f 70/55/108 69/54/109 148/32/109 30/21/108 
s 4
f 147/33/108 31/20/108 30/21/108 148/32/108 
s 1
f 147/33/108 112/75/108 111/75/109 31/20/109 
# 158 polygons

