# 3ds Max Wavefront OBJ Exporter v0.97b - (c)2007 guruware
# File Created: 04.09.2012 16:20:14

mtllib Dome_01a.mtl

#
# object Sphere001
#

v  -1.8221 9.3996 -0.5126
v  -1.8221 9.2731 -2.7410
v  -2.5107 9.2731 -2.6320
v  -3.1319 9.2731 -2.3154
v  -3.6249 9.2731 -1.8225
v  -3.9414 9.2731 -1.2012
v  -4.0505 9.2731 -0.5126
v  -3.9414 9.2731 0.1760
v  -3.6249 9.2731 0.7972
v  -3.1319 9.2731 1.2902
v  -2.5107 9.2731 1.6067
v  -1.8221 9.2731 1.7158
v  -1.1335 9.2731 1.6067
v  -0.5123 9.2731 1.2902
v  -0.0193 9.2731 0.7972
v  0.2973 9.2731 0.1760
v  0.4063 9.2731 -0.5126
v  0.2972 9.2731 -1.2012
v  -0.0193 9.2731 -1.8225
v  -0.5123 9.2731 -2.3154
v  -1.1335 9.2731 -2.6320
v  -1.8221 8.8951 -4.9408
v  -3.1905 8.8951 -4.7241
v  -4.4249 8.8951 -4.0951
v  -5.4046 8.8951 -3.1154
v  -6.0335 8.8951 -1.8810
v  -6.2503 8.8951 -0.5126
v  -6.0335 8.8951 0.8558
v  -5.4046 8.8951 2.0902
v  -4.4249 8.8951 3.0698
v  -3.1905 8.8951 3.6988
v  -1.8221 8.8951 3.9155
v  -0.4537 8.8951 3.6988
v  0.7807 8.8951 3.0698
v  1.7604 8.8951 2.0902
v  2.3893 8.8951 0.8557
v  2.6061 8.8951 -0.5126
v  2.3893 8.8951 -1.8810
v  1.7604 8.8951 -3.1154
v  0.7807 8.8951 -4.0951
v  -0.4537 8.8951 -4.7241
v  -1.8221 8.2705 -7.0836
v  -3.8526 8.2705 -6.7620
v  -5.6844 8.2705 -5.8287
v  -7.1381 8.2705 -4.3750
v  -8.0715 8.2705 -2.5432
v  -8.3931 8.2705 -0.5126
v  -8.0715 8.2705 1.5179
v  -7.1381 8.2705 3.3497
v  -5.6844 8.2705 4.8034
v  -3.8526 8.2705 5.7368
v  -1.8221 8.2705 6.0584
v  0.2085 8.2705 5.7368
v  2.0402 8.2705 4.8034
v  3.4940 8.2705 3.3497
v  4.4273 8.2705 1.5179
v  4.7489 8.2705 -0.5126
v  4.4273 8.2705 -2.5432
v  3.4940 8.2705 -4.3750
v  2.0402 8.2705 -5.8287
v  0.2084 8.2705 -6.7620
v  -1.8221 7.4074 -9.1420
v  -4.4887 7.4074 -8.7196
v  -6.8943 7.4074 -7.4939
v  -8.8034 7.4074 -5.5848
v  -10.0291 7.4074 -3.1792
v  -10.4514 7.4074 -0.5126
v  -10.0291 7.4074 2.1540
v  -8.8034 7.4074 4.5596
v  -6.8943 7.4074 6.4687
v  -4.4887 7.4074 7.6944
v  -1.8221 7.4074 8.1167
v  0.8445 7.4074 7.6944
v  3.2501 7.4074 6.4687
v  5.1592 7.4074 4.5596
v  6.3849 7.4074 2.1540
v  6.8073 7.4074 -0.5126
v  6.3849 7.4074 -3.1793
v  5.1592 7.4074 -5.5848
v  3.2501 7.4074 -7.4939
v  0.8445 7.4074 -8.7196
v  -1.8221 6.3168 -11.0894
v  -5.0905 6.3168 -10.5717
v  -8.0390 6.3168 -9.0694
v  -10.3789 6.3168 -6.7295
v  -11.8812 6.3168 -3.7810
v  -12.3989 6.3168 -0.5126
v  -11.8812 6.3168 2.7558
v  -10.3789 6.3168 5.7042
v  -8.0390 6.3168 8.0442
v  -5.0905 6.3168 9.5465
v  -1.8221 6.3168 10.0641
v  1.4463 6.3168 9.5465
v  4.3948 6.3168 8.0441
v  6.7347 6.3168 5.7042
v  8.2370 6.3168 2.7558
v  8.7547 6.3168 -0.5126
v  8.2370 6.3168 -3.7810
v  6.7347 6.3168 -6.7295
v  4.3948 6.3168 -9.0694
v  1.4463 6.3168 -10.5717
v  -1.8221 5.0127 -12.9008
v  -5.6503 5.0127 -12.2945
v  -9.1037 5.0127 -10.5349
v  -11.8444 5.0127 -7.7942
v  -13.6040 5.0127 -4.3408
v  -14.2103 5.0127 -0.5126
v  -13.6040 5.0127 3.3155
v  -11.8444 5.0127 6.7690
v  -9.1037 5.0127 9.5096
v  -5.6502 5.0127 11.2693
v  -1.8221 5.0127 11.8756
v  2.0061 5.0127 11.2692
v  5.4595 5.0127 9.5096
v  8.2002 5.0127 6.7690
v  9.9598 5.0127 3.3155
v  10.5661 5.0127 -0.5126
v  9.9598 5.0127 -4.3408
v  8.2002 5.0127 -7.7942
v  5.4595 5.0127 -10.5349
v  2.0060 5.0127 -12.2945
v  -1.8221 3.5120 -14.5530
v  -6.1608 3.5120 -13.8658
v  -10.0748 3.5120 -11.8715
v  -13.1810 3.5120 -8.7653
v  -15.1753 3.5120 -4.8513
v  -15.8625 3.5120 -0.5126
v  -15.1753 3.5120 3.8261
v  -13.1810 3.5120 7.7401
v  -10.0748 3.5120 10.8463
v  -6.1608 3.5120 12.8406
v  -1.8221 3.5120 13.5277
v  2.5166 3.5120 12.8406
v  6.4306 3.5120 10.8463
v  9.5368 3.5120 7.7401
v  11.5311 3.5120 3.8261
v  12.2183 3.5120 -0.5126
v  11.5311 3.5120 -4.8514
v  9.5368 3.5120 -8.7654
v  6.4306 3.5120 -11.8715
v  2.5166 3.5120 -13.8658
v  -1.8221 1.8339 -16.0246
v  -6.6156 1.8339 -15.2654
v  -10.9398 1.8339 -13.0621
v  -14.3716 1.8339 -9.6304
v  -16.5749 1.8339 -5.3061
v  -17.3341 1.8339 -0.5126
v  -16.5749 1.8339 4.2809
v  -14.3716 1.8339 8.6051
v  -10.9398 1.8339 12.0369
v  -6.6156 1.8339 14.2402
v  -1.8221 1.8339 14.9994
v  2.9714 1.8339 14.2402
v  7.2957 1.8339 12.0369
v  10.7274 1.8339 8.6051
v  12.9307 1.8339 4.2808
v  13.6899 1.8339 -0.5126
v  12.9307 1.8339 -5.3061
v  10.7274 1.8339 -9.6304
v  7.2956 1.8339 -13.0621
v  2.9714 1.8339 -15.2654
v  -1.8221 0.0000 -17.2969
v  -7.0087 0.0000 -16.4754
v  -11.6876 0.0000 -14.0914
v  -15.4008 0.0000 -10.3782
v  -17.7849 0.0000 -5.6992
v  -18.6063 0.0000 -0.5126
v  -17.7849 0.0000 4.6740
v  -15.4008 0.0000 9.3529
v  -11.6876 0.0000 13.0661
v  -7.0087 0.0000 15.4502
v  -1.8221 0.0000 16.2716
v  3.3645 0.0000 15.4501
v  8.0435 0.0000 13.0661
v  11.7567 0.0000 9.3529
v  14.1407 0.0000 4.6740
v  14.9622 0.0000 -0.5127
v  14.1407 0.0000 -5.6993
v  11.7566 0.0000 -10.3782
v  8.0434 0.0000 -14.0914
v  3.3645 0.0000 -16.4754
v  -1.8221 0.0000 -0.5126
# 182 vertices

vn 0.0000 1.0000 0.0000
vn -0.0000 0.9929 -0.1188
vn -0.0367 0.9929 -0.1130
vn -0.0698 0.9929 -0.0961
vn -0.0961 0.9929 -0.0698
vn -0.1130 0.9929 -0.0367
vn -0.1188 0.9929 0.0000
vn -0.1130 0.9929 0.0367
vn -0.0961 0.9929 0.0698
vn -0.0698 0.9929 0.0961
vn -0.0367 0.9929 0.1130
vn 0.0000 0.9929 0.1188
vn 0.0367 0.9929 0.1130
vn 0.0698 0.9929 0.0961
vn 0.0961 0.9929 0.0698
vn 0.1130 0.9929 0.0367
vn 0.1188 0.9929 -0.0000
vn 0.1130 0.9929 -0.0367
vn 0.0961 0.9929 -0.0698
vn 0.0698 0.9929 -0.0961
vn 0.0367 0.9929 -0.1130
vn -0.0000 0.9731 -0.2303
vn -0.0712 0.9731 -0.2190
vn -0.1354 0.9731 -0.1863
vn -0.1863 0.9731 -0.1354
vn -0.2190 0.9731 -0.0712
vn -0.2303 0.9731 0.0000
vn -0.2190 0.9731 0.0712
vn -0.1863 0.9731 0.1354
vn -0.1354 0.9731 0.1863
vn -0.0712 0.9731 0.2190
vn 0.0000 0.9731 0.2303
vn 0.0712 0.9731 0.2190
vn 0.1354 0.9731 0.1863
vn 0.1863 0.9731 0.1354
vn 0.2190 0.9731 0.0712
vn 0.2303 0.9731 -0.0000
vn 0.2190 0.9731 -0.0712
vn 0.1863 0.9731 -0.1354
vn 0.1354 0.9731 -0.1863
vn 0.0712 0.9731 -0.2190
vn -0.0000 0.9409 -0.3388
vn -0.1047 0.9409 -0.3222
vn -0.1992 0.9409 -0.2741
vn -0.2741 0.9409 -0.1992
vn -0.3222 0.9409 -0.1047
vn -0.3388 0.9409 0.0000
vn -0.3222 0.9409 0.1047
vn -0.2741 0.9409 0.1992
vn -0.1992 0.9409 0.2741
vn -0.1047 0.9409 0.3222
vn 0.0000 0.9409 0.3388
vn 0.1047 0.9409 0.3222
vn 0.1992 0.9409 0.2741
vn 0.2741 0.9409 0.1992
vn 0.3222 0.9409 0.1047
vn 0.3388 0.9409 -0.0000
vn 0.3222 0.9409 -0.1047
vn 0.2741 0.9409 -0.1992
vn 0.1992 0.9409 -0.2741
vn 0.1047 0.9409 -0.3222
vn -0.0000 0.8966 -0.4429
vn -0.1369 0.8966 -0.4212
vn -0.2603 0.8966 -0.3583
vn -0.3583 0.8966 -0.2603
vn -0.4212 0.8966 -0.1369
vn -0.4429 0.8966 0.0000
vn -0.4212 0.8966 0.1369
vn -0.3583 0.8966 0.2603
vn -0.2603 0.8966 0.3583
vn -0.1369 0.8966 0.4212
vn 0.0000 0.8966 0.4429
vn 0.1369 0.8966 0.4212
vn 0.2603 0.8966 0.3583
vn 0.3583 0.8966 0.2603
vn 0.4212 0.8966 0.1369
vn 0.4429 0.8966 -0.0000
vn 0.4212 0.8966 -0.1369
vn 0.3583 0.8966 -0.2603
vn 0.2603 0.8966 -0.3583
vn 0.1369 0.8966 -0.4212
vn -0.0000 0.8408 -0.5413
vn -0.1673 0.8408 -0.5148
vn -0.3182 0.8408 -0.4379
vn -0.4379 0.8408 -0.3182
vn -0.5148 0.8408 -0.1673
vn -0.5413 0.8408 0.0000
vn -0.5148 0.8408 0.1673
vn -0.4379 0.8408 0.3182
vn -0.3182 0.8408 0.4379
vn -0.1673 0.8408 0.5148
vn 0.0000 0.8408 0.5413
vn 0.1673 0.8408 0.5148
vn 0.3182 0.8408 0.4379
vn 0.4379 0.8408 0.3182
vn 0.5148 0.8408 0.1673
vn 0.5413 0.8408 -0.0000
vn 0.5148 0.8408 -0.1673
vn 0.4379 0.8408 -0.3182
vn 0.3182 0.8408 -0.4379
vn 0.1673 0.8408 -0.5148
vn -0.0000 0.7744 -0.6327
vn -0.1955 0.7744 -0.6017
vn -0.3719 0.7744 -0.5119
vn -0.5119 0.7744 -0.3719
vn -0.6017 0.7744 -0.1955
vn -0.6327 0.7744 0.0000
vn -0.6017 0.7744 0.1955
vn -0.5119 0.7744 0.3719
vn -0.3719 0.7744 0.5119
vn -0.1955 0.7744 0.6017
vn 0.0000 0.7744 0.6327
vn 0.1955 0.7744 0.6017
vn 0.3719 0.7744 0.5119
vn 0.5119 0.7744 0.3719
vn 0.6017 0.7744 0.1955
vn 0.6327 0.7744 -0.0000
vn 0.6017 0.7744 -0.1955
vn 0.5119 0.7744 -0.3719
vn 0.3719 0.7744 -0.5119
vn 0.1955 0.7744 -0.6017
vn -0.0000 0.6981 -0.7160
vn -0.2213 0.6981 -0.6810
vn -0.4209 0.6981 -0.5793
vn -0.5793 0.6981 -0.4209
vn -0.6810 0.6981 -0.2213
vn -0.7160 0.6981 0.0000
vn -0.6810 0.6981 0.2213
vn -0.5793 0.6981 0.4209
vn -0.4209 0.6981 0.5793
vn -0.2213 0.6981 0.6810
vn 0.0000 0.6981 0.7160
vn 0.2213 0.6981 0.6810
vn 0.4209 0.6981 0.5793
vn 0.5793 0.6981 0.4209
vn 0.6810 0.6981 0.2213
vn 0.7160 0.6981 -0.0000
vn 0.6810 0.6981 -0.2213
vn 0.5793 0.6981 -0.4209
vn 0.4209 0.6981 -0.5793
vn 0.2213 0.6981 -0.6810
vn -0.0000 0.6129 -0.7901
vn -0.2442 0.6129 -0.7515
vn -0.4644 0.6129 -0.6392
vn -0.6392 0.6129 -0.4644
vn -0.7515 0.6129 -0.2442
vn -0.7901 0.6129 0.0000
vn -0.7515 0.6129 0.2442
vn -0.6392 0.6129 0.4644
vn -0.4644 0.6129 0.6392
vn -0.2442 0.6129 0.7515
vn 0.0000 0.6129 0.7901
vn 0.2442 0.6129 0.7515
vn 0.4644 0.6129 0.6392
vn 0.6392 0.6129 0.4644
vn 0.7515 0.6129 0.2442
vn 0.7901 0.6129 -0.0000
vn 0.7515 0.6129 -0.2442
vn 0.6392 0.6129 -0.4644
vn 0.4644 0.6129 -0.6392
vn 0.2442 0.6129 -0.7515
vn -0.0000 0.5700 -0.8216
vn -0.2539 0.5700 -0.7814
vn -0.4830 0.5700 -0.6647
vn -0.6647 0.5700 -0.4830
vn -0.7814 0.5700 -0.2539
vn -0.8216 0.5700 0.0000
vn -0.7814 0.5700 0.2539
vn -0.6647 0.5700 0.4830
vn -0.4830 0.5700 0.6647
vn -0.2539 0.5700 0.7814
vn 0.0000 0.5700 0.8216
vn 0.2539 0.5700 0.7814
vn 0.4830 0.5700 0.6647
vn 0.6647 0.5700 0.4830
vn 0.7814 0.5700 0.2539
vn 0.8216 0.5700 -0.0000
vn 0.7814 0.5700 -0.2539
vn 0.6647 0.5700 -0.4830
vn 0.4830 0.5700 -0.6647
vn 0.2539 0.5700 -0.7814
vn 0.0000 -1.0000 -0.0000
# 182 vertex normals

vt 0.0000 1.0000 0.0000
vt 0.0000 0.9000 0.0000
vt 0.0500 0.9000 0.0000
vt 0.0500 1.0000 0.0000
vt 0.1000 0.9000 0.0000
vt 0.1000 1.0000 0.0000
vt 0.1500 0.9000 0.0000
vt 0.1500 1.0000 0.0000
vt 0.2000 0.9000 0.0000
vt 0.2000 1.0000 0.0000
vt 0.2500 0.9000 0.0000
vt 0.2500 1.0000 0.0000
vt 0.3000 0.9000 0.0000
vt 0.3000 1.0000 0.0000
vt 0.3500 0.9000 0.0000
vt 0.3500 1.0000 0.0000
vt 0.4000 0.9000 0.0000
vt 0.4000 1.0000 0.0000
vt 0.4500 0.9000 0.0000
vt 0.4500 1.0000 0.0000
vt 0.5000 0.9000 0.0000
vt 0.5000 1.0000 0.0000
vt 0.5500 0.9000 0.0000
vt 0.5500 1.0000 0.0000
vt 0.6000 0.9000 0.0000
vt 0.6000 1.0000 0.0000
vt 0.6500 0.9000 0.0000
vt 0.6500 1.0000 0.0000
vt 0.7000 0.9000 0.0000
vt 0.7000 1.0000 0.0000
vt 0.7500 0.9000 0.0000
vt 0.7500 1.0000 0.0000
vt 0.8000 0.9000 0.0000
vt 0.8000 1.0000 0.0000
vt 0.8500 0.9000 0.0000
vt 0.8500 1.0000 0.0000
vt 0.9000 0.9000 0.0000
vt 0.9000 1.0000 0.0000
vt 0.9500 0.9000 0.0000
vt 0.9500 1.0000 0.0000
vt 1.0000 0.9000 0.0000
vt 0.0000 0.8000 0.0000
vt 0.0500 0.8000 0.0000
vt 0.1000 0.8000 0.0000
vt 0.1500 0.8000 0.0000
vt 0.2000 0.8000 0.0000
vt 0.2500 0.8000 0.0000
vt 0.3000 0.8000 0.0000
vt 0.3500 0.8000 0.0000
vt 0.4000 0.8000 0.0000
vt 0.4500 0.8000 0.0000
vt 0.5000 0.8000 0.0000
vt 0.5500 0.8000 0.0000
vt 0.6000 0.8000 0.0000
vt 0.6500 0.8000 0.0000
vt 0.7000 0.8000 0.0000
vt 0.7500 0.8000 0.0000
vt 0.8000 0.8000 0.0000
vt 0.8500 0.8000 0.0000
vt 0.9000 0.8000 0.0000
vt 0.9500 0.8000 0.0000
vt 1.0000 0.8000 0.0000
vt 0.0000 0.7000 0.0000
vt 0.0500 0.7000 0.0000
vt 0.1000 0.7000 0.0000
vt 0.1500 0.7000 0.0000
vt 0.2000 0.7000 0.0000
vt 0.2500 0.7000 0.0000
vt 0.3000 0.7000 0.0000
vt 0.3500 0.7000 0.0000
vt 0.4000 0.7000 0.0000
vt 0.4500 0.7000 0.0000
vt 0.5000 0.7000 0.0000
vt 0.5500 0.7000 0.0000
vt 0.6000 0.7000 0.0000
vt 0.6500 0.7000 0.0000
vt 0.7000 0.7000 0.0000
vt 0.7500 0.7000 0.0000
vt 0.8000 0.7000 0.0000
vt 0.8500 0.7000 0.0000
vt 0.9000 0.7000 0.0000
vt 0.9500 0.7000 0.0000
vt 1.0000 0.7000 0.0000
vt 0.0000 0.6000 0.0000
vt 0.0500 0.6000 0.0000
vt 0.1000 0.6000 0.0000
vt 0.1500 0.6000 0.0000
vt 0.2000 0.6000 0.0000
vt 0.2500 0.6000 0.0000
vt 0.3000 0.6000 0.0000
vt 0.3500 0.6000 0.0000
vt 0.4000 0.6000 0.0000
vt 0.4500 0.6000 0.0000
vt 0.5000 0.6000 0.0000
vt 0.5500 0.6000 0.0000
vt 0.6000 0.6000 0.0000
vt 0.6500 0.6000 0.0000
vt 0.7000 0.6000 0.0000
vt 0.7500 0.6000 0.0000
vt 0.8000 0.6000 0.0000
vt 0.8500 0.6000 0.0000
vt 0.9000 0.6000 0.0000
vt 0.9500 0.6000 0.0000
vt 1.0000 0.6000 0.0000
vt 0.0000 0.5000 0.0000
vt 0.0500 0.5000 0.0000
vt 0.1000 0.5000 0.0000
vt 0.1500 0.5000 0.0000
vt 0.2000 0.5000 0.0000
vt 0.2500 0.5000 0.0000
vt 0.3000 0.5000 0.0000
vt 0.3500 0.5000 0.0000
vt 0.4000 0.5000 0.0000
vt 0.4500 0.5000 0.0000
vt 0.5000 0.5000 0.0000
vt 0.5500 0.5000 0.0000
vt 0.6000 0.5000 0.0000
vt 0.6500 0.5000 0.0000
vt 0.7000 0.5000 0.0000
vt 0.7500 0.5000 0.0000
vt 0.8000 0.5000 0.0000
vt 0.8500 0.5000 0.0000
vt 0.9000 0.5000 0.0000
vt 0.9500 0.5000 0.0000
vt 1.0000 0.5000 0.0000
vt 0.0000 0.4000 0.0000
vt 0.0500 0.4000 0.0000
vt 0.1000 0.4000 0.0000
vt 0.1500 0.4000 0.0000
vt 0.2000 0.4000 0.0000
vt 0.2500 0.4000 0.0000
vt 0.3000 0.4000 0.0000
vt 0.3500 0.4000 0.0000
vt 0.4000 0.4000 0.0000
vt 0.4500 0.4000 0.0000
vt 0.5000 0.4000 0.0000
vt 0.5500 0.4000 0.0000
vt 0.6000 0.4000 0.0000
vt 0.6500 0.4000 0.0000
vt 0.7000 0.4000 0.0000
vt 0.7500 0.4000 0.0000
vt 0.8000 0.4000 0.0000
vt 0.8500 0.4000 0.0000
vt 0.9000 0.4000 0.0000
vt 0.9500 0.4000 0.0000
vt 1.0000 0.4000 0.0000
vt 0.0000 0.3000 0.0000
vt 0.0500 0.3000 0.0000
vt 0.1000 0.3000 0.0000
vt 0.1500 0.3000 0.0000
vt 0.2000 0.3000 0.0000
vt 0.2500 0.3000 0.0000
vt 0.3000 0.3000 0.0000
vt 0.3500 0.3000 0.0000
vt 0.4000 0.3000 0.0000
vt 0.4500 0.3000 0.0000
vt 0.5000 0.3000 0.0000
vt 0.5500 0.3000 0.0000
vt 0.6000 0.3000 0.0000
vt 0.6500 0.3000 0.0000
vt 0.7000 0.3000 0.0000
vt 0.7500 0.3000 0.0000
vt 0.8000 0.3000 0.0000
vt 0.8500 0.3000 0.0000
vt 0.9000 0.3000 0.0000
vt 0.9500 0.3000 0.0000
vt 1.0000 0.3000 0.0000
vt 0.0000 0.2000 0.0000
vt 0.0500 0.2000 0.0000
vt 0.1000 0.2000 0.0000
vt 0.1500 0.2000 0.0000
vt 0.2000 0.2000 0.0000
vt 0.2500 0.2000 0.0000
vt 0.3000 0.2000 0.0000
vt 0.3500 0.2000 0.0000
vt 0.4000 0.2000 0.0000
vt 0.4500 0.2000 0.0000
vt 0.5000 0.2000 0.0000
vt 0.5500 0.2000 0.0000
vt 0.6000 0.2000 0.0000
vt 0.6500 0.2000 0.0000
vt 0.7000 0.2000 0.0000
vt 0.7500 0.2000 0.0000
vt 0.8000 0.2000 0.0000
vt 0.8500 0.2000 0.0000
vt 0.9000 0.2000 0.0000
vt 0.9500 0.2000 0.0000
vt 1.0000 0.2000 0.0000
vt 0.0000 0.1000 0.0000
vt 0.0500 0.1000 0.0000
vt 0.1000 0.1000 0.0000
vt 0.1500 0.1000 0.0000
vt 0.2000 0.1000 0.0000
vt 0.2500 0.1000 0.0000
vt 0.3000 0.1000 0.0000
vt 0.3500 0.1000 0.0000
vt 0.4000 0.1000 0.0000
vt 0.4500 0.1000 0.0000
vt 0.5000 0.1000 0.0000
vt 0.5500 0.1000 0.0000
vt 0.6000 0.1000 0.0000
vt 0.6500 0.1000 0.0000
vt 0.7000 0.1000 0.0000
vt 0.7500 0.1000 0.0000
vt 0.8000 0.1000 0.0000
vt 0.8500 0.1000 0.0000
vt 0.9000 0.1000 0.0000
vt 0.9500 0.1000 0.0000
vt 1.0000 0.1000 0.0000
vt 0.0000 -0.0000 0.0000
vt 0.0500 -0.0000 0.0000
vt 0.1000 -0.0000 0.0000
vt 0.1500 -0.0000 0.0000
vt 0.2000 -0.0000 0.0000
vt 0.2500 -0.0000 0.0000
vt 0.3000 -0.0000 0.0000
vt 0.3500 -0.0000 0.0000
vt 0.4000 -0.0000 0.0000
vt 0.4500 -0.0000 0.0000
vt 0.5000 -0.0000 0.0000
vt 0.5500 -0.0000 0.0000
vt 0.6000 -0.0000 0.0000
vt 0.6500 -0.0000 0.0000
vt 0.7000 -0.0000 0.0000
vt 0.7500 -0.0000 0.0000
vt 0.8000 -0.0000 0.0000
vt 0.8500 -0.0000 0.0000
vt 0.9000 -0.0000 0.0000
vt 0.9500 -0.0000 0.0000
# 229 texture coords

g Sphere001
usemtl wire_153228214
s 1
f 1/1/1 2/2/2 3/3/3 
f 1/4/1 3/3/3 4/5/4 
f 1/6/1 4/5/4 5/7/5 
f 1/8/1 5/7/5 6/9/6 
f 1/10/1 6/9/6 7/11/7 
f 1/12/1 7/11/7 8/13/8 
f 1/14/1 8/13/8 9/15/9 
f 1/16/1 9/15/9 10/17/10 
f 1/18/1 10/17/10 11/19/11 
f 1/20/1 11/19/11 12/21/12 
f 1/22/1 12/21/12 13/23/13 
f 1/24/1 13/23/13 14/25/14 
f 1/26/1 14/25/14 15/27/15 
f 1/28/1 15/27/15 16/29/16 
f 1/30/1 16/29/16 17/31/17 
f 1/32/1 17/31/17 18/33/18 
f 1/34/1 18/33/18 19/35/19 
f 1/36/1 19/35/19 20/37/20 
f 1/38/1 20/37/20 21/39/21 
f 1/40/1 21/39/21 2/41/2 
f 2/2/2 22/42/22 23/43/23 3/3/3 
f 3/3/3 23/43/23 24/44/24 4/5/4 
f 4/5/4 24/44/24 25/45/25 5/7/5 
f 5/7/5 25/45/25 26/46/26 6/9/6 
f 6/9/6 26/46/26 27/47/27 7/11/7 
f 7/11/7 27/47/27 28/48/28 8/13/8 
f 8/13/8 28/48/28 29/49/29 9/15/9 
f 9/15/9 29/49/29 30/50/30 10/17/10 
f 10/17/10 30/50/30 31/51/31 11/19/11 
f 11/19/11 31/51/31 32/52/32 12/21/12 
f 12/21/12 32/52/32 33/53/33 13/23/13 
f 13/23/13 33/53/33 34/54/34 14/25/14 
f 14/25/14 34/54/34 35/55/35 15/27/15 
f 15/27/15 35/55/35 36/56/36 16/29/16 
f 16/29/16 36/56/36 37/57/37 17/31/17 
f 17/31/17 37/57/37 38/58/38 18/33/18 
f 18/33/18 38/58/38 39/59/39 19/35/19 
f 19/35/19 39/59/39 40/60/40 20/37/20 
f 20/37/20 40/60/40 41/61/41 21/39/21 
f 21/39/21 41/61/41 22/62/22 2/41/2 
f 22/42/22 42/63/42 43/64/43 23/43/23 
f 23/43/23 43/64/43 44/65/44 24/44/24 
f 24/44/24 44/65/44 45/66/45 25/45/25 
f 25/45/25 45/66/45 46/67/46 26/46/26 
f 26/46/26 46/67/46 47/68/47 27/47/27 
f 27/47/27 47/68/47 48/69/48 28/48/28 
f 28/48/28 48/69/48 49/70/49 29/49/29 
f 29/49/29 49/70/49 50/71/50 30/50/30 
f 30/50/30 50/71/50 51/72/51 31/51/31 
f 31/51/31 51/72/51 52/73/52 32/52/32 
f 32/52/32 52/73/52 53/74/53 33/53/33 
f 33/53/33 53/74/53 54/75/54 34/54/34 
f 34/54/34 54/75/54 55/76/55 35/55/35 
f 35/55/35 55/76/55 56/77/56 36/56/36 
f 36/56/36 56/77/56 57/78/57 37/57/37 
f 37/57/37 57/78/57 58/79/58 38/58/38 
f 38/58/38 58/79/58 59/80/59 39/59/39 
f 39/59/39 59/80/59 60/81/60 40/60/40 
f 40/60/40 60/81/60 61/82/61 41/61/41 
f 41/61/41 61/82/61 42/83/42 22/62/22 
f 42/63/42 62/84/62 63/85/63 43/64/43 
f 43/64/43 63/85/63 64/86/64 44/65/44 
f 44/65/44 64/86/64 65/87/65 45/66/45 
f 45/66/45 65/87/65 66/88/66 46/67/46 
f 46/67/46 66/88/66 67/89/67 47/68/47 
f 47/68/47 67/89/67 68/90/68 48/69/48 
f 48/69/48 68/90/68 69/91/69 49/70/49 
f 49/70/49 69/91/69 70/92/70 50/71/50 
f 50/71/50 70/92/70 71/93/71 51/72/51 
f 51/72/51 71/93/71 72/94/72 52/73/52 
f 52/73/52 72/94/72 73/95/73 53/74/53 
f 53/74/53 73/95/73 74/96/74 54/75/54 
f 54/75/54 74/96/74 75/97/75 55/76/55 
f 55/76/55 75/97/75 76/98/76 56/77/56 
f 56/77/56 76/98/76 77/99/77 57/78/57 
f 57/78/57 77/99/77 78/100/78 58/79/58 
f 58/79/58 78/100/78 79/101/79 59/80/59 
f 59/80/59 79/101/79 80/102/80 60/81/60 
f 60/81/60 80/102/80 81/103/81 61/82/61 
f 61/82/61 81/103/81 62/104/62 42/83/42 
f 62/84/62 82/105/82 83/106/83 63/85/63 
f 63/85/63 83/106/83 84/107/84 64/86/64 
f 64/86/64 84/107/84 85/108/85 65/87/65 
f 65/87/65 85/108/85 86/109/86 66/88/66 
f 66/88/66 86/109/86 87/110/87 67/89/67 
f 67/89/67 87/110/87 88/111/88 68/90/68 
f 68/90/68 88/111/88 89/112/89 69/91/69 
f 69/91/69 89/112/89 90/113/90 70/92/70 
f 70/92/70 90/113/90 91/114/91 71/93/71 
f 71/93/71 91/114/91 92/115/92 72/94/72 
f 72/94/72 92/115/92 93/116/93 73/95/73 
f 73/95/73 93/116/93 94/117/94 74/96/74 
f 74/96/74 94/117/94 95/118/95 75/97/75 
f 75/97/75 95/118/95 96/119/96 76/98/76 
f 76/98/76 96/119/96 97/120/97 77/99/77 
f 77/99/77 97/120/97 98/121/98 78/100/78 
f 78/100/78 98/121/98 99/122/99 79/101/79 
f 79/101/79 99/122/99 100/123/100 80/102/80 
f 80/102/80 100/123/100 101/124/101 81/103/81 
f 81/103/81 101/124/101 82/125/82 62/104/62 
f 82/105/82 102/126/102 103/127/103 83/106/83 
f 83/106/83 103/127/103 104/128/104 84/107/84 
f 84/107/84 104/128/104 105/129/105 85/108/85 
f 85/108/85 105/129/105 106/130/106 86/109/86 
f 86/109/86 106/130/106 107/131/107 87/110/87 
f 87/110/87 107/131/107 108/132/108 88/111/88 
f 88/111/88 108/132/108 109/133/109 89/112/89 
f 89/112/89 109/133/109 110/134/110 90/113/90 
f 90/113/90 110/134/110 111/135/111 91/114/91 
f 91/114/91 111/135/111 112/136/112 92/115/92 
f 92/115/92 112/136/112 113/137/113 93/116/93 
f 93/116/93 113/137/113 114/138/114 94/117/94 
f 94/117/94 114/138/114 115/139/115 95/118/95 
f 95/118/95 115/139/115 116/140/116 96/119/96 
f 96/119/96 116/140/116 117/141/117 97/120/97 
f 97/120/97 117/141/117 118/142/118 98/121/98 
f 98/121/98 118/142/118 119/143/119 99/122/99 
f 99/122/99 119/143/119 120/144/120 100/123/100 
f 100/123/100 120/144/120 121/145/121 101/124/101 
f 101/124/101 121/145/121 102/146/102 82/125/82 
f 102/126/102 122/147/122 123/148/123 103/127/103 
f 103/127/103 123/148/123 124/149/124 104/128/104 
f 104/128/104 124/149/124 125/150/125 105/129/105 
f 105/129/105 125/150/125 126/151/126 106/130/106 
f 106/130/106 126/151/126 127/152/127 107/131/107 
f 107/131/107 127/152/127 128/153/128 108/132/108 
f 108/132/108 128/153/128 129/154/129 109/133/109 
f 109/133/109 129/154/129 130/155/130 110/134/110 
f 110/134/110 130/155/130 131/156/131 111/135/111 
f 111/135/111 131/156/131 132/157/132 112/136/112 
f 112/136/112 132/157/132 133/158/133 113/137/113 
f 113/137/113 133/158/133 134/159/134 114/138/114 
f 114/138/114 134/159/134 135/160/135 115/139/115 
f 115/139/115 135/160/135 136/161/136 116/140/116 
f 116/140/116 136/161/136 137/162/137 117/141/117 
f 117/141/117 137/162/137 138/163/138 118/142/118 
f 118/142/118 138/163/138 139/164/139 119/143/119 
f 119/143/119 139/164/139 140/165/140 120/144/120 
f 120/144/120 140/165/140 141/166/141 121/145/121 
f 121/145/121 141/166/141 122/167/122 102/146/102 
f 122/147/122 142/168/142 143/169/143 123/148/123 
f 123/148/123 143/169/143 144/170/144 124/149/124 
f 124/149/124 144/170/144 145/171/145 125/150/125 
f 125/150/125 145/171/145 146/172/146 126/151/126 
f 126/151/126 146/172/146 147/173/147 127/152/127 
f 127/152/127 147/173/147 148/174/148 128/153/128 
f 128/153/128 148/174/148 149/175/149 129/154/129 
f 129/154/129 149/175/149 150/176/150 130/155/130 
f 130/155/130 150/176/150 151/177/151 131/156/131 
f 131/156/131 151/177/151 152/178/152 132/157/132 
f 132/157/132 152/178/152 153/179/153 133/158/133 
f 133/158/133 153/179/153 154/180/154 134/159/134 
f 134/159/134 154/180/154 155/181/155 135/160/135 
f 135/160/135 155/181/155 156/182/156 136/161/136 
f 136/161/136 156/182/156 157/183/157 137/162/137 
f 137/162/137 157/183/157 158/184/158 138/163/138 
f 138/163/138 158/184/158 159/185/159 139/164/139 
f 139/164/139 159/185/159 160/186/160 140/165/140 
f 140/165/140 160/186/160 161/187/161 141/166/141 
f 141/166/141 161/187/161 142/188/142 122/167/122 
f 142/168/142 162/189/162 163/190/163 143/169/143 
f 143/169/143 163/190/163 164/191/164 144/170/144 
f 144/170/144 164/191/164 165/192/165 145/171/145 
f 145/171/145 165/192/165 166/193/166 146/172/146 
f 146/172/146 166/193/166 167/194/167 147/173/147 
f 147/173/147 167/194/167 168/195/168 148/174/148 
f 148/174/148 168/195/168 169/196/169 149/175/149 
f 149/175/149 169/196/169 170/197/170 150/176/150 
f 150/176/150 170/197/170 171/198/171 151/177/151 
f 151/177/151 171/198/171 172/199/172 152/178/152 
f 152/178/152 172/199/172 173/200/173 153/179/153 
f 153/179/153 173/200/173 174/201/174 154/180/154 
f 154/180/154 174/201/174 175/202/175 155/181/155 
f 155/181/155 175/202/175 176/203/176 156/182/156 
f 156/182/156 176/203/176 177/204/177 157/183/157 
f 157/183/157 177/204/177 178/205/178 158/184/158 
f 158/184/158 178/205/178 179/206/179 159/185/159 
f 159/185/159 179/206/179 180/207/180 160/186/160 
f 160/186/160 180/207/180 181/208/181 161/187/161 
f 161/187/161 181/208/181 162/209/162 142/188/142 
s 2
f 182/210/182 163/190/182 162/189/182 
f 182/211/182 164/191/182 163/190/182 
f 182/212/182 165/192/182 164/191/182 
f 182/213/182 166/193/182 165/192/182 
f 182/214/182 167/194/182 166/193/182 
f 182/215/182 168/195/182 167/194/182 
f 182/216/182 169/196/182 168/195/182 
f 182/217/182 170/197/182 169/196/182 
f 182/218/182 171/198/182 170/197/182 
f 182/219/182 172/199/182 171/198/182 
f 182/220/182 173/200/182 172/199/182 
f 182/221/182 174/201/182 173/200/182 
f 182/222/182 175/202/182 174/201/182 
f 182/223/182 176/203/182 175/202/182 
f 182/224/182 177/204/182 176/203/182 
f 182/225/182 178/205/182 177/204/182 
f 182/226/182 179/206/182 178/205/182 
f 182/227/182 180/207/182 179/206/182 
f 182/228/182 181/208/182 180/207/182 
f 182/229/182 162/209/182 181/208/182 
# 160 polygons - 40 triangles

