# 3ds Max Wavefront OBJ Exporter v0.97b - (c)2007 guruware
# File Created: 26.10.2012 21:47:07

#
# object Tube
#

v  -25.0000 -200.0000 43.3013
v  -50.0000 -200.0000 -0.0000
v  0.0000 -200.0000 -0.0000
v  -25.0000 200.0000 43.3013
v  -50.0000 200.0000 -0.0000
v  0.0000 200.0000 -0.0000
v  25.0000 -200.0000 43.3013
v  25.0000 200.0000 43.3013
v  50.0000 -200.0000 -0.0000
v  50.0000 200.0000 -0.0000
# 10 vertices

vn -0.3962 -0.6100 0.6862
vn -0.7924 -0.6100 -0.0000
vn 0.0000 -1.0000 -0.0000
vn -0.3962 0.6100 0.6862
vn -0.7924 0.6100 -0.0000
vn 0.0000 1.0000 -0.0000
vn 0.3962 -0.6100 0.6862
vn 0.3962 0.6100 0.6862
vn 0.7924 -0.6100 -0.0000
vn 0.7924 0.6100 -0.0000
vn 0.0000 0.0000 -1.0000
# 11 vertex normals

vt 0.5032 0.5290 0.0000
vt 0.2398 0.3534 0.0000
vt 0.5032 0.1777 0.0000
vt 0.2500 0.0000 0.0000
vt -0.0000 0.5000 0.0000
vt -0.0060 0.4981 0.0000
vt 0.2487 0.6673 0.0000
vt -0.0065 0.8376 0.0000
vt 0.7666 0.3534 0.0000
vt 0.7500 -0.0000 0.0000
vt 0.2492 0.3279 0.0000
vt 0.7666 0.0021 0.0000
vt 1.0000 0.5000 0.0000
vt 0.5039 0.4971 0.0000
vt 0.5000 0.5000 0.0000
vt 0.0000 0.5000 0.0000
# 16 texture coords

g Tube
s 1
f 1/1/1 2/2/2 3/3/3 
f 1/4/1 4/4/4 5/5/5 2/5/2 
f 4/6/4 6/7/6 5/8/5 
f 7/9/7 1/1/1 3/3/3 
f 7/10/7 8/10/8 4/4/4 1/4/1 
f 8/11/8 6/7/6 4/6/4 
f 9/12/9 7/9/7 3/3/3 
f 9/13/9 10/13/10 8/10/8 7/10/7 
f 10/14/10 6/7/6 8/11/8 
s 2
f 6/15/11 3/15/11 2/16/11 5/16/11 
s 4
f 10/13/11 9/13/11 3/15/11 6/15/11 
# 5 polygons - 6 triangles

