# 3ds Max Wavefront OBJ Exporter v0.97b - (c)2007 guruware
# File Created: 13.10.2012 17:27:44

#
# object Tube
#

v  25.0000 -200.0000 -43.3013
v  50.0000 -200.0000 -0.0000
v  0.0000 -200.0000 -0.0000
v  50.0000 200.0000 -0.0000
v  25.0000 200.0000 -43.3013
v  0.0000 200.0000 -0.0000
v  -25.0000 -200.0000 -43.3013
v  -25.0000 200.0000 -43.3013
v  -50.0000 -200.0000 -0.0000
v  -50.0000 200.0000 -0.0000
v  -25.0000 -200.0000 43.3013
v  -25.0000 200.0000 43.3013
v  25.0000 -200.0000 43.3013
v  25.0000 200.0000 43.3013
# 14 vertices

vn 0.3962 -0.6100 -0.6862
vn 0.7924 -0.6100 -0.0000
vn 0.0000 -1.0000 -0.0000
vn 0.7924 0.6100 -0.0000
vn 0.3962 0.6100 -0.6862
vn 0.0000 1.0000 -0.0000
vn -0.3962 -0.6100 -0.6862
vn -0.3962 0.6100 -0.6862
vn -0.7924 -0.6100 -0.0000
vn -0.7924 0.6100 0.0000
vn -0.3962 -0.6100 0.6862
vn -0.3962 0.6100 0.6862
vn 0.3962 -0.6100 0.6862
vn 0.3962 0.6100 0.6862
# 14 vertex normals

vt 0.5032 -0.1735 0.0000
vt 0.7666 0.0021 0.0000
vt 0.5032 0.1777 0.0000
vt 1.0000 0.5000 0.0000
vt 0.7500 1.0000 0.0000
vt 0.5033 0.8365 0.0000
vt 0.2487 0.6673 0.0000
vt 0.5039 0.4971 0.0000
vt 0.2398 0.0021 0.0000
vt 0.2500 1.0000 0.0000
vt 0.2482 1.0068 0.0000
vt 0.2398 0.3534 0.0000
vt -0.0000 0.5000 0.0000
vt -0.0065 0.8376 0.0000
vt 0.5032 0.5290 0.0000
vt 0.2500 0.0000 0.0000
vt -0.0060 0.4981 0.0000
vt 0.7666 0.3534 0.0000
vt 0.7500 -0.0000 0.0000
vt 0.2492 0.3279 0.0000
# 20 texture coords

g Tube
s 1
f 1/1/1 2/2/2 3/3/3 
f 4/4/4 2/4/2 1/5/1 5/5/5 
f 5/6/5 6/7/6 4/8/4 
f 7/9/7 1/1/1 3/3/3 
f 5/5/5 1/5/1 7/10/7 8/10/8 
f 8/11/8 6/7/6 5/6/5 
f 9/12/9 7/9/7 3/3/3 
f 8/10/8 7/10/7 9/13/9 10/13/10 
f 10/14/10 6/7/6 8/11/8 
f 11/15/11 9/12/9 3/3/3 
f 10/13/10 9/13/9 11/16/11 12/16/12 
f 12/17/12 6/7/6 10/14/10 
f 13/18/13 11/15/11 3/3/3 
f 12/16/12 11/16/11 13/19/13 14/19/14 
f 14/20/14 6/7/6 12/17/12 
f 2/2/2 13/18/13 3/3/3 
f 14/19/14 13/19/13 2/4/2 4/4/4 
f 4/8/4 6/7/6 14/20/14 
# 6 polygons - 12 triangles

