# 3ds Max Wavefront OBJ Exporter v0.97b - (c)2007 guruware
# File Created: 28.10.2012 21:54:49

#
# object Cylinder001
#

v  -72.8346 9.8835 1.7048
v  -37.8937 9.8835 62.2243
v  -31.4961 9.8835 51.1432
v  -60.0394 9.8835 1.7048
v  0.0000 9.8835 63.9290
v  0.0000 9.8835 52.8480
v  -28.5433 9.8835 52.8480
v  -34.9409 9.8835 63.9290
v  -76.5256 8.6532 1.7048
v  -77.7559 4.9623 1.7048
v  -40.3543 4.9623 66.4862
v  -39.7392 8.6532 65.4207
v  -30.5118 7.9150 49.4385
v  -58.0709 7.9150 1.7048
v  -72.8346 9.8835 -0.0000
v  -76.5256 8.6532 -0.0000
v  -36.7864 8.6532 67.1255
v  -77.7559 4.9623 0.0000
v  -37.4016 4.9623 68.1910
v  -27.5590 7.9150 51.1432
v  -28.4239 7.9150 47.3506
v  -55.2187 7.9150 0.9405
v  -26.7948 7.9150 48.2911
v  0.0000 7.9150 51.1432
v  0.0000 7.9150 48.2911
v  -53.3173 5.9465 0.4311
v  -27.0320 5.9465 45.9586
v  -26.2853 5.9465 46.3897
v  0.0000 5.9465 46.3897
v  0.0000 4.9623 68.1910
v  0.0000 8.6532 67.1255
v  -37.4016 0.0000 68.1910
v  0.0000 0.0000 68.1910
v  72.8346 9.8835 1.7048
v  60.0394 9.8835 1.7048
v  31.4961 9.8835 51.1432
v  37.8937 9.8835 62.2243
v  34.9409 9.8835 63.9290
v  28.5433 9.8835 52.8480
v  76.5256 8.6532 1.7048
v  39.7392 8.6532 65.4207
v  40.3543 4.9623 66.4862
v  77.7559 4.9623 1.7048
v  58.0709 7.9150 1.7048
v  30.5118 7.9150 49.4385
v  76.5256 8.6532 -0.0000
v  72.8346 9.8835 -0.0000
v  36.7864 8.6532 67.1255
v  77.7559 4.9623 -0.0000
v  37.4016 4.9623 68.1910
v  27.5590 7.9150 51.1432
v  77.7559 0.0000 1.7048
v  40.3543 0.0000 66.4862
v  77.7559 0.0000 0.0000
v  37.4016 0.0000 68.1910
v  26.2853 0.0000 46.3897
v  26.2853 5.9465 46.3897
v  27.0320 5.9465 45.9586
v  27.0320 0.0000 45.9586
v  55.2187 7.9150 0.9405
v  28.4239 7.9150 47.3506
v  26.7948 7.9150 48.2911
v  53.3173 5.9465 0.4311
v  -60.0394 9.8835 -0.0000
v  -58.0709 7.9150 0.0000
v  -53.3173 0.0000 0.4311
v  -53.3173 0.0000 -0.0000
v  -53.3173 5.9465 -0.0000
v  -55.2187 7.9150 0.0000
v  60.0394 9.8835 -0.0000
v  58.0709 7.9150 -0.0000
v  55.2187 7.9150 -0.0000
v  53.3173 5.9465 -0.0000
v  -72.8346 9.8835 -1.7048
v  -60.0394 9.8835 -1.7048
v  -31.4961 9.8835 -51.1432
v  -37.8937 9.8835 -62.2243
v  0.0000 9.8835 -63.9290
v  -34.9409 9.8835 -63.9290
v  -28.5433 9.8835 -52.8480
v  0.0000 9.8835 -52.8480
v  -76.5256 8.6532 -1.7048
v  -39.7392 8.6532 -65.4207
v  -40.3543 4.9623 -66.4862
v  -77.7559 4.9623 -1.7048
v  -58.0709 7.9150 -1.7048
v  -30.5118 7.9150 -49.4385
v  -36.7864 8.6532 -67.1255
v  -77.7559 4.9623 -0.0000
v  -37.4016 4.9623 -68.1910
v  -27.5590 7.9150 -51.1432
v  -77.7559 0.0000 -1.7048
v  -40.3543 0.0000 -66.4862
v  -77.7559 0.0000 -0.0000
v  -37.4016 0.0000 -68.1910
v  -26.2853 0.0000 -46.3897
v  -26.2853 5.9465 -46.3897
v  -27.0320 5.9465 -45.9586
v  -27.0320 0.0000 -45.9586
v  -55.2187 7.9150 -0.9405
v  -28.4239 7.9150 -47.3506
v  -26.7948 7.9150 -48.2911
v  0.0000 7.9150 -51.1432
v  0.0000 7.9150 -48.2911
v  -53.3173 5.9465 -0.4311
v  0.0000 5.9465 -46.3897
v  0.0000 8.6532 -67.1255
v  0.0000 4.9623 -68.1910
v  0.0000 0.0000 -68.1910
v  72.8346 9.8835 -1.7048
v  37.8937 9.8835 -62.2243
v  31.4961 9.8835 -51.1432
v  60.0394 9.8835 -1.7048
v  28.5433 9.8835 -52.8480
v  34.9409 9.8835 -63.9290
v  76.5256 8.6532 -1.7048
v  77.7559 4.9623 -1.7048
v  40.3543 4.9623 -66.4862
v  39.7392 8.6532 -65.4207
v  30.5118 7.9150 -49.4385
v  58.0709 7.9150 -1.7048
v  36.7864 8.6532 -67.1255
v  77.7559 4.9623 0.0000
v  37.4016 4.9623 -68.1910
v  27.5590 7.9150 -51.1432
v  28.4239 7.9150 -47.3506
v  55.2187 7.9150 -0.9405
v  26.7948 7.9150 -48.2911
v  53.3173 5.9465 -0.4311
v  27.0320 5.9465 -45.9586
v  26.2853 5.9465 -46.3897
v  37.4016 0.0000 -68.1910
v  -58.0709 7.9150 -0.0000
v  -53.3173 0.0000 -0.4311
v  -55.2187 7.9150 -0.0000
v  58.0709 7.9150 0.0000
v  55.2187 7.9150 0.0000
v  0.0000 0.0000 46.3897
v  -26.2853 0.0000 46.3897
v  -27.0320 0.0000 45.9586
v  -77.7559 0.0000 1.7048
v  -40.3543 0.0000 66.4862
v  -77.7559 0.0000 0.0000
v  53.3173 0.0000 0.4311
v  53.3173 0.0000 -0.0000
v  0.0000 0.0000 -46.3897
v  26.2853 0.0000 -46.3897
v  53.3173 0.0000 -0.4311
v  27.0320 0.0000 -45.9586
v  77.7559 0.0000 -1.7048
v  40.3543 0.0000 -66.4862
v  77.7559 0.0000 -0.0000
v  -72.8346 -9.8835 1.7048
v  -60.0394 -9.8835 1.7048
v  -31.4961 -9.8835 51.1432
v  -37.8937 -9.8835 62.2243
v  0.0000 -9.8835 63.9290
v  -34.9409 -9.8835 63.9290
v  -28.5433 -9.8835 52.8480
v  0.0000 -9.8835 52.8480
v  -76.5256 -8.6532 1.7048
v  -39.7392 -8.6532 65.4207
v  -40.3543 -4.9623 66.4862
v  -77.7559 -4.9623 1.7048
v  -58.0709 -7.9150 1.7048
v  -30.5118 -7.9150 49.4385
v  -72.8346 -9.8835 -0.0000
v  -76.5256 -8.6532 -0.0000
v  -36.7864 -8.6532 67.1255
v  -77.7559 -4.9623 0.0000
v  -37.4016 -4.9623 68.1910
v  -27.5590 -7.9150 51.1432
v  -55.2187 -7.9150 0.9405
v  -28.4239 -7.9150 47.3506
v  -26.7948 -7.9150 48.2911
v  0.0000 -7.9150 51.1432
v  0.0000 -7.9150 48.2911
v  -53.3173 -5.9465 0.4311
v  -27.0320 -5.9465 45.9586
v  -26.2853 -5.9465 46.3897
v  0.0000 -5.9465 46.3897
v  0.0000 -8.6532 67.1255
v  0.0000 -4.9623 68.1910
v  72.8346 -9.8835 1.7048
v  37.8937 -9.8835 62.2243
v  31.4961 -9.8835 51.1432
v  60.0394 -9.8835 1.7048
v  28.5433 -9.8835 52.8480
v  34.9409 -9.8835 63.9290
v  76.5256 -8.6532 1.7048
v  77.7559 -4.9623 1.7048
v  40.3543 -4.9623 66.4862
v  39.7392 -8.6532 65.4207
v  30.5118 -7.9150 49.4385
v  58.0709 -7.9150 1.7048
v  72.8346 -9.8835 -0.0000
v  76.5256 -8.6532 -0.0000
v  36.7864 -8.6532 67.1255
v  77.7559 -4.9623 -0.0000
v  37.4016 -4.9623 68.1910
v  27.5590 -7.9150 51.1432
v  27.0320 -5.9465 45.9586
v  26.2853 -5.9465 46.3897
v  28.4239 -7.9150 47.3506
v  55.2187 -7.9150 0.9405
v  26.7948 -7.9150 48.2911
v  53.3173 -5.9465 0.4311
v  -60.0394 -9.8835 -0.0000
v  -58.0709 -7.9150 0.0000
v  -53.3173 -5.9465 -0.0000
v  -55.2187 -7.9150 0.0000
v  60.0394 -9.8835 -0.0000
v  58.0709 -7.9150 -0.0000
v  55.2187 -7.9150 -0.0000
v  53.3173 -5.9465 -0.0000
v  -72.8346 -9.8835 -1.7048
v  -37.8937 -9.8835 -62.2243
v  -31.4961 -9.8835 -51.1432
v  -60.0394 -9.8835 -1.7048
v  -76.5256 -8.6532 -1.7048
v  -77.7559 -4.9623 -1.7048
v  -40.3543 -4.9623 -66.4862
v  -39.7392 -8.6532 -65.4207
v  -30.5118 -7.9150 -49.4385
v  -58.0709 -7.9150 -1.7048
v  -34.9409 -9.8835 -63.9290
v  -28.5433 -9.8835 -52.8480
v  -36.7864 -8.6532 -67.1255
v  -77.7559 -4.9623 -0.0000
v  -37.4016 -4.9623 -68.1910
v  -27.5590 -7.9150 -51.1432
v  -27.0320 -5.9465 -45.9586
v  -26.2853 -5.9465 -46.3897
v  -28.4239 -7.9150 -47.3506
v  -55.2187 -7.9150 -0.9405
v  -26.7948 -7.9150 -48.2911
v  0.0000 -7.9150 -51.1432
v  0.0000 -7.9150 -48.2911
v  -53.3173 -5.9465 -0.4311
v  0.0000 -5.9465 -46.3897
v  0.0000 -4.9623 -68.1910
v  0.0000 -8.6532 -67.1255
v  0.0000 -9.8835 -63.9290
v  0.0000 -9.8835 -52.8480
v  72.8346 -9.8835 -1.7048
v  60.0394 -9.8835 -1.7048
v  31.4961 -9.8835 -51.1432
v  37.8937 -9.8835 -62.2243
v  34.9409 -9.8835 -63.9290
v  28.5433 -9.8835 -52.8480
v  76.5256 -8.6532 -1.7048
v  39.7392 -8.6532 -65.4207
v  40.3543 -4.9623 -66.4862
v  77.7559 -4.9623 -1.7048
v  58.0709 -7.9150 -1.7048
v  30.5118 -7.9150 -49.4385
v  36.7864 -8.6532 -67.1255
v  77.7559 -4.9623 0.0000
v  37.4016 -4.9623 -68.1910
v  27.5590 -7.9150 -51.1432
v  55.2187 -7.9150 -0.9405
v  28.4239 -7.9150 -47.3506
v  26.7948 -7.9150 -48.2911
v  53.3173 -5.9465 -0.4311
v  27.0320 -5.9465 -45.9586
v  26.2853 -5.9465 -46.3897
v  -58.0709 -7.9150 -0.0000
v  -55.2187 -7.9150 -0.0000
v  58.0709 -7.9150 0.0000
v  55.2187 -7.9150 0.0000
# 270 vertices

vn 0.0000 1.0000 -0.0000
vn -0.8321 0.2774 0.4804
vn -0.3111 0.9333 0.1796
vn 0.6547 0.6547 -0.3780
vn -0.3162 0.9487 -0.0000
vn -0.1581 0.9487 0.2739
vn -0.9487 0.3162 -0.0000
vn -0.4743 0.3162 0.8216
vn 0.3536 0.7071 -0.6124
vn 0.0000 1.0000 0.0000
vn 0.6229 0.6947 -0.3596
vn 0.3596 0.6947 -0.6229
vn 0.0000 0.6947 -0.7193
vn 0.0000 0.2773 0.9608
vn 0.0000 0.9333 0.3592
vn -0.0000 0.6547 -0.7559
vn -0.2588 0.0000 0.9659
vn 0.0000 0.0000 1.0000
vn 0.8321 0.2774 0.4804
vn 0.3111 0.9333 0.1796
vn -0.6547 0.6547 -0.3780
vn 0.3162 0.9487 -0.0000
vn 0.1581 0.9487 0.2739
vn 0.9487 0.3162 -0.0000
vn 0.4743 0.3162 0.8216
vn -0.3536 0.7071 -0.6124
vn 0.9659 0.0000 0.2588
vn 0.7071 0.0000 0.7071
vn 1.0000 0.0000 -0.0000
vn 0.2588 0.0000 0.9659
vn -0.5000 0.0000 -0.8660
vn -0.0000 1.0000 0.0000
vn -0.6229 0.6947 -0.3596
vn -0.3596 0.6947 -0.6229
vn -0.0000 0.6947 -0.7193
vn 0.0000 0.6547 -0.7559
vn 0.7071 0.7071 -0.0000
vn -0.0000 1.0000 -0.0000
vn 0.7193 0.6947 -0.0000
vn -0.7071 0.7071 -0.0000
vn -0.7193 0.6947 -0.0000
vn -0.8321 0.2774 -0.4804
vn -0.3111 0.9333 -0.1796
vn 0.6547 0.6547 0.3780
vn -0.1581 0.9487 -0.2739
vn -0.4743 0.3162 -0.8216
vn 0.3536 0.7071 0.6124
vn -0.9659 0.0000 -0.2588
vn -0.7071 0.0000 -0.7071
vn -1.0000 0.0000 -0.0000
vn -0.2588 0.0000 -0.9659
vn 0.5000 0.0000 0.8660
vn 0.6229 0.6947 0.3596
vn 0.3596 0.6947 0.6229
vn 0.0000 0.6947 0.7193
vn 0.0000 0.2773 -0.9608
vn 0.0000 0.9333 -0.3592
vn -0.0000 0.6547 0.7559
vn 0.0000 0.0000 -1.0000
vn 0.8321 0.2774 -0.4804
vn 0.3111 0.9333 -0.1796
vn -0.6547 0.6547 0.3780
vn 0.1581 0.9487 -0.2739
vn 0.4743 0.3162 -0.8216
vn -0.3536 0.7071 0.6124
vn -0.6229 0.6947 0.3596
vn -0.3596 0.6947 0.6229
vn -0.0000 0.6947 0.7193
vn 0.0000 0.6547 0.7559
vn 0.2588 0.0000 -0.9659
vn 0.7071 0.7071 0.0000
vn 0.8660 0.0000 -0.5000
vn -0.7071 0.0000 0.7071
vn -0.9659 0.0000 0.2588
vn 0.5000 0.0000 -0.8660
vn -0.8660 0.0000 -0.5000
vn 0.8660 0.0000 0.5000
vn -0.8660 0.0000 0.5000
vn 0.7071 0.0000 -0.7071
vn 0.9659 0.0000 -0.2588
vn -0.5000 0.0000 0.8660
vn 0.0000 -1.0000 -0.0000
vn -0.8321 -0.2774 0.4804
vn -0.3111 -0.9333 0.1796
vn 0.6547 -0.6547 -0.3780
vn -0.3162 -0.9487 -0.0000
vn -0.1581 -0.9487 0.2739
vn -0.9487 -0.3162 -0.0000
vn -0.4743 -0.3162 0.8216
vn 0.3536 -0.7071 -0.6124
vn 0.0000 -1.0000 0.0000
vn 0.6229 -0.6947 -0.3596
vn 0.3596 -0.6947 -0.6229
vn 0.0000 -0.6947 -0.7193
vn 0.0000 -0.2773 0.9608
vn 0.0000 -0.9333 0.3592
vn -0.0000 -0.6547 -0.7559
vn 0.8321 -0.2774 0.4804
vn 0.3111 -0.9333 0.1796
vn -0.6547 -0.6547 -0.3780
vn 0.3162 -0.9487 -0.0000
vn 0.1581 -0.9487 0.2739
vn 0.9487 -0.3162 -0.0000
vn 0.4743 -0.3162 0.8216
vn -0.3536 -0.7071 -0.6124
vn -0.0000 -1.0000 0.0000
vn -0.6229 -0.6947 -0.3596
vn -0.3596 -0.6947 -0.6229
vn -0.0000 -0.6947 -0.7193
vn 0.0000 -0.6547 -0.7559
vn 0.7071 -0.7071 -0.0000
vn -0.0000 -1.0000 -0.0000
vn 0.7193 -0.6947 -0.0000
vn -0.7071 -0.7071 -0.0000
vn -0.7193 -0.6947 -0.0000
vn -0.8321 -0.2774 -0.4804
vn -0.3111 -0.9333 -0.1796
vn 0.6547 -0.6547 0.3780
vn 0.0000 -0.9869 -0.1611
vn -0.1581 -0.9487 -0.2739
vn -0.4743 -0.3162 -0.8216
vn 0.3536 -0.7071 0.6124
vn 0.6229 -0.6947 0.3596
vn 0.3596 -0.6947 0.6229
vn 0.0000 -0.6947 0.7193
vn 0.0000 -0.2773 -0.9608
vn 0.0000 -0.9832 -0.1827
vn 0.0000 -0.9333 -0.3592
vn -0.0000 -0.6547 0.7559
vn 0.8321 -0.2774 -0.4804
vn 0.3111 -0.9333 -0.1796
vn -0.6547 -0.6547 0.3780
vn 0.1581 -0.9487 -0.2739
vn 0.4743 -0.3162 -0.8216
vn -0.3536 -0.7071 0.6124
vn -0.6229 -0.6947 0.3596
vn -0.3596 -0.6947 0.6229
vn -0.0000 -0.6947 0.7193
vn 0.0000 -0.6547 0.7559
vn 0.7071 -0.7071 0.0000
# 140 vertex normals

vt -0.2264 0.4980 0.0000
vt 1.1364 0.4980 0.0000
vt 1.0117 0.7534 0.0000
vt -0.1016 0.7534 0.0000
vt 0.5000 0.3729 0.0000
vt 0.5000 0.6270 0.0000
vt 0.0569 0.6270 0.0000
vt -0.0425 0.3729 0.0000
vt 0.5173 0.2900 0.0000
vt 0.5173 0.3735 0.0000
vt 1.1728 0.3735 0.0000
vt 1.1620 0.2900 0.0000
vt -0.2624 0.4200 0.0000
vt 1.1724 0.4200 0.0000
vt 0.9925 0.7857 0.0000
vt -0.0824 0.7857 0.0000
vt 0.6656 0.3733 0.0000
vt 0.7368 0.3733 0.0000
vt 0.7368 0.6264 0.0000
vt 0.6656 0.6264 0.0000
vt 1.4188 1.1235 0.0000
vt 1.4188 1.0462 0.0000
vt 1.4605 1.0462 0.0000
vt 1.4605 1.1235 0.0000
vt 0.6656 0.2967 0.0000
vt 0.7368 0.2967 0.0000
vt 0.5000 0.2900 0.0000
vt 0.5000 0.3735 0.0000
vt 0.1338 0.2900 0.0000
vt 0.1044 0.2900 0.0000
vt 0.0983 0.3735 0.0000
vt 0.1277 0.3735 0.0000
vt 0.7368 0.6596 0.0000
vt 0.6656 0.6596 0.0000
vt -0.1331 0.4988 0.0000
vt 1.0387 0.4988 0.0000
vt 1.0225 0.6047 0.0000
vt -0.1169 0.6047 0.0000
vt 0.6789 0.4988 0.0000
vt 0.8214 0.4988 0.0000
vt 0.7895 0.6083 0.0000
vt 0.7108 0.6083 0.0000
vt 0.5000 0.4985 0.0000
vt 0.5000 0.6094 0.0000
vt -0.0614 0.6094 0.0000
vt -0.0774 0.4985 0.0000
vt -0.1265 0.9798 0.0000
vt -0.1377 0.8736 0.0000
vt 1.0415 0.8736 0.0000
vt 1.0303 0.9798 0.0000
vt 1.0185 0.9838 0.0000
vt 0.9887 0.8737 0.0000
vt 1.0988 0.8737 0.0000
vt 1.0690 0.9838 0.0000
vt -0.0122 0.9840 0.0000
vt -0.0221 0.8736 0.0000
vt 0.5000 0.8736 0.0000
vt 0.5000 0.9840 0.0000
vt -0.0711 0.2952 0.0000
vt 0.5000 0.2952 0.0000
vt 0.0721 0.6592 0.0000
vt 0.5000 0.6592 0.0000
vt 0.1277 0.4858 0.0000
vt 0.5000 0.4858 0.0000
vt 0.5173 0.4858 0.0000
vt 1.1728 0.4858 0.0000
vt 0.0983 0.4858 0.0000
vt 0.2535 0.5000 0.0000
vt 0.2535 0.3725 0.0000
vt 0.2465 0.3725 0.0000
vt 0.2465 0.5000 0.0000
vt 1.4605 1.3790 0.0000
vt 1.4188 1.3790 0.0000
vt 1.4605 1.4126 0.0000
vt 1.4188 1.4126 0.0000
vt 0.5042 0.3725 0.0000
vt 0.5042 0.5000 0.0000
vt 0.5000 0.5000 0.0000
vt 0.5000 0.3725 0.0000
vt 0.7479 0.4990 0.0000
vt 0.8321 0.4990 0.0000
vt 0.7944 0.6049 0.0000
vt 0.7479 0.6049 0.0000
vt 0.8177 -0.1267 0.0000
vt 0.8526 -0.1267 0.0000
vt 0.8337 -0.0181 0.0000
vt 0.8177 -0.0181 0.0000
vt 0.9519 0.3725 0.0000
vt 0.9519 0.5000 0.0000
vt 0.9477 0.3725 0.0000
vt 0.9477 0.5000 0.0000
# 91 texture coords

g Cylinder001
s 1
f 1/1/1 2/2/1 3/3/1 4/4/1 
f 5/5/1 6/6/1 7/7/1 8/8/1 
s off
f 9/9/2 10/10/2 11/11/2 12/12/2 
f 1/1/3 9/13/3 12/14/3 2/2/3 
f 3/3/4 13/15/4 14/16/4 4/4/4 
s 1
f 2/17/1 8/18/1 7/19/1 3/20/1 
s off
f 15/21/5 16/22/5 9/23/5 1/24/5 
f 8/18/6 2/17/6 12/25/6 17/26/6 
f 16/27/7 18/28/7 10/10/7 9/9/7 
f 17/29/8 12/30/8 11/31/8 19/32/8 
f 3/20/9 7/19/9 20/33/9 13/34/9 
f 14/35/1 13/36/1 21/37/1 22/38/1 
f 13/39/1 20/40/1 23/41/1 21/42/1 
f 24/43/10 25/44/10 23/45/10 20/46/10 
f 26/47/11 22/48/11 21/49/11 27/50/11 
f 27/51/12 21/52/12 23/53/12 28/54/12 
f 28/55/13 23/56/13 25/57/13 29/58/13 
f 17/29/14 19/32/14 30/28/14 31/27/14 
f 8/8/15 17/59/15 31/60/15 5/5/15 
f 20/61/16 7/7/16 6/6/16 24/62/16 
s 8
f 19/32/17 32/63/17 33/64/18 30/28/18 
s 1
f 34/1/1 35/4/1 36/3/1 37/2/1 
f 5/5/1 38/8/1 39/7/1 6/6/1 
s off
f 40/9/19 41/12/19 42/11/19 43/10/19 
f 34/1/20 37/2/20 41/14/20 40/13/20 
f 36/3/21 35/4/21 44/16/21 45/15/21 
s 1
f 37/17/1 36/20/1 39/19/1 38/18/1 
s off
f 40/23/22 46/22/22 47/21/22 34/24/22 
f 38/18/23 48/26/23 41/25/23 37/17/23 
f 43/10/24 49/28/24 46/27/24 40/9/24 
f 48/29/25 50/32/25 42/31/25 41/30/25 
f 36/20/26 45/34/26 51/33/26 39/19/26 
s 8
f 52/65/27 43/10/27 42/11/28 53/66/28 
f 52/65/27 54/64/29 49/28/29 43/10/27 
f 53/67/28 42/31/28 50/32/30 55/63/30 
s off
f 56/68/31 57/69/31 58/70/31 59/71/31 
f 44/35/1 60/38/1 61/37/1 45/36/1 
f 45/39/1 61/42/1 62/41/1 51/40/1 
f 24/43/32 51/46/32 62/45/32 25/44/32 
f 63/47/33 58/50/33 61/49/33 60/48/33 
f 58/51/34 57/54/34 62/53/34 61/52/34 
f 57/55/35 29/58/35 25/57/35 62/56/35 
f 48/29/14 31/27/14 30/28/14 50/32/14 
f 38/8/15 5/5/15 31/60/15 48/59/15 
f 51/61/36 24/62/36 6/6/36 39/7/36 
s 8
f 33/64/18 55/63/30 50/32/30 30/28/18 
s 1
f 1/24/1 4/72/1 64/73/1 15/21/1 
s off
f 4/72/37 14/74/37 65/75/37 64/73/37 
f 26/76/29 66/77/29 67/78/29 68/79/29 
f 65/80/38 14/81/38 22/82/38 69/83/38 
f 69/84/39 22/85/39 26/86/39 68/87/39 
s 1
f 35/72/1 34/24/1 47/21/1 70/73/1 
s off
f 44/74/40 35/72/40 70/73/40 71/75/40 
f 60/82/1 44/81/1 71/80/1 72/83/1 
f 63/86/41 60/85/41 72/84/41 73/87/41 
s 1
f 74/1/1 75/4/1 76/3/1 77/2/1 
f 78/5/1 79/8/1 80/7/1 81/6/1 
s off
f 82/9/42 83/12/42 84/11/42 85/10/42 
f 74/1/43 77/2/43 83/14/43 82/13/43 
f 76/3/44 75/4/44 86/16/44 87/15/44 
s 1
f 77/17/1 76/20/1 80/19/1 79/18/1 
s off
f 15/21/5 74/24/5 82/23/5 16/22/5 
f 79/18/45 88/26/45 83/25/45 77/17/45 
f 16/27/7 82/9/7 85/10/7 89/28/7 
f 88/29/46 90/32/46 84/31/46 83/30/46 
f 76/20/47 87/34/47 91/33/47 80/19/47 
s 8
f 92/65/48 85/10/48 84/11/49 93/66/49 
f 92/65/48 94/64/50 89/28/50 85/10/48 
f 93/67/49 84/31/49 90/32/51 95/63/51 
s off
f 96/68/52 97/69/52 98/70/52 99/71/52 
f 86/35/1 100/38/1 101/37/1 87/36/1 
f 87/39/1 101/42/1 102/41/1 91/40/1 
f 103/43/1 91/46/1 102/45/1 104/44/1 
f 105/47/53 98/50/53 101/49/53 100/48/53 
f 98/51/54 97/54/54 102/53/54 101/52/54 
f 97/55/55 106/58/55 104/57/55 102/56/55 
f 88/29/56 107/27/56 108/28/56 90/32/56 
f 79/8/57 78/5/57 107/60/57 88/59/57 
f 91/61/58 103/62/58 81/6/58 80/7/58 
s 8
f 109/64/59 95/63/51 90/32/51 108/28/59 
s 1
f 110/1/1 111/2/1 112/3/1 113/4/1 
f 78/5/1 81/6/1 114/7/1 115/8/1 
s off
f 116/9/60 117/10/60 118/11/60 119/12/60 
f 110/1/61 116/13/61 119/14/61 111/2/61 
f 112/3/62 120/15/62 121/16/62 113/4/62 
s 1
f 111/17/1 115/18/1 114/19/1 112/20/1 
s off
f 116/23/22 110/24/22 47/21/22 46/22/22 
f 115/18/63 111/17/63 119/25/63 122/26/63 
f 117/10/24 116/9/24 46/27/24 123/28/24 
f 122/29/64 119/30/64 118/31/64 124/32/64 
f 112/20/65 114/19/65 125/33/65 120/34/65 
f 121/35/1 120/36/1 126/37/1 127/38/1 
f 120/39/1 125/40/1 128/41/1 126/42/1 
f 103/43/38 104/44/38 128/45/38 125/46/38 
f 129/47/66 127/48/66 126/49/66 130/50/66 
f 130/51/67 126/52/67 128/53/67 131/54/67 
f 131/55/68 128/56/68 104/57/68 106/58/68 
f 122/29/56 124/32/56 108/28/56 107/27/56 
f 115/8/57 122/59/57 107/60/57 78/5/57 
f 125/61/69 114/7/69 81/6/69 103/62/69 
s 8
f 124/32/70 132/63/70 109/64/59 108/28/59 
s 1
f 74/24/1 15/21/1 64/73/1 75/72/1 
s off
f 75/72/71 64/73/71 133/75/71 86/74/71 
f 67/78/29 134/77/29 105/76/29 68/79/29 
f 133/80/32 135/83/32 100/82/32 86/81/32 
f 135/84/39 68/87/39 105/86/39 100/85/39 
s 1
f 113/72/1 70/73/1 47/21/1 110/24/1 
s off
f 121/74/40 136/75/40 70/73/40 113/72/40 
f 127/82/1 137/83/1 136/80/1 121/81/1 
f 129/86/41 73/87/41 137/84/41 127/85/41 
s 4
f 28/88/59 29/88/59 138/89/59 139/89/59 
s 2
f 66/77/72 26/76/72 27/90/72 140/91/72 
s 8
f 11/11/73 10/10/74 141/65/74 142/66/73 
f 141/65/74 10/10/74 18/28/50 143/64/50 
f 19/32/17 11/31/73 142/67/73 32/63/17 
s off
f 27/70/75 28/69/75 139/68/75 140/71/75 
s 4
f 29/88/59 57/88/59 56/89/59 138/89/59 
s 2
f 58/90/76 63/76/76 144/77/76 59/91/76 
s off
f 63/76/50 73/79/50 145/78/50 144/77/50 
s 4
f 106/88/18 97/88/18 96/89/18 146/89/18 
s 2
f 98/90/77 105/76/77 134/77/77 99/91/77 
s 4
f 131/88/18 106/88/18 146/89/18 147/89/18 
s 2
f 148/77/78 129/76/78 130/90/78 149/91/78 
s 8
f 118/11/79 117/10/80 150/65/80 151/66/79 
f 150/65/80 117/10/80 123/28/29 152/64/29 
f 124/32/70 118/31/79 151/67/79 132/63/70 
s off
f 130/70/81 131/69/81 147/68/81 149/71/81 
f 73/79/50 129/76/50 148/77/50 145/78/50 
s 1
f 153/1/82 154/4/82 155/3/82 156/2/82 
f 157/5/82 158/8/82 159/7/82 160/6/82 
s off
f 161/9/83 162/12/83 163/11/83 164/10/83 
f 153/1/84 156/2/84 162/14/84 161/13/84 
f 155/3/85 154/4/85 165/16/85 166/15/85 
s 1
f 156/17/82 155/20/82 159/19/82 158/18/82 
s off
f 167/21/86 153/24/86 161/23/86 168/22/86 
f 158/18/87 169/26/87 162/25/87 156/17/87 
f 168/27/88 161/9/88 164/10/88 170/28/88 
f 169/29/89 171/32/89 163/31/89 162/30/89 
f 155/20/90 166/34/90 172/33/90 159/19/90 
f 165/35/82 173/38/82 174/37/82 166/36/82 
f 166/39/82 174/42/82 175/41/82 172/40/82 
f 176/43/91 172/46/91 175/45/91 177/44/91 
f 178/47/92 179/50/92 174/49/92 173/48/92 
f 179/51/93 180/54/93 175/53/93 174/52/93 
f 180/55/94 181/58/94 177/57/94 175/56/94 
f 169/29/95 182/27/95 183/28/95 171/32/95 
f 158/8/96 157/5/96 182/60/96 169/59/96 
f 172/61/97 176/62/97 160/6/97 159/7/97 
s 8
f 171/32/17 183/28/18 33/64/18 32/63/17 
s 1
f 184/1/82 185/2/82 186/3/82 187/4/82 
f 157/5/82 160/6/82 188/7/82 189/8/82 
s off
f 190/9/98 191/10/98 192/11/98 193/12/98 
f 184/1/99 190/13/99 193/14/99 185/2/99 
f 186/3/100 194/15/100 195/16/100 187/4/100 
s 1
f 185/17/82 189/18/82 188/19/82 186/20/82 
s off
f 190/23/101 184/24/101 196/21/101 197/22/101 
f 189/18/102 185/17/102 193/25/102 198/26/102 
f 191/10/103 190/9/103 197/27/103 199/28/103 
f 198/29/104 193/30/104 192/31/104 200/32/104 
f 186/20/105 188/19/105 201/33/105 194/34/105 
s 8
f 52/65/27 53/66/28 192/11/28 191/10/27 
f 52/65/27 191/10/27 199/28/29 54/64/29 
f 53/67/28 55/63/30 200/32/30 192/31/28 
s off
f 56/68/31 59/71/31 202/70/31 203/69/31 
f 195/35/82 194/36/82 204/37/82 205/38/82 
f 194/39/82 201/40/82 206/41/82 204/42/82 
f 176/43/106 177/44/106 206/45/106 201/46/106 
f 207/47/107 205/48/107 204/49/107 202/50/107 
f 202/51/108 204/52/108 206/53/108 203/54/108 
f 203/55/109 206/56/109 177/57/109 181/58/109 
f 198/29/95 200/32/95 183/28/95 182/27/95 
f 189/8/96 198/59/96 182/60/96 157/5/96 
f 201/61/110 188/7/110 160/6/110 176/62/110 
s 8
f 33/64/18 183/28/18 200/32/30 55/63/30 
s 1
f 153/24/82 167/21/82 208/73/82 154/72/82 
s off
f 154/72/111 208/73/111 209/75/111 165/74/111 
f 178/76/29 210/79/29 67/78/29 66/77/29 
f 209/80/112 211/83/112 173/82/112 165/81/112 
f 211/84/113 210/87/113 178/86/113 173/85/113 
s 1
f 187/72/82 212/73/82 196/21/82 184/24/82 
s off
f 195/74/114 213/75/114 212/73/114 187/72/114 
f 205/82/82 214/83/82 213/80/82 195/81/82 
f 207/86/115 215/87/115 214/84/115 205/85/115 
s 1
f 216/1/82 217/2/82 218/3/82 219/4/82 
s off
f 220/9/116 221/10/116 222/11/116 223/12/116 
f 216/1/117 220/13/117 223/14/117 217/2/117 
f 218/3/118 224/15/118 225/16/118 219/4/118 
s 1
f 217/17/82 226/18/119 227/19/82 218/20/82 
s off
f 167/21/86 168/22/86 220/23/86 216/24/86 
f 226/18/120 217/17/120 223/25/120 228/26/120 
f 168/27/88 229/28/88 221/10/88 220/9/88 
f 228/29/121 223/30/121 222/31/121 230/32/121 
f 218/20/122 227/19/122 231/33/122 224/34/122 
s 8
f 92/65/48 93/66/49 222/11/49 221/10/48 
f 92/65/48 221/10/48 229/28/50 94/64/50 
f 93/67/49 95/63/51 230/32/51 222/31/49 
s off
f 96/68/52 99/71/52 232/70/52 233/69/52 
f 225/35/82 224/36/82 234/37/82 235/38/82 
f 224/39/82 231/40/82 236/41/82 234/42/82 
f 237/43/82 238/44/82 236/45/82 231/46/82 
f 239/47/123 235/48/123 234/49/123 232/50/123 
f 232/51/124 234/52/124 236/53/124 233/54/124 
f 233/55/125 236/56/125 238/57/125 240/58/125 
f 228/29/126 230/32/126 241/28/126 242/27/126 
s 1
f 243/5/127 244/6/82 227/7/82 226/8/119 
f 226/8/119 228/59/128 242/60/128 243/5/127 
s off
f 231/61/129 227/7/129 244/6/129 237/62/129 
s 8
f 109/64/59 241/28/59 230/32/51 95/63/51 
s 1
f 245/1/82 246/4/82 247/3/82 248/2/82 
f 243/5/82 249/8/82 250/7/82 244/6/82 
s off
f 251/9/130 252/12/130 253/11/130 254/10/130 
f 245/1/131 248/2/131 252/14/131 251/13/131 
f 247/3/132 246/4/132 255/16/132 256/15/132 
s 1
f 248/17/82 247/20/82 250/19/82 249/18/82 
s off
f 251/23/101 197/22/101 196/21/101 245/24/101 
f 249/18/133 257/26/133 252/25/133 248/17/133 
f 254/10/103 258/28/103 197/27/103 251/9/103 
f 257/29/134 259/32/134 253/31/134 252/30/134 
f 247/20/135 256/34/135 260/33/135 250/19/135 
f 255/35/82 261/38/82 262/37/82 256/36/82 
f 256/39/82 262/42/82 263/41/82 260/40/82 
f 237/43/112 260/46/112 263/45/112 238/44/112 
f 264/47/136 265/50/136 262/49/136 261/48/136 
f 265/51/137 266/54/137 263/53/137 262/52/137 
f 266/55/138 240/58/138 238/57/138 263/56/138 
f 257/29/126 242/27/126 241/28/126 259/32/126 
f 249/8/128 243/5/128 242/60/128 257/59/128 
f 260/61/139 237/62/139 244/6/139 250/7/139 
s 8
f 259/32/70 241/28/59 109/64/59 132/63/70 
s 1
f 216/24/82 219/72/82 208/73/82 167/21/82 
s off
f 219/72/140 225/74/140 267/75/140 208/73/140 
f 67/78/29 210/79/29 239/76/29 134/77/29 
f 267/80/106 225/81/106 235/82/106 268/83/106 
f 268/84/113 235/85/113 239/86/113 210/87/113 
s 1
f 246/72/82 245/24/82 196/21/82 212/73/82 
s off
f 255/74/114 246/72/114 212/73/114 269/75/114 
f 261/82/82 255/81/82 269/80/82 270/83/82 
f 264/86/115 261/85/115 270/84/115 215/87/115 
s 4
f 180/88/59 139/89/59 138/89/59 181/88/59 
s 2
f 66/77/72 140/91/72 179/90/72 178/76/72 
s 8
f 163/11/73 142/66/73 141/65/74 164/10/74 
f 141/65/74 143/64/50 170/28/50 164/10/74 
f 171/32/17 32/63/17 142/67/73 163/31/73 
s off
f 179/70/75 140/71/75 139/68/75 180/69/75 
s 4
f 181/88/59 138/89/59 56/89/59 203/88/59 
s 2
f 202/90/76 59/91/76 144/77/76 207/76/76 
s off
f 207/76/50 144/77/50 145/78/50 215/79/50 
s 4
f 240/88/18 146/89/18 96/89/18 233/88/18 
s 2
f 232/90/77 99/91/77 134/77/77 239/76/77 
s 4
f 266/88/18 147/89/18 146/89/18 240/88/18 
s 2
f 148/77/78 149/91/78 265/90/78 264/76/78 
s 8
f 253/11/79 151/66/79 150/65/80 254/10/80 
f 150/65/80 152/64/29 258/28/29 254/10/80 
f 259/32/70 132/63/70 151/67/79 253/31/79 
s off
f 265/70/81 149/71/81 147/68/81 266/69/81 
f 215/79/50 145/78/50 148/77/50 264/76/50 
# 256 polygons

