# 3ds Max Wavefront OBJ Exporter v0.97b - (c)2007 guruware
# File Created: 28.10.2012 21:32:16

#
# object Cylinder001
#

v  72.8346 9.8835 -1.7048
v  37.8937 9.8835 -62.2243
v  31.4961 9.8835 -51.1432
v  60.0394 9.8835 -1.7048
v  34.9409 9.8835 -63.9290
v  -34.9409 9.8835 -63.9290
v  -28.5433 9.8835 -52.8480
v  28.5433 9.8835 -52.8480
v  -37.8937 9.8835 -62.2243
v  -72.8346 9.8835 -1.7048
v  -60.0394 9.8835 -1.7048
v  -31.4961 9.8835 -51.1432
v  -72.8346 9.8835 1.7048
v  -37.8937 9.8835 62.2243
v  -31.4961 9.8835 51.1432
v  -60.0394 9.8835 1.7048
v  -34.9409 9.8835 63.9290
v  34.9409 9.8835 63.9290
v  28.5433 9.8835 52.8480
v  -28.5433 9.8835 52.8480
v  37.8937 9.8835 62.2243
v  72.8346 9.8835 1.7048
v  60.0394 9.8835 1.7048
v  31.4961 9.8835 51.1432
v  76.5256 8.6532 -1.7048
v  77.7559 4.9623 -1.7048
v  40.3543 4.9623 -66.4862
v  39.7392 8.6532 -65.4207
v  36.7864 8.6532 -67.1255
v  37.4016 4.9623 -68.1910
v  -37.4016 4.9623 -68.1910
v  -36.7864 8.6532 -67.1255
v  -39.7392 8.6532 -65.4207
v  -40.3543 4.9623 -66.4862
v  -77.7559 4.9623 -1.7048
v  -76.5256 8.6532 -1.7048
v  -76.5256 8.6532 1.7048
v  -77.7559 4.9623 1.7048
v  -40.3543 4.9623 66.4862
v  -39.7392 8.6532 65.4207
v  -36.7864 8.6532 67.1255
v  -37.4016 4.9623 68.1910
v  37.4016 4.9623 68.1910
v  36.7864 8.6532 67.1255
v  39.7392 8.6532 65.4207
v  40.3543 4.9623 66.4862
v  77.7559 4.9623 1.7048
v  76.5256 8.6532 1.7048
v  30.5118 7.9150 -49.4385
v  58.0709 7.9150 -1.7048
v  -27.5591 7.9150 -51.1432
v  27.5591 7.9150 -51.1432
v  -58.0709 7.9150 -1.7048
v  -30.5118 7.9150 -49.4385
v  -30.5118 7.9150 49.4385
v  -58.0709 7.9150 1.7048
v  27.5591 7.9150 51.1432
v  -27.5590 7.9150 51.1432
v  58.0709 7.9150 1.7048
v  30.5118 7.9150 49.4385
v  72.8346 -9.8835 -1.7048
v  60.0394 -9.8835 -1.7048
v  31.4961 -9.8835 -51.1432
v  37.8937 -9.8835 -62.2243
v  34.9409 -9.8835 -63.9290
v  28.5433 -9.8835 -52.8480
v  -28.5433 -9.8835 -52.8480
v  -34.9409 -9.8835 -63.9290
v  -37.8937 -9.8835 -62.2243
v  -31.4961 -9.8835 -51.1432
v  -60.0394 -9.8835 -1.7048
v  -72.8346 -9.8835 -1.7048
v  -72.8346 -9.8835 1.7048
v  -60.0394 -9.8835 1.7048
v  -31.4961 -9.8835 51.1432
v  -37.8937 -9.8835 62.2243
v  -34.9409 -9.8835 63.9290
v  -28.5433 -9.8835 52.8480
v  28.5433 -9.8835 52.8480
v  34.9409 -9.8835 63.9290
v  37.8937 -9.8835 62.2243
v  31.4961 -9.8835 51.1432
v  60.0394 -9.8835 1.7048
v  72.8346 -9.8835 1.7048
v  27.5591 0.0000 -51.1432
v  -27.5591 0.0000 -51.1432
v  -27.5591 -7.9150 -51.1432
v  27.5591 -7.9150 -51.1432
v  58.0709 0.0000 -1.7048
v  30.5118 0.0000 -49.4385
v  30.5118 -7.9150 -49.4385
v  58.0709 -7.9150 -1.7048
v  30.5118 0.0000 49.4385
v  58.0709 0.0000 1.7048
v  58.0709 -7.9150 1.7048
v  30.5118 -7.9150 49.4385
v  -27.5590 0.0000 51.1432
v  27.5591 0.0000 51.1432
v  27.5591 -7.9150 51.1432
v  -27.5590 -7.9150 51.1432
v  -58.0709 0.0000 1.7048
v  -30.5118 0.0000 49.4385
v  -30.5118 -7.9150 49.4385
v  -58.0709 -7.9150 1.7048
v  -30.5118 0.0000 -49.4385
v  -58.0709 0.0000 -1.7048
v  -58.0709 -7.9150 -1.7048
v  -30.5118 -7.9150 -49.4385
v  76.5256 -8.6532 -1.7048
v  39.7392 -8.6532 -65.4207
v  40.3543 -4.9623 -66.4862
v  77.7559 -4.9623 -1.7048
v  36.7864 -8.6532 -67.1255
v  -36.7864 -8.6532 -67.1255
v  -37.4016 -4.9623 -68.1910
v  37.4016 -4.9623 -68.1910
v  -39.7392 -8.6532 -65.4207
v  -76.5256 -8.6532 -1.7048
v  -77.7559 -4.9623 -1.7048
v  -40.3543 -4.9623 -66.4862
v  -76.5256 -8.6532 1.7048
v  -39.7392 -8.6532 65.4207
v  -40.3543 -4.9623 66.4862
v  -77.7559 -4.9623 1.7048
v  -36.7864 -8.6532 67.1255
v  36.7864 -8.6532 67.1255
v  37.4016 -4.9623 68.1910
v  -37.4016 -4.9623 68.1910
v  39.7392 -8.6532 65.4207
v  76.5256 -8.6532 1.7048
v  77.7559 -4.9623 1.7048
v  40.3543 -4.9623 66.4862
v  77.7559 0.0000 -1.7048
v  77.7559 0.0000 1.7048
v  40.3543 0.0000 -66.4862
v  37.4016 0.0000 -68.1910
v  -37.4016 0.0000 -68.1910
v  -40.3543 0.0000 -66.4862
v  -77.7559 0.0000 -1.7048
v  -77.7559 0.0000 1.7048
v  -40.3543 0.0000 66.4862
v  -37.4016 0.0000 68.1910
v  37.4016 0.0000 68.1910
v  40.3543 0.0000 66.4862
# 144 vertices

vn 0.0000 1.0000 -0.0000
vn 0.8321 0.2774 -0.4804
vn -0.0000 0.2773 -0.9608
vn -0.8321 0.2774 -0.4804
vn -0.8321 0.2774 0.4804
vn 0.0000 0.2773 0.9608
vn 0.8321 0.2774 0.4804
vn 0.3111 0.9333 -0.1796
vn -0.0000 0.9333 -0.3592
vn -0.3111 0.9333 -0.1796
vn -0.3111 0.9333 0.1796
vn 0.0000 0.9333 0.3592
vn 0.3111 0.9333 0.1796
vn -0.6547 0.6547 0.3780
vn 0.0000 0.6547 0.7559
vn 0.6547 0.6547 0.3780
vn 0.6547 0.6547 -0.3780
vn -0.0000 0.6547 -0.7559
vn -0.6547 0.6547 -0.3780
vn 0.3162 0.9487 -0.0000
vn 0.1581 0.9487 -0.2739
vn -0.1581 0.9487 -0.2739
vn -0.3162 0.9487 -0.0000
vn -0.1581 0.9487 0.2739
vn 0.1581 0.9487 0.2739
vn 0.9487 0.3162 -0.0000
vn 0.4743 0.3162 -0.8216
vn -0.4743 0.3162 -0.8216
vn -0.9487 0.3162 -0.0000
vn -0.4743 0.3162 0.8216
vn 0.4743 0.3162 0.8216
vn -0.7071 0.7071 -0.0000
vn -0.3536 0.7071 0.6124
vn 0.3536 0.7071 0.6124
vn 0.7071 0.7071 -0.0000
vn 0.3536 0.7071 -0.6124
vn -0.3536 0.7071 -0.6124
vn 0.0000 -1.0000 -0.0000
vn 0.0000 0.0000 1.0000
vn -0.8660 0.0000 0.5000
vn -0.8660 0.0000 -0.5000
vn -0.0000 0.0000 -1.0000
vn 0.8660 0.0000 -0.5000
vn 0.8660 0.0000 0.5000
vn 0.8321 -0.2774 -0.4804
vn -0.0000 -0.2773 -0.9608
vn -0.8321 -0.2774 -0.4804
vn -0.8321 -0.2774 0.4804
vn 0.0000 -0.2773 0.9608
vn 0.8321 -0.2774 0.4804
vn 0.3111 -0.9333 -0.1796
vn -0.0000 -0.9333 -0.3592
vn -0.3111 -0.9333 -0.1796
vn -0.3111 -0.9333 0.1796
vn 0.0000 -0.9333 0.3592
vn 0.3111 -0.9333 0.1796
vn -0.6547 -0.6547 0.3780
vn 0.0000 -0.6547 0.7559
vn 0.6547 -0.6547 0.3780
vn 0.6547 -0.6547 -0.3780
vn -0.0000 -0.6547 -0.7559
vn -0.6547 -0.6547 -0.3780
vn 0.9659 0.0000 -0.2588
vn 0.9659 0.0000 0.2588
vn 0.5000 0.0000 0.8660
vn 0.3162 -0.9487 -0.0000
vn 0.1581 -0.9487 -0.2739
vn -0.1581 -0.9487 -0.2739
vn -0.3162 -0.9487 -0.0000
vn -0.1581 -0.9487 0.2739
vn 0.1581 -0.9487 0.2739
vn 0.9487 -0.3162 -0.0000
vn 0.4743 -0.3162 -0.8216
vn -0.4743 -0.3162 -0.8216
vn -0.9487 -0.3162 -0.0000
vn -0.4743 -0.3162 0.8216
vn 0.4743 -0.3162 0.8216
vn -0.7071 -0.7071 -0.0000
vn -0.3536 -0.7071 0.6124
vn 0.3536 -0.7071 0.6124
vn 0.7071 -0.7071 -0.0000
vn 0.3536 -0.7071 -0.6124
vn -0.3536 -0.7071 -0.6124
vn 0.7071 0.0000 -0.7071
vn -0.2588 0.0000 -0.9659
vn 0.2588 0.0000 -0.9659
vn -0.9659 0.0000 -0.2588
vn -0.7071 0.0000 -0.7071
vn -0.7071 0.0000 0.7071
vn -0.9659 0.0000 0.2588
vn 0.2588 0.0000 0.9659
vn -0.2588 0.0000 0.9659
vn 0.7071 0.0000 0.7071
vn -0.5000 0.0000 0.8660
vn -1.0000 0.0000 -0.0000
vn -0.5000 0.0000 -0.8660
vn 0.5000 0.0000 -0.8660
vn 1.0000 0.0000 -0.0000
# 98 vertex normals

vt -0.1788 0.4937 0.0000
vt 1.0947 0.4937 0.0000
vt 0.9781 0.7571 0.0000
vt -0.0622 0.7571 0.0000
vt 0.0382 0.3709 0.0000
vt 0.9618 0.3709 0.0000
vt 0.8772 0.6301 0.0000
vt 0.1228 0.6301 0.0000
vt -0.0708 0.4981 0.0000
vt 1.1515 0.4981 0.0000
vt 1.0396 0.7548 0.0000
vt 0.0411 0.7548 0.0000
vt -0.2264 0.4980 0.0000
vt 1.1364 0.4980 0.0000
vt 1.0117 0.7534 0.0000
vt -0.1016 0.7534 0.0000
vt -0.0425 0.3729 0.0000
vt 1.0425 0.3729 0.0000
vt 0.9431 0.6270 0.0000
vt 0.0569 0.6270 0.0000
vt -0.1072 0.4931 0.0000
vt 1.1930 0.4931 0.0000
vt 1.0740 0.7563 0.0000
vt 0.0119 0.7563 0.0000
vt 0.4827 0.2900 0.0000
vt 0.4827 0.3735 0.0000
vt -0.1728 0.3735 0.0000
vt -0.1620 0.2900 0.0000
vt 0.8662 0.2900 0.0000
vt 0.8723 0.3735 0.0000
vt 0.1277 0.3735 0.0000
vt 0.1338 0.2900 0.0000
vt 0.5173 0.2900 0.0000
vt 0.5173 0.3735 0.0000
vt 1.1728 0.3735 0.0000
vt 1.1620 0.2900 0.0000
vt -0.2124 0.4133 0.0000
vt 1.1283 0.4133 0.0000
vt 0.0138 0.2918 0.0000
vt 0.9862 0.2918 0.0000
vt -0.1030 0.4197 0.0000
vt 1.1837 0.4197 0.0000
vt -0.2624 0.4200 0.0000
vt 1.1724 0.4200 0.0000
vt -0.0711 0.2952 0.0000
vt 1.0711 0.2952 0.0000
vt -0.1415 0.4127 0.0000
vt 1.2273 0.4127 0.0000
vt 0.9602 0.7904 0.0000
vt -0.0442 0.7904 0.0000
vt 0.8642 0.6630 0.0000
vt 0.1358 0.6630 0.0000
vt 1.0223 0.7873 0.0000
vt 0.0583 0.7873 0.0000
vt 0.9925 0.7857 0.0000
vt -0.0824 0.7857 0.0000
vt 0.9279 0.6592 0.0000
vt 0.0721 0.6592 0.0000
vt 1.0557 0.7896 0.0000
vt 0.0302 0.7896 0.0000
vt 0.6659 0.3692 0.0000
vt 0.7302 0.3692 0.0000
vt 0.7302 0.6317 0.0000
vt 0.6659 0.6317 0.0000
vt 0.7373 0.7557 0.0000
vt 0.6724 0.7557 0.0000
vt 0.6724 0.4939 0.0000
vt 0.7373 0.4939 0.0000
vt 0.9265 0.3717 0.0000
vt 0.9999 0.3717 0.0000
vt 0.9999 0.6301 0.0000
vt 0.9265 0.6301 0.0000
vt 1.3770 1.1235 0.0000
vt 1.4605 1.1235 0.0000
vt 1.4605 1.3790 0.0000
vt 1.3770 1.3790 0.0000
vt 0.6656 0.3733 0.0000
vt 0.7368 0.3733 0.0000
vt 0.7368 0.6264 0.0000
vt 0.6656 0.6264 0.0000
vt 0.6660 0.4930 0.0000
vt 0.7277 0.4930 0.0000
vt 0.7277 0.7576 0.0000
vt 0.6660 0.7576 0.0000
vt 0.6724 0.4147 0.0000
vt 0.7373 0.4147 0.0000
vt 0.6659 0.2898 0.0000
vt 0.7302 0.2898 0.0000
vt 0.9265 0.2972 0.0000
vt 0.9999 0.2972 0.0000
vt 1.3770 1.0462 0.0000
vt 1.4605 1.0462 0.0000
vt 0.6656 0.2967 0.0000
vt 0.7368 0.2967 0.0000
vt 0.6660 0.4129 0.0000
vt 0.7277 0.4129 0.0000
vt 0.8956 0.2900 0.0000
vt 0.9017 0.3735 0.0000
vt 0.1044 0.2900 0.0000
vt 0.0983 0.3735 0.0000
vt 0.7373 0.7900 0.0000
vt 0.6724 0.7900 0.0000
vt 0.7302 0.6661 0.0000
vt 0.6659 0.6661 0.0000
vt 0.9999 0.6698 0.0000
vt 0.9265 0.6698 0.0000
vt 1.4605 1.4126 0.0000
vt 1.3770 1.4126 0.0000
vt 0.7368 0.6596 0.0000
vt 0.6656 0.6596 0.0000
vt 0.7277 0.7923 0.0000
vt 0.6660 0.7923 0.0000
vt 0.8026 0.5000 0.0000
vt 0.8026 0.3722 0.0000
vt 0.1974 0.3722 0.0000
vt 0.1974 0.5000 0.0000
vt 0.4855 0.5000 0.0000
vt 0.4855 0.3722 0.0000
vt 0.0795 0.3722 0.0000
vt 0.0795 0.5000 0.0000
vt 0.9205 0.5000 0.0000
vt 0.9205 0.3722 0.0000
vt 0.5145 0.3722 0.0000
vt 0.5145 0.5000 0.0000
vt 0.4827 0.6815 0.0000
vt -0.1620 0.6815 0.0000
vt -0.1728 0.5980 0.0000
vt 0.4827 0.5980 0.0000
vt 0.8662 0.6815 0.0000
vt 0.1338 0.6815 0.0000
vt 0.1277 0.5980 0.0000
vt 0.8723 0.5980 0.0000
vt 0.5173 0.6815 0.0000
vt 1.1620 0.6815 0.0000
vt 1.1728 0.5980 0.0000
vt 0.5173 0.5980 0.0000
vt 0.4827 0.4858 0.0000
vt 0.5173 0.4858 0.0000
vt 0.1650 0.3722 0.0000
vt 0.1650 0.5000 0.0000
vt 0.9017 0.5980 0.0000
vt 0.8956 0.6815 0.0000
vt 0.1044 0.6815 0.0000
vt 0.0983 0.5980 0.0000
vt -0.1728 0.4858 0.0000
vt 0.8723 0.4858 0.0000
vt 0.1277 0.4858 0.0000
vt 1.1728 0.4858 0.0000
vt 0.9017 0.4858 0.0000
vt 0.0983 0.4858 0.0000
vt 0.8350 0.3722 0.0000
vt 0.8350 0.5000 0.0000
# 152 texture coords

g Cylinder001
s 1
f 1/1/1 2/2/1 3/3/1 4/4/1 
f 5/5/1 6/6/1 7/7/1 8/8/1 
f 9/9/1 10/10/1 11/11/1 12/12/1 
f 13/13/1 14/14/1 15/15/1 16/16/1 
f 17/17/1 18/18/1 19/19/1 20/20/1 
f 21/21/1 22/22/1 23/23/1 24/24/1 
s off
f 25/25/2 26/26/2 27/27/2 28/28/2 
f 29/29/3 30/30/3 31/31/3 32/32/3 
f 33/28/4 34/27/4 35/26/4 36/25/4 
f 37/33/5 38/34/5 39/35/5 40/36/5 
f 41/32/6 42/31/6 43/30/6 44/29/6 
f 45/36/7 46/35/7 47/34/7 48/33/7 
f 1/1/8 25/37/8 28/38/8 2/2/8 
f 5/5/9 29/39/9 32/40/9 6/6/9 
f 9/9/10 33/41/10 36/42/10 10/10/10 
f 13/13/11 37/43/11 40/44/11 14/14/11 
f 17/17/12 41/45/12 44/46/12 18/18/12 
f 21/21/13 45/47/13 48/48/13 22/22/13 
f 3/3/14 49/49/14 50/50/14 4/4/14 
f 7/7/15 51/51/15 52/52/15 8/8/15 
f 11/11/16 53/53/16 54/54/16 12/12/16 
f 15/15/17 55/55/17 56/56/17 16/16/17 
f 19/19/18 57/57/18 58/58/18 20/20/18 
f 23/23/19 59/59/19 60/60/19 24/24/19 
s 1
f 2/61/1 5/62/1 8/63/1 3/64/1 
f 4/65/1 23/66/1 22/67/1 1/68/1 
f 6/69/1 9/70/1 12/71/1 7/72/1 
f 10/73/1 13/74/1 16/75/1 11/76/1 
f 14/77/1 17/78/1 20/79/1 15/80/1 
f 18/81/1 21/82/1 24/83/1 19/84/1 
s off
f 1/68/20 22/67/20 48/85/20 25/86/20 
f 5/62/21 2/61/21 28/87/21 29/88/21 
f 9/70/22 6/69/22 32/89/22 33/90/22 
f 13/74/23 10/73/23 36/91/23 37/92/23 
f 17/78/24 14/77/24 40/93/24 41/94/24 
f 21/82/25 18/81/25 44/95/25 45/96/25 
f 25/25/26 48/33/26 47/34/26 26/26/26 
f 29/29/27 28/97/27 27/98/27 30/30/27 
f 33/99/28 32/32/28 31/31/28 34/100/28 
f 37/33/29 36/25/29 35/26/29 38/34/29 
f 41/32/30 40/99/30 39/100/30 42/31/30 
f 45/97/31 44/29/31 43/30/31 46/98/31 
f 23/66/32 4/65/32 50/101/32 59/102/32 
f 3/64/33 8/63/33 52/103/33 49/104/33 
f 7/72/34 12/71/34 54/105/34 51/106/34 
f 11/76/35 16/75/35 56/107/35 53/108/35 
f 15/80/36 20/79/36 58/109/36 55/110/36 
f 19/84/37 24/83/37 60/111/37 57/112/37 
s 1
f 61/1/38 62/4/38 63/3/38 64/2/38 
f 65/5/38 66/8/38 67/7/38 68/6/38 
f 69/9/38 70/12/38 71/11/38 72/10/38 
f 73/13/38 74/16/38 75/15/38 76/14/38 
f 77/17/38 78/20/38 79/19/38 80/18/38 
f 81/21/38 82/24/38 83/23/38 84/22/38 
s 2
f 85/113/39 52/114/39 51/115/39 86/116/39 
f 85/113/39 86/116/39 87/115/39 88/114/39 
s 4
f 89/117/40 50/118/40 49/119/40 90/120/40 
f 89/117/40 90/120/40 91/119/40 92/118/40 
s 2
f 93/121/41 60/122/41 59/123/41 94/124/41 
f 93/121/41 94/124/41 95/123/41 96/122/41 
s 4
f 97/116/42 58/115/42 57/114/42 98/113/42 
f 97/116/42 98/113/42 99/114/42 100/115/42 
s 2
f 101/124/43 56/123/43 55/122/43 102/121/43 
f 101/124/43 102/121/43 103/122/43 104/123/43 
s 4
f 105/120/44 54/119/44 53/118/44 106/117/44 
f 105/120/44 106/117/44 107/118/44 108/119/44 
s off
f 109/125/45 110/126/45 111/127/45 112/128/45 
f 113/129/46 114/130/46 115/131/46 116/132/46 
f 117/126/47 118/125/47 119/128/47 120/127/47 
f 121/133/48 122/134/48 123/135/48 124/136/48 
f 125/130/49 126/129/49 127/132/49 128/131/49 
f 129/134/50 130/133/50 131/136/50 132/135/50 
f 61/1/51 64/2/51 110/38/51 109/37/51 
f 65/5/52 68/6/52 114/40/52 113/39/52 
f 69/9/53 72/10/53 118/42/53 117/41/53 
f 73/13/54 76/14/54 122/44/54 121/43/54 
f 77/17/55 80/18/55 126/46/55 125/45/55 
f 81/21/56 84/22/56 130/48/56 129/47/56 
f 63/3/57 62/4/57 92/50/57 91/49/57 
f 67/7/58 66/8/58 88/52/58 87/51/58 
f 71/11/59 70/12/59 108/54/59 107/53/59 
f 75/15/60 74/16/60 104/56/60 103/55/60 
f 79/19/61 78/20/61 100/58/61 99/57/61 
f 83/23/62 82/24/62 96/60/62 95/59/62 
s 8
f 133/137/63 26/26/63 47/34/64 134/138/64 
f 133/137/63 134/138/64 131/136/64 112/128/63 
s 1
f 64/61/38 63/64/38 66/63/38 65/62/38 
f 62/65/38 61/68/38 84/67/38 83/66/38 
f 68/69/38 67/72/38 70/71/38 69/70/38 
f 72/73/38 71/76/38 74/75/38 73/74/38 
f 76/77/38 75/80/38 78/79/38 77/78/38 
f 80/81/38 79/84/38 82/83/38 81/82/38 
s off
f 86/116/65 51/115/65 54/139/65 105/140/65 
f 86/116/65 105/140/65 108/139/65 87/115/65 
f 61/68/66 109/86/66 130/85/66 84/67/66 
f 65/62/67 113/88/67 110/87/67 64/61/67 
f 69/70/68 117/90/68 114/89/68 68/69/68 
f 73/74/69 121/92/69 118/91/69 72/73/69 
f 77/78/70 125/94/70 122/93/70 76/77/70 
f 81/82/71 129/96/71 126/95/71 80/81/71 
f 109/125/72 112/128/72 131/136/72 130/133/72 
f 113/129/73 116/132/73 111/141/73 110/142/73 
f 117/143/74 120/144/74 115/131/74 114/130/74 
f 121/133/75 124/136/75 119/128/75 118/125/75 
f 125/130/76 128/131/76 123/144/76 122/143/76 
f 129/142/77 132/141/77 127/132/77 126/129/77 
f 83/66/78 95/102/78 92/101/78 62/65/78 
f 63/64/79 91/104/79 88/103/79 66/63/79 
f 67/72/80 87/106/80 108/105/80 70/71/80 
f 71/76/81 107/108/81 104/107/81 74/75/81 
f 75/80/82 103/110/82 100/109/82 78/79/82 
f 79/84/83 99/112/83 96/111/83 82/83/83 
s 8
f 27/27/84 26/26/63 133/137/63 135/145/84 
f 133/137/63 112/128/63 111/127/84 135/145/84 
f 31/31/85 30/30/86 136/146/86 137/147/85 
f 136/146/86 116/132/86 115/131/85 137/147/85 
f 35/26/87 34/27/88 138/145/88 139/137/87 
f 138/145/88 120/127/88 119/128/87 139/137/87 
f 39/35/89 38/34/90 140/138/90 141/148/89 
f 140/138/90 124/136/90 123/135/89 141/148/89 
f 43/30/91 42/31/92 142/147/92 143/146/91 
f 142/147/92 128/131/92 127/132/91 143/146/91 
f 47/34/64 46/35/93 144/148/93 134/138/64 
f 144/148/93 132/135/93 131/136/64 134/138/64 
f 30/30/86 27/98/84 135/149/84 136/146/86 
f 135/149/84 111/141/84 116/132/86 136/146/86 
f 34/100/88 31/31/85 137/147/85 138/150/88 
f 137/147/85 115/131/85 120/144/88 138/150/88 
f 38/34/90 35/26/87 139/137/87 140/138/90 
f 139/137/87 119/128/87 124/136/90 140/138/90 
f 42/31/92 39/100/89 141/150/89 142/147/92 
f 141/150/89 123/144/89 128/131/92 142/147/92 
f 46/98/93 43/30/91 143/146/91 144/149/93 
f 143/146/91 127/132/91 132/141/93 144/149/93 
s off
f 49/151/94 52/114/94 85/113/94 90/152/94 
f 85/113/94 88/114/94 91/151/94 90/152/94 
f 59/123/95 50/118/95 89/117/95 94/124/95 
f 89/117/95 92/118/95 95/123/95 94/124/95 
f 57/114/96 60/151/96 93/152/96 98/113/96 
f 93/152/96 96/151/96 99/114/96 98/113/96 
f 55/139/97 58/115/97 97/116/97 102/140/97 
f 97/116/97 100/115/97 103/139/97 102/140/97 
f 53/118/98 56/123/98 101/124/98 106/117/98 
f 101/124/98 104/123/98 107/118/98 106/117/98 
# 144 polygons

