# 3ds Max Wavefront OBJ Exporter v0.97b - (c)2007 guruware
# File Created: 04.09.2012 00:10:21

mtllib Large_Wall_01.mtl

#
# object Plane003
#

v  -0.0000 7.3819 9.8425
v  0.0000 31.9882 9.8425
v  0.0000 31.9882 -4.9291
v  -0.0000 7.3819 -4.9291
v  -9.8425 7.3819 19.6850
v  -9.8425 31.9882 19.6850
v  -24.6036 7.3819 19.6850
v  -24.6036 31.9882 19.6850
v  -4.9213 0.0000 9.8425
v  -4.9213 0.0000 -4.9291
v  -4.9213 39.3701 -4.9291
v  -4.9213 39.3701 9.8425
v  -9.8425 39.3701 14.7638
v  -9.8425 0.0000 14.7638
v  -24.6036 39.3701 14.7638
v  -24.6036 0.0000 14.7638
# 16 vertices

vn -0.9571 0.2898 -0.0000
vn -0.9571 -0.2898 -0.0000
vn -0.7071 0.0000 -0.7071
vn 0.0000 0.0000 -1.0000
vn -0.8321 0.5547 -0.0000
vn -0.8321 -0.5547 -0.0000
vn -0.6396 -0.4264 -0.6396
vn -0.6396 0.4264 -0.6396
vn -0.0000 -0.5547 -0.8321
vn 0.0000 0.5547 -0.8321
# 10 vertex normals

vt 0.8125 0.0000 0.0000
vt 0.1875 0.0000 0.0000
vt 0.1875 1.0000 0.0000
vt 0.8125 1.0000 0.0000
vt 1.0000 0.0000 0.0000
vt 1.0000 1.0000 0.0000
vt 0.0000 1.0000 0.0000
vt 0.0000 0.0000 0.0000
# 8 texture coords

g Plane003
usemtl wire_134110008
s 1
f 1/1/1 2/2/2 3/3/2 4/4/1 
s off
f 2/2/3 1/1/3 5/1/3 6/2/3 
f 6/2/4 5/1/4 7/1/4 8/2/4 
s 1
f 9/5/5 1/1/1 4/4/1 10/6/5 
f 11/7/6 3/3/2 2/2/2 12/8/6 
s off
f 12/8/7 2/2/7 6/2/7 13/8/7 
f 14/5/8 5/1/8 1/1/8 9/5/8 
f 13/8/9 6/2/9 8/2/9 15/8/9 
f 16/5/10 7/1/10 5/1/10 14/5/10 
# 9 polygons

