# 3ds Max Wavefront OBJ Exporter v0.97b - (c)2007 guruware
# File Created: 06.09.2012 20:35:50

mtllib Light_02.mtl

#
# object Cylinder001
#

v  -38.2507 116.1622 6.3827
v  -38.2507 100.3732 6.3827
v  -38.3858 100.3732 0.3937
v  -38.3858 116.1622 0.3937
v  -36.6783 116.1622 12.5917
v  -36.6783 100.3732 12.5917
v  -34.1056 116.1622 18.4570
v  -34.1056 100.3732 18.4570
v  -30.6025 116.1622 23.8189
v  -30.6025 100.3732 23.8189
v  -26.2646 116.1622 28.5310
v  -26.2646 100.3732 28.5310
v  -21.2104 116.1622 32.4649
v  -21.2104 100.3732 32.4649
v  -15.5775 116.1622 35.5133
v  -15.5775 100.3732 35.5133
v  -9.5198 116.1622 37.5929
v  -9.5198 100.3732 37.5929
v  -3.2024 116.1622 38.6471
v  -3.2024 100.3732 38.6471
v  3.2024 116.1622 38.6471
v  3.2024 100.3732 38.6471
v  9.5199 116.1622 37.5929
v  9.5199 100.3732 37.5929
v  15.5776 116.1622 35.5132
v  15.5776 100.3732 35.5132
v  21.2104 116.1622 32.4649
v  21.2104 100.3732 32.4649
v  26.2647 116.1622 28.5310
v  26.2647 100.3732 28.5310
v  30.6025 116.1622 23.8188
v  30.6025 100.3732 23.8188
v  34.1056 116.1622 18.4570
v  34.1056 100.3732 18.4570
v  36.6784 116.1622 12.5916
v  36.6784 100.3732 12.5916
v  38.2507 116.1622 6.3826
v  38.2507 100.3732 6.3826
v  38.3858 116.1622 0.3937
v  38.3858 100.3732 0.3937
v  -39.3701 98.4252 0.0000
v  -38.1930 99.4094 -0.0975
v  -37.6681 99.4094 6.2857
v  -38.8331 98.4252 6.4801
v  -36.1198 99.4094 12.3999
v  -37.2369 98.4252 12.7834
v  -33.5862 99.4094 18.1760
v  -34.6249 98.4252 18.7381
v  -30.1365 99.4094 23.4562
v  -31.0685 98.4252 24.1816
v  -25.8647 99.4094 28.0966
v  -26.6646 98.4252 28.9655
v  -20.8874 99.4094 31.9705
v  -21.5334 98.4252 32.9593
v  -15.3403 99.4094 34.9725
v  -15.8148 98.4252 36.0541
v  -9.3748 99.4094 37.0204
v  -9.6648 98.4252 38.1654
v  -3.1536 99.4094 38.0585
v  -3.2511 98.4252 39.2356
v  3.1537 99.4094 38.0585
v  3.2512 98.4252 39.2356
v  9.3749 99.4094 37.0204
v  9.6648 98.4252 38.1654
v  15.3404 99.4094 34.9724
v  15.8148 98.4252 36.0540
v  20.8874 99.4094 31.9705
v  21.5334 98.4252 32.9593
v  25.8647 99.4094 28.0965
v  26.6647 98.4252 28.9655
v  30.1365 99.4094 23.4561
v  31.0686 98.4252 24.1816
v  33.5862 99.4094 18.1759
v  34.6250 98.4252 18.7380
v  36.1198 99.4094 12.3999
v  37.2369 98.4252 12.7834
v  37.6681 99.4094 6.2856
v  38.8331 98.4252 6.4800
v  38.1930 99.4094 -0.0976
v  39.3701 98.4252 -0.0001
v  38.9764 116.1622 0.3937
v  38.9764 100.3732 0.3937
v  39.3701 118.1102 -0.0001
v  38.1930 117.1260 -0.0976
v  37.6681 117.1260 6.2856
v  38.8331 118.1102 6.4800
v  36.1198 117.1260 12.3999
v  37.2369 118.1102 12.7834
v  33.5862 117.1260 18.1759
v  34.6250 118.1102 18.7380
v  30.1365 117.1260 23.4561
v  31.0686 118.1102 24.1816
v  25.8647 117.1260 28.0965
v  26.6647 118.1102 28.9655
v  20.8874 117.1260 31.9705
v  21.5334 118.1102 32.9593
v  15.3404 117.1260 34.9724
v  15.8148 118.1102 36.0540
v  9.3749 117.1260 37.0204
v  9.6648 118.1102 38.1654
v  3.1537 117.1260 38.0585
v  3.2512 118.1102 39.2356
v  -3.1536 117.1260 38.0585
v  -3.2511 118.1102 39.2356
v  -9.3748 117.1260 37.0204
v  -9.6648 118.1102 38.1654
v  -15.3403 117.1260 34.9725
v  -15.8148 118.1102 36.0541
v  -20.8874 117.1260 31.9705
v  -21.5334 118.1102 32.9593
v  -25.8647 117.1260 28.0966
v  -26.6646 118.1102 28.9655
v  -30.1365 117.1260 23.4562
v  -31.0685 118.1102 24.1816
v  -33.5862 117.1260 18.1760
v  -34.6249 118.1102 18.7381
v  -36.1198 117.1260 12.3999
v  -37.2369 118.1102 12.7834
v  -37.6681 117.1260 6.2857
v  -38.8331 118.1102 6.4801
v  -38.1930 117.1260 -0.0975
v  -39.3701 118.1102 0.0000
v  -38.9764 100.3732 0.3937
v  -38.9764 116.1622 0.3937
v  -37.6681 116.1622 6.2857
v  -38.1930 116.1622 -0.0975
v  -36.1198 116.1622 12.3999
v  -33.5862 116.1622 18.1760
v  -30.1365 116.1622 23.4562
v  -25.8647 116.1622 28.0966
v  -20.8874 116.1622 31.9705
v  -15.3403 116.1622 34.9725
v  -9.3748 116.1622 37.0204
v  -3.1536 116.1622 38.0585
v  3.1537 116.1622 38.0585
v  9.3749 116.1622 37.0204
v  15.3404 116.1622 34.9724
v  20.8874 116.1622 31.9705
v  25.8647 116.1622 28.0965
v  30.1365 116.1622 23.4561
v  33.5862 116.1622 18.1759
v  36.1198 116.1622 12.3999
v  37.6681 116.1622 6.2856
v  38.1930 116.1622 -0.0976
v  39.3701 116.1622 -0.0001
v  -39.3701 116.1622 0.0000
v  -39.3701 100.3732 0.0000
v  -38.1930 100.3732 -0.0975
v  -37.6681 100.3732 6.2857
v  -36.1198 100.3732 12.3999
v  -33.5862 100.3732 18.1760
v  -30.1365 100.3732 23.4562
v  -25.8647 100.3732 28.0966
v  -20.8874 100.3732 31.9705
v  -15.3403 100.3732 34.9725
v  -9.3748 100.3732 37.0204
v  -3.1536 100.3732 38.0585
v  3.1537 100.3732 38.0585
v  9.3749 100.3732 37.0204
v  15.3404 100.3732 34.9724
v  20.8874 100.3732 31.9705
v  25.8647 100.3732 28.0965
v  30.1365 100.3732 23.4561
v  33.5862 100.3732 18.1759
v  36.1198 100.3732 12.3999
v  37.6681 100.3732 6.2856
v  38.1930 100.3732 -0.0976
v  39.3701 100.3732 -0.0001
# 168 vertices

vn 0.9909 0.0000 -0.1349
vn 0.9997 0.0000 -0.0226
vn 0.9458 0.0000 -0.3247
vn 0.8795 0.0000 -0.4759
vn 0.7891 0.0000 -0.6142
vn 0.6773 0.0000 -0.7357
vn 0.5469 0.0000 -0.8372
vn 0.4017 0.0000 -0.9158
vn 0.2455 0.0000 -0.9694
vn 0.0826 0.0000 -0.9966
vn -0.0826 0.0000 -0.9966
vn -0.2455 0.0000 -0.9694
vn -0.4017 0.0000 -0.9158
vn -0.5469 0.0000 -0.8372
vn -0.6773 0.0000 -0.7357
vn -0.7891 0.0000 -0.6142
vn -0.8795 0.0000 -0.4759
vn -0.9458 0.0000 -0.3247
vn -0.9909 0.0000 -0.1349
vn -0.9997 0.0000 -0.0226
vn 0.6387 -0.7677 -0.0527
vn 0.6218 -0.7671 -0.1575
vn 0.5874 -0.7671 -0.2577
vn 0.5370 -0.7671 -0.3509
vn 0.4719 -0.7671 -0.4345
vn 0.3940 -0.7671 -0.5062
vn 0.3053 -0.7671 -0.5642
vn 0.2083 -0.7671 -0.6067
vn 0.1056 -0.7671 -0.6327
vn -0.0000 -0.7671 -0.6415
vn -0.1056 -0.7671 -0.6327
vn -0.2083 -0.7671 -0.6067
vn -0.3053 -0.7671 -0.5642
vn -0.3940 -0.7671 -0.5062
vn -0.4720 -0.7671 -0.4345
vn -0.5370 -0.7671 -0.3509
vn -0.5874 -0.7671 -0.2577
vn -0.6218 -0.7671 -0.1575
vn -0.6387 -0.7677 -0.0527
vn 0.0000 0.0000 -1.0000
vn -0.6387 0.7677 -0.0527
vn -0.6218 0.7671 -0.1575
vn -0.5874 0.7671 -0.2577
vn -0.5370 0.7671 -0.3509
vn -0.4719 0.7671 -0.4345
vn -0.3940 0.7671 -0.5062
vn -0.3053 0.7671 -0.5642
vn -0.2083 0.7671 -0.6067
vn -0.1056 0.7671 -0.6327
vn -0.0000 0.7671 -0.6415
vn 0.1056 0.7671 -0.6327
vn 0.2083 0.7671 -0.6067
vn 0.3053 0.7671 -0.5642
vn 0.3940 0.7671 -0.5062
vn 0.4719 0.7671 -0.4345
vn 0.5370 0.7671 -0.3509
vn 0.5874 0.7671 -0.2577
vn 0.6218 0.7671 -0.1575
vn 0.6387 0.7677 -0.0527
vn 0.9864 -0.0000 -0.1643
vn 0.9864 0.0000 -0.1643
vn 0.9966 -0.0000 -0.0820
vn -0.9864 0.0000 -0.1643
vn -0.9966 0.0000 -0.0819
vn -0.0826 -0.0000 -0.9966
vn 0.7071 0.0000 -0.7071
vn 0.0000 1.0000 -0.0000
vn -0.0000 1.0000 -0.0000
vn -0.0000 1.0000 0.0000
vn -0.7072 0.0000 -0.7070
vn 0.0000 -1.0000 -0.0000
vn 0.9966 0.0000 0.0826
vn 0.9694 0.0000 0.2455
vn 0.8372 0.0000 0.5469
vn 0.9158 0.0000 0.4017
vn 0.7357 0.0000 0.6773
vn 0.6142 0.0000 0.7891
vn 0.4759 0.0000 0.8795
vn 0.3247 0.0000 0.9458
vn 0.1646 0.0000 0.9864
vn 0.0000 0.0000 1.0000
vn -0.1646 0.0000 0.9864
vn -0.3247 0.0000 0.9458
vn -0.4759 0.0000 0.8795
vn -0.6142 0.0000 0.7891
vn -0.7357 0.0000 0.6773
vn -0.8372 0.0000 0.5469
vn -0.9158 0.0000 0.4017
vn -0.9694 0.0000 0.2455
vn -0.9966 0.0000 0.0826
vn 0.0826 -0.0000 -0.9966
vn -0.9966 -0.0000 -0.0819
vn -0.9694 -0.0000 -0.2455
vn -0.9694 0.0000 -0.2455
vn -0.9158 0.0000 -0.4017
vn -0.8372 0.0000 -0.5469
vn -0.7357 0.0000 -0.6773
vn -0.6142 0.0000 -0.7891
vn -0.4759 0.0000 -0.8795
vn -0.3247 0.0000 -0.9458
vn -0.1646 0.0000 -0.9864
vn -0.0000 0.0000 -1.0000
vn 0.1646 0.0000 -0.9864
vn 0.3247 0.0000 -0.9458
vn 0.4759 0.0000 -0.8795
vn 0.6142 0.0000 -0.7891
vn 0.7357 0.0000 -0.6773
vn 0.8372 0.0000 -0.5469
vn 0.9158 0.0000 -0.4017
vn 0.9694 0.0000 -0.2455
vn 0.9966 0.0000 -0.0820
# 111 vertex normals

vt 0.2763 0.9010 1.0000
vt 0.2763 0.0990 1.0000
vt 0.2500 0.0990 1.0000
vt 0.2500 0.9010 1.0000
vt 0.3026 0.9010 1.0000
vt 0.3026 0.0990 1.0000
vt 0.3289 0.9010 1.0000
vt 0.3289 0.0990 1.0000
vt 0.3553 0.9010 1.0000
vt 0.3553 0.0990 1.0000
vt 0.3816 0.9010 1.0000
vt 0.3816 0.0990 1.0000
vt 0.4079 0.9010 1.0000
vt 0.4079 0.0990 1.0000
vt 0.4342 0.9010 1.0000
vt 0.4342 0.0990 1.0000
vt 0.4605 0.9010 1.0000
vt 0.4605 0.0990 1.0000
vt 0.4868 0.9010 1.0000
vt 0.4868 0.0990 1.0000
vt 0.5132 0.9010 1.0000
vt 0.5132 0.0990 1.0000
vt 0.5395 0.9010 1.0000
vt 0.5395 0.0990 1.0000
vt 0.5658 0.9010 1.0000
vt 0.5658 0.0990 1.0000
vt 0.5921 0.9010 1.0000
vt 0.5921 0.0990 1.0000
vt 0.6184 0.9010 1.0000
vt 0.6184 0.0990 1.0000
vt 0.6447 0.9010 1.0000
vt 0.6447 0.0990 1.0000
vt 0.6711 0.9010 1.0000
vt 0.6711 0.0990 1.0000
vt 0.6974 0.9010 1.0000
vt 0.6974 0.0990 1.0000
vt 0.7237 0.9010 1.0000
vt 0.7237 0.0990 1.0000
vt 0.7500 0.9010 1.0000
vt 0.7500 0.0990 1.0000
vt 0.2500 0.0000 1.0000
vt 0.2763 0.0000 1.0000
vt 0.3026 0.0000 1.0000
vt 0.3289 0.0000 1.0000
vt 0.3553 0.0000 1.0000
vt 0.3816 0.0000 1.0000
vt 0.4079 0.0000 1.0000
vt 0.4342 0.0000 1.0000
vt 0.4605 0.0000 1.0000
vt 0.4868 0.0000 1.0000
vt 0.5132 0.0000 1.0000
vt 0.5395 0.0000 1.0000
vt 0.5658 0.0000 1.0000
vt 0.5921 0.0000 1.0000
vt 0.6184 0.0000 1.0000
vt 0.6447 0.0000 1.0000
vt 0.6711 0.0000 1.0000
vt 0.6974 0.0000 1.0000
vt 0.7237 0.0000 1.0000
vt 0.7500 0.0000 1.0000
vt 0.7500 1.0000 1.0000
vt 0.7237 1.0000 1.0000
vt 0.6974 1.0000 1.0000
vt 0.6711 1.0000 1.0000
vt 0.6447 1.0000 1.0000
vt 0.6184 1.0000 1.0000
vt 0.5921 1.0000 1.0000
vt 0.5658 1.0000 1.0000
vt 0.5395 1.0000 1.0000
vt 0.5132 1.0000 1.0000
vt 0.4868 1.0000 1.0000
vt 0.4605 1.0000 1.0000
vt 0.4342 1.0000 1.0000
vt 0.4079 1.0000 1.0000
vt 0.3816 1.0000 1.0000
vt 0.3553 1.0000 1.0000
vt 0.3289 1.0000 1.0000
vt 0.3026 1.0000 1.0000
vt 0.2763 1.0000 1.0000
vt 0.2500 1.0000 1.0000
# 80 texture coords

g Cylinder001
usemtl wire_177028149
s 8
f 1/1/1 2/2/1 3/3/2 4/4/2 
f 5/5/3 6/6/3 2/2/1 1/1/1 
f 7/7/4 8/8/4 6/6/3 5/5/3 
f 9/9/5 10/10/5 8/8/4 7/7/4 
f 11/11/6 12/12/6 10/10/5 9/9/5 
f 13/13/7 14/14/7 12/12/6 11/11/6 
f 15/15/8 16/16/8 14/14/7 13/13/7 
f 17/17/9 18/18/9 16/16/8 15/15/8 
f 19/19/10 20/20/10 18/18/9 17/17/9 
f 21/21/11 22/22/11 20/20/10 19/19/10 
f 23/23/12 24/24/12 22/22/11 21/21/11 
f 25/25/13 26/26/13 24/24/12 23/23/12 
f 27/27/14 28/28/14 26/26/13 25/25/13 
f 29/29/15 30/30/15 28/28/14 27/27/14 
f 31/31/16 32/32/16 30/30/15 29/29/15 
f 33/33/17 34/34/17 32/32/16 31/31/16 
f 35/35/18 36/36/18 34/34/17 33/33/17 
f 37/37/19 38/38/19 36/36/18 35/35/18 
f 39/39/20 40/40/20 38/38/19 37/37/19 
s off
f 41/41/21 42/41/21 43/42/21 44/42/21 
f 44/42/22 43/42/22 45/43/22 46/43/22 
f 46/43/23 45/43/23 47/44/23 48/44/23 
f 48/44/24 47/44/24 49/45/24 50/45/24 
f 50/45/25 49/45/25 51/46/25 52/46/25 
f 52/46/26 51/46/26 53/47/26 54/47/26 
f 54/47/27 53/47/27 55/48/27 56/48/27 
f 56/48/28 55/48/28 57/49/28 58/49/28 
f 58/49/29 57/49/29 59/50/29 60/50/29 
f 60/50/30 59/50/30 61/51/30 62/51/30 
f 62/51/31 61/51/31 63/52/31 64/52/31 
f 64/52/32 63/52/32 65/53/32 66/53/32 
f 66/53/33 65/53/33 67/54/33 68/54/33 
f 68/54/34 67/54/34 69/55/34 70/55/34 
f 70/55/35 69/55/35 71/56/35 72/56/35 
f 72/56/36 71/56/36 73/57/36 74/57/36 
f 74/57/37 73/57/37 75/58/37 76/58/37 
f 76/58/38 75/58/38 77/59/38 78/59/38 
f 78/59/39 77/59/39 79/60/39 80/60/39 
f 81/39/40 82/40/40 40/40/40 39/39/40 
f 83/61/41 84/61/41 85/62/41 86/62/41 
f 86/62/42 85/62/42 87/63/42 88/63/42 
f 88/63/43 87/63/43 89/64/43 90/64/43 
f 90/64/44 89/64/44 91/65/44 92/65/44 
f 92/65/45 91/65/45 93/66/45 94/66/45 
f 94/66/46 93/66/46 95/67/46 96/67/46 
f 96/67/47 95/67/47 97/68/47 98/68/47 
f 98/68/48 97/68/48 99/69/48 100/69/48 
f 100/69/49 99/69/49 101/70/49 102/70/49 
f 102/70/50 101/70/50 103/71/50 104/71/50 
f 104/71/51 103/71/51 105/72/51 106/72/51 
f 106/72/52 105/72/52 107/73/52 108/73/52 
f 108/73/53 107/73/53 109/74/53 110/74/53 
f 110/74/54 109/74/54 111/75/54 112/75/54 
f 112/75/55 111/75/55 113/76/55 114/76/55 
f 114/76/56 113/76/56 115/77/56 116/77/56 
f 116/77/57 115/77/57 117/78/57 118/78/57 
f 118/78/58 117/78/58 119/79/58 120/79/58 
f 120/79/59 119/79/59 121/80/59 122/80/59 
f 123/3/40 124/4/40 4/4/40 3/3/40 
s 8
f 119/79/60 125/1/61 126/4/62 121/80/62 
f 117/78/3 127/5/3 125/1/61 119/79/60 
f 115/77/4 128/7/4 127/5/3 117/78/3 
f 113/76/5 129/9/5 128/7/4 115/77/4 
f 111/75/6 130/11/6 129/9/5 113/76/5 
f 109/74/7 131/13/7 130/11/6 111/75/6 
f 107/73/8 132/15/8 131/13/7 109/74/7 
f 105/72/9 133/17/9 132/15/8 107/73/8 
f 103/71/10 134/19/10 133/17/9 105/72/9 
f 101/70/11 135/21/11 134/19/10 103/71/10 
f 99/69/12 136/23/12 135/21/11 101/70/11 
f 97/68/13 137/25/13 136/23/12 99/69/12 
f 95/67/14 138/27/14 137/25/13 97/68/13 
f 93/66/15 139/29/15 138/27/14 95/67/14 
f 91/65/16 140/31/16 139/29/15 93/66/15 
f 89/64/17 141/33/17 140/31/16 91/65/16 
f 87/63/18 142/35/18 141/33/17 89/64/17 
f 85/62/63 143/37/63 142/35/18 87/63/18 
f 84/61/64 144/39/64 143/37/63 85/62/63 
s off
f 83/61/10 145/39/10 144/39/10 84/61/10 
f 121/80/65 126/4/65 146/4/65 122/80/65 
f 146/4/66 124/4/66 123/3/66 147/3/66 
f 147/3/67 123/3/67 3/3/67 148/3/67 
f 148/3/68 3/3/68 2/2/68 149/2/68 
f 149/2/67 2/2/67 6/6/67 150/6/67 
f 150/6/67 6/6/67 8/8/67 151/8/67 
f 151/8/67 8/8/67 10/10/67 152/10/67 
f 152/10/67 10/10/67 12/12/67 153/12/67 
f 153/12/67 12/12/67 14/14/67 154/14/67 
f 154/14/67 14/14/67 16/16/67 155/16/67 
f 155/16/67 16/16/67 18/18/67 156/18/67 
f 156/18/67 18/18/67 20/20/67 157/20/67 
f 157/20/67 20/20/67 22/22/67 158/22/67 
f 158/22/67 22/22/67 24/24/67 159/24/67 
f 159/24/67 24/24/67 26/26/67 160/26/67 
f 160/26/67 26/26/67 28/28/67 161/28/67 
f 161/28/67 28/28/67 30/30/67 162/30/67 
f 162/30/67 30/30/67 32/32/67 163/32/67 
f 163/32/67 32/32/67 34/34/67 164/34/67 
f 164/34/67 34/34/67 36/36/67 165/36/67 
f 165/36/67 36/36/67 38/38/67 166/38/67 
f 166/38/69 38/38/69 40/40/69 167/40/69 
f 168/40/67 167/40/67 40/40/67 82/40/67 
f 168/40/70 82/40/70 81/39/70 145/39/70 
f 145/39/71 81/39/71 39/39/71 144/39/71 
f 144/39/71 39/39/71 37/37/71 143/37/71 
f 143/37/71 37/37/71 35/35/71 142/35/71 
f 142/35/71 35/35/71 33/33/71 141/33/71 
f 141/33/71 33/33/71 31/31/71 140/31/71 
f 140/31/71 31/31/71 29/29/71 139/29/71 
f 139/29/71 29/29/71 27/27/71 138/27/71 
f 138/27/71 27/27/71 25/25/71 137/25/71 
f 137/25/71 25/25/71 23/23/71 136/23/71 
f 136/23/71 23/23/71 21/21/71 135/21/71 
f 135/21/71 21/21/71 19/19/71 134/19/71 
f 134/19/71 19/19/71 17/17/71 133/17/71 
f 133/17/71 17/17/71 15/15/71 132/15/71 
f 132/15/71 15/15/71 13/13/71 131/13/71 
f 131/13/71 13/13/71 11/11/71 130/11/71 
f 130/11/71 11/11/71 9/9/71 129/9/71 
f 129/9/71 9/9/71 7/7/71 128/7/71 
f 128/7/71 7/7/71 5/5/71 127/5/71 
f 127/5/71 5/5/71 1/1/71 125/1/71 
f 125/1/71 1/1/71 4/4/71 126/4/71 
f 126/4/71 4/4/71 124/4/71 146/4/71 
s 1
f 83/61/72 86/62/72 78/59/72 80/60/72 
s 2
f 86/62/73 88/63/73 76/58/73 78/59/73 
s 1
f 90/64/74 92/65/74 72/56/74 74/57/74 
s 4
f 88/63/75 90/64/75 74/57/75 76/58/75 
s 2
f 92/65/76 94/66/76 70/55/76 72/56/76 
s 1
f 94/66/77 96/67/77 68/54/77 70/55/77 
s 2
f 96/67/78 98/68/78 66/53/78 68/54/78 
s 1
f 98/68/79 100/69/79 64/52/79 66/53/79 
s 2
f 100/69/80 102/70/80 62/51/80 64/52/80 
s 1
f 102/70/81 104/71/81 60/50/81 62/51/81 
s 2
f 104/71/82 106/72/82 58/49/82 60/50/82 
s 1
f 106/72/83 108/73/83 56/48/83 58/49/83 
s 2
f 108/73/84 110/74/84 54/47/84 56/48/84 
s 1
f 110/74/85 112/75/85 52/46/85 54/47/85 
s 2
f 112/75/86 114/76/86 50/45/86 52/46/86 
s 1
f 114/76/87 116/77/87 48/44/87 50/45/87 
s 2
f 116/77/88 118/78/88 46/43/88 48/44/88 
s 1
f 118/78/89 120/79/89 44/42/89 46/43/89 
s 2
f 120/79/90 122/80/90 41/41/90 44/42/90 
s 1
f 42/41/11 41/41/11 147/65/11 148/26/11 
f 168/20/91 80/60/10 79/60/91 167/22/91 
s 2
f 77/59/92 166/18/92 167/22/92 79/60/92 
s 1
f 75/58/93 165/16/94 166/18/93 77/59/93 
s 2
f 73/57/95 164/14/95 165/16/95 75/58/95 
s 1
f 71/56/96 163/12/96 164/14/96 73/57/96 
s 2
f 69/55/97 162/10/97 163/12/97 71/56/97 
s 1
f 67/54/98 161/8/98 162/10/98 69/55/98 
s 2
f 65/53/99 160/6/99 161/8/99 67/54/99 
s 1
f 63/52/100 159/4/100 160/6/100 65/53/100 
s 2
f 61/51/101 158/2/101 159/4/101 63/52/101 
s 1
f 59/50/102 157/79/102 158/2/102 61/51/102 
s 2
f 57/49/103 156/77/103 157/79/103 59/50/103 
s 1
f 55/48/104 155/75/104 156/77/104 57/49/104 
s 2
f 53/47/105 154/73/105 155/75/105 55/48/105 
s 1
f 51/46/106 153/71/106 154/73/106 53/47/106 
s 2
f 49/45/107 152/69/107 153/71/107 51/46/107 
s 1
f 47/44/108 151/67/108 152/69/108 49/45/108 
s 2
f 45/43/109 150/65/109 151/67/109 47/44/109 
s 1
f 43/42/110 149/61/110 150/65/110 45/43/110 
s 2
f 42/4/111 148/23/111 149/61/111 43/42/111 
# 164 polygons

