# 3ds Max Wavefront OBJ Exporter v0.97b - (c)2007 guruware
# File Created: 06.09.2012 19:10:51

mtllib Light_01.mtl

#
# object Cylinder001
#

v  4.8237 196.8504 48.9756
v  9.2848 196.8504 48.3288
v  9.2848 197.8346 48.3288
v  4.8237 197.8346 48.9756
v  13.6680 196.8504 47.2765
v  13.6680 197.8346 47.2765
v  17.9366 196.8504 45.8275
v  17.9366 197.8346 45.8275
v  22.0546 196.8504 43.9940
v  22.0546 197.8346 43.9940
v  25.9876 196.8504 41.7914
v  25.9876 197.8346 41.7914
v  29.7026 196.8504 39.2382
v  29.7026 197.8346 39.2382
v  33.1684 196.8504 36.3557
v  33.1684 197.8346 36.3557
v  36.3558 196.8504 33.1683
v  36.3558 197.8346 33.1683
v  39.2383 196.8504 29.7025
v  39.2383 197.8346 29.7025
v  41.7915 196.8504 25.9875
v  41.7915 197.8346 25.9875
v  43.9941 196.8504 22.0545
v  43.9941 197.8346 22.0545
v  45.8275 196.8504 17.9364
v  45.8275 197.8346 17.9364
v  47.2765 196.8504 13.6679
v  47.2765 197.8346 13.6679
v  48.3288 196.8504 9.2847
v  48.3288 197.8346 9.2847
v  48.9756 196.8504 4.8235
v  48.9756 197.8346 4.8235
v  8.5934 196.8504 45.4547
v  4.5342 196.8504 46.0371
v  4.5342 197.8346 46.0371
v  8.5934 197.8346 45.4547
v  12.5849 196.8504 44.5151
v  12.5849 197.8346 44.5151
v  16.4776 196.8504 43.2257
v  16.4776 197.8346 43.2257
v  20.2409 196.8504 41.5966
v  20.2409 197.8346 41.5966
v  23.8450 196.8504 39.6407
v  23.8450 197.8346 39.6407
v  27.2618 196.8504 37.3733
v  27.2618 197.8346 37.3733
v  30.4644 196.8504 34.8123
v  30.4644 197.8346 34.8123
v  33.4276 196.8504 31.9776
v  33.4276 197.8346 31.9776
v  36.1281 196.8504 28.8917
v  36.1281 197.8346 28.8917
v  38.5447 196.8504 25.5788
v  38.5447 197.8346 25.5788
v  40.6585 196.8504 22.0649
v  40.6585 197.8346 22.0649
v  42.4528 196.8504 18.3776
v  42.4528 197.8346 18.3776
v  43.9134 196.8504 14.5459
v  43.9134 197.8346 14.5459
v  45.0291 196.8504 10.5999
v  45.0291 197.8346 10.5999
v  46.0371 196.8504 4.5345
v  46.0371 197.8346 4.5345
# 64 vertices

vn 0.1435 -0.0000 0.9897
vn 0.1887 0.0000 0.9820
vn 0.1887 -0.0000 0.9820
vn 0.2777 0.0000 0.9607
vn 0.3645 0.0000 0.9312
vn 0.4481 0.0000 0.8940
vn 0.5281 0.0000 0.8492
vn 0.6036 0.0000 0.7973
vn 0.6740 0.0000 0.7387
vn 0.7388 0.0000 0.6740
vn 0.7973 0.0000 0.6036
vn 0.8492 0.0000 0.5281
vn 0.8940 0.0000 0.4481
vn 0.9312 0.0000 0.3645
vn 0.9607 0.0000 0.2777
vn 0.9820 -0.0000 0.1887
vn 0.9820 0.0000 0.1887
vn 0.9897 -0.0000 0.1435
vn -0.1858 -0.0000 -0.9826
vn -0.1420 -0.0000 -0.9899
vn -0.2720 0.0000 -0.9623
vn -0.3562 0.0000 -0.9344
vn -0.4375 0.0000 -0.8992
vn -0.5155 0.0000 -0.8569
vn -0.5893 0.0000 -0.8079
vn -0.6585 0.0000 -0.7525
vn -0.7226 0.0000 -0.6913
vn -0.7810 0.0000 -0.6246
vn -0.8332 0.0000 -0.5529
vn -0.8789 0.0000 -0.4770
vn -0.9177 0.0000 -0.3973
vn -0.9493 0.0000 -0.3144
vn -0.9759 0.0000 -0.2183
vn -0.9865 0.0000 -0.1639
vn 0.0000 1.0000 -0.0000
vn 0.0979 0.0000 -0.9952
vn -0.9952 -0.0000 0.0980
vn -0.9952 0.0000 0.0980
vn 0.0000 -1.0000 -0.0000
# 39 vertex normals

vt 0.5156 0.0000 1.0000
vt 0.5302 0.0000 1.0000
vt 0.5302 1.0000 1.0000
vt 0.5156 1.0000 1.0000
vt 0.5448 0.0000 1.0000
vt 0.5448 1.0000 1.0000
vt 0.5594 0.0000 1.0000
vt 0.5594 1.0000 1.0000
vt 0.5740 0.0000 1.0000
vt 0.5740 1.0000 1.0000
vt 0.5885 0.0000 1.0000
vt 0.5885 1.0000 1.0000
vt 0.6031 0.0000 1.0000
vt 0.6031 1.0000 1.0000
vt 0.6177 0.0000 1.0000
vt 0.6177 1.0000 1.0000
vt 0.6323 0.0000 1.0000
vt 0.6323 1.0000 1.0000
vt 0.6469 0.0000 1.0000
vt 0.6469 1.0000 1.0000
vt 0.6615 0.0000 1.0000
vt 0.6615 1.0000 1.0000
vt 0.6760 0.0000 1.0000
vt 0.6760 1.0000 1.0000
vt 0.6906 0.0000 1.0000
vt 0.6906 1.0000 1.0000
vt 0.7052 0.0000 1.0000
vt 0.7052 1.0000 1.0000
vt 0.7198 0.0000 1.0000
vt 0.7198 1.0000 1.0000
vt 0.7344 0.0000 1.0000
vt 0.7344 1.0000 1.0000
vt 0.5297 0.0000 1.0000
vt 0.5297 1.0000 1.0000
vt 0.5439 0.0000 1.0000
vt 0.5439 1.0000 1.0000
vt 0.5580 0.0000 1.0000
vt 0.5580 1.0000 1.0000
vt 0.5721 0.0000 1.0000
vt 0.5721 1.0000 1.0000
vt 0.5862 0.0000 1.0000
vt 0.5862 1.0000 1.0000
vt 0.6003 0.0000 1.0000
vt 0.6003 1.0000 1.0000
vt 0.6144 0.0000 1.0000
vt 0.6144 1.0000 1.0000
vt 0.6285 0.0000 1.0000
vt 0.6285 1.0000 1.0000
vt 0.6426 0.0000 1.0000
vt 0.6426 1.0000 1.0000
vt 0.6568 0.0000 1.0000
vt 0.6568 1.0000 1.0000
vt 0.6709 0.0000 1.0000
vt 0.6709 1.0000 1.0000
vt 0.6850 0.0000 1.0000
vt 0.6850 1.0000 1.0000
vt 0.6991 0.0000 1.0000
vt 0.6991 1.0000 1.0000
vt 0.7132 0.0000 1.0000
vt 0.7132 1.0000 1.0000
vt 0.6356 0.0000 1.0000
vt 0.6497 0.0000 1.0000
vt 0.6638 0.0000 1.0000
vt 0.6779 0.0000 1.0000
vt 0.6920 0.0000 1.0000
vt 0.7061 0.0000 1.0000
vt 0.7203 0.0000 1.0000
vt 0.7273 0.0000 1.0000
vt 0.6215 0.0000 1.0000
vt 0.6074 0.0000 1.0000
vt 0.5932 0.0000 1.0000
vt 0.5791 0.0000 1.0000
vt 0.5650 0.0000 1.0000
vt 0.5509 0.0000 1.0000
vt 0.5368 0.0000 1.0000
vt 0.5227 0.0000 1.0000
# 76 texture coords

g Cylinder001
usemtl wire_177088026
s 8
f 1/1/1 2/2/2 3/3/3 4/4/1 
f 2/2/2 5/5/4 6/6/4 3/3/3 
f 5/5/4 7/7/5 8/8/5 6/6/4 
f 7/7/5 9/9/6 10/10/6 8/8/5 
f 9/9/6 11/11/7 12/12/7 10/10/6 
f 11/11/7 13/13/8 14/14/8 12/12/7 
f 13/13/8 15/15/9 16/16/9 14/14/8 
f 15/15/9 17/17/10 18/18/10 16/16/9 
f 17/17/10 19/19/11 20/20/11 18/18/10 
f 19/19/11 21/21/12 22/22/12 20/20/11 
f 21/21/12 23/23/13 24/24/13 22/22/12 
f 23/23/13 25/25/14 26/26/14 24/24/13 
f 25/25/14 27/27/15 28/28/15 26/26/14 
f 27/27/15 29/29/16 30/30/17 28/28/15 
f 29/29/16 31/31/18 32/32/18 30/30/17 
f 33/33/19 34/1/20 35/4/20 36/34/19 
f 37/35/21 33/33/19 36/34/19 38/36/21 
f 39/37/22 37/35/21 38/36/21 40/38/22 
f 41/39/23 39/37/22 40/38/22 42/40/23 
f 43/41/24 41/39/23 42/40/23 44/42/24 
f 45/43/25 43/41/24 44/42/24 46/44/25 
f 47/45/26 45/43/25 46/44/25 48/46/26 
f 49/47/27 47/45/26 48/46/26 50/48/27 
f 51/49/28 49/47/27 50/48/27 52/50/28 
f 53/51/29 51/49/28 52/50/28 54/52/29 
f 55/53/30 53/51/29 54/52/29 56/54/30 
f 57/55/31 55/53/30 56/54/30 58/56/31 
f 59/57/32 57/55/31 58/56/31 60/58/32 
f 61/59/33 59/57/32 60/58/32 62/60/33 
f 63/31/34 61/59/33 62/60/33 64/32/34 
s 1
f 36/61/35 35/47/35 4/4/35 3/3/35 
f 40/62/35 38/49/35 6/6/35 8/8/35 
f 44/63/35 42/51/35 10/10/35 12/12/35 
f 48/64/35 46/53/35 14/14/35 16/16/35 
f 52/65/35 50/55/35 18/18/35 20/20/35 
f 56/66/35 54/57/35 22/22/35 24/24/35 
f 60/67/35 58/59/35 26/26/35 28/28/35 
f 64/31/35 62/68/35 30/30/35 32/32/35 
s 2
f 64/31/36 32/32/36 31/31/36 63/69/36 
f 62/68/35 60/67/35 28/28/35 30/30/35 
f 58/59/35 56/66/35 24/24/35 26/26/35 
f 54/57/35 52/65/35 20/20/35 22/22/35 
f 50/55/35 48/64/35 16/16/35 18/18/35 
f 46/53/35 44/63/35 12/12/35 14/14/35 
f 42/51/35 40/62/35 8/8/35 10/10/35 
f 38/49/35 36/61/35 3/3/35 6/6/35 
f 34/1/37 1/1/38 4/4/38 35/47/37 
s 1
f 63/69/39 31/31/39 29/29/39 61/45/39 
f 59/70/39 27/27/39 25/25/39 57/43/39 
s 2
f 27/27/39 59/70/39 61/45/39 29/29/39 
s 1
f 55/71/39 23/23/39 21/21/39 53/41/39 
f 51/72/39 19/19/39 17/17/39 49/39/39 
f 47/73/39 15/15/39 13/13/39 45/37/39 
f 43/74/39 11/11/39 9/9/39 41/35/39 
f 39/75/39 7/7/39 5/5/39 37/33/39 
s 2
f 23/23/39 55/71/39 57/43/39 25/25/39 
f 19/19/39 51/72/39 53/41/39 21/21/39 
f 15/15/39 47/73/39 49/39/39 17/17/39 
f 11/11/39 43/74/39 45/37/39 13/13/39 
f 7/7/39 39/75/39 41/35/39 9/9/39 
s 1
f 33/76/39 2/2/39 1/1/39 34/1/39 
s 2
f 2/2/39 33/76/39 37/33/39 5/5/39 
# 62 polygons

