# 3ds Max Wavefront OBJ Exporter v0.97b - (c)2007 guruware
# File Created: 10.02.2013 17:19:47

#
# object Box001
#

v  -14.1732 0.0000 39.3701
v  14.1732 0.0000 39.3701
v  14.1732 0.0000 -39.3701
v  -14.4685 0.3937 -39.3701
v  14.4685 0.3937 -39.3701
v  -14.1732 0.0000 -39.3701
v  -14.4685 0.3937 39.3701
v  14.4685 0.3937 39.3701
v  -22.0472 -5.9055 -39.3701
v  -22.0472 -5.9055 39.3701
v  -22.6378 -5.1181 38.8779
v  -22.3425 -5.5118 -39.3701
v  22.0472 -5.9055 -39.3701
v  22.9162 -5.3269 -39.0221
v  29.9213 -11.8110 -29.5276
v  30.5118 -11.0236 -29.5276
v  29.9213 -11.8110 39.3701
v  30.2165 -11.4173 39.3701
v  -14.7638 0.7874 -38.8780
v  14.7638 0.7874 -38.8780
v  -14.7638 0.7874 38.8779
v  14.7638 0.7874 38.8779
v  -22.3425 -5.5118 39.3701
v  -22.6378 -5.1181 -38.8780
v  22.3425 -5.5118 -39.3701
v  30.5118 -11.0236 38.8780
# 26 vertices

vn 0.0000 -1.0000 -0.0000
vn 0.0000 -1.0000 -0.0000
vn 0.0000 -1.0000 -0.0000
vn 0.0000 -1.0000 -0.0000
vn 0.0000 1.0000 -0.0000
vn 0.0000 1.0000 -0.0000
vn 0.0000 1.0000 -0.0000
vn 0.0000 1.0000 -0.0000
vn 0.0000 0.0000 -1.0000
vn 0.0000 0.0000 -1.0000
vn 0.0000 0.0000 -1.0000
vn 0.0000 0.0000 -1.0000
vn 0.0000 0.0000 1.0000
vn 0.0000 0.0000 1.0000
vn 0.0000 0.0000 1.0000
vn 0.0000 0.0000 1.0000
vn 0.8000 -0.6000 0.0000
vn 0.8000 -0.6000 -0.0000
vn 0.8000 -0.6000 0.0000
vn 0.8000 -0.6000 0.0000
vn 0.8000 -0.6000 0.0000
vn 0.8000 -0.6000 -0.0000
vn 0.8000 -0.6000 0.0000
vn -0.8000 -0.6000 -0.0000
vn -0.8000 -0.6000 -0.0000
vn -0.8000 -0.6000 0.0000
vn -0.8000 -0.6000 -0.0000
vn -0.8000 -0.6000 0.0000
vn -0.8000 -0.6000 -0.0000
vn -0.8000 -0.6000 -0.0000
vn -0.8000 -0.6000 -0.0000
vn -0.8000 -0.6000 -0.0000
vn -0.8000 -0.6000 -0.0000
vn 0.6000 -0.8000 -0.0000
vn 0.6000 -0.8000 -0.0000
vn 0.6000 -0.8000 -0.0000
vn 0.6000 -0.8000 -0.0000
vn -0.0000 0.0000 1.0000
vn -0.0000 0.0000 1.0000
vn -0.0000 0.0000 1.0000
vn -0.0000 0.0000 1.0000
vn -0.6000 0.8000 -0.0000
vn -0.6000 0.8000 -0.0000
vn -0.6000 0.8000 -0.0000
vn -0.6000 0.8000 -0.0000
vn 0.0000 0.0000 -1.0000
vn 0.0000 0.0000 -1.0000
vn 0.0000 0.0000 -1.0000
vn 0.0000 0.0000 -1.0000
vn -0.6000 -0.8000 0.0000
vn -0.6000 -0.8000 0.0000
vn -0.6000 -0.8000 0.0000
vn -0.6000 -0.8000 0.0000
vn -0.6000 -0.8000 -0.0000
vn -0.6000 -0.8000 -0.0000
vn -0.6000 -0.8000 -0.0000
vn 0.0000 0.0000 -1.0000
vn 0.0000 0.0000 -1.0000
vn 0.0000 0.0000 -1.0000
vn 0.0000 0.0000 -1.0000
vn 0.6000 0.8000 -0.0000
vn 0.6000 0.8000 -0.0000
vn 0.6000 0.8000 -0.0000
vn 0.6000 0.8000 -0.0000
vn 0.6000 0.8000 -0.0000
vn 0.6000 0.8000 -0.0000
vn 0.6000 0.8000 -0.0000
vn 0.5657 -0.4243 -0.7071
vn 0.5657 -0.4243 -0.7071
vn 0.5657 -0.4243 -0.7071
vn 0.5657 -0.4243 -0.7071
vn 0.5657 -0.4243 -0.7071
vn 0.5657 -0.4243 -0.7071
vn 0.5657 -0.4243 -0.7071
vn 0.0000 0.0000 1.0000
vn 0.0000 0.0000 1.0000
vn 0.0000 0.0000 1.0000
vn 0.0000 0.0000 1.0000
vn 0.0000 0.7809 0.6247
vn 0.0000 0.7809 0.6247
vn 0.0000 0.7809 0.6247
vn 0.0000 0.7809 0.6247
vn 0.0000 0.7809 -0.6247
vn 0.0000 0.7809 -0.6247
vn 0.0000 0.7809 -0.6247
vn 0.0000 0.7809 -0.6247
vn -0.4243 0.5657 0.7071
vn -0.4243 0.5657 0.7071
vn -0.4243 0.5657 0.7071
vn -0.4243 0.5657 0.7071
vn -0.4243 0.5657 -0.7071
vn -0.4243 0.5657 -0.7071
vn -0.4243 0.5657 -0.7071
vn -0.4243 0.5657 -0.7071
vn 0.3858 0.5235 -0.7596
vn 0.3858 0.5235 -0.7596
vn 0.3858 0.5235 -0.7596
vn 0.3858 0.5235 -0.7596
vn 0.4243 0.5657 0.7071
vn 0.4243 0.5657 0.7071
vn 0.4243 0.5657 0.7071
vn 0.4243 0.5657 0.7071
# 102 vertex normals

vt 0.9935 0.1565 0.0000
vt 0.0065 0.1565 0.0000
vt 0.0065 0.6969 0.0000
vt 0.9935 0.6969 0.0000
vt 0.9873 0.1453 0.0000
vt 0.9873 0.7081 0.0000
vt 0.0127 0.7081 0.0000
vt 0.0127 0.1453 0.0000
vt 0.0065 0.1509 0.0000
vt 0.0065 0.7025 0.0000
vt 0.9935 0.1509 0.0000
vt 0.9935 0.7025 0.0000
vt 0.1299 1.0083 0.0000
vt 0.9873 1.0083 0.0000
vt 0.9935 1.0027 0.0000
vt 0.9935 0.9971 0.0000
vt 0.1299 0.9971 0.0000
vt 0.9935 0.0008 0.0000
vt 0.9873 -0.0048 0.0000
vt 0.0127 -0.0048 0.0000
vt 0.0065 0.0008 0.0000
vt 0.0065 0.0064 0.0000
vt 0.9935 0.0064 0.0000
vt 0.0065 0.8470 0.0000
vt 0.0065 0.8526 0.0000
vt 0.0109 0.8635 0.0000
# 26 texture coords

g Box001
s 2
f 1/1/1 6/2/2 3/3/3 2/4/4 
s 4
f 21/5/5 22/6/6 20/7/7 19/8/8 
s 32
f 6/2/9 4/9/10 5/10/11 3/3/12 
s 8
f 1/1/13 2/4/14 8/12/15 7/11/16 
s 1
f 16/13/17 26/14/18 18/15/19 15/17/20 
f 18/15/21 17/16/22 15/17/23 
f 11/19/24 24/20/25 12/21/26 10/23/27 
f 12/21/28 9/22/29 10/23/30 
f 23/18/31 11/19/32 10/23/33 
s off
f 6/2/34 1/1/35 10/23/36 9/22/37 
f 1/1/38 7/11/39 23/18/40 10/23/41 
f 21/5/42 19/8/43 24/20/44 11/19/45 
f 4/9/46 6/2/47 9/22/48 12/21/49 
f 3/3/50 13/24/51 15/17/52 2/4/53 
f 2/4/54 15/17/55 17/16/56 
f 3/3/57 5/10/58 25/25/59 13/24/60 
f 20/7/61 22/6/62 26/14/63 14/26/64 
f 26/14/65 16/13/66 14/26/67 
f 13/24/68 25/25/69 14/26/70 15/17/71 
f 15/17/72 14/26/73 16/13/74 
f 8/12/75 2/4/76 17/16/77 18/15/78 
f 21/5/79 7/11/80 8/12/81 22/6/82 
f 20/7/83 5/10/84 4/9/85 19/8/86 
f 7/11/87 21/5/88 11/19/89 23/18/90 
f 19/8/91 4/9/92 12/21/93 24/20/94 
f 5/10/95 20/7/96 14/26/97 25/25/98 
f 22/6/99 8/12/100 18/15/101 26/14/102 
# 21 polygons - 6 triangles

