# 3ds Max Wavefront OBJ Exporter v0.97b - (c)2007 guruware
# File Created: 02.09.2012 17:38:41

mtllib Panel_02.mtl

#
# object Plane003
#

v  -19.6850 19.6850 -19.2913
v  0.0000 19.6850 -19.2913
v  0.0000 19.2913 -19.6850
v  -19.6850 19.2913 -19.6850
v  10.4331 19.6850 -19.2913
v  10.4331 19.2913 -19.6850
v  13.7795 19.6850 -19.2913
v  19.6850 19.6850 -19.2913
v  19.6850 19.2913 -19.6850
v  13.7795 19.2913 -19.6850
v  -19.6850 19.6850 -12.0807
v  0.0000 19.6850 -12.0807
v  10.4331 19.6850 -12.0807
v  13.7795 19.6850 -12.0807
v  19.6850 19.6850 -12.0807
v  -19.6850 19.6850 -11.4961
v  0.0000 19.6850 4.0814
v  0.0000 19.6850 -8.8583
v  0.0000 19.6850 -10.5315
v  0.9843 19.6850 -11.4961
v  0.9843 19.4882 -11.4961
v  0.0000 19.4882 -10.5315
v  4.8829 19.4882 -10.5315
v  4.9213 19.4882 -11.4961
v  13.7795 19.6850 -10.3268
v  19.6850 19.6850 -10.3268
v  19.6850 19.6850 -11.4961
v  13.7795 19.6850 -11.4961
v  4.9213 19.6850 -11.4961
v  9.8425 19.6850 -11.4961
v  13.7795 19.6850 -8.8583
v  13.7795 19.6850 4.0815
v  19.6850 19.6850 -8.8583
v  0.0000 19.4882 -9.0551
v  2.9052 19.4882 -9.0551
v  9.8425 19.3898 -10.6299
v  9.8425 19.3898 -11.4961
v  4.9213 19.3898 -11.4961
v  4.8829 19.3898 -10.6299
v  13.7795 19.3898 -11.4961
v  13.7795 19.3898 -10.6299
v  0.0000 19.6850 6.7454
v  0.0000 19.1929 6.7454
v  0.0000 19.1929 4.0814
v  9.8425 19.6850 19.6850
v  9.8425 19.1929 19.6850
v  0.0000 19.6850 19.6850
v  0.0000 19.1929 19.6850
v  13.7795 19.6850 19.6850
v  13.7795 19.1929 19.6850
v  12.9921 19.1929 19.6850
v  13.7795 19.1929 4.0814
v  13.7795 19.1929 6.7454
v  13.7795 19.6850 6.7454
v  13.7795 19.1929 -10.3268
v  13.7795 19.1929 -8.8583
v  9.8425 19.1929 -10.6299
v  13.7795 19.1929 -10.6299
v  4.8593 19.1929 -10.6299
v  2.8907 19.1929 -9.0551
v  4.8593 19.1929 -10.5315
v  0.0000 19.1929 -9.0551
v  0.0000 19.1929 -8.8583
v  2.9528 19.1929 -8.8583
v  4.9213 19.1929 -10.3268
v  9.8425 19.1929 -10.3268
v  9.8425 19.1929 -10.5315
v  13.7795 19.1929 -10.5315
v  13.7795 19.4882 -10.5315
v  13.7795 19.4882 -11.4961
v  9.8425 19.4882 -11.4961
v  13.7795 19.8819 -12.0807
v  13.7795 19.8819 -11.4961
v  9.8425 19.8819 -11.4961
v  10.4331 19.8819 -12.0807
v  11.4173 19.1929 19.6850
v  -19.6850 19.6850 19.6850
v  19.6850 19.6850 19.6850
# 78 vertices

vn 0.0000 0.9239 -0.3827
vn 0.0000 0.7071 -0.7071
vn 0.0000 1.0000 -0.0000
vn 0.0000 1.0000 0.0000
vn 1.0000 0.0000 -0.0000
vn 0.0000 0.0000 -1.0000
vn -1.0000 0.0000 -0.0000
vn 0.0000 0.0000 1.0000
vn 0.5987 -0.0386 0.8001
vn 0.6999 0.0000 0.7142
vn 0.9989 -0.0209 0.0419
vn 0.9943 -0.0955 0.0477
vn -0.7035 0.0000 -0.7107
# 13 vertex normals

vt 0.7143 -0.0000 0.0000
vt 0.7143 0.5000 0.0000
vt 0.1429 0.5000 0.0000
vt 0.1429 -0.0000 0.0000
vt 0.7143 0.7650 0.0000
vt 0.1429 0.7650 0.0000
vt 0.7143 0.8500 0.0000
vt 0.7143 1.0000 0.0000
vt 0.1429 1.0000 0.0000
vt 0.1429 0.8500 0.0000
vt 0.1932 -0.0000 0.0000
vt 0.1932 0.5000 0.0000
vt 0.0100 0.5000 0.0000
vt 0.0100 -0.0000 0.0000
vt 0.1931 0.7650 0.0000
vt 0.0100 0.7650 0.0000
vt 0.1931 0.8500 0.0000
vt 0.1931 1.0000 0.0000
vt 0.0100 1.0000 0.0000
vt 0.0100 0.8500 0.0000
vt 0.2080 -0.0000 0.0000
vt 0.6037 0.5000 0.0000
vt 0.2750 0.5000 0.0000
vt 0.2325 0.5000 0.0000
vt 0.2080 0.5250 0.0000
vt 0.2325 0.6240 0.0000
vt 0.2080 0.6250 0.0000
vt 0.2377 0.8500 0.0000
vt 0.2377 1.0000 0.0000
vt 0.2080 1.0000 0.0000
vt 0.2080 0.8500 0.0000
vt 0.2080 0.7500 0.0000
vt 0.2750 0.8500 0.0000
vt 0.6037 0.8500 0.0000
vt 0.2750 1.0000 0.0000
vt 0.2700 0.5000 0.0000
vt 0.2700 0.5738 0.0000
vt 0.2300 0.7500 0.0000
vt 0.2300 0.6240 0.0000
vt 0.2300 0.8500 0.0000
vt 0.6713 0.7143 0.0000
vt 0.6713 0.0000 0.0000
vt 0.6037 0.0000 0.0000
vt 0.6037 0.7143 0.0000
vt 1.0000 0.7143 0.0000
vt 1.0000 0.0000 0.0000
vt 0.7143 0.7500 0.0000
vt 0.0000 0.8500 0.0000
vt 0.0000 0.8300 0.0000
vt 0.2750 0.7143 0.0000
vt 0.2377 0.7143 0.0000
vt 0.2377 0.0000 0.0000
vt 0.2750 0.0000 0.0000
vt 0.2857 0.8500 0.0000
vt 0.2857 0.7500 0.0000
vt 0.0000 0.7500 0.0000
vt 0.2857 0.6240 0.0000
vt 0.0000 0.6234 0.0000
vt 0.4286 0.6240 0.0000
vt 0.4286 0.5738 0.0000
vt 0.0000 0.5734 0.0000
vt 0.4286 0.5000 0.0000
vt 0.0000 0.5000 0.0000
vt 0.7143 0.6250 0.0000
vt 0.7143 0.5250 0.0000
vt 0.4286 0.5250 0.0000
vt 0.4286 0.6250 0.0000
vt 0.2325 0.7143 0.0000
vt 0.2700 0.4286 0.0000
vt 0.2325 0.4286 0.0000
vt 0.2700 0.0000 0.0000
vt 0.2750 0.5750 0.0000
vt 0.2700 0.5734 0.0000
vt 0.2377 0.6250 0.0000
vt 0.2325 0.6234 0.0000
vt 0.2377 0.7500 0.0000
vt 0.2325 0.7500 0.0000
vt 0.2325 0.8500 0.0000
vt 0.2325 0.0000 0.0000
vt 0.2080 0.7143 0.0000
vt 0.2080 0.4286 0.0000
vt 0.4286 0.7500 0.0000
vt 0.4286 0.8500 0.0000
vt 0.2300 0.2857 0.0000
vt 0.2080 0.2857 0.0000
vt 0.2300 0.0000 0.0000
vt 0.2300 0.6234 0.0000
vt 0.2857 0.6250 0.0000
vt 0.1931 0.7143 0.0000
vt 1.0000 0.7500 0.0000
vt 1.0000 0.7650 0.0000
vt 1.0000 0.8500 0.0000
vt 0.0000 0.7900 0.0000
vt 0.6713 0.5000 0.0000
vt 1.0000 0.5000 0.0000
vt 0.6713 0.8500 0.0000
vt 1.0000 1.0000 0.0000
# 97 texture coords

g Plane003
usemtl wire_134059008
s 1
f 1/1/1 2/2/1 3/3/2 4/4/2 
f 2/2/1 5/5/1 6/6/2 3/3/2 
f 7/7/1 8/8/1 9/9/2 10/10/2 
f 11/11/3 12/12/3 2/13/1 1/14/1 
f 12/12/3 13/15/3 5/16/1 2/13/1 
f 14/17/3 15/18/3 8/19/1 7/20/1 
f 16/21/3 17/22/3 18/23/3 19/24/3 
f 16/21/3 19/24/3 20/25/3 
f 21/25/4 22/24/3 23/26/4 24/27/4 
f 25/28/3 26/29/3 27/30/3 28/31/3 
f 16/21/3 20/25/3 12/12/3 11/11/3 
f 29/27/3 30/32/3 13/15/3 20/25/3 
f 12/12/3 20/25/3 13/15/3 
f 28/31/3 27/30/3 15/18/3 14/17/3 
f 7/7/1 10/10/2 6/6/2 5/5/1 
f 14/17/3 7/20/1 5/16/1 13/15/3 
f 31/33/3 32/34/3 33/35/3 
f 22/24/3 34/36/3 35/37/3 23/26/4 
f 31/33/3 33/35/3 26/29/3 25/28/3 
f 36/38/4 37/32/4 38/27/4 39/39/4 
f 40/31/4 37/32/4 36/38/4 41/40/4 
s off
f 42/41/5 43/42/5 44/43/5 17/44/5 
f 45/45/6 45/45/6 46/46/6 47/45/6 
f 47/45/6 46/46/6 48/46/6 
f 45/47/6 49/7/6 50/48/6 45/47/6 
f 50/48/6 51/49/6 45/47/6 
f 32/44/7 52/43/7 53/42/7 54/41/7 
f 31/50/7 25/51/7 55/52/7 56/53/7 
f 41/54/8 36/55/8 57/56/8 58/48/8 
f 36/55/8 39/57/8 59/58/8 57/56/8 
f 23/59/9 35/60/9 60/61/9 61/58/9 
f 35/60/8 34/62/8 62/63/8 60/61/8 
f 29/64/8 20/65/8 21/66/8 24/67/8 
f 20/65/10 19/2/10 22/62/10 21/66/10 
f 19/68/5 18/50/5 34/69/5 22/70/5 
f 18/50/5 63/53/5 62/71/5 34/69/5 
f 63/23/3 64/72/3 60/73/3 62/36/3 
f 64/72/3 65/74/3 61/75/3 60/73/3 
f 65/74/3 66/76/3 67/77/3 61/75/3 
f 66/76/3 55/28/3 68/78/3 67/77/3 
f 55/52/7 25/51/7 69/70/7 68/79/7 
f 25/51/7 28/80/7 70/81/7 69/70/7 
f 28/7/8 30/47/8 71/82/8 70/83/8 
f 30/47/8 29/64/8 24/67/8 71/82/8 
f 24/81/11 23/70/11 39/84/11 38/85/11 
f 23/70/12 61/79/12 59/86/12 39/84/12 
f 61/75/3 67/77/3 57/38/3 59/87/3 
f 67/77/3 68/78/3 58/40/3 57/38/3 
f 68/79/7 69/70/7 41/84/7 58/86/7 
f 69/70/7 70/81/7 40/85/7 41/84/7 
f 70/83/8 71/82/8 37/55/8 40/54/8 
f 71/82/8 24/67/8 38/88/8 37/55/8 
f 28/80/5 14/89/5 72/18/5 73/30/5 
f 13/5/13 30/47/13 74/90/13 75/91/13 
f 30/47/8 28/7/8 73/92/8 74/90/8 
s 1
f 75/15/3 74/32/3 73/31/3 72/17/3 
s 2
f 72/92/6 14/7/6 13/5/6 75/91/6 
s off
f 45/47/6 76/93/6 46/56/6 
f 45/47/6 51/49/6 76/93/6 
f 47/45/5 48/46/5 43/42/5 42/41/5 
f 63/53/5 18/50/5 17/44/5 44/43/5 
f 31/50/7 56/53/7 52/43/7 32/44/7 
f 50/46/7 49/45/7 54/41/7 53/42/7 
s 1
f 77/46/3 42/94/3 17/22/3 16/21/3 
f 77/46/3 47/95/3 42/94/3 
f 54/96/3 78/97/3 33/35/3 32/34/3 
f 54/96/3 49/92/3 78/97/3 
# 58 polygons - 9 triangles

#
# object Plane004
#

v  13.7795 19.1929 4.0814
v  13.1890 19.1929 4.0814
v  13.1890 19.1929 6.7454
v  13.7795 19.1929 6.7454
v  0.0000 19.1929 6.7454
v  9.6457 19.1929 6.7454
v  9.6457 19.1929 4.0814
v  0.0000 19.1929 4.0814
v  2.9528 19.1929 -8.8583
v  9.8425 19.1929 -8.8583
v  9.8425 19.1929 -10.3268
v  4.9213 19.1929 -10.3268
v  12.9921 19.1929 -8.8583
v  13.7795 19.1929 -10.3268
v  13.7795 19.1929 -8.8583
v  11.4173 19.1929 -8.8583
v  11.2205 19.1929 4.0814
v  10.0394 19.1929 4.0814
v  10.0394 19.1929 6.7454
v  11.2205 19.1929 6.7454
v  12.7953 19.1929 4.0814
v  11.6142 19.1929 4.0814
v  11.6142 19.1929 6.7454
v  12.7953 19.1929 6.7454
v  12.9921 19.1929 3.8845
v  12.9921 19.1929 19.6850
v  13.7795 19.1929 19.6850
v  12.9921 19.1929 6.9423
v  9.8425 19.1929 19.6850
v  9.8425 19.1929 6.9423
v  0.0000 19.1929 19.6850
v  9.8425 19.1929 3.8845
v  0.0000 19.1929 -8.8583
v  11.4173 19.1929 3.8845
v  11.4173 19.1929 19.6850
v  11.4173 19.1929 6.9423
v  9.8425 19.0945 6.8727
v  9.9902 19.0945 6.7250
v  9.6949 19.0945 6.7250
v  9.8425 19.0945 3.9541
v  9.6949 19.0945 4.1017
v  9.9902 19.0945 4.1017
v  12.9921 19.0945 6.8727
v  13.1398 19.0945 6.7250
v  12.8445 19.0945 6.7250
v  12.9921 19.0945 3.9541
v  12.8445 19.0945 4.1017
v  13.1398 19.0945 4.1017
v  11.4173 19.0945 6.8727
v  11.5650 19.0945 6.7250
v  11.2697 19.0945 6.7250
v  11.4173 19.0945 3.9541
v  11.2697 19.0945 4.1017
v  11.5650 19.0945 4.1017
# 54 vertices

vn 0.0000 1.0000 -0.0000
vn 0.8944 0.4472 -0.0000
vn 0.6325 0.4472 -0.6325
vn -0.6325 0.4472 -0.6325
vn -0.8944 0.4472 -0.0000
vn -0.6325 0.4472 0.6325
vn 0.6325 0.4472 0.6325
# 7 vertex normals

vt 0.4371 1.2174 0.0000
vt 0.4371 1.1863 0.0000
vt 0.5595 1.1863 0.0000
vt 0.5595 1.2174 0.0000
vt 0.5595 0.4919 0.0000
vt 0.5595 0.9997 0.0000
vt 0.4371 0.9997 0.0000
vt 0.4371 0.4919 0.0000
vt -0.1572 0.6474 0.0000
vt -0.1572 1.0101 0.0000
vt -0.2247 1.0101 0.0000
vt -0.2247 0.7510 0.0000
vt -0.1572 1.1759 0.0000
vt -0.2247 1.2174 0.0000
vt -0.1572 1.2174 0.0000
vt -0.1572 1.0930 0.0000
vt 0.4371 1.0826 0.0000
vt 0.4371 1.0205 0.0000
vt 0.5595 1.0205 0.0000
vt 0.5595 1.0826 0.0000
vt 0.4371 1.1655 0.0000
vt 0.4371 1.1034 0.0000
vt 0.5595 1.1034 0.0000
vt 0.5595 1.1655 0.0000
vt 0.4281 1.1759 0.0000
vt 1.1538 1.1759 0.0000
vt 1.1538 1.2174 0.0000
vt 0.5685 1.1759 0.0000
vt 1.1538 1.0101 0.0000
vt 0.5685 1.0101 0.0000
vt 1.1538 0.4919 0.0000
vt 0.4281 1.0101 0.0000
vt -0.1572 0.4919 0.0000
vt 0.4281 1.0930 0.0000
vt 1.1538 1.0930 0.0000
vt 0.5685 1.0930 0.0000
vt 0.5653 1.0101 0.0000
vt 0.5586 1.0179 0.0000
vt 0.5586 1.0023 0.0000
vt 0.4313 1.0101 0.0000
vt 0.4381 1.0023 0.0000
vt 0.4381 1.0179 0.0000
vt 0.5653 1.1759 0.0000
vt 0.5586 1.1837 0.0000
vt 0.5586 1.1681 0.0000
vt 0.4313 1.1759 0.0000
vt 0.4381 1.1681 0.0000
vt 0.4381 1.1837 0.0000
vt 0.5653 1.0930 0.0000
vt 0.5586 1.1008 0.0000
vt 0.5586 1.0852 0.0000
vt 0.4313 1.0930 0.0000
vt 0.4381 1.0852 0.0000
vt 0.4381 1.1008 0.0000
vt 0.4371 1.1893 0.0000
vt 0.5595 1.1893 0.0000
vt 0.5586 -0.1893 0.0000
vt 0.4381 -0.1893 0.0000
vt 1.1893 0.9997 0.0000
vt 1.1893 1.0101 0.0000
vt -0.1893 1.0101 0.0000
vt -0.1893 1.0023 0.0000
vt 1.1892 1.0205 0.0000
vt -0.1893 1.0179 0.0000
vt 0.5595 1.1892 0.0000
vt 0.4371 1.1892 0.0000
vt 1.1892 1.1655 0.0000
vt 1.1892 1.1759 0.0000
vt -0.1893 1.1759 0.0000
vt -0.1893 1.1681 0.0000
vt 1.1892 1.1863 0.0000
vt -0.1893 1.1837 0.0000
vt 1.1892 1.0826 0.0000
vt 1.1892 1.0930 0.0000
vt -0.1893 1.0930 0.0000
vt -0.1893 1.0852 0.0000
vt 1.1892 1.1034 0.0000
vt -0.1893 1.1008 0.0000
# 78 texture coords

g Plane004
usemtl wire_134059008
s 1
f 79/98/14 80/99/14 81/100/14 82/101/14 
f 83/102/14 84/103/14 85/104/14 86/105/14 
f 87/106/14 88/107/14 89/108/14 90/109/14 
f 89/108/14 89/108/14 90/109/14 
f 89/108/14 89/108/14 91/110/14 92/111/14 
f 93/112/14 92/111/14 91/110/14 
f 91/110/14 89/108/14 94/113/14 
f 95/114/14 96/115/14 97/116/14 98/117/14 
f 99/118/14 100/119/14 101/120/14 102/121/14 
f 89/108/14 88/107/14 94/113/14 
f 91/110/14 103/122/14 80/99/14 93/112/14 
f 79/98/14 93/112/14 80/99/14 
f 104/123/14 105/124/14 82/101/14 106/125/14 
f 81/100/14 106/125/14 82/101/14 
f 107/126/14 108/127/14 84/103/14 109/128/14 
f 83/102/14 109/128/14 84/103/14 
f 110/129/14 88/107/14 87/106/14 111/130/14 
f 110/129/14 111/130/14 86/105/14 85/104/14 
f 88/107/14 110/129/14 96/115/14 94/113/14 
f 112/131/14 94/113/14 96/115/14 95/114/14 
f 113/132/14 114/133/14 98/117/14 107/126/14 
f 108/127/14 107/126/14 98/117/14 97/116/14 
f 94/113/14 112/131/14 100/119/14 91/110/14 
f 103/122/14 91/110/14 100/119/14 99/118/14 
f 104/123/14 106/125/14 102/121/14 113/132/14 
f 114/133/14 113/132/14 102/121/14 101/120/14 
f 115/134/14 116/135/14 117/136/14 
f 118/137/14 119/138/14 120/139/14 
f 121/140/14 122/141/14 123/142/14 
f 124/143/14 125/144/14 126/145/14 
f 127/146/14 128/147/14 129/148/14 
f 130/149/14 131/150/14 132/151/14 
f 117/136/14 116/135/14 120/139/14 119/138/14 
f 123/142/14 122/141/14 126/145/14 125/144/14 
f 129/148/14 128/147/14 132/151/14 131/150/14 
s off
f 85/152/15 84/153/15 117/154/15 119/155/15 
f 84/156/16 108/157/16 115/158/16 117/159/16 
f 108/157/17 97/160/17 116/161/17 115/158/17 
f 97/162/18 96/163/18 120/155/18 116/154/18 
f 96/160/19 110/157/19 118/158/19 120/161/19 
f 110/157/20 85/156/20 119/159/20 118/158/20 
f 99/163/15 102/162/15 123/154/15 125/155/15 
f 102/164/16 106/165/16 121/166/16 123/167/16 
f 106/165/17 81/168/17 122/169/17 121/166/17 
f 81/162/18 80/163/18 126/155/18 122/154/18 
f 80/168/19 103/165/19 124/166/19 126/169/19 
f 103/165/20 99/164/20 125/167/20 124/166/20 
f 95/163/15 98/162/15 129/154/15 131/155/15 
f 98/170/16 114/171/16 127/172/16 129/173/16 
f 114/171/17 101/174/17 128/175/17 127/172/17 
f 101/162/18 100/163/18 132/155/18 128/154/18 
f 100/174/19 112/171/19 130/172/19 132/175/19 
f 112/171/20 95/170/20 131/173/20 130/172/20 
# 40 polygons - 13 triangles

