# 3ds Max Wavefront OBJ Exporter v0.97b - (c)2007 guruware
# File Created: 21.10.2012 21:36:32

#
# object Box001
#

v  -0.4921 0.0000 14.7638
v  -0.4921 0.0000 -1.6404
v  0.1969 0.0000 -1.6404
v  0.1969 0.0000 14.7638
v  -0.4921 29.5276 1.6404
v  0.1969 29.5276 1.6404
v  0.1969 29.5276 -14.7638
v  -0.4921 29.5276 -14.7638
v  0.1969 16.4042 14.7638
v  -0.4921 16.4042 14.7638
v  0.4921 0.2953 14.4685
v  0.4921 0.2953 -1.5181
v  0.4921 13.2457 -14.4685
v  0.4921 29.2323 -14.4685
v  0.4921 29.2323 1.5181
v  0.4921 16.2819 14.4685
v  0.1969 13.1233 -14.7638
v  -0.4921 13.1233 -14.7638
# 18 vertices

vn 0.0000 -1.0000 -0.0000
vn 0.0000 1.0000 -0.0000
vn 0.0000 0.0000 1.0000
vn 1.0000 0.0000 -0.0000
vn 0.0000 0.0000 -1.0000
vn -1.0000 0.0000 -0.0000
vn 0.0000 -0.7071 -0.7071
vn 0.0000 0.7071 0.7071
vn 0.7071 -0.7071 -0.0000
vn 0.7071 0.7071 -0.0000
vn 0.7071 0.0000 0.7071
vn 0.7071 0.0000 -0.7071
vn 0.7071 -0.5000 -0.5000
vn 0.7071 0.5000 0.5000
# 14 vertex normals

vt 2.4816 0.3592 0.0000
vt 0.2798 0.3592 0.0000
vt 0.2798 0.4987 0.0000
vt 2.4816 0.4987 0.0000
vt 0.7202 0.3592 0.0000
vt 0.7202 0.4987 0.0000
vt -1.4816 0.4987 0.0000
vt -1.4816 0.3592 0.0000
vt -1.3165 0.3592 0.0000
vt -1.3165 0.4987 0.0000
vt 0.7018 0.4987 0.0000
vt 0.7018 0.3592 0.0000
vt 0.0100 0.0100 0.0000
vt 0.0100 0.5514 0.0000
vt 0.4486 0.9900 0.0000
vt 0.9900 0.9900 0.0000
vt 0.9900 0.4486 0.0000
vt 0.5514 0.0100 0.0000
vt 0.2982 0.4987 0.0000
vt 0.2982 0.3592 0.0000
vt 2.3165 0.3592 0.0000
vt 2.3165 0.4987 0.0000
vt 0.0000 -0.0000 0.0000
vt 0.5556 -0.0000 0.0000
vt 1.0000 0.4444 0.0000
vt -0.0000 0.5556 0.0000
vt 1.0000 1.0000 0.0000
vt 0.4444 1.0000 0.0000
vt -0.0000 0.6329 0.0000
vt 0.0075 0.3671 0.0000
vt 0.9820 0.3671 0.0000
vt 1.0000 0.6329 0.0000
vt -2.0437 0.6401 0.0000
vt -2.0058 0.3599 0.0000
vt 2.9521 0.3599 0.0000
vt 3.0437 0.6401 0.0000
vt -3.0179 0.6267 0.0000
vt -2.8913 0.3733 0.0000
vt 3.9655 0.3733 0.0000
vt 4.0179 0.6267 0.0000
vt 4.5862 0.3582 0.0000
vt 4.6249 0.6418 0.0000
vt -0.5677 0.6418 0.0000
vt -0.4742 0.3582 0.0000
vt -1.8133 0.4696 0.0000
vt -1.7806 0.2143 0.0000
vt 2.7733 0.4573 0.0000
vt 2.8015 0.7159 0.0000
vt -0.8128 0.6163 0.0000
vt -0.7955 0.3942 0.0000
vt 1.7955 0.3943 0.0000
vt 1.8128 0.6164 0.0000
# 52 texture coords

g Box001
s 2
f 1/1/1 2/2/1 3/3/1 4/4/1 
s 4
f 5/5/2 6/6/2 7/7/2 8/8/2 
s 8
f 1/9/3 4/10/3 9/11/3 10/12/3 
s 16
f 11/13/4 12/14/4 13/15/4 14/16/4 
f 14/16/4 15/17/4 16/18/4 11/13/4 
s 32
f 17/19/5 18/20/5 8/21/5 7/22/5 
s 64
f 1/23/6 10/24/6 5/25/6 2/26/6 
f 2/26/6 5/25/6 8/27/6 18/28/6 
s off
f 2/9/7 18/20/7 17/19/7 3/10/7 
f 5/21/8 10/12/8 9/11/8 6/22/8 
f 3/29/9 12/30/9 11/31/9 4/32/9 
f 6/33/10 15/34/10 14/35/10 7/36/10 
f 4/37/11 11/38/11 16/39/11 9/40/11 
f 13/41/12 17/42/12 7/43/12 14/44/12 
f 17/45/13 13/46/13 12/47/13 3/48/13 
f 9/49/14 16/50/14 15/51/14 6/52/14 
# 16 polygons

