# 3ds Max Wavefront OBJ Exporter v0.97b - (c)2007 guruware
# File Created: 05.09.2012 18:28:20

mtllib Panel_03.mtl

#
# object Box001
#

v  -8.3431 3.9370 18.6102
v  0.1074 3.9370 18.6102
v  9.3734 3.9370 9.3442
v  8.9657 3.9370 -8.9489
v  9.3734 3.9370 -8.5412
v  -7.9355 3.9370 -8.9489
v  -8.3431 3.9370 -8.5412
v  -9.3274 0.0000 19.5944
v  0.5151 0.0000 19.5944
v  0.5151 2.9528 19.5944
v  -9.3274 2.9528 19.5944
v  10.3576 0.0000 9.7519
v  10.3576 0.0000 -8.9489
v  10.3576 2.9528 -8.9489
v  10.3576 2.9528 9.7519
v  8.3891 0.0000 -9.9331
v  -8.3431 0.0000 -9.9331
v  -8.3431 2.9528 -9.9331
v  8.3891 2.9528 -9.9331
v  -9.3274 0.0000 -8.9489
v  -9.3274 2.9528 -8.9489
v  10.0694 0.0000 -9.2372
v  10.0694 2.9528 -9.2372
# 23 vertices

vn 0.0000 1.0000 -0.0000
vn 0.0000 0.0000 1.0000
vn 1.0000 0.0000 -0.0000
vn 0.0000 0.0000 -1.0000
vn -1.0000 0.0000 -0.0000
vn 0.7071 0.0000 0.7071
vn 0.7071 0.0000 -0.7071
vn -0.7071 0.0000 -0.7071
vn 0.3135 0.5733 -0.7570
vn 0.0000 0.7071 0.7071
vn 0.7071 0.7071 -0.0000
vn 0.0000 0.7071 -0.7071
vn -0.7071 0.7071 -0.0000
vn 0.5000 0.7071 0.5000
vn -0.5000 0.7071 -0.5000
vn 0.5000 0.7071 -0.5000
vn 0.3827 0.0000 -0.9239
# 17 vertex normals

vt 0.9667 0.0500 0.0000
vt 0.9667 0.4793 0.0000
vt 0.6529 0.9500 0.0000
vt 0.0333 0.9293 0.0000
vt 0.0471 0.9500 0.0000
vt 0.0333 0.0707 0.0000
vt 0.0471 0.0500 0.0000
vt 2.4089 0.3690 0.0000
vt 2.4089 0.6310 0.0000
vt 1.1363 0.3690 0.0000
vt -1.2816 0.3690 0.0000
vt -1.2816 0.6310 0.0000
vt 1.1363 0.6310 0.0000
vt -1.4089 0.3690 0.0000
vt -1.4089 0.6310 0.0000
vt 1.4614 0.2400 0.0000
vt 1.1798 0.2400 0.0000
vt 1.1798 0.7600 0.0000
vt 1.4614 0.7600 0.0000
vt 0.7500 0.9000 0.0000
vt 1.0000 0.9293 0.0000
vt 0.7500 0.9854 0.0000
vt 1.0000 0.0500 0.0000
vt 0.7500 -0.0000 0.0000
vt 0.7500 0.5000 0.0000
vt 1.0000 0.4793 0.0000
vt -1.2624 0.6357 0.0000
vt -1.3427 0.3643 0.0000
vt 2.3427 0.3643 0.0000
vt 2.2624 0.6357 0.0000
vt 0.7500 0.0500 0.0000
vt 1.0000 0.0707 0.0000
vt 0.0333 0.0000 0.0000
vt 1.0000 -0.0000 0.0000
vt 0.6667 1.0000 0.0000
vt 1.0000 0.5000 0.0000
vt -0.0000 0.0500 0.0000
vt 0.0236 0.9854 0.0000
vt 0.0333 1.0000 0.0000
vt -0.4614 0.2400 0.0000
vt -0.4614 0.7600 0.0000
# 41 texture coords

g Box001
usemtl wire_088088225
s 4
f 1/1/1 2/2/1 3/3/1 4/4/1 
f 3/3/1 5/5/1 4/4/1 
f 4/4/1 6/6/1 7/7/1 1/1/1 
s 8
f 8/8/2 9/8/2 10/9/2 11/9/2 
s 16
f 12/10/3 13/11/3 14/12/3 15/13/3 
s 32
f 16/14/4 17/14/4 18/15/4 19/15/4 
s 64
f 20/11/5 8/8/5 11/9/5 21/12/5 
s off
f 9/8/6 12/10/6 15/13/6 10/9/6 
f 13/16/7 22/17/7 23/18/7 14/19/7 
f 17/14/8 20/11/8 21/12/8 18/15/8 
f 19/20/9 4/21/9 23/22/9 
f 1/23/10 11/24/10 10/25/10 2/26/10 
f 3/27/11 15/28/11 14/29/11 5/30/11 
f 4/21/12 19/20/12 18/31/12 6/32/12 
f 7/7/13 21/33/13 11/34/13 1/1/13 
f 15/35/14 3/3/14 2/2/14 10/36/14 
f 21/33/15 7/7/15 6/6/15 18/37/15 
f 23/38/16 4/4/16 5/5/16 14/39/16 
f 22/17/17 16/40/17 19/41/17 23/18/17 
# 17 polygons - 2 triangles

