# 3ds Max Wavefront OBJ Exporter v0.97b - (c)2007 guruware
# File Created: 09.02.2013 21:14:12

#
# object Box001
#

v  -9.8425 78.7402 -9.4488
v  -9.8425 78.7402 9.4488
v  68.8976 98.4252 9.8425
v  68.8976 88.9764 9.8425
v  68.8976 88.5827 9.4488
v  68.8976 88.9764 -9.8425
v  68.8976 88.5827 -9.4488
v  68.8976 98.4252 -9.8425
v  9.8425 78.7402 9.4488
v  9.8425 78.7402 -9.4488
v  -9.8425 98.4252 68.8976
v  -9.8425 88.9764 68.8976
v  -9.4488 88.5827 68.8976
v  9.8425 88.9764 68.8976
v  9.4488 88.5827 68.8976
v  9.8425 98.4252 68.8976
v  9.4488 78.7402 9.8425
v  -9.4488 78.7402 9.8425
v  -9.8425 88.9764 -68.8976
v  -9.8425 98.4252 -68.8976
v  9.8425 98.4252 -68.8976
v  9.4488 88.5827 -68.8976
v  9.8425 88.9764 -68.8976
v  -9.4488 88.5827 -68.8976
v  -9.8425 98.4252 -9.8425
v  -9.8425 98.4252 9.8425
v  9.8425 98.4252 9.8425
v  9.8425 98.4252 -9.8425
v  -9.8425 79.1339 -9.8425
v  -9.8425 79.1339 9.8425
v  9.8425 79.1339 9.8425
v  10.2362 78.7402 9.8425
v  19.6850 98.4252 9.8425
v  10.4331 78.7402 9.8425
v  19.6850 88.9764 9.8425
v  10.2362 78.7402 -9.8425
v  10.4331 78.7402 -9.8425
v  10.8268 78.7402 -9.4488
v  10.8268 78.7402 9.4488
v  19.6850 98.4252 -9.8425
v  19.6850 88.9764 -9.8425
v  9.8425 79.1339 -9.8425
v  -9.8425 78.7402 10.2362
v  -9.8425 98.4252 19.6850
v  -9.8425 78.7402 10.4331
v  -9.8425 88.9764 19.6850
v  9.8425 78.7402 10.2362
v  9.8425 78.7402 10.4331
v  9.4488 78.7402 10.8268
v  -9.4488 78.7402 10.8268
v  9.8425 98.4252 19.6850
v  9.8425 88.9764 19.6850
v  -9.8425 98.4252 -19.6850
v  -9.8425 88.9764 -19.6850
v  -9.8425 78.7402 -10.4331
v  -9.8425 78.7402 -10.2362
v  9.8425 98.4252 -19.6850
v  9.8425 78.7402 -10.2362
v  9.8425 78.7402 -10.4331
v  9.8425 88.9764 -19.6850
v  9.4488 78.7402 -9.8425
v  -9.4488 78.7402 -9.8425
v  -9.4488 78.7402 -10.8268
v  9.4488 78.7402 -10.8268
v  -9.4488 88.5827 -19.6850
v  9.4488 88.5827 -19.6850
v  9.4488 88.5827 19.6850
v  -9.4488 88.5827 19.6850
v  19.6850 88.5827 -9.4488
v  19.6850 88.5827 9.4488
# 70 vertices

vn 1.0000 0.0000 -0.0000
vn 1.0000 0.0000 -0.0000
vn 1.0000 0.0000 -0.0000
vn 1.0000 0.0000 -0.0000
vn 1.0000 0.0000 -0.0000
vn 1.0000 0.0000 -0.0000
vn 1.0000 0.0000 -0.0000
vn 1.0000 0.0000 -0.0000
vn 1.0000 0.0000 -0.0000
vn 1.0000 0.0000 -0.0000
vn 0.0000 0.0000 1.0000
vn 0.0000 0.0000 1.0000
vn 0.0000 0.0000 1.0000
vn 0.0000 0.0000 1.0000
vn 0.0000 0.0000 1.0000
vn 0.0000 0.0000 1.0000
vn 0.0000 0.0000 1.0000
vn 0.0000 0.0000 1.0000
vn 0.0000 0.0000 1.0000
vn 0.0000 0.0000 1.0000
vn 0.0000 0.0000 -1.0000
vn 0.0000 0.0000 -1.0000
vn 0.0000 0.0000 -1.0000
vn 0.0000 0.0000 -1.0000
vn 0.0000 0.0000 -1.0000
vn 0.0000 0.0000 -1.0000
vn 0.0000 0.0000 -1.0000
vn 0.0000 0.0000 -1.0000
vn 0.0000 0.0000 -1.0000
vn 0.0000 0.0000 -1.0000
vn 0.0000 1.0000 -0.0000
vn 0.0000 1.0000 -0.0000
vn 0.0000 1.0000 -0.0000
vn 0.0000 1.0000 -0.0000
vn 0.0000 0.0000 1.0000
vn 0.0000 0.0000 1.0000
vn 0.0000 0.0000 1.0000
vn 0.0000 0.0000 1.0000
vn 0.0000 0.0000 1.0000
vn 0.0000 0.0000 1.0000
vn 0.0000 0.0000 1.0000
vn 0.0000 0.0000 1.0000
vn 0.0000 -1.0000 -0.0000
vn 0.0000 -1.0000 -0.0000
vn 0.0000 -1.0000 -0.0000
vn 0.0000 -1.0000 -0.0000
vn 0.0000 -1.0000 -0.0000
vn 0.0000 -1.0000 -0.0000
vn 0.0000 -1.0000 -0.0000
vn 0.0000 -1.0000 -0.0000
vn 0.0000 -1.0000 -0.0000
vn 0.0000 -1.0000 -0.0000
vn 0.0000 -1.0000 -0.0000
vn 0.0000 -1.0000 -0.0000
vn 0.0000 -1.0000 -0.0000
vn 0.0000 -1.0000 -0.0000
vn 0.0000 0.0000 -1.0000
vn 0.0000 0.0000 -1.0000
vn 0.0000 0.0000 -1.0000
vn 0.0000 0.0000 -1.0000
vn 0.0000 0.0000 -1.0000
vn 0.0000 0.0000 -1.0000
vn 0.0000 0.0000 -1.0000
vn 0.0000 0.0000 -1.0000
vn 0.0000 1.0000 -0.0000
vn 0.0000 1.0000 -0.0000
vn 0.0000 1.0000 -0.0000
vn 0.0000 1.0000 -0.0000
vn -1.0000 0.0000 -0.0000
vn -1.0000 0.0000 -0.0000
vn -1.0000 0.0000 -0.0000
vn -1.0000 0.0000 -0.0000
vn -1.0000 0.0000 -0.0000
vn -1.0000 0.0000 -0.0000
vn -1.0000 0.0000 -0.0000
vn -1.0000 0.0000 -0.0000
vn 0.0000 -1.0000 -0.0000
vn 0.0000 -1.0000 -0.0000
vn 0.0000 -1.0000 -0.0000
vn 0.0000 -1.0000 -0.0000
vn 0.0000 -1.0000 -0.0000
vn 0.0000 -1.0000 -0.0000
vn 0.0000 -1.0000 -0.0000
vn 0.0000 -1.0000 -0.0000
vn 0.0000 -1.0000 -0.0000
vn 0.0000 -1.0000 -0.0000
vn 0.0000 -1.0000 -0.0000
vn 0.0000 -1.0000 -0.0000
vn 0.0000 -1.0000 -0.0000
vn 0.0000 -1.0000 -0.0000
vn 1.0000 0.0000 -0.0000
vn 1.0000 0.0000 -0.0000
vn 1.0000 0.0000 -0.0000
vn 1.0000 0.0000 -0.0000
vn 1.0000 0.0000 -0.0000
vn 1.0000 0.0000 -0.0000
vn 1.0000 0.0000 -0.0000
vn 1.0000 0.0000 -0.0000
vn 0.0000 1.0000 -0.0000
vn 0.0000 1.0000 -0.0000
vn 0.0000 1.0000 -0.0000
vn 0.0000 1.0000 -0.0000
vn -1.0000 0.0000 -0.0000
vn -1.0000 0.0000 -0.0000
vn -1.0000 0.0000 -0.0000
vn -1.0000 0.0000 -0.0000
vn -1.0000 0.0000 -0.0000
vn -1.0000 0.0000 -0.0000
vn -1.0000 0.0000 -0.0000
vn -1.0000 0.0000 -0.0000
vn 0.0000 1.0000 -0.0000
vn 0.0000 1.0000 -0.0000
vn 0.0000 1.0000 -0.0000
vn 0.0000 1.0000 -0.0000
vn 1.0000 0.0000 -0.0000
vn 1.0000 0.0000 -0.0000
vn 1.0000 0.0000 -0.0000
vn 1.0000 0.0000 -0.0000
vn 1.0000 0.0000 -0.0000
vn 1.0000 0.0000 -0.0000
vn 1.0000 0.0000 -0.0000
vn 1.0000 0.0000 -0.0000
vn 0.0000 -1.0000 -0.0000
vn 0.0000 -1.0000 -0.0000
vn 0.0000 -1.0000 -0.0000
vn 0.0000 -1.0000 -0.0000
vn 0.0000 -1.0000 -0.0000
vn 0.0000 -1.0000 -0.0000
vn 0.0000 -1.0000 -0.0000
vn 0.0000 -1.0000 -0.0000
vn 0.0000 -1.0000 -0.0000
vn 0.0000 -1.0000 -0.0000
vn 0.0000 -1.0000 -0.0000
vn 0.0000 -1.0000 -0.0000
vn 0.0000 -1.0000 -0.0000
vn 0.0000 -1.0000 -0.0000
vn 0.0000 -0.6690 -0.7433
vn 0.0000 -0.6690 -0.7433
vn 0.0000 -0.6690 -0.7433
vn 0.0000 -0.6690 -0.7433
vn 0.0000 -0.6690 0.7433
vn 0.0000 -0.6690 0.7433
vn 0.0000 -0.6690 0.7433
vn 0.0000 -0.6690 0.7433
vn 0.7433 -0.6690 -0.0000
vn 0.7433 -0.6690 -0.0000
vn 0.7433 -0.6690 -0.0000
vn 0.7433 -0.6690 -0.0000
vn 0.0000 0.0000 1.0000
vn 0.0000 0.0000 1.0000
vn 0.0000 0.0000 1.0000
vn 0.0000 0.0000 1.0000
vn 0.0000 -1.0000 -0.0000
vn 0.0000 -1.0000 -0.0000
vn 0.0000 -1.0000 -0.0000
vn 0.0000 -1.0000 -0.0000
vn 0.0000 0.0000 -1.0000
vn 0.0000 0.0000 -1.0000
vn 0.0000 0.0000 -1.0000
vn 0.0000 0.0000 -1.0000
vn 0.0000 1.0000 -0.0000
vn 0.0000 1.0000 -0.0000
vn 0.0000 1.0000 -0.0000
vn 0.0000 1.0000 -0.0000
vn -1.0000 0.0000 -0.0000
vn -1.0000 0.0000 -0.0000
vn -1.0000 0.0000 -0.0000
vn -1.0000 0.0000 -0.0000
vn 0.0000 -1.0000 -0.0000
vn 0.0000 -1.0000 -0.0000
vn 0.0000 -1.0000 -0.0000
vn 0.0000 -1.0000 -0.0000
vn 1.0000 0.0000 -0.0000
vn 1.0000 0.0000 -0.0000
vn 1.0000 0.0000 -0.0000
vn 1.0000 0.0000 -0.0000
vn 0.0000 1.0000 -0.0000
vn 0.0000 1.0000 -0.0000
vn 0.0000 1.0000 -0.0000
vn 0.0000 1.0000 -0.0000
vn -1.0000 0.0000 -0.0000
vn -1.0000 0.0000 -0.0000
vn -1.0000 0.0000 -0.0000
vn -1.0000 0.0000 -0.0000
vn 0.0000 1.0000 -0.0000
vn 0.0000 1.0000 -0.0000
vn 0.0000 1.0000 -0.0000
vn 0.0000 1.0000 -0.0000
vn 1.0000 0.0000 -0.0000
vn 1.0000 0.0000 -0.0000
vn 1.0000 0.0000 -0.0000
vn 1.0000 0.0000 -0.0000
vn 0.0000 -1.0000 -0.0000
vn 0.0000 -1.0000 -0.0000
vn 0.0000 -1.0000 -0.0000
vn 0.0000 -1.0000 -0.0000
vn -0.5768 -0.5471 -0.6066
vn -0.5768 -0.5471 -0.6066
vn -0.5768 -0.5471 -0.6066
vn -0.5768 -0.5471 -0.6066
vn 0.5768 -0.5471 -0.6066
vn 0.5768 -0.5471 -0.6066
vn 0.5768 -0.5471 -0.6066
vn 0.5768 -0.5471 -0.6066
vn -0.5768 -0.5471 0.6066
vn -0.5768 -0.5471 0.6066
vn -0.5768 -0.5471 0.6066
vn -0.5768 -0.5471 0.6066
vn 0.5768 -0.5471 0.6066
vn 0.5768 -0.5471 0.6066
vn 0.5768 -0.5471 0.6066
vn 0.5768 -0.5471 0.6066
vn 0.6066 -0.5471 0.5768
vn 0.6066 -0.5471 0.5768
vn 0.6066 -0.5471 0.5768
vn 0.6066 -0.5471 0.5768
vn 0.6066 -0.5471 -0.5768
vn 0.6066 -0.5471 -0.5768
vn 0.6066 -0.5471 -0.5768
vn 0.6066 -0.5471 -0.5768
vn 0.0000 -0.7071 0.7071
vn 0.0000 -0.7071 0.7071
vn 0.0000 -0.7071 0.7071
vn 0.0000 -0.7071 0.7071
vn 0.0000 -0.7071 -0.7071
vn 0.0000 -0.7071 -0.7071
vn 0.0000 -0.7071 -0.7071
vn 0.0000 -0.7071 -0.7071
vn -0.7071 -0.7071 -0.0000
vn -0.7071 -0.7071 -0.0000
vn -0.7071 -0.7071 -0.0000
vn -0.7071 -0.7071 -0.0000
vn 0.7071 -0.7071 -0.0000
vn 0.7071 -0.7071 -0.0000
vn 0.7071 -0.7071 -0.0000
vn 0.7071 -0.7071 -0.0000
vn -0.7071 -0.7071 -0.0000
vn -0.7071 -0.7071 -0.0000
vn -0.7071 -0.7071 -0.0000
vn -0.7071 -0.7071 -0.0000
vn 0.7071 -0.7071 -0.0000
vn 0.7071 -0.7071 -0.0000
vn 0.7071 -0.7071 -0.0000
vn 0.7071 -0.7071 -0.0000
vn 0.0000 -1.0000 -0.0000
vn 0.0000 -1.0000 -0.0000
vn 0.0000 -1.0000 -0.0000
vn 0.0000 -0.7071 0.7071
vn 0.0000 -0.7071 0.7071
vn 0.0000 -0.7071 0.7071
vn 0.0000 -0.7071 0.7071
vn 0.5773 -0.5773 -0.5774
vn 0.5773 -0.5773 -0.5774
vn 0.5773 -0.5773 -0.5774
vn 0.5773 -0.5773 -0.5774
vn 0.5773 -0.5773 -0.5774
vn 0.5773 -0.5773 -0.5774
vn 0.5773 -0.5773 -0.5774
vn 0.0000 -1.0000 -0.0000
vn 0.0000 -1.0000 -0.0000
vn 0.0000 -1.0000 -0.0000
vn 0.0000 -1.0000 -0.0000
vn 0.0000 -1.0000 -0.0000
vn 0.0000 -1.0000 -0.0000
vn 0.0000 -1.0000 -0.0000
vn 0.0000 -1.0000 -0.0000
vn 0.0000 -1.0000 -0.0000
vn 0.0000 -1.0000 -0.0000
vn 0.0000 -1.0000 -0.0000
vn 0.0000 -1.0000 -0.0000
vn 0.0000 -1.0000 -0.0000
vn 0.0000 -1.0000 -0.0000
vn 0.0000 -1.0000 -0.0000
vn -1.0000 0.0000 -0.0000
vn -1.0000 0.0000 -0.0000
vn -1.0000 0.0000 -0.0000
vn -1.0000 0.0000 -0.0000
vn -1.0000 0.0000 -0.0000
vn -1.0000 0.0000 -0.0000
vn -1.0000 0.0000 -0.0000
vn -1.0000 0.0000 -0.0000
# 281 vertex normals

vt 1.0000 1.0000 0.0000
vt 0.5200 1.0000 0.0000
vt 0.5000 0.9800 0.0000
vt 1.0000 0.0000 0.0000
vt 0.5000 0.0200 0.0000
vt 0.5200 0.0000 0.0000
vt 0.0000 0.0000 0.0000
vt 0.4800 0.0000 0.0000
vt 0.4800 1.0000 0.0000
vt 0.0000 1.0000 0.0000
vt 1.0000 0.0200 0.0000
vt 0.0000 0.0200 0.0000
vt 0.0067 -0.0000 0.0000
vt 0.1667 1.0000 0.0000
vt 0.0100 -0.0000 0.0000
vt 0.1667 0.5200 0.0000
vt 0.5000 0.0000 0.0000
vt 0.5000 1.0000 0.0000
vt 0.8333 1.0000 0.0000
vt 0.8333 0.5200 0.0000
vt 0.9900 -0.0000 0.0000
vt 0.9933 -0.0000 0.0000
vt 0.0067 0.0000 0.0000
vt 0.0100 0.0000 0.0000
vt 0.4167 1.0000 0.0000
vt 0.4167 0.5200 0.0000
vt 0.4950 -0.0000 0.0000
vt 0.4967 -0.0000 0.0000
vt 0.9900 0.0000 0.0000
vt 0.9933 0.0000 0.0000
vt 0.5033 -0.0000 0.0000
vt 0.5833 1.0000 0.0000
vt 0.5050 -0.0000 0.0000
vt 0.5833 0.5200 0.0000
vt 1.0000 0.5200 0.0000
vt 0.0000 0.5200 0.0000
vt -0.0000 1.0000 0.0000
vt -0.0000 0.5200 0.0000
vt 0.5100 1.0000 0.0000
vt 0.8735 1.3309 0.0000
vt 0.5220 1.3626 0.0000
vt 0.5206 0.9994 0.0000
vt 0.5206 1.0194 0.0000
vt 0.4900 1.0000 0.0000
vt 0.9995 0.9795 0.5000
vt 0.9995 0.0205 0.5000
vt 0.0005 0.0205 0.5000
vt 0.0005 0.9795 0.5000
vt 0.9795 0.9995 0.5000
vt 0.0205 0.9995 0.5000
vt 0.9795 0.0005 0.5000
vt 0.0205 0.0005 0.5000
vt 0.1250 0.0389 0.9995
vt 0.1250 0.9803 0.9995
vt 0.8750 0.9803 0.0005
vt 0.8750 0.0389 0.0005
vt 0.8750 0.0197 -0.0195
vt 0.1250 0.0197 1.0195
# 58 texture coords

g Box001
s 4
f 5/5/1 6/9/2 3/7/3 4/8/4 
f 5/5/5 7/3/6 6/9/7 
f 3/7/8 6/9/9 8/10/10 
s 8
f 13/5/11 14/9/12 11/7/13 12/8/14 
f 13/5/15 15/3/16 14/9/17 
f 11/7/18 14/9/19 16/10/20 
s 32
f 22/3/21 19/6/22 20/4/23 21/1/24 
f 21/1/25 23/2/26 22/3/27 
f 24/5/28 19/6/29 22/3/30 
s 64
f 28/10/31 25/7/32 26/4/33 27/1/34 
s off
f 32/23/35 33/14/36 27/10/37 31/12/38 
f 32/23/39 34/24/40 35/16/41 33/14/42 
f 34/17/43 9/5/44 10/3/45 36/18/46 
f 38/3/47 34/17/48 36/18/49 37/18/50 
f 38/3/51 39/5/52 34/17/53 
f 32/17/54 9/5/55 34/17/56 
f 28/18/57 40/25/58 41/26/59 37/27/60 
f 37/27/61 36/28/62 42/5/63 28/18/64 
f 28/10/65 27/7/66 33/7/67 40/10/68 
f 43/13/69 44/14/70 26/10/71 30/12/72 
f 43/13/73 45/15/74 46/16/75 44/14/76 
f 45/17/77 18/5/78 17/3/79 47/18/80 
f 49/3/81 45/17/82 47/18/83 48/18/84 
f 49/3/85 50/5/86 45/17/87 
f 43/17/88 18/5/89 45/17/90 
f 27/1/91 51/19/92 52/20/93 48/29/94 
f 48/29/95 47/30/96 31/11/97 27/1/98 
f 27/10/99 26/7/100 44/7/101 51/10/102 
f 25/1/103 53/19/104 54/20/105 55/21/106 
f 55/21/107 56/22/108 29/11/109 25/1/110 
f 25/4/111 28/1/112 57/1/113 53/4/114 
f 58/31/115 57/32/116 28/18/117 42/5/118 
f 58/31/119 59/33/120 60/34/121 57/32/122 
f 59/18/123 61/3/124 62/5/125 56/17/126 
f 63/5/127 59/18/128 56/17/129 55/17/130 
f 63/5/131 64/3/132 59/18/133 
f 58/18/134 61/3/135 59/18/136 
f 63/5/137 65/5/138 66/3/139 64/3/140 
f 49/3/141 67/3/142 68/5/143 50/5/144 
f 38/3/145 69/3/146 70/5/147 39/5/148 
f 3/1/149 33/14/150 35/16/151 4/35/152 
f 5/5/153 70/5/154 69/3/155 7/3/156 
f 6/38/157 41/26/158 40/25/159 8/37/160 
f 8/10/161 40/10/162 33/7/163 3/7/164 
f 11/1/165 44/14/166 46/16/167 12/35/168 
f 13/5/169 68/5/170 67/3/171 15/3/172 
f 14/36/173 52/20/174 51/19/175 16/10/176 
f 16/10/177 51/10/178 44/7/179 11/7/180 
f 19/36/181 54/20/182 53/19/183 20/10/184 
f 20/4/185 53/4/186 57/1/187 21/1/188 
f 21/1/189 57/32/190 60/34/191 23/35/192 
f 22/3/193 66/3/194 65/5/195 24/5/196 
f 65/5/197 63/5/198 55/17/199 54/6/200 
f 60/2/201 59/18/202 64/3/203 66/3/204 
f 46/8/205 45/17/206 50/5/207 68/5/208 
f 67/3/209 49/3/210 48/18/211 52/9/212 
f 35/8/213 34/17/214 39/5/215 70/5/216 
f 69/3/217 38/3/218 37/18/219 41/9/220 
f 4/8/221 35/8/222 70/5/223 5/5/224 
f 7/3/225 69/3/226 41/9/227 6/9/228 
f 12/8/229 46/8/230 68/5/231 13/5/232 
f 15/3/233 67/3/234 52/9/235 14/9/236 
f 24/5/237 65/5/238 54/6/239 19/6/240 
f 23/2/241 60/2/242 66/3/243 22/3/244 
f 1/3/245 56/40/246 62/41/247 
f 31/44/248 17/3/249 9/42/250 32/43/251 
f 17/3/252 31/44/253 47/18/254 
f 36/40/255 61/3/256 58/18/257 42/39/258 
f 61/3/259 36/40/260 10/41/261 
s 1
f 9/46/262 2/47/263 1/48/264 10/45/265 
s 2
f 10/45/266 1/48/267 62/50/268 61/49/269 
f 17/51/270 18/52/271 2/47/272 9/46/273 
s 1
f 26/54/274 25/55/275 29/56/276 30/53/277 
s 2
f 56/57/278 43/58/279 30/53/280 29/56/281 
# 59 polygons - 15 triangles

