# 3ds Max Wavefront OBJ Exporter v0.97b - (c)2007 guruware
# File Created: 09.02.2013 21:10:05

#
# object Box001
#

v  -68.8976 98.4252 -9.8425
v  -68.8976 88.9764 -9.8425
v  -68.8976 88.5827 -9.4488
v  -68.8976 98.4252 9.8425
v  -68.8976 88.5827 9.4488
v  -68.8976 88.9764 9.8425
v  -9.8425 78.7402 -9.4488
v  -9.8425 49.2126 -9.4488
v  -9.8425 49.2126 9.4488
v  -9.8425 78.7402 9.4488
v  68.8976 98.4252 9.8425
v  68.8976 88.9764 9.8425
v  68.8976 88.5827 9.4488
v  68.8976 88.9764 -9.8425
v  68.8976 88.5827 -9.4488
v  68.8976 98.4252 -9.8425
v  9.8425 53.1496 9.4488
v  9.8425 51.3005 7.5997
v  9.8425 49.2126 2.5591
v  9.8425 78.7402 9.4488
v  9.8425 49.2126 -9.4488
v  9.8425 78.7402 -9.4488
v  -9.4488 49.2126 9.8425
v  2.5591 49.2126 9.8425
v  7.5997 51.3005 9.8425
v  9.4488 53.1496 9.8425
v  9.4488 78.7402 9.8425
v  -9.4488 78.7402 9.8425
v  -9.8425 0.0000 9.4488
v  -9.8425 0.0000 -9.4488
v  -9.4488 0.0000 -9.8425
v  9.8425 0.0000 -9.4488
v  9.4488 0.0000 -9.8425
v  9.8425 0.0000 9.4488
v  9.4488 0.0000 9.8425
v  -9.4488 0.0000 9.8425
v  -9.4488 49.2126 -9.8425
v  9.4488 49.2126 -9.8425
v  -9.8425 98.4252 -9.8425
v  -9.8425 98.4252 9.8425
v  9.8425 98.4252 9.8425
v  9.8425 98.4252 -9.8425
v  -19.6850 98.4252 -9.8425
v  -19.6850 98.4252 9.8425
v  -9.8425 79.1339 -9.8425
v  -10.2362 78.7402 -9.8425
v  -10.4331 78.7402 -9.8425
v  -19.6850 88.9764 -9.8425
v  -10.2362 78.7402 9.8425
v  -10.4331 78.7402 9.8425
v  -10.8268 78.7402 9.4488
v  -10.8268 78.7402 -9.4488
v  -19.6850 88.9764 9.8425
v  -9.8425 79.1339 9.8425
v  9.8425 79.1339 9.8425
v  10.2362 78.7402 9.8425
v  19.6850 98.4252 9.8425
v  10.4331 78.7402 9.8425
v  19.6850 88.9764 9.8425
v  10.2362 78.7402 -9.8425
v  10.4331 78.7402 -9.8425
v  10.8268 78.7402 -9.4488
v  10.8268 78.7402 9.4488
v  19.6850 98.4252 -9.8425
v  19.6850 88.9764 -9.8425
v  9.8425 79.1339 -9.8425
v  9.4488 78.7402 -9.8425
v  -9.4488 78.7402 -9.8425
v  -19.6850 88.5827 9.4488
v  -19.6850 88.5827 -9.4488
v  19.6850 88.5827 -9.4488
v  19.6850 88.5827 9.4488
v  9.8425 45.2756 9.4488
v  9.8425 47.1247 7.5997
v  9.4488 45.2756 9.8425
v  7.5997 47.1247 9.8425
# 76 vertices

vn -1.0000 0.0000 -0.0000
vn -1.0000 0.0000 -0.0000
vn -1.0000 0.0000 -0.0000
vn -1.0000 0.0000 -0.0000
vn -1.0000 0.0000 -0.0000
vn -1.0000 0.0000 -0.0000
vn -1.0000 0.0000 -0.0000
vn -1.0000 0.0000 -0.0000
vn -1.0000 0.0000 -0.0000
vn -1.0000 0.0000 -0.0000
vn -1.0000 0.0000 -0.0000
vn -1.0000 0.0000 -0.0000
vn 1.0000 0.0000 -0.0000
vn 1.0000 0.0000 -0.0000
vn 1.0000 0.0000 -0.0000
vn 1.0000 0.0000 -0.0000
vn 1.0000 0.0000 -0.0000
vn 1.0000 0.0000 -0.0000
vn 1.0000 0.0000 -0.0000
vn 1.0000 0.0000 -0.0000
vn 1.0000 0.0000 -0.0000
vn 1.0000 0.0000 -0.0000
vn 1.0000 0.0000 -0.0000
vn 1.0000 0.0000 -0.0000
vn 1.0000 0.0000 -0.0000
vn 1.0000 0.0000 -0.0000
vn 1.0000 0.0000 -0.0000
vn 1.0000 0.0000 -0.0000
vn 1.0000 0.0000 -0.0000
vn 1.0000 0.0000 -0.0000
vn 0.0000 0.0000 1.0000
vn 0.0000 0.0000 1.0000
vn 0.0000 0.0000 1.0000
vn 0.0000 0.0000 1.0000
vn 0.0000 0.0000 1.0000
vn 0.0000 0.0000 1.0000
vn 0.0000 0.0000 1.0000
vn 0.0000 0.0000 1.0000
vn 0.0000 -1.0000 -0.0000
vn 0.0000 -1.0000 -0.0000
vn 0.0000 -1.0000 -0.0000
vn 0.0000 -1.0000 -0.0000
vn 0.0000 -1.0000 -0.0000
vn 0.0000 -1.0000 -0.0000
vn 0.0000 -1.0000 -0.0000
vn 0.0000 -1.0000 -0.0000
vn 0.0000 -1.0000 -0.0000
vn 0.0000 -1.0000 -0.0000
vn 0.0000 -1.0000 -0.0000
vn 0.0000 -1.0000 -0.0000
vn 0.0000 -1.0000 -0.0000
vn 0.0000 -1.0000 -0.0000
vn 0.0000 0.0000 -1.0000
vn 0.0000 0.0000 -1.0000
vn 0.0000 0.0000 -1.0000
vn 0.0000 0.0000 -1.0000
vn 0.0000 1.0000 -0.0000
vn 0.0000 1.0000 -0.0000
vn 0.0000 1.0000 -0.0000
vn 0.0000 1.0000 -0.0000
vn 0.0000 1.0000 -0.0000
vn 0.0000 1.0000 -0.0000
vn 0.0000 1.0000 -0.0000
vn 0.0000 1.0000 -0.0000
vn 0.0000 0.0000 -1.0000
vn 0.0000 0.0000 -1.0000
vn 0.0000 0.0000 -1.0000
vn 0.0000 0.0000 -1.0000
vn 0.0000 0.0000 -1.0000
vn 0.0000 0.0000 -1.0000
vn 0.0000 0.0000 -1.0000
vn 0.0000 0.0000 -1.0000
vn 0.0000 -1.0000 -0.0000
vn 0.0000 -1.0000 -0.0000
vn 0.0000 -1.0000 -0.0000
vn 0.0000 -1.0000 -0.0000
vn 0.0000 -1.0000 -0.0000
vn 0.0000 -1.0000 -0.0000
vn 0.0000 -1.0000 -0.0000
vn 0.0000 -1.0000 -0.0000
vn 0.0000 -1.0000 -0.0000
vn 0.0000 -1.0000 -0.0000
vn 0.0000 -1.0000 -0.0000
vn 0.0000 -1.0000 -0.0000
vn 0.0000 -1.0000 -0.0000
vn 0.0000 -1.0000 -0.0000
vn 0.0000 0.0000 1.0000
vn 0.0000 0.0000 1.0000
vn 0.0000 0.0000 1.0000
vn 0.0000 0.0000 1.0000
vn 0.0000 0.0000 1.0000
vn 0.0000 0.0000 1.0000
vn 0.0000 0.0000 1.0000
vn 0.0000 0.0000 1.0000
vn 0.0000 0.0000 1.0000
vn 0.0000 0.0000 1.0000
vn 0.0000 0.0000 1.0000
vn 0.0000 0.0000 1.0000
vn 0.0000 0.0000 1.0000
vn 0.0000 0.0000 1.0000
vn 0.0000 0.0000 1.0000
vn 0.0000 0.0000 1.0000
vn 0.0000 -1.0000 -0.0000
vn 0.0000 -1.0000 -0.0000
vn 0.0000 -1.0000 -0.0000
vn 0.0000 -1.0000 -0.0000
vn 0.0000 -1.0000 -0.0000
vn 0.0000 -1.0000 -0.0000
vn 0.0000 -1.0000 -0.0000
vn 0.0000 -1.0000 -0.0000
vn 0.0000 -1.0000 -0.0000
vn 0.0000 -1.0000 -0.0000
vn 0.0000 -1.0000 -0.0000
vn 0.0000 -1.0000 -0.0000
vn 0.0000 -1.0000 -0.0000
vn 0.0000 -1.0000 -0.0000
vn 0.0000 0.0000 -1.0000
vn 0.0000 0.0000 -1.0000
vn 0.0000 0.0000 -1.0000
vn 0.0000 0.0000 -1.0000
vn 0.0000 0.0000 -1.0000
vn 0.0000 0.0000 -1.0000
vn 0.0000 0.0000 -1.0000
vn 0.0000 0.0000 -1.0000
vn 0.0000 1.0000 -0.0000
vn 0.0000 1.0000 -0.0000
vn 0.0000 1.0000 -0.0000
vn 0.0000 1.0000 -0.0000
vn -0.7433 -0.6690 -0.0000
vn -0.7433 -0.6690 -0.0000
vn -0.7433 -0.6690 -0.0000
vn -0.7433 -0.6690 -0.0000
vn 0.7433 -0.6690 -0.0000
vn 0.7433 -0.6690 -0.0000
vn 0.7433 -0.6690 -0.0000
vn 0.7433 -0.6690 -0.0000
vn 0.0000 1.0000 -0.0000
vn 0.0000 1.0000 -0.0000
vn 0.0000 1.0000 -0.0000
vn 0.0000 1.0000 -0.0000
vn 0.0000 0.0000 -1.0000
vn 0.0000 0.0000 -1.0000
vn 0.0000 0.0000 -1.0000
vn 0.0000 0.0000 -1.0000
vn 0.0000 -1.0000 -0.0000
vn 0.0000 -1.0000 -0.0000
vn 0.0000 -1.0000 -0.0000
vn 0.0000 -1.0000 -0.0000
vn 0.0000 0.0000 1.0000
vn 0.0000 0.0000 1.0000
vn 0.0000 0.0000 1.0000
vn 0.0000 0.0000 1.0000
vn 0.0000 0.0000 1.0000
vn 0.0000 0.0000 1.0000
vn 0.0000 0.0000 1.0000
vn 0.0000 0.0000 1.0000
vn 0.0000 -1.0000 -0.0000
vn 0.0000 -1.0000 -0.0000
vn 0.0000 -1.0000 -0.0000
vn 0.0000 -1.0000 -0.0000
vn 0.0000 0.0000 -1.0000
vn 0.0000 0.0000 -1.0000
vn 0.0000 0.0000 -1.0000
vn 0.0000 0.0000 -1.0000
vn 0.0000 1.0000 -0.0000
vn 0.0000 1.0000 -0.0000
vn 0.0000 1.0000 -0.0000
vn 0.0000 1.0000 -0.0000
vn -0.6066 -0.5471 -0.5768
vn -0.6066 -0.5471 -0.5768
vn -0.6066 -0.5471 -0.5768
vn -0.6066 -0.5471 -0.5768
vn -0.6066 -0.5471 0.5768
vn -0.6066 -0.5471 0.5768
vn -0.6066 -0.5471 0.5768
vn -0.6066 -0.5471 0.5768
vn 0.6066 -0.5471 0.5768
vn 0.6066 -0.5471 0.5768
vn 0.6066 -0.5471 0.5768
vn 0.6066 -0.5471 0.5768
vn 0.6066 -0.5471 -0.5768
vn 0.6066 -0.5471 -0.5768
vn 0.6066 -0.5471 -0.5768
vn 0.6066 -0.5471 -0.5768
vn 0.0000 -0.7071 -0.7071
vn 0.0000 -0.7071 -0.7071
vn 0.0000 -0.7071 -0.7071
vn 0.0000 -0.7071 -0.7071
vn 0.0000 -0.7071 0.7071
vn 0.0000 -0.7071 0.7071
vn 0.0000 -0.7071 0.7071
vn 0.0000 -0.7071 0.7071
vn 0.0000 -0.7071 0.7071
vn 0.0000 -0.7071 0.7071
vn 0.0000 -0.7071 0.7071
vn 0.0000 -0.7071 0.7071
vn 0.0000 -0.7071 -0.7071
vn 0.0000 -0.7071 -0.7071
vn 0.0000 -0.7071 -0.7071
vn 0.0000 -0.7071 -0.7071
vn 0.0000 -1.0000 -0.0000
vn 0.0000 -1.0000 -0.0000
vn 0.0000 -1.0000 -0.0000
vn -0.7071 0.0000 -0.7071
vn -0.7071 0.0000 -0.7071
vn -0.7071 0.0000 -0.7071
vn -0.7071 0.0000 -0.7071
vn -0.7071 0.0000 0.7071
vn -0.7071 0.0000 0.7071
vn -0.7071 0.0000 0.7071
vn -0.7071 0.0000 0.7071
vn 0.7071 0.0000 0.7071
vn 0.7071 0.0000 0.7071
vn 0.7071 0.0000 0.7071
vn 0.7071 0.0000 0.7071
vn 0.7071 0.0000 -0.7071
vn 0.7071 0.0000 -0.7071
vn 0.7071 0.0000 -0.7071
vn 0.7071 0.0000 -0.7071
vn -1.0000 0.0000 -0.0000
vn -1.0000 0.0000 -0.0000
vn -1.0000 0.0000 -0.0000
vn -1.0000 0.0000 -0.0000
vn 1.0000 0.0000 -0.0000
vn 1.0000 0.0000 -0.0000
vn 1.0000 0.0000 -0.0000
vn 1.0000 0.0000 -0.0000
vn 1.0000 0.0000 -0.0000
vn 1.0000 0.0000 -0.0000
vn 1.0000 0.0000 -0.0000
vn 1.0000 0.0000 -0.0000
vn 0.0000 0.0000 1.0000
vn 0.0000 0.0000 1.0000
vn 0.0000 0.0000 1.0000
vn 0.0000 0.0000 1.0000
vn 0.0000 0.0000 1.0000
vn 0.0000 0.0000 1.0000
vn 0.0000 0.0000 1.0000
vn 0.0000 0.0000 1.0000
vn 0.0000 0.0000 -1.0000
vn 0.0000 0.0000 -1.0000
vn 0.0000 0.0000 -1.0000
vn 0.0000 0.0000 -1.0000
vn -0.7071 0.0000 -0.7071
vn -0.7071 0.0000 -0.7071
vn -0.7071 0.0000 -0.7071
vn -0.7071 0.0000 -0.7071
vn -0.7071 0.0000 0.7071
vn -0.7071 0.0000 0.7071
vn -0.7071 0.0000 0.7071
vn -0.7071 0.0000 0.7071
vn 0.7071 0.0000 0.7071
vn 0.7071 0.0000 0.7071
vn 0.7071 0.0000 0.7071
vn 0.7071 0.0000 0.7071
vn 0.7071 0.0000 -0.7071
vn 0.7071 0.0000 -0.7071
vn 0.7071 0.0000 -0.7071
vn 0.7071 0.0000 -0.7071
vn 1.0000 0.0000 -0.0000
vn 1.0000 0.0000 -0.0000
vn 1.0000 0.0000 -0.0000
vn 0.0000 0.0000 1.0000
vn 0.0000 0.0000 1.0000
vn 0.0000 0.0000 1.0000
vn 0.7071 0.0000 0.7071
vn 0.7071 0.0000 0.7071
vn 0.7071 0.0000 0.7071
vn 0.7071 0.0000 0.7071
vn 0.5773 0.5774 0.5774
vn 0.5773 0.5774 0.5774
vn 0.5773 0.5773 0.5774
vn 0.5773 0.5774 0.5774
vn 0.5774 -0.5774 0.5774
vn 0.5773 -0.5774 0.5774
vn 0.5773 -0.5774 0.5774
vn 0.5773 -0.5774 0.5774
vn 0.0000 0.0000 1.0000
vn 0.0000 0.0000 1.0000
vn 0.0000 0.0000 1.0000
vn 0.0000 0.0000 1.0000
vn 0.0000 0.0000 1.0000
vn 0.0000 0.0000 1.0000
vn 0.0000 0.0000 1.0000
vn 0.0000 0.0000 1.0000
vn 0.0000 0.0000 -1.0000
vn 0.0000 0.0000 -1.0000
vn 0.0000 0.0000 -1.0000
vn 0.0000 0.0000 -1.0000
vn 0.0000 0.0000 -1.0000
vn 0.0000 0.0000 -1.0000
vn 0.0000 0.0000 -1.0000
vn 0.0000 0.0000 -1.0000
# 293 vertex normals

vt 1.0000 1.0000 0.0000
vt 0.5200 1.0000 0.0000
vt 0.5000 0.9800 0.0000
vt 1.0000 0.0000 0.0000
vt 0.5000 0.0200 0.0000
vt 0.5200 0.0000 0.0000
vt 0.3125 0.9800 0.0000
vt 0.3125 0.0200 0.0000
vt 0.0000 0.0000 0.0000
vt 0.4800 0.0000 0.0000
vt 0.4800 1.0000 0.0000
vt 0.0000 1.0000 0.0000
vt 0.6625 0.0200 0.0000
vt 0.6742 0.1139 0.0000
vt 0.6875 0.3700 0.0000
vt 0.6875 0.9800 0.0000
vt 0.6875 0.0200 0.0000
vt 0.6875 0.6300 0.0000
vt 0.6742 0.8861 0.0000
vt 0.6625 0.9800 0.0000
vt 0.0200 0.0000 0.0000
vt 0.9800 0.0000 0.0000
vt 1.0000 0.0200 0.0000
vt 0.9800 1.0000 0.0000
vt 1.0000 0.9800 0.0000
vt 0.0200 1.0000 0.0000
vt 0.0000 0.9800 0.0000
vt 0.0000 0.0200 0.0000
vt 0.0067 -0.0000 0.0000
vt 0.1667 1.0000 0.0000
vt 0.0100 -0.0000 0.0000
vt 0.1667 0.5200 0.0000
vt 0.5000 0.0000 0.0000
vt 0.5000 1.0000 0.0000
vt 0.8333 1.0000 0.0000
vt 0.8333 0.5200 0.0000
vt 0.9900 -0.0000 0.0000
vt 0.9933 -0.0000 0.0000
vt 0.0067 0.0000 0.0000
vt 0.0100 0.0000 0.0000
vt 0.4167 1.0000 0.0000
vt 0.4167 0.5200 0.0000
vt 0.4950 -0.0000 0.0000
vt 0.4967 -0.0000 0.0000
vt 1.0000 0.5200 0.0000
vt 0.0000 0.5200 0.0000
vt -0.0000 1.0000 0.0000
vt -0.0000 0.5200 0.0000
vt 0.8735 1.3309 0.0000
vt 0.5220 1.3626 0.0000
vt 0.3125 0.0165 0.0000
vt 0.5000 0.0165 0.0000
vt 0.6875 0.0165 0.0000
vt 1.0000 0.0165 0.0000
vt 0.6625 0.9835 0.0000
vt 0.5000 0.9835 0.0000
vt 0.3125 0.9835 0.0000
vt 0.0000 0.9835 0.0000
vt 0.7125 0.0200 0.0000
vt 0.7008 0.1139 0.0000
vt 0.7125 0.9800 0.0000
vt 0.7008 0.8861 0.0000
vt 0.0000 0.0165 0.0000
vt 1.0000 0.9835 0.0000
vt 0.7125 0.9835 0.0000
vt 1.4759 0.3641 0.0000
vt 1.4759 0.6359 0.0000
vt -0.4759 0.6359 0.0000
vt -0.4759 0.3641 0.0000
vt 2.3402 0.4762 0.0000
vt 2.3402 0.5238 0.0000
vt -1.3402 0.5238 0.0000
vt -1.3402 0.4762 0.0000
vt 0.9808 0.0200 0.0000
vt 0.9808 1.0000 0.0000
vt 0.0192 1.0000 0.0000
vt 0.0192 0.0200 0.0000
vt 1.0000 -0.0000 0.0000
vt 0.0000 -0.0000 0.0000
vt 0.0000 0.0000 0.0000
vt 1.0000 0.0000 0.0000
vt 1.0000 1.0000 0.0000
vt 0.0000 1.0000 0.0000
vt 0.0192 1.0000 0.0000
vt 0.0192 0.0200 0.0000
vt 0.9808 0.0200 0.0000
vt 0.9808 1.0000 0.0000
vt 0.0000 -0.0000 0.0000
vt 1.0000 -0.0000 0.0000
# 89 texture coords

g Box001
s 2
f 3/3/1 4/4/2 1/1/3 2/2/4 
f 4/4/5 3/3/6 5/5/7 6/6/8 
f 10/5/9 7/3/10 8/7/11 9/8/12 
s 4
f 13/5/13 14/11/14 11/9/15 12/10/16 
f 13/5/17 15/3/18 14/11/19 
f 11/9/20 14/11/21 16/12/22 
f 19/15/23 20/5/24 17/13/25 18/14/26 
f 22/3/27 20/5/28 19/15/29 21/16/30 
s 8
f 26/20/31 23/17/32 24/18/33 25/19/34 
f 28/5/35 23/17/36 26/20/37 27/3/38 
s 16
f 31/23/39 32/24/40 29/21/41 30/22/42 
f 31/23/43 33/25/44 32/24/45 
f 35/27/46 29/21/47 32/24/48 34/26/49 
f 36/28/50 29/21/51 35/27/52 
s 32
f 31/28/53 37/8/54 38/7/55 33/27/56 
s 64
f 42/82/57 39/83/58 40/80/59 41/81/60 
s off
f 40/4/61 39/1/62 43/1/63 44/4/64 
f 46/29/65 43/30/66 39/12/67 45/28/68 
f 46/29/69 47/31/70 48/32/71 43/30/72 
f 47/34/73 7/3/74 10/5/75 49/33/76 
f 51/5/77 47/34/78 49/33/79 50/33/80 
f 51/5/81 52/3/82 47/34/83 
f 46/34/84 7/3/85 47/34/86 
f 40/1/87 44/35/88 53/36/89 50/37/90 
f 50/37/91 49/38/92 54/23/93 40/1/94 
f 56/39/95 57/30/96 41/12/97 55/28/98 
f 56/39/99 58/40/100 59/32/101 57/30/102 
f 58/33/103 20/5/104 22/3/105 60/34/106 
f 62/3/107 58/33/108 60/34/109 61/34/110 
f 62/3/111 63/5/112 58/33/113 
f 56/33/114 20/5/115 58/33/116 
f 42/34/117 64/41/118 65/42/119 61/43/120 
f 61/43/121 60/44/122 66/5/123 42/34/124 
f 42/12/125 41/9/126 57/9/127 64/12/128 
f 51/5/129 69/5/130 70/3/131 52/3/132 
f 62/3/133 71/3/134 72/5/135 63/5/136 
f 4/4/137 44/4/138 43/1/139 1/1/140 
f 1/1/141 43/30/142 48/32/143 2/45/144 
f 3/3/145 70/3/146 69/5/147 5/5/148 
f 6/46/149 53/36/150 44/35/151 4/12/152 
f 11/1/153 57/30/154 59/32/155 12/45/156 
f 13/5/157 72/5/158 71/3/159 15/3/160 
f 14/48/161 65/42/162 64/41/163 16/47/164 
f 16/12/165 64/12/166 57/9/167 11/9/168 
f 48/2/169 47/34/170 52/3/171 70/3/172 
f 69/5/173 51/5/174 50/33/175 53/6/176 
f 59/10/177 58/33/178 63/5/179 72/5/180 
f 71/3/181 62/3/182 61/34/183 65/11/184 
f 2/2/185 48/2/186 70/3/187 3/3/188 
f 5/5/189 69/5/190 53/6/191 6/6/192 
f 12/10/193 59/10/194 72/5/195 13/5/196 
f 15/3/197 71/3/198 65/11/199 14/11/200 
f 67/3/201 60/49/202 22/50/203 
f 7/52/204 68/5/205 37/8/206 8/51/207 
f 29/54/208 36/23/209 23/17/210 9/53/211 
f 20/56/212 27/3/213 26/20/214 17/55/215 
f 32/58/216 33/27/217 38/7/218 21/57/219 
s 2
f 8/7/220 30/27/221 29/28/222 9/8/223 
s 4
f 73/59/224 34/23/225 32/25/226 21/16/227 
f 19/15/228 74/60/229 73/59/230 21/16/231 
s 8
f 24/18/232 35/25/233 75/61/234 76/62/235 
f 24/18/236 23/17/237 36/23/238 35/25/239 
s 32
f 37/8/240 68/5/241 67/3/242 38/7/243 
s off
f 37/8/244 31/28/245 30/63/246 8/51/247 
f 23/17/248 28/5/249 10/52/250 9/53/251 
f 75/61/252 35/25/253 34/64/254 73/65/255 
f 38/7/256 67/3/257 22/56/258 21/57/259 
f 18/14/260 74/60/261 19/15/262 
f 24/18/263 76/62/264 25/19/265 
s 1
f 25/69/266 76/66/267 74/67/268 18/68/269 
s 2
f 74/67/270 76/66/271 75/70/272 73/71/273 
f 25/69/274 18/68/275 17/72/276 26/73/277 
s 1
f 41/75/278 40/76/279 54/77/280 55/74/281 
s 2
f 55/74/282 54/77/283 49/79/284 56/78/285 
s 1
f 66/85/286 45/86/287 39/87/288 42/84/289 
s 2
f 60/88/290 46/89/291 45/86/292 66/85/293 
# 65 polygons - 11 triangles

