# 3ds Max Wavefront OBJ Exporter v0.97b - (c)2007 guruware
# File Created: 09.02.2013 23:21:51

#
# object Box001
#

v  -68.9522 98.4252 -12.2714
v  -68.9522 88.9764 -12.2714
v  -68.9522 88.5827 -11.8777
v  -68.9522 98.4252 7.4136
v  -68.9522 88.5827 7.0199
v  -68.9522 88.9764 7.4136
v  -9.8971 78.7402 -11.8777
v  -9.8971 49.2126 -11.8777
v  -9.8971 49.2126 7.0199
v  -9.8971 78.7402 7.0199
v  9.7879 53.1496 7.0199
v  9.7879 51.3005 5.1708
v  9.7879 49.2126 0.1302
v  9.7879 78.7402 7.0199
v  9.7879 49.2126 -11.8777
v  9.7879 78.7402 -11.8777
v  -9.5034 49.2126 7.4136
v  2.5045 49.2126 7.4136
v  7.5451 51.3005 7.4136
v  9.3942 53.1496 7.4136
v  9.3942 78.7402 7.4136
v  -9.5034 78.7402 7.4136
v  -9.8971 0.0000 7.0199
v  -9.8971 0.0000 -11.8777
v  -9.5034 0.0000 -12.2714
v  9.7879 0.0000 -11.8777
v  9.3942 0.0000 -12.2714
v  9.7879 0.0000 7.0199
v  9.3942 0.0000 7.4136
v  -9.5034 0.0000 7.4136
v  -9.5034 49.2126 -12.2714
v  9.3942 49.2126 -12.2714
v  -9.8971 88.9764 -71.3265
v  -9.8971 98.4252 -71.3265
v  9.7879 98.4252 -71.3265
v  9.3942 88.5827 -71.3265
v  9.7879 88.9764 -71.3265
v  -9.5034 88.5827 -71.3265
v  -9.8971 98.4252 -12.2714
v  -9.8971 98.4252 7.4136
v  1.9139 98.4252 7.4136
v  9.7879 98.4252 -12.2714
v  -19.7396 98.4252 -12.2714
v  -19.7396 98.4252 7.4136
v  -9.8971 79.1339 -12.2714
v  -10.2908 78.7402 -12.2714
v  -10.4877 78.7402 -12.2714
v  -19.7396 88.9764 -12.2714
v  -10.2908 78.7402 7.4136
v  -10.4877 78.7402 7.4136
v  -10.8814 78.7402 7.0199
v  -10.8814 78.7402 -11.8777
v  -19.7396 88.9764 7.4136
v  -9.8971 79.1339 7.4136
v  9.7879 79.1339 7.4136
v  9.7880 78.7402 7.4136
v  9.7880 78.7402 -12.2714
v  9.7879 79.1339 -12.2714
v  -9.8971 98.4252 -22.1139
v  -9.8971 88.9764 -22.1139
v  -9.8971 78.7402 -12.8620
v  -9.8971 78.7402 -12.6651
v  9.7879 98.4252 -22.1139
v  9.7879 78.7402 -12.6651
v  9.7879 78.7402 -12.8620
v  9.7879 88.9764 -22.1139
v  9.3942 78.7402 -12.2714
v  -9.5034 78.7402 -12.2714
v  -9.5034 78.7402 -13.2557
v  9.3942 78.7402 -13.2557
v  -19.7396 88.5827 7.0199
v  -19.7396 88.5827 -11.8777
v  -9.5034 88.5827 -22.1139
v  9.3942 88.5827 -22.1139
v  9.7879 45.2756 7.0199
v  9.7879 47.1247 5.1708
v  9.3942 45.2756 7.4136
v  7.5451 47.1247 7.4136
v  9.7879 90.5512 7.4136
v  9.7879 98.4252 -0.4604
# 80 vertices

vn -1.0000 0.0000 -0.0000
vn -1.0000 0.0000 -0.0000
vn -1.0000 0.0000 -0.0000
vn -1.0000 0.0000 -0.0000
vn -1.0000 0.0000 -0.0000
vn -1.0000 0.0000 -0.0000
vn -1.0000 0.0000 -0.0000
vn -1.0000 0.0000 -0.0000
vn -1.0000 0.0000 -0.0000
vn -1.0000 0.0000 -0.0000
vn -1.0000 0.0000 -0.0000
vn -1.0000 0.0000 -0.0000
vn 1.0000 0.0000 -0.0000
vn 1.0000 0.0000 -0.0000
vn 1.0000 0.0000 -0.0000
vn 1.0000 0.0000 -0.0000
vn 1.0000 0.0000 -0.0000
vn 1.0000 0.0000 -0.0000
vn 1.0000 0.0000 -0.0000
vn 1.0000 0.0000 -0.0000
vn 0.0000 0.0000 1.0000
vn 0.0000 0.0000 1.0000
vn 0.0000 0.0000 1.0000
vn 0.0000 0.0000 1.0000
vn 0.0000 0.0000 1.0000
vn 0.0000 0.0000 1.0000
vn 0.0000 0.0000 1.0000
vn 0.0000 0.0000 1.0000
vn 0.0000 -1.0000 -0.0000
vn 0.0000 -1.0000 -0.0000
vn 0.0000 -1.0000 -0.0000
vn 0.0000 -1.0000 -0.0000
vn 0.0000 -1.0000 -0.0000
vn 0.0000 -1.0000 -0.0000
vn 0.0000 -1.0000 -0.0000
vn 0.0000 -1.0000 -0.0000
vn 0.0000 -1.0000 -0.0000
vn 0.0000 -1.0000 -0.0000
vn 0.0000 -1.0000 -0.0000
vn 0.0000 -1.0000 -0.0000
vn 0.0000 -1.0000 -0.0000
vn 0.0000 -1.0000 -0.0000
vn 0.0000 0.0000 -1.0000
vn 0.0000 0.0000 -1.0000
vn 0.0000 0.0000 -1.0000
vn 0.0000 0.0000 -1.0000
vn 0.0000 0.0000 -1.0000
vn 0.0000 0.0000 -1.0000
vn 0.0000 0.0000 -1.0000
vn 0.0000 0.0000 -1.0000
vn 0.0000 0.0000 -1.0000
vn 0.0000 0.0000 -1.0000
vn 0.0000 0.0000 -1.0000
vn 0.0000 0.0000 -1.0000
vn 0.0000 0.0000 -1.0000
vn 0.0000 0.0000 -1.0000
vn 0.0000 1.0000 -0.0000
vn 0.0000 1.0000 -0.0000
vn 0.0000 1.0000 -0.0000
vn 0.0000 1.0000 -0.0000
vn 0.0000 1.0000 -0.0000
vn 0.0000 1.0000 -0.0000
vn 0.0000 1.0000 -0.0000
vn 0.0000 1.0000 -0.0000
vn 0.0000 1.0000 -0.0000
vn 0.0000 1.0000 -0.0000
vn 0.0000 1.0000 -0.0000
vn 0.0000 0.0000 -1.0000
vn 0.0000 0.0000 -1.0000
vn 0.0000 0.0000 -1.0000
vn 0.0000 0.0000 -1.0000
vn 0.0000 0.0000 -1.0000
vn 0.0000 0.0000 -1.0000
vn 0.0000 0.0000 -1.0000
vn 0.0000 0.0000 -1.0000
vn 0.0000 -1.0000 -0.0000
vn 0.0000 -1.0000 -0.0000
vn 0.0000 -1.0000 -0.0000
vn 0.0000 -1.0000 -0.0000
vn 0.0000 -1.0000 -0.0000
vn 0.0000 -1.0000 -0.0000
vn 0.0000 -1.0000 -0.0000
vn 0.0000 -1.0000 -0.0000
vn 0.0000 -1.0000 -0.0000
vn 0.0000 -1.0000 -0.0000
vn 0.0000 -1.0000 -0.0000
vn 0.0000 -1.0000 -0.0000
vn 0.0000 -1.0000 -0.0000
vn 0.0000 -1.0000 -0.0000
vn 0.0000 0.0000 1.0000
vn 0.0000 0.0000 1.0000
vn 0.0000 0.0000 1.0000
vn 0.0000 0.0000 1.0000
vn 0.0000 0.0000 1.0000
vn 0.0000 0.0000 1.0000
vn 0.0000 0.0000 1.0000
vn 0.0000 0.0000 1.0000
vn -1.0000 0.0000 -0.0000
vn -1.0000 0.0000 -0.0000
vn -1.0000 0.0000 -0.0000
vn -1.0000 0.0000 -0.0000
vn -1.0000 0.0000 -0.0000
vn -1.0000 0.0000 -0.0000
vn -1.0000 0.0000 -0.0000
vn -1.0000 0.0000 -0.0000
vn 0.0000 1.0000 -0.0000
vn 0.0000 1.0000 -0.0000
vn 0.0000 1.0000 -0.0000
vn 0.0000 1.0000 -0.0000
vn 1.0000 0.0000 -0.0000
vn 1.0000 0.0000 -0.0000
vn 1.0000 0.0000 -0.0000
vn 1.0000 0.0000 -0.0000
vn 1.0000 0.0000 -0.0000
vn 1.0000 0.0000 -0.0000
vn 1.0000 0.0000 -0.0000
vn 1.0000 0.0000 -0.0000
vn 0.0000 -1.0000 -0.0000
vn 0.0000 -1.0000 -0.0000
vn 0.0000 -1.0000 -0.0000
vn 0.0000 -1.0000 -0.0000
vn 0.0000 -1.0000 -0.0000
vn 0.0000 -1.0000 -0.0000
vn 0.0000 -1.0000 -0.0000
vn 0.0000 -1.0000 -0.0000
vn 0.0000 -1.0000 -0.0000
vn 0.0000 -1.0000 -0.0000
vn 0.0000 -1.0000 -0.0000
vn 0.0000 -1.0000 -0.0000
vn 0.0000 -1.0000 -0.0000
vn 0.0000 -1.0000 -0.0000
vn -0.7433 -0.6690 -0.0000
vn -0.7433 -0.6690 -0.0000
vn -0.7433 -0.6690 -0.0000
vn -0.7433 -0.6690 -0.0000
vn 0.0000 -0.6690 -0.7433
vn 0.0000 -0.6690 -0.7433
vn 0.0000 -0.6690 -0.7433
vn 0.0000 -0.6690 -0.7433
vn 0.0000 1.0000 -0.0000
vn 0.0000 1.0000 -0.0000
vn 0.0000 1.0000 -0.0000
vn 0.0000 1.0000 -0.0000
vn 0.0000 0.0000 -1.0000
vn 0.0000 0.0000 -1.0000
vn 0.0000 0.0000 -1.0000
vn 0.0000 0.0000 -1.0000
vn 0.0000 -1.0000 -0.0000
vn 0.0000 -1.0000 -0.0000
vn 0.0000 -1.0000 -0.0000
vn 0.0000 -1.0000 -0.0000
vn 0.0000 0.0000 1.0000
vn 0.0000 0.0000 1.0000
vn 0.0000 0.0000 1.0000
vn 0.0000 0.0000 1.0000
vn -1.0000 0.0000 -0.0000
vn -1.0000 0.0000 -0.0000
vn -1.0000 0.0000 -0.0000
vn -1.0000 0.0000 -0.0000
vn 0.0000 1.0000 -0.0000
vn 0.0000 1.0000 -0.0000
vn 0.0000 1.0000 -0.0000
vn 0.0000 1.0000 -0.0000
vn 1.0000 0.0000 -0.0000
vn 1.0000 0.0000 -0.0000
vn 1.0000 0.0000 -0.0000
vn 1.0000 0.0000 -0.0000
vn 0.0000 -1.0000 -0.0000
vn 0.0000 -1.0000 -0.0000
vn 0.0000 -1.0000 -0.0000
vn 0.0000 -1.0000 -0.0000
vn -0.6066 -0.5471 -0.5768
vn -0.6066 -0.5471 -0.5768
vn -0.6066 -0.5471 -0.5768
vn -0.6066 -0.5471 -0.5768
vn -0.6066 -0.5471 0.5768
vn -0.6066 -0.5471 0.5768
vn -0.6066 -0.5471 0.5768
vn -0.6066 -0.5471 0.5768
vn -0.5768 -0.5471 -0.6066
vn -0.5768 -0.5471 -0.6066
vn -0.5768 -0.5471 -0.6066
vn -0.5768 -0.5471 -0.6066
vn 0.5768 -0.5471 -0.6066
vn 0.5768 -0.5471 -0.6066
vn 0.5768 -0.5471 -0.6066
vn 0.5768 -0.5471 -0.6066
vn 0.0000 -0.7071 -0.7071
vn 0.0000 -0.7071 -0.7071
vn 0.0000 -0.7071 -0.7071
vn 0.0000 -0.7071 -0.7071
vn 0.0000 -0.7071 0.7071
vn 0.0000 -0.7071 0.7071
vn 0.0000 -0.7071 0.7071
vn 0.0000 -0.7071 0.7071
vn -0.7071 -0.7071 -0.0000
vn -0.7071 -0.7071 -0.0000
vn -0.7071 -0.7071 -0.0000
vn -0.7071 -0.7071 -0.0000
vn 0.7071 -0.7071 -0.0000
vn 0.7071 -0.7071 -0.0000
vn 0.7071 -0.7071 -0.0000
vn 0.7071 -0.7071 -0.0000
vn -0.5774 -0.5773 -0.5774
vn -0.5774 -0.5773 -0.5774
vn -0.5774 -0.5773 -0.5774
vn -0.5774 -0.5773 -0.5774
vn 0.0000 -1.0000 -0.0000
vn 0.0000 -1.0000 -0.0000
vn 0.0000 -1.0000 -0.0000
vn 0.0000 -1.0000 -0.0000
vn 0.0000 -1.0000 -0.0000
vn 0.0000 -1.0000 -0.0000
vn -0.7071 0.0000 -0.7071
vn -0.7071 0.0000 -0.7071
vn -0.7071 0.0000 -0.7071
vn -0.7071 0.0000 -0.7071
vn -0.7071 0.0000 0.7071
vn -0.7071 0.0000 0.7071
vn -0.7071 0.0000 0.7071
vn -0.7071 0.0000 0.7071
vn 0.7071 0.0000 0.7071
vn 0.7071 0.0000 0.7071
vn 0.7071 0.0000 0.7071
vn 0.7071 0.0000 0.7071
vn 0.7071 0.0000 -0.7071
vn 0.7071 0.0000 -0.7071
vn 0.7071 0.0000 -0.7071
vn 0.7071 0.0000 -0.7071
vn -1.0000 0.0000 -0.0000
vn -1.0000 0.0000 -0.0000
vn -1.0000 0.0000 -0.0000
vn -1.0000 0.0000 -0.0000
vn 1.0000 0.0000 -0.0000
vn 1.0000 0.0000 -0.0000
vn 1.0000 0.0000 -0.0000
vn 1.0000 0.0000 -0.0000
vn 1.0000 0.0000 -0.0000
vn 1.0000 0.0000 -0.0000
vn 1.0000 0.0000 -0.0000
vn 1.0000 0.0000 -0.0000
vn 0.0000 0.0000 1.0000
vn 0.0000 0.0000 1.0000
vn 0.0000 0.0000 1.0000
vn 0.0000 0.0000 1.0000
vn 0.0000 0.0000 1.0000
vn 0.0000 0.0000 1.0000
vn 0.0000 0.0000 1.0000
vn 0.0000 0.0000 1.0000
vn 0.0000 0.0000 -1.0000
vn 0.0000 0.0000 -1.0000
vn 0.0000 0.0000 -1.0000
vn 0.0000 0.0000 -1.0000
vn -0.7071 0.0000 -0.7071
vn -0.7071 0.0000 -0.7071
vn -0.7071 0.0000 -0.7071
vn -0.7071 0.0000 -0.7071
vn -0.7071 0.0000 0.7071
vn -0.7071 0.0000 0.7071
vn -0.7071 0.0000 0.7071
vn -0.7071 0.0000 0.7071
vn 0.7071 0.0000 0.7071
vn 0.7071 0.0000 0.7071
vn 0.7071 0.0000 0.7071
vn 0.7071 0.0000 0.7071
vn 0.7071 0.0000 -0.7071
vn 0.7071 0.0000 -0.7071
vn 0.7071 0.0000 -0.7071
vn 0.7071 0.0000 -0.7071
vn 1.0000 0.0000 -0.0000
vn 1.0000 0.0000 -0.0000
vn 1.0000 0.0000 -0.0000
vn 0.0000 0.0000 1.0000
vn 0.0000 0.0000 1.0000
vn 0.0000 0.0000 1.0000
vn 0.7071 0.0000 0.7071
vn 0.7071 0.0000 0.7071
vn 0.7071 0.0000 0.7071
vn 0.7071 0.0000 0.7071
vn 0.5773 0.5774 0.5774
vn 0.5773 0.5774 0.5774
vn 0.5773 0.5774 0.5774
vn 0.5773 0.5773 0.5774
vn 0.5773 -0.5774 0.5774
vn 0.5774 -0.5774 0.5774
vn 0.5773 -0.5774 0.5774
vn 0.5773 -0.5774 0.5774
vn 0.0000 0.0000 1.0000
vn 0.0000 0.0000 1.0000
vn 0.0000 0.0000 1.0000
vn 0.0000 0.0000 1.0000
vn 0.0000 0.0000 1.0000
vn 0.0000 0.0000 1.0000
vn 0.0000 0.0000 1.0000
vn 0.0000 0.0000 1.0000
vn 0.0000 0.0000 1.0000
vn 0.0000 0.0000 1.0000
vn 0.0000 0.0000 1.0000
vn 0.7071 -0.7071 -0.0000
vn 0.7071 -0.7071 -0.0000
vn 0.7071 -0.7071 -0.0000
vn 0.7071 -0.7071 -0.0000
vn 1.0000 0.0001 -0.0000
vn 1.0000 0.0001 -0.0000
vn 1.0000 0.0001 -0.0000
vn 1.0000 0.0001 -0.0000
vn 0.0000 -1.0000 -0.0000
vn 0.0000 -1.0000 -0.0000
vn 0.0000 -1.0000 -0.0000
vn 0.0000 -1.0000 -0.0000
vn 1.0000 0.0000 -0.0000
vn 1.0000 0.0000 -0.0000
vn 1.0000 0.0000 -0.0000
vn 1.0000 0.0000 -0.0000
vn 1.0000 0.0000 -0.0000
vn 1.0000 0.0000 -0.0000
vn 1.0000 0.0000 -0.0000
vn 0.5774 0.5774 0.5774
vn 0.5774 0.5774 0.5774
vn 0.5774 0.5774 0.5774
# 320 vertex normals

vt 1.0000 1.0000 0.0000
vt 0.5200 1.0000 0.0000
vt 0.5000 0.9800 0.0000
vt 1.0000 0.0000 0.0000
vt 0.5000 0.0200 0.0000
vt 0.5200 0.0000 0.0000
vt 0.3125 0.9800 0.0000
vt 0.3125 0.0200 0.0000
vt 0.0000 1.0000 0.0000
vt 0.6625 0.0200 0.0000
vt 0.6742 0.1139 0.0000
vt 0.6875 0.3700 0.0000
vt 0.6875 0.9800 0.0000
vt 0.6875 0.0200 0.0000
vt 0.6875 0.6300 0.0000
vt 0.6742 0.8861 0.0000
vt 0.6625 0.9800 0.0000
vt 0.0200 0.0000 0.0000
vt 0.9800 0.0000 0.0000
vt 1.0000 0.0200 0.0000
vt 0.9800 1.0000 0.0000
vt 1.0000 0.9800 0.0000
vt 0.0200 1.0000 0.0000
vt 0.0000 0.9800 0.0000
vt 0.0000 0.0200 0.0000
vt 0.0067 0.0000 0.0000
vt 0.1667 1.0000 0.0000
vt 0.0100 0.0000 0.0000
vt 0.1667 0.5200 0.0000
vt 0.5000 0.0000 0.0000
vt 0.5000 1.0000 0.0000
vt 0.8333 1.0000 0.0000
vt 0.8333 0.5200 0.0000
vt 0.9900 0.0000 0.0000
vt 0.9933 0.0000 0.0000
vt 0.5033 0.0000 0.0000
vt 0.5833 1.0000 0.0000
vt 0.5050 0.0000 0.0000
vt 0.5833 0.5200 0.0000
vt 1.0000 0.5200 0.0000
vt 0.0000 0.5200 0.0000
vt 0.5100 1.0000 0.0000
vt 0.8735 1.3309 0.0000
vt 0.5220 1.3626 0.0000
vt 0.3125 0.0165 0.0000
vt 0.5000 0.0165 0.0000
vt 0.6875 0.0165 0.0000
vt 1.0000 0.0165 0.0000
vt 0.6625 0.9835 0.0000
vt 0.5000 0.9835 0.0000
vt 0.3125 0.9835 0.0000
vt 0.0000 0.9835 0.0000
vt 0.7125 0.0200 0.0000
vt 0.7008 0.1139 0.0000
vt 0.7125 0.9800 0.0000
vt 0.7008 0.8861 0.0000
vt 0.0000 0.0165 0.0000
vt 1.0000 0.9835 0.0000
vt 0.7125 0.9835 0.0000
vt 1.4759 0.3641 0.0000
vt 1.4759 0.6359 0.0000
vt -0.4759 0.6359 0.0000
vt -0.4759 0.3641 0.0000
vt 2.3402 0.4762 0.0000
vt 2.3402 0.5238 0.0000
vt -1.3402 0.5238 0.0000
vt -1.3402 0.4762 0.0000
vt 0.9808 0.0200 0.0000
vt 0.5962 1.0000 0.0000
vt 0.0192 1.0000 0.0000
vt 0.0192 0.0200 0.0000
vt 1.0000 0.0000 0.0000
vt 0.0000 0.0000 0.0000
vt 0.0000 0.0000 0.0000
vt 1.0000 0.4000 0.0000
vt 1.0000 1.0000 0.0000
vt 0.0000 1.0000 0.0000
vt 0.9995 0.9995 0.0005
vt 0.0005 0.9995 0.0005
vt 0.0005 0.9795 0.0005
vt 0.9995 0.0205 0.9995
vt 0.0005 0.0205 0.9994
vt 0.0005 0.0005 0.9995
vt 0.9995 0.0005 0.0005
vt 0.0006 0.0205 0.0005
vt 0.9995 0.9995 0.9995
vt 0.0005 0.5999 0.9994
vt 0.9995 0.0005 0.9995
vt 0.0005 0.0005 0.0005
vt 0.9808 0.6000 0.0000
vt 0.4001 0.9995 0.9994
vt 0.6000 0.0000 0.0000
vt 0.1885 0.9992 0.5000
vt 0.4976 0.6002 0.5000
vt 0.8068 0.9992 0.5000
# 95 texture coords

g Box001
s 2
f 1/1/1 2/2/2 3/3/3 4/4/4 
f 5/5/5 6/6/6 4/4/7 3/3/8 
f 9/8/9 10/5/10 7/3/11 8/7/12 
s 4
f 11/10/13 12/11/14 13/12/15 14/5/16 
f 13/12/17 15/13/18 16/3/19 14/5/20 
s 8
f 18/15/21 19/16/22 20/17/23 17/14/24 
f 20/17/25 21/3/26 22/5/27 17/14/28 
s 16
f 23/18/29 24/19/30 25/20/31 26/21/32 
f 25/20/33 27/22/34 26/21/35 
f 26/21/36 28/23/37 29/24/38 23/18/39 
f 30/25/40 23/18/41 29/24/42 
s 32
f 27/24/43 25/25/44 31/8/45 32/7/46 
f 34/4/47 35/1/48 36/3/49 33/6/50 
f 35/1/51 37/2/52 36/3/53 
f 38/5/54 33/6/55 36/3/56 
s 64
f 40/74/57 41/92/58 80/75/59 39/77/60 
f 39/77/61 80/75/62 42/76/63 
s off
f 44/4/64 40/4/65 39/1/66 43/1/67 
f 39/9/68 45/25/69 46/26/70 43/27/71 
f 48/29/72 43/27/73 46/26/74 47/28/75 
f 49/30/76 47/31/77 7/3/78 10/5/79 
f 49/30/80 50/30/81 51/5/82 47/31/83 
f 51/5/84 52/3/85 47/31/86 
f 46/31/87 7/3/88 47/31/89 
f 53/33/90 50/34/91 40/1/92 44/32/93 
f 54/20/94 40/1/95 50/34/96 49/35/97 
f 60/33/98 61/34/99 39/1/100 59/32/101 
f 45/20/102 39/1/103 61/34/104 62/35/105 
f 59/4/106 39/4/107 42/1/108 63/1/109 
f 42/31/110 58/5/111 64/36/112 63/37/113 
f 66/39/114 63/37/115 64/36/116 65/38/117 
f 62/30/118 65/31/119 67/3/120 68/5/121 
f 62/30/122 61/30/123 69/5/124 65/31/125 
f 69/5/126 70/3/127 65/31/128 
f 64/31/129 67/3/130 65/31/131 
f 52/3/132 51/5/133 71/5/134 72/3/135 
f 70/3/136 69/5/137 73/5/138 74/3/139 
f 1/1/140 4/4/141 44/4/142 43/1/143 
f 2/40/144 1/1/145 43/27/146 48/29/147 
f 5/5/148 3/3/149 72/3/150 71/5/151 
f 4/9/152 6/41/153 53/33/154 44/32/155 
f 34/9/156 33/41/157 60/33/158 59/32/159 
f 35/1/160 34/4/161 59/4/162 63/1/163 
f 37/40/164 35/1/165 63/37/166 66/39/167 
f 38/5/168 36/3/169 74/3/170 73/5/171 
f 72/3/172 48/2/173 47/31/174 52/3/175 
f 53/6/176 71/5/177 51/5/178 50/30/179 
f 60/6/180 73/5/181 69/5/182 61/30/183 
f 74/3/184 66/2/185 65/31/186 70/3/187 
f 3/3/188 2/2/189 48/2/190 72/3/191 
f 6/6/192 5/5/193 71/5/194 53/6/195 
f 33/6/196 38/5/197 73/5/198 60/6/199 
f 36/3/200 37/2/201 66/2/202 74/3/203 
f 45/42/204 62/43/205 7/3/206 46/31/207 
f 7/3/208 62/43/209 68/44/210 
f 67/78/211 57/79/212 16/80/213 
f 8/45/214 7/46/215 68/5/216 31/8/217 
f 9/47/218 23/48/219 30/20/220 17/14/221 
f 11/49/222 14/50/223 21/3/224 20/17/225 
f 15/51/226 26/52/227 27/24/228 32/7/229 
s 2
f 9/8/230 8/7/231 24/24/232 23/25/233 
s 4
f 26/22/234 15/13/235 75/53/236 28/20/237 
f 75/53/238 15/13/239 13/12/240 76/54/241 
s 8
f 77/55/242 78/56/243 18/15/244 29/22/245 
f 30/20/246 29/22/247 18/15/248 17/14/249 
s 32
f 32/7/250 31/8/251 68/5/252 67/3/253 
s off
f 8/45/254 31/8/255 25/25/256 24/57/257 
f 9/47/258 17/14/259 22/5/260 10/46/261 
f 75/59/262 77/55/263 29/22/264 28/58/265 
f 15/51/266 32/7/267 67/3/268 16/50/269 
f 12/11/270 76/54/271 13/12/272 
f 18/15/273 78/56/274 19/16/275 
s 1
f 12/62/276 19/63/277 78/60/278 76/61/279 
s 2
f 75/65/280 76/61/281 78/60/282 77/64/283 
f 20/67/284 19/63/285 12/62/286 11/66/287 
s 1
f 40/70/288 54/71/289 55/68/290 41/69/291 
f 55/68/292 79/90/293 41/69/294 
s 2
f 56/72/295 55/68/296 54/71/297 49/73/298 
s 1
f 64/64/299 58/58/300 57/57/301 67/67/302 
s 4
f 58/81/303 55/82/304 56/83/305 57/88/306 
s 16
f 14/85/307 57/79/308 56/89/309 21/84/310 
s 8
f 42/86/311 80/91/312 79/87/313 58/81/314 
f 55/82/315 58/81/316 79/87/317 
s off
f 41/93/318 79/94/319 80/95/320 
# 68 polygons - 16 triangles

