# 3ds Max Wavefront OBJ Exporter v0.97b - (c)2007 guruware
# File Created: 05.09.2012 17:44:02

mtllib Pillar_02.mtl

#
# object Box001
#

v  -68.8976 98.4252 -9.8425
v  -68.8976 88.9764 -9.8425
v  -68.8976 88.5827 -9.4488
v  -68.8976 98.4252 9.8425
v  -68.8976 88.5827 9.4488
v  -68.8976 88.9764 9.8425
v  -9.8425 78.7402 -9.4488
v  -9.8425 49.2126 -9.4488
v  -9.8425 49.2126 9.4488
v  -9.8425 78.7402 9.4488
v  68.8976 98.4252 9.8425
v  68.8976 88.9764 9.8425
v  68.8976 88.5827 9.4488
v  68.8976 88.9764 -9.8425
v  68.8976 88.5827 -9.4488
v  68.8976 98.4252 -9.8425
v  9.8425 53.1496 9.4488
v  9.8425 51.3005 7.5997
v  9.8425 49.2126 2.5591
v  9.8425 78.7402 9.4488
v  9.8425 49.2126 -9.4488
v  9.8425 78.7402 -9.4488
v  -9.8425 98.4252 68.8976
v  -9.8425 88.9764 68.8976
v  -9.4488 88.5827 68.8976
v  9.8425 88.9764 68.8976
v  9.4488 88.5827 68.8976
v  9.8425 98.4252 68.8976
v  -9.4488 49.2126 9.8425
v  2.5591 49.2126 9.8425
v  7.5997 51.3005 9.8425
v  9.4488 53.1496 9.8425
v  9.4488 78.7402 9.8425
v  -9.4488 78.7402 9.8425
v  -9.8425 0.0000 9.4488
v  -9.8425 0.0000 -9.4488
v  -9.4488 0.0000 -9.8425
v  9.8425 0.0000 -9.4488
v  9.4488 0.0000 -9.8425
v  9.8425 0.0000 9.4488
v  9.4488 0.0000 9.8425
v  -9.4488 0.0000 9.8425
v  -9.4488 49.2126 -9.8425
v  9.4488 49.2126 -9.8425
v  -9.8425 88.9764 -68.8976
v  -9.8425 98.4252 -68.8976
v  9.8425 98.4252 -68.8976
v  9.4488 88.5827 -68.8976
v  9.8425 88.9764 -68.8976
v  -9.4488 88.5827 -68.8976
v  -9.8425 98.4252 -9.8425
v  -9.8425 98.4252 9.8425
v  9.8425 98.4252 9.8425
v  9.8425 98.4252 -9.8425
v  -19.6850 98.4252 -9.8425
v  -19.6850 98.4252 9.8425
v  -9.8425 79.1339 -9.8425
v  -10.2362 78.7402 -9.8425
v  -10.4331 78.7402 -9.8425
v  -19.6850 88.9764 -9.8425
v  -10.2362 78.7402 9.8425
v  -10.4331 78.7402 9.8425
v  -10.8268 78.7402 9.4488
v  -10.8268 78.7402 -9.4488
v  -19.6850 88.9764 9.8425
v  -9.8425 79.1339 9.8425
v  9.8425 79.1339 9.8425
v  10.2362 78.7402 9.8425
v  19.6850 98.4252 9.8425
v  10.4331 78.7402 9.8425
v  19.6850 88.9764 9.8425
v  10.2362 78.7402 -9.8425
v  10.4331 78.7402 -9.8425
v  10.8268 78.7402 -9.4488
v  10.8268 78.7402 9.4488
v  19.6850 98.4252 -9.8425
v  19.6850 88.9764 -9.8425
v  9.8425 79.1339 -9.8425
v  -9.8425 78.7402 10.2362
v  -9.8425 98.4252 19.6850
v  -9.8425 78.7402 10.4331
v  -9.8425 88.9764 19.6850
v  9.8425 78.7402 10.2362
v  9.8425 78.7402 10.4331
v  9.4488 78.7402 10.8268
v  -9.4488 78.7402 10.8268
v  9.8425 98.4252 19.6850
v  9.8425 88.9764 19.6850
v  -9.8425 98.4252 -19.6850
v  -9.8425 88.9764 -19.6850
v  -9.8425 78.7402 -10.4331
v  -9.8425 78.7402 -10.2362
v  9.8425 98.4252 -19.6850
v  9.8425 78.7402 -10.2362
v  9.8425 78.7402 -10.4331
v  9.8425 88.9764 -19.6850
v  9.4488 78.7402 -9.8425
v  -9.4488 78.7402 -9.8425
v  -9.4488 78.7402 -10.8268
v  9.4488 78.7402 -10.8268
v  -19.6850 88.5827 9.4488
v  -19.6850 88.5827 -9.4488
v  -9.4488 88.5827 -19.6850
v  9.4488 88.5827 -19.6850
v  9.4488 88.5827 19.6850
v  -9.4488 88.5827 19.6850
v  19.6850 88.5827 -9.4488
v  19.6850 88.5827 9.4488
v  9.8425 45.2756 9.4488
v  9.8425 47.1247 7.5997
v  9.4488 45.2756 9.8425
v  7.5997 47.1247 9.8425
# 112 vertices

vn -1.0000 0.0000 0.0000
vn -1.0000 0.0000 -0.0000
vn 1.0000 -0.0000 -0.0000
vn 0.0000 0.0000 1.0000
vn -0.0000 -1.0000 -0.0000
vn 0.0000 0.0000 -1.0000
vn 0.0000 1.0000 -0.0000
vn -0.7433 -0.6690 -0.0000
vn -0.0000 -0.6690 -0.7433
vn -0.0000 -0.6690 0.7433
vn 0.7433 -0.6690 -0.0000
vn -0.6066 -0.5471 -0.5768
vn -0.6066 -0.5471 0.5768
vn -0.5768 -0.5471 -0.6066
vn 0.5768 -0.5471 -0.6066
vn -0.5768 -0.5471 0.6066
vn 0.5768 -0.5471 0.6066
vn 0.6066 -0.5471 0.5768
vn 0.6066 -0.5471 -0.5768
vn -0.0000 -0.7071 -0.7071
vn -0.0000 -0.7071 0.7071
vn -0.7071 -0.7071 -0.0000
vn 0.7071 -0.7071 -0.0000
vn -0.7071 -0.7071 0.0000
vn -0.5774 -0.5773 -0.5774
vn 0.5773 -0.5773 -0.5774
vn -0.7071 0.0000 -0.7071
vn -0.7071 0.0000 0.7071
vn 0.7071 -0.0000 0.7071
vn 0.7071 -0.0000 -0.7071
vn 0.5773 0.5774 0.5774
vn 0.5773 0.5773 0.5774
vn 0.5773 -0.5774 0.5774
vn 0.5774 -0.5774 0.5774
# 34 vertex normals

vt 1.0000 1.0000 0.0000
vt 0.5200 1.0000 0.0000
vt 0.5000 0.9800 0.0000
vt 1.0000 0.0000 0.0000
vt 0.5000 0.0200 0.0000
vt 0.5200 0.0000 0.0000
vt 0.3125 0.9800 0.0000
vt 0.3125 0.0200 0.0000
vt 0.0000 0.0000 0.0000
vt 0.4800 0.0000 0.0000
vt 0.4800 1.0000 0.0000
vt 0.0000 1.0000 0.0000
vt 0.6625 0.0200 0.0000
vt 0.6742 0.1139 0.0000
vt 0.6875 0.3700 0.0000
vt 0.6875 0.9800 0.0000
vt 0.6875 0.0200 0.0000
vt 0.6875 0.6300 0.0000
vt 0.6742 0.8861 0.0000
vt 0.6625 0.9800 0.0000
vt 0.0200 0.0000 0.0000
vt 0.9800 0.0000 0.0000
vt 1.0000 0.0200 0.0000
vt 0.9800 1.0000 0.0000
vt 1.0000 0.9800 0.0000
vt 0.0200 1.0000 0.0000
vt 0.0000 0.9800 0.0000
vt 0.0000 0.0200 0.0000
vt 0.0067 -0.0000 0.0000
vt 0.1667 1.0000 0.0000
vt 0.0100 -0.0000 0.0000
vt 0.1667 0.5200 0.0000
vt 0.5000 0.0000 0.0000
vt 0.5000 1.0000 0.0000
vt 0.8333 1.0000 0.0000
vt 0.8333 0.5200 0.0000
vt 0.9900 -0.0000 0.0000
vt 0.9933 -0.0000 0.0000
vt 0.0067 0.0000 0.0000
vt 0.0100 0.0000 0.0000
vt 0.4167 1.0000 0.0000
vt 0.4167 0.5200 0.0000
vt 0.4950 -0.0000 0.0000
vt 0.4967 -0.0000 0.0000
vt 0.9900 0.0000 0.0000
vt 0.9933 0.0000 0.0000
vt 0.5033 -0.0000 0.0000
vt 0.5833 1.0000 0.0000
vt 0.5050 -0.0000 0.0000
vt 0.5833 0.5200 0.0000
vt 1.0000 0.5200 0.0000
vt 0.0000 0.5200 0.0000
vt -0.0000 1.0000 0.0000
vt -0.0000 0.5200 0.0000
vt 0.5100 0.0000 0.0000
vt 0.4794 0.0006 0.0000
vt 0.4794 -0.0194 0.0000
vt 0.5100 1.0000 0.0000
vt 0.8735 1.3309 0.0000
vt 0.5220 1.3626 0.0000
vt 0.5206 0.9994 0.0000
vt 0.5206 1.0194 0.0000
vt 0.4900 1.0000 0.0000
vt 0.3125 0.0165 0.0000
vt 0.5000 0.0165 0.0000
vt 0.6875 0.0165 0.0000
vt 1.0000 0.0165 0.0000
vt 0.6625 0.9835 0.0000
vt 0.5000 0.9835 0.0000
vt 0.3125 0.9835 0.0000
vt 0.0000 0.9835 0.0000
vt 0.7125 0.0200 0.0000
vt 0.7008 0.1139 0.0000
vt 0.7125 0.9800 0.0000
vt 0.7008 0.8861 0.0000
vt 0.0000 0.0165 0.0000
vt 1.0000 0.9835 0.0000
vt 0.7125 0.9835 0.0000
vt 1.4759 0.3641 0.0000
vt 1.4759 0.6359 0.0000
vt -0.4759 0.6359 0.0000
vt -0.4759 0.3641 0.0000
vt 2.3402 0.4762 0.0000
vt 2.3402 0.5238 0.0000
vt -1.3402 0.5238 0.0000
vt -1.3402 0.4762 0.0000
# 86 texture coords

g Box001
usemtl wire_153228153
s 2
f 1/1/1 2/2/1 3/3/1 4/4/2 
f 3/3/1 5/5/2 6/6/2 4/4/2 
f 7/3/1 8/7/1 9/8/1 10/5/2 
s 4
f 11/9/3 12/10/3 13/5/3 14/11/3 
f 13/5/3 15/3/3 14/11/3 
f 11/9/3 14/11/3 16/12/3 
f 17/13/3 18/14/3 19/15/3 20/5/3 
f 19/15/3 21/16/3 22/3/3 20/5/3 
s 8
f 23/9/4 24/10/4 25/5/4 26/11/4 
f 25/5/4 27/3/4 26/11/4 
f 23/9/4 26/11/4 28/12/4 
f 29/17/4 30/18/4 31/19/4 32/20/4 
f 29/17/4 32/20/4 33/3/4 34/5/4 
s 16
f 35/21/5 36/22/5 37/23/5 38/24/5 
f 37/23/5 39/25/5 38/24/5 
f 38/24/5 40/26/5 41/27/5 35/21/5 
f 42/28/5 35/21/5 41/27/5 
s 32
f 43/8/6 44/7/6 39/27/6 37/28/6 
f 45/6/6 46/4/6 47/1/6 48/3/6 
f 47/1/6 49/2/6 48/3/6 
f 50/5/6 45/6/6 48/3/6 
s 64
f 51/9/7 52/4/7 53/1/7 54/12/7 
s off
f 51/1/7 55/1/7 56/4/7 52/4/7 
f 51/12/6 57/28/6 58/29/6 55/30/6 
f 59/31/6 60/32/6 55/30/6 58/29/6 
f 7/3/5 10/5/5 61/33/5 59/34/5 
f 61/33/5 62/33/5 63/5/5 59/34/5 
f 63/5/5 64/3/5 59/34/5 
f 58/34/5 7/3/5 59/34/5 
f 56/35/4 65/36/4 62/37/4 52/1/4 
f 66/23/4 52/1/4 62/37/4 61/38/4 
f 53/12/4 67/28/4 68/39/4 69/30/4 
f 70/40/4 71/32/4 69/30/4 68/39/4 
f 20/5/5 22/3/5 72/34/5 70/33/5 
f 72/34/5 73/34/5 74/3/5 70/33/5 
f 74/3/5 75/5/5 70/33/5 
f 68/33/5 20/5/5 70/33/5 
f 76/41/6 77/42/6 73/43/6 54/34/6 
f 78/5/6 54/34/6 73/43/6 72/44/6 
f 53/9/7 69/9/7 76/12/7 54/12/7 
f 52/12/1 66/28/1 79/29/1 80/30/1 
f 81/31/2 82/32/2 80/30/2 79/29/2 
f 34/5/5 33/3/5 83/34/5 81/33/5 
f 83/34/5 84/34/5 85/3/5 81/33/5 
f 85/3/5 86/5/5 81/33/5 
f 79/33/5 34/5/5 81/33/5 
f 87/35/3 88/36/3 84/45/3 53/1/3 
f 67/23/3 53/1/3 84/45/3 83/46/3 
f 52/9/7 80/9/7 87/12/7 53/12/7 
f 89/35/1 90/36/1 91/37/1 51/1/1 
f 57/23/2 51/1/2 91/37/2 92/38/2 
f 54/1/7 93/1/7 89/4/7 51/4/7 
f 54/34/3 78/5/3 94/47/3 93/48/3 
f 95/49/3 96/50/3 93/48/3 94/47/3 
f 97/3/5 98/5/5 92/33/5 95/34/5 
f 92/33/5 91/33/5 99/5/5 95/34/5 
f 99/5/5 100/3/5 95/34/5 
f 94/34/5 97/3/5 95/34/5 
f 101/5/8 102/3/8 64/3/8 63/5/8 
f 103/5/9 104/3/9 100/3/9 99/5/9 
f 105/3/10 106/5/10 86/5/10 85/3/10 
f 107/3/11 108/5/11 75/5/11 74/3/11 
f 56/4/7 55/1/7 1/1/7 4/4/7 
f 55/30/6 60/32/6 2/51/6 1/1/6 
f 102/3/5 101/5/5 5/5/5 3/3/5 
f 65/36/4 56/35/4 4/12/4 6/52/4 
f 69/30/4 71/32/4 12/51/4 11/1/4 
f 108/5/5 107/3/5 15/3/5 13/5/5 
f 77/42/6 76/41/6 16/53/6 14/54/6 
f 76/12/7 69/9/7 11/9/7 16/12/7 
f 80/30/2 82/32/2 24/51/2 23/1/2 
f 106/5/5 105/3/5 27/3/5 25/5/5 
f 88/36/3 87/35/3 28/12/3 26/52/3 
f 87/12/7 80/9/7 23/9/7 28/12/7 
f 90/36/1 89/35/1 46/12/1 45/52/1 
f 89/4/7 93/1/7 47/1/7 46/4/7 
f 93/48/3 96/50/3 49/51/3 47/1/3 
f 104/3/5 103/5/5 50/5/5 48/3/5 
f 59/34/12 64/3/12 102/3/12 60/2/12 
f 63/5/13 62/33/13 65/6/13 101/5/13 
f 99/5/14 91/33/14 90/6/14 103/5/14 
f 95/34/15 100/3/15 104/3/15 96/2/15 
f 81/33/16 86/5/16 106/5/16 82/10/16 
f 85/3/17 84/34/17 88/11/17 105/3/17 
f 70/33/18 75/5/18 108/5/18 71/10/18 
f 74/3/19 73/34/19 77/11/19 107/3/19 
f 60/2/20 102/3/20 3/3/20 2/2/20 
f 101/5/21 65/6/21 6/6/21 5/5/21 
f 71/10/21 108/5/21 13/5/21 12/10/21 
f 107/3/20 77/11/20 14/11/20 15/3/20 
f 82/10/22 106/5/22 25/5/22 24/10/22 
f 105/3/23 88/11/23 26/11/23 27/3/23 
f 103/5/24 90/6/24 45/6/24 50/5/24 
f 96/2/23 104/3/23 48/3/23 49/2/23 
f 66/55/21 61/33/21 10/5/21 34/56/21 
f 66/55/25 34/56/25 79/57/25 
f 7/3/25 58/34/25 57/58/25 92/59/25 
f 7/3/5 92/59/5 98/60/5 
f 33/3/21 20/61/21 68/62/21 67/63/21 
f 33/3/26 67/63/26 83/34/26 
f 97/3/26 94/34/26 78/58/26 72/59/26 
f 97/3/5 72/59/5 22/60/5 
f 98/5/27 43/8/27 8/64/27 7/65/27 
f 42/23/28 29/17/28 9/66/28 35/67/28 
f 33/3/29 32/20/29 17/68/29 20/69/29 
f 39/27/30 44/7/30 21/70/30 38/71/30 
s 2
f 36/27/1 35/28/2 9/8/1 8/7/1 
s 4
f 40/23/3 38/25/3 21/16/3 109/72/3 
f 110/73/3 109/72/3 21/16/3 19/15/3 
s 8
f 111/74/4 112/75/4 30/18/4 41/25/4 
f 42/23/4 41/25/4 30/18/4 29/17/4 
s 32
f 98/5/6 97/3/6 44/7/6 43/8/6 
s off
f 37/28/27 36/76/27 8/64/27 43/8/27 
f 34/5/28 10/65/28 9/66/28 29/17/28 
f 41/25/29 40/77/29 109/78/29 111/74/29 
f 97/3/30 22/69/30 21/70/30 44/7/30 
f 18/14/3 110/73/3 19/15/3 
f 30/18/4 112/75/4 31/19/4 
s 1
f 112/79/29 110/80/29 18/81/29 31/82/29 
s 2
f 112/79/31 111/83/32 109/84/31 110/80/31 
f 18/81/33 17/85/33 32/86/33 31/82/34 
# 99 polygons - 22 triangles

