# 3ds Max Wavefront OBJ Exporter v0.97b - (c)2007 guruware
# File Created: 02.09.2012 15:46:22

mtllib Pipe_01.mtl

#
# object Curve001
#

v  29.5276 0.0000 -0.3937
v  10.0056 0.0000 -0.3937
v  9.9837 0.1969 -0.3410
v  29.5276 0.1969 -0.3410
v  9.9241 0.3410 -0.1969
v  29.5276 0.3410 -0.1969
v  9.8425 0.3937 -0.0000
v  29.5276 0.3937 -0.0000
v  9.7610 0.3410 0.1969
v  29.5276 0.3410 0.1969
v  9.7013 0.1969 0.3410
v  29.5276 0.1969 0.3410
v  9.6794 -0.0000 0.3937
v  29.5276 -0.0000 0.3937
v  9.7013 -0.1969 0.3410
v  29.5276 -0.1969 0.3410
v  9.7610 -0.3410 0.1969
v  29.5276 -0.3410 0.1969
v  9.8425 -0.3937 -0.0000
v  29.5276 -0.3937 -0.0000
v  9.9241 -0.3410 -0.1969
v  29.5276 -0.3410 -0.1969
v  9.9837 -0.1969 -0.3410
v  29.5276 -0.1969 -0.3410
v  0.1629 0.0000 -10.2363
v  0.1411 0.1969 -10.1835
v  0.0815 0.3410 -10.0394
v  0.0000 0.3937 -9.8425
v  -0.0815 0.3410 -9.6456
v  -0.1411 0.1969 -9.5015
v  -0.1629 -0.0000 -9.4488
v  -0.1411 -0.1969 -9.5015
v  -0.0815 -0.3410 -9.6456
v  -0.0000 -0.3937 -9.8425
v  0.0815 -0.3410 -10.0394
v  0.1411 -0.1969 -10.1835
v  -29.5277 0.0000 -10.2362
v  -29.5277 0.1969 -10.1835
v  -29.5276 0.3410 -10.0394
v  -29.5276 0.3937 -9.8425
v  -29.5275 0.3410 -9.6457
v  -29.5274 0.1969 -9.5016
v  -29.5274 -0.0000 -9.4488
v  -29.5274 -0.1969 -9.5016
v  -29.5275 -0.3410 -9.6457
v  -29.5276 -0.3937 -9.8425
v  -29.5276 -0.3410 -10.0394
v  -29.5277 -0.1969 -10.1835
# 48 vertices

vn -0.0000 -0.0000 -1.0000
vn 0.3827 0.0000 -0.9239
vn 0.3177 0.5574 -0.7670
vn 0.0000 0.5000 -0.8660
vn 0.1621 0.9058 -0.3914
vn 0.0000 0.8660 -0.5000
vn -0.0229 0.9982 0.0553
vn 0.0000 1.0000 0.0000
vn -0.1988 0.8544 0.4800
vn 0.0000 0.8660 0.5000
vn -0.3318 0.4984 0.8010
vn -0.0000 0.5000 0.8660
vn -0.3827 0.0000 0.9239
vn -0.0000 -0.0000 1.0000
vn -0.3318 -0.4984 0.8010
vn 0.0000 -0.5000 0.8660
vn -0.1988 -0.8544 0.4800
vn 0.0000 -0.8660 0.5000
vn -0.0229 -0.9982 0.0553
vn 0.0000 -1.0000 -0.0000
vn 0.1621 -0.9058 -0.3914
vn 0.0000 -0.8660 -0.5000
vn 0.3177 -0.5574 -0.7670
vn -0.0000 -0.5000 -0.8660
vn 0.3827 -0.0000 -0.9239
vn 0.3318 0.4984 -0.8010
vn 0.1988 0.8544 -0.4800
vn 0.0229 0.9982 -0.0553
vn -0.1621 0.9058 0.3914
vn -0.3177 0.5574 0.7670
vn -0.3177 -0.5574 0.7670
vn -0.1621 -0.9058 0.3914
vn 0.0229 -0.9982 -0.0553
vn 0.1988 -0.8544 -0.4800
vn 0.3318 -0.4984 -0.8010
vn -0.0000 0.5000 -0.8660
vn -0.0000 0.8660 -0.5000
vn -0.0000 1.0000 -0.0001
vn -0.0000 0.8661 0.5000
vn -0.0000 -0.5000 0.8660
vn -0.0000 -0.8660 0.5000
vn -0.0000 -1.0000 -0.0001
vn -0.0000 -0.8660 -0.5000
vn 1.0000 0.0000 -0.0000
vn -1.0000 0.0000 0.0003
vn -1.0000 -0.0000 0.0003
vn -1.0000 0.0000 0.0004
# 47 vertex normals

vt 0.0000 0.0000 0.0000
vt 0.0000 0.3118 0.0000
vt 0.0833 0.3118 0.0000
vt 0.0833 0.0000 0.0000
vt 0.1667 0.3118 0.0000
vt 0.1667 0.0000 0.0000
vt 0.2500 0.3118 0.0000
vt 0.2500 0.0000 0.0000
vt 0.3333 0.3118 0.0000
vt 0.3333 0.0000 0.0000
vt 0.4167 0.3118 0.0000
vt 0.4167 0.0000 0.0000
vt 0.5000 0.3118 0.0000
vt 0.5000 0.0000 0.0000
vt 0.5833 0.3118 0.0000
vt 0.5833 0.0000 0.0000
vt 0.6667 0.3118 0.0000
vt 0.6667 0.0000 0.0000
vt 0.7500 0.3118 0.0000
vt 0.7500 0.0000 0.0000
vt 0.8333 0.3118 0.0000
vt 0.8333 0.0000 0.0000
vt 0.9167 0.3118 0.0000
vt 0.9167 0.0000 0.0000
vt 1.0000 0.3118 0.0000
vt 1.0000 0.0000 0.0000
vt 0.0000 0.5323 0.0000
vt 0.0833 0.5323 0.0000
vt 0.1667 0.5323 0.0000
vt 0.2500 0.5323 0.0000
vt 0.3333 0.5323 0.0000
vt 0.4167 0.5323 0.0000
vt 0.5000 0.5323 0.0000
vt 0.5833 0.5323 0.0000
vt 0.6667 0.5323 0.0000
vt 0.7500 0.5323 0.0000
vt 0.8333 0.5323 0.0000
vt 0.9167 0.5323 0.0000
vt 1.0000 0.5323 0.0000
vt 0.0000 1.0000 0.0000
vt 0.0833 1.0000 0.0000
vt 0.1667 1.0000 0.0000
vt 0.2500 1.0000 0.0000
vt 0.3333 1.0000 0.0000
vt 0.4167 1.0000 0.0000
vt 0.5000 1.0000 0.0000
vt 0.5833 1.0000 0.0000
vt 0.6667 1.0000 0.0000
vt 0.7500 1.0000 0.0000
vt 0.8333 1.0000 0.0000
vt 0.9167 1.0000 0.0000
vt 1.0000 1.0000 0.0000
# 52 texture coords

g Curve001
usemtl wire_086086086
s 3
f 1/1/1 2/2/2 3/3/3 4/4/4 
f 4/4/4 3/3/3 5/5/5 6/6/6 
f 6/6/6 5/5/5 7/7/7 8/8/8 
f 8/8/8 7/7/7 9/9/9 10/10/10 
f 10/10/10 9/9/9 11/11/11 12/12/12 
f 12/12/12 11/11/11 13/13/13 14/14/14 
f 14/14/14 13/13/13 15/15/15 16/16/16 
f 16/16/16 15/15/15 17/17/17 18/18/18 
f 18/18/18 17/17/17 19/19/19 20/20/20 
f 20/20/20 19/19/19 21/21/21 22/22/22 
f 22/22/22 21/21/21 23/23/23 24/24/24 
f 24/24/24 23/23/23 2/25/2 1/26/1 
s 18
f 2/2/2 25/27/25 26/28/26 3/3/3 
f 3/3/3 26/28/26 27/29/27 5/5/5 
f 5/5/5 27/29/27 28/30/28 7/7/7 
f 7/7/7 28/30/28 29/31/29 9/9/9 
f 9/9/9 29/31/29 30/32/30 11/11/11 
f 11/11/11 30/32/30 31/33/13 13/13/13 
f 13/13/13 31/33/13 32/34/31 15/15/15 
f 15/15/15 32/34/31 33/35/32 17/17/17 
f 17/17/17 33/35/32 34/36/33 19/19/19 
f 19/19/19 34/36/33 35/37/34 21/21/21 
f 21/21/21 35/37/34 36/38/35 23/23/23 
f 23/23/23 36/38/35 25/39/25 2/25/2 
s 16
f 25/27/25 37/40/1 38/41/36 26/28/26 
f 26/28/26 38/41/36 39/42/37 27/29/27 
f 27/29/27 39/42/37 40/43/38 28/30/28 
f 28/30/28 40/43/38 41/44/39 29/31/29 
f 29/31/29 41/44/39 42/45/12 30/32/30 
f 30/32/30 42/45/12 43/46/14 31/33/13 
f 31/33/13 43/46/14 44/47/40 32/34/31 
f 32/34/31 44/47/40 45/48/41 33/35/32 
f 33/35/32 45/48/41 46/49/42 34/36/33 
f 34/36/33 46/49/42 47/50/43 35/37/34 
f 35/37/34 47/50/43 48/51/24 36/38/35 
f 36/38/35 48/51/24 37/52/1 25/39/25 
s 32
f 4/1/44 6/1/44 8/1/44 1/1/44 
f 8/1/44 10/1/44 12/1/44 1/1/44 
f 12/1/44 14/1/44 16/1/44 1/1/44 
f 16/1/44 18/1/44 20/1/44 1/1/44 
f 20/1/44 22/1/44 24/1/44 1/1/44 
f 39/1/45 38/1/45 37/1/45 
f 40/1/46 39/1/45 37/1/45 41/1/46 
f 42/1/45 41/1/46 37/1/45 43/1/45 
f 44/1/45 43/1/45 37/1/45 45/1/46 
f 46/1/46 45/1/46 37/1/45 47/1/47 
f 48/1/47 47/1/47 37/1/45 
# 45 polygons - 2 triangles

