# 3ds Max Wavefront OBJ Exporter v0.97b - (c)2007 guruware
# File Created: 04.10.2012 19:12:35

#
# object Cylinder001
#

v  -4.9213 98.4252 8.5239
v  -4.9574 98.6220 8.5864
v  4.9574 98.6220 8.5864
v  4.9213 98.4252 8.5239
v  -9.8425 98.4252 0.0000
v  -9.9148 98.6220 0.0000
v  -4.9213 98.4252 -8.5239
v  -4.9574 98.6220 -8.5864
v  4.9213 98.4252 -8.5239
v  4.9574 98.6220 -8.5864
v  9.8425 98.4252 -0.0000
v  9.9148 98.6220 0.0000
v  15.7480 98.6220 15.7480
v  -15.7480 98.6220 15.7480
v  -15.7480 98.6220 0.0000
v  -15.7480 98.6220 -15.7480
v  15.7480 98.6220 -15.7480
v  15.7480 98.6220 -0.0000
# 18 vertices

vn 0.0000 0.3028 -0.9530
vn 0.8254 0.3029 -0.4765
vn 0.8254 0.3029 0.4765
vn 0.0000 0.3028 0.9530
vn -0.8254 0.3029 0.4765
vn -0.8254 0.3029 -0.4765
vn 0.0000 1.0000 -0.0000
vn 0.0000 1.0000 0.0000
vn -0.0000 1.0000 0.0000
vn -0.0000 1.0000 -0.0000
# 10 vertex normals

vt 0.2518 0.0036 0.0000
vt 0.2500 -0.0000 0.0000
vt 0.7500 0.0000 0.0000
vt 0.7482 0.0036 0.0000
vt 0.0036 0.0000 0.0000
vt 0.0000 1.0000 0.0000
vt 0.2500 1.0000 0.0000
vt 0.2518 0.0000 0.0000
vt 0.2518 -0.0000 0.0000
vt 0.7482 0.9964 0.0000
vt 0.7500 1.0000 0.0000
vt 0.2518 0.9964 0.0000
vt 0.9964 0.0000 0.0000
vt 1.0000 1.0000 0.0000
vt 0.7482 -0.0000 0.0000
vt 0.7482 0.0000 0.0000
vt 0.7726 0.6574 0.0000
vt 0.7726 0.3426 0.0000
vt 1.0000 0.0000 0.0000
vt 0.5000 0.1852 0.0000
vt 0.5000 0.0000 0.0000
vt 0.2274 0.3426 0.0000
vt 0.0000 -0.0000 0.0000
vt 0.2274 0.6574 0.0000
vt -0.0000 1.0000 0.0000
vt 0.5000 0.8148 0.0000
vt 0.5000 1.0000 0.0000
# 27 texture coords

g Cylinder001
s off
f 1/1/1 2/2/1 3/3/1 4/4/1 
f 5/5/2 6/6/2 2/7/2 1/8/2 
f 7/9/3 8/7/3 6/6/3 5/5/3 
f 9/10/4 10/11/4 8/7/4 7/12/4 
f 11/13/5 12/14/5 10/11/5 9/15/5 
f 4/16/6 3/11/6 12/14/6 11/13/6 
f 13/14/7 3/17/7 2/18/7 14/19/7 
f 14/19/7 2/18/7 6/20/7 15/21/7 
f 15/21/8 6/20/8 8/22/8 16/23/8 
f 16/23/8 8/22/8 10/24/8 17/25/8 
f 17/25/9 10/24/9 12/26/9 18/27/9 
f 18/27/10 12/26/10 3/17/10 13/14/10 
# 12 polygons

#
# object Object001
#

v  9.2743 98.4252 -0.0000
v  4.6371 98.4252 -8.0317
v  -4.6371 98.4252 -8.0317
v  -4.6371 98.4252 8.0317
v  -9.2743 98.4252 0.0000
v  4.6371 98.4252 8.0317
v  4.7286 98.5520 8.1902
v  -4.7286 98.5520 8.1902
v  -9.4573 98.5520 0.0000
v  -4.7286 98.5520 -8.1902
v  4.7286 98.5520 -8.1902
v  9.4573 98.5520 -0.0000
v  4.9213 98.4252 8.5239
v  4.8298 98.5520 8.3654
v  -4.8298 98.5520 8.3654
v  -4.9213 98.4252 8.5239
v  -9.6595 98.5520 0.0000
v  -9.8425 98.4252 0.0000
v  -4.8298 98.5520 -8.3654
v  -4.9213 98.4252 -8.5239
v  4.8298 98.5520 -8.3654
v  4.9213 98.4252 -8.5239
v  9.6595 98.5520 -0.0000
v  9.8425 98.4252 -0.0000
# 24 vertices

vn 0.0000 1.0000 -0.0000
vn 0.0000 0.7809 -0.6247
vn 0.5410 0.7809 -0.3123
vn 0.5410 0.7809 0.3123
vn 0.0000 0.7809 0.6247
vn -0.5410 0.7809 0.3123
vn -0.5410 0.7809 -0.3123
vn -0.0000 0.7809 -0.6247
vn -0.0000 1.0000 -0.0000
# 9 vertex normals

vt 0.9711 0.5000 0.0000
vt 0.7356 0.9711 0.0000
vt 0.2644 0.9711 0.0000
vt 0.2644 0.0289 0.0000
vt 0.0289 0.5000 0.0000
vt 0.7356 0.0289 0.0000
vt 0.7402 0.0196 0.0000
vt 0.2598 0.0196 0.0000
vt 0.0196 0.5000 0.0000
vt 0.2598 0.9804 0.0000
vt 0.7402 0.9804 0.0000
vt 0.9804 0.5000 0.0000
vt 0.7500 0.0000 0.0000
vt 0.7454 0.0093 0.0000
vt 0.2546 0.0093 0.0000
vt 0.2500 0.0000 0.0000
vt 0.0093 0.5000 0.0000
vt -0.0000 0.5000 0.0000
vt 0.2546 0.9907 0.0000
vt 0.2500 1.0000 0.0000
vt 0.7454 0.9907 0.0000
vt 0.7500 1.0000 0.0000
vt 0.9907 0.5000 0.0000
vt 1.0000 0.5000 0.0000
# 24 texture coords

g Object001
s off
f 19/28/11 20/29/11 21/30/11 22/31/11 
f 21/30/11 23/32/11 22/31/11 
f 24/33/11 19/28/11 22/31/11 
f 25/34/12 24/33/12 22/31/12 26/35/12 
f 26/35/13 22/31/13 23/32/13 27/36/13 
f 27/36/14 23/32/14 21/30/14 28/37/14 
f 28/37/15 21/30/15 20/29/15 29/38/15 
f 29/38/16 20/29/16 19/28/16 30/39/16 
f 30/39/17 19/28/17 24/33/17 25/34/17 
f 31/40/15 32/41/15 33/42/15 34/43/15 
f 34/43/16 33/42/16 35/44/16 36/45/16 
f 36/45/17 35/44/17 37/46/17 38/47/17 
f 38/47/18 37/46/18 39/48/18 40/49/18 
f 40/49/13 39/48/13 41/50/13 42/51/13 
f 42/51/14 41/50/14 32/41/14 31/40/14 
f 25/34/11 26/35/11 33/42/11 32/41/11 
f 26/35/19 27/36/19 35/44/19 33/42/19 
f 27/36/19 28/37/19 37/46/19 35/44/19 
f 28/37/19 29/38/19 39/48/19 37/46/19 
f 29/38/19 30/39/19 41/50/19 39/48/19 
f 30/39/11 25/34/11 32/41/11 41/50/11 
# 19 polygons - 2 triangles

