# 3ds Max Wavefront OBJ Exporter v0.97b - (c)2007 guruware
# File Created: 04.10.2012 18:48:33

#
# object Box001
#

v  -9.0893 98.4252 19.6850
v  -9.0893 98.4252 -19.6850
v  0.0114 98.4252 -25.7788
v  29.5276 98.4252 -18.7008
v  28.5636 98.4252 -19.8840
v  29.2866 98.4252 -19.4887
v  29.5276 98.4252 18.7008
v  29.2947 98.4252 19.5186
v  28.5963 98.4252 20.0036
v  0.7532 98.4252 29.5276
v  0.8843 108.2677 28.9626
v  28.1042 108.2677 19.6518
v  28.8026 108.2677 19.1668
v  29.0354 108.2677 18.3490
v  29.0354 108.2677 -18.2999
v  28.7945 108.2677 -19.0878
v  28.0715 108.2677 -19.4831
v  -8.5971 108.2677 -19.4223
v  0.1138 108.2677 -25.2551
v  -8.5971 108.2677 19.4812
v  28.9968 98.4252 20.2903
v  28.9968 102.8543 20.2903
v  0.6421 102.8543 30.0070
v  0.6421 98.4252 30.0070
v  29.9096 98.4252 -19.0116
v  29.9096 102.8543 -19.0116
v  29.9275 102.8543 18.9870
v  29.9275 98.4252 18.9870
v  -0.0831 98.4252 -26.2617
v  -0.0831 102.8543 -26.2617
v  28.9457 102.8543 -20.1971
v  28.9457 98.4252 -20.1971
v  -9.5439 98.4252 19.8734
v  -9.5439 102.8543 19.8734
v  -9.5234 102.8543 -19.9168
v  -9.5234 98.4252 -19.9168
v  -9.0893 107.7756 19.6850
v  -9.0893 103.3465 19.6850
v  0.7532 103.3465 29.5276
v  0.7532 107.7756 29.5276
v  27.6291 106.4468 19.2975
v  22.9863 106.4468 20.6742
v  22.9863 103.3465 20.6742
v  27.6291 103.3465 19.2975
v  29.5276 107.7756 4.9213
v  29.5276 103.5433 4.9213
v  29.5276 103.3465 4.7244
v  29.5276 107.7756 -18.7008
v  29.5276 103.3465 -18.7008
v  0.0114 107.7756 -25.7788
v  28.5636 107.7756 -19.8840
v  28.5636 103.3465 -19.8840
v  0.0114 103.3465 -25.7788
v  -9.0893 107.7756 -19.6850
v  -9.0893 103.3465 -19.6850
v  23.3686 103.3465 21.7918
v  28.5963 103.3465 20.0036
v  29.5276 103.3465 5.1181
v  29.5276 103.3465 18.7008
v  18.7372 107.7756 23.3760
v  28.5963 107.7756 20.0036
v  29.5276 107.7756 18.7008
v  29.5276 107.7756 11.8110
v  23.3686 106.6437 21.7918
v  23.3686 106.2500 21.7918
v  28.5963 106.6437 20.0036
v  28.5513 103.3465 18.0141
v  28.3465 103.3465 4.9213
v  28.4566 106.4468 11.8110
v  28.5516 106.4468 18.0141
v  29.3307 103.3465 4.9213
v  28.4351 106.4468 19.8861
v  23.3049 106.4468 21.6055
v  29.3307 106.4468 11.8110
v  29.3628 106.4468 18.5863
v  29.5276 106.6437 11.8110
v  29.5276 106.6437 18.7008
v  29.6950 102.8543 19.8049
v  29.6950 98.4252 19.8049
v  28.3285 106.4468 18.8270
v  28.3284 103.3465 18.8270
v  29.2947 103.3465 19.5186
v  29.2947 107.7756 19.5186
v  29.2947 106.6437 19.5186
v  29.1332 106.4468 19.4034
v  29.6684 102.8543 -19.8001
v  29.6684 98.4252 -19.8001
v  29.2866 107.7756 -19.4887
v  29.2866 103.3465 -19.4887
# 89 vertices

vn 0.0000 -1.0000 -0.0000
vn 0.0000 1.0000 -0.0000
vn 0.3242 0.0000 0.9460
vn 1.0000 0.0000 -0.0005
vn 0.2045 0.0000 -0.9789
vn -1.0000 -0.0000 -0.0005
vn -0.5578 -0.0000 -0.8300
vn -0.7071 0.0000 0.7071
vn 0.2843 0.0000 0.9587
vn 1.0000 0.0000 -0.0000
vn 0.2022 0.0000 -0.9793
vn -1.0000 0.0000 -0.0000
vn -0.5564 0.0000 -0.8309
vn -0.7053 -0.0000 0.7089
vn 0.2468 0.6470 0.7214
vn 0.2513 0.6317 0.7333
vn -0.5285 0.6633 0.5299
vn -0.7422 0.6702 -0.0002
vn -0.4136 0.6699 -0.6166
vn 0.1548 0.6482 -0.7455
vn 0.7761 0.6306 -0.0000
vn 0.7898 0.6133 -0.0004
vn 0.2289 0.7071 0.6690
vn 0.7071 0.7071 -0.0000
vn 0.1430 0.7071 -0.6925
vn -0.7071 0.7071 -0.0000
vn -0.3934 0.7071 -0.5876
vn -0.5000 0.7071 0.5000
vn 0.3236 -0.0000 0.9462
vn 0.3236 0.0000 0.9462
vn 0.0000 0.0000 1.0000
vn 0.9999 -0.0003 -0.0154
vn 0.9999 -0.0008 -0.0156
vn 0.9999 -0.0006 -0.0156
vn 0.9999 -0.0001 -0.0153
vn -0.0000 1.0000 0.0000
vn 0.9462 -0.0000 -0.3236
vn 0.9462 0.0000 -0.3236
vn 0.0000 -0.9119 0.4104
vn 1.0000 0.0000 0.0000
vn 0.5774 0.5773 0.5773
vn 0.9462 0.0000 -0.3237
vn 0.2368 -0.6747 0.6991
vn 0.7367 -0.6762 -0.0017
vn 0.6738 -0.6738 0.3032
vn 0.5708 0.0000 0.8211
vn 0.5582 -0.0000 0.8297
vn 0.7004 0.6853 0.1992
vn 0.6288 0.7567 0.1790
vn 0.5703 0.0000 0.8214
vn 0.4124 -0.6898 0.5951
vn 0.9619 0.0000 0.2733
vn 0.9644 -0.0001 0.2645
vn 0.4152 0.6858 0.5977
vn 0.3729 0.7567 0.5370
vn 0.9618 0.0000 0.2738
vn 0.6954 -0.6912 0.1967
vn 0.9563 0.0000 -0.2925
vn 0.9563 -0.0000 -0.2925
vn 0.3521 0.6808 -0.6423
vn 0.3080 0.7668 -0.5632
vn 0.4815 0.0000 -0.8765
vn 0.4798 0.0000 -0.8774
vn 0.7013 0.6798 -0.2145
vn 0.6138 0.7668 -0.1877
# 65 vertex normals

vt -0.1293 0.7490 0.0000
vt 0.2467 0.7490 0.0000
vt 0.3049 0.6315 0.0000
vt 0.2373 0.2503 0.0000
vt 0.2486 0.2627 0.0000
vt 0.2448 0.2534 0.0000
vt -0.1199 0.2503 0.0000
vt -0.1277 0.2533 0.0000
vt -0.1324 0.2623 0.0000
vt -0.2233 0.6219 0.0000
vt -0.2179 0.6202 0.0000
vt -0.1290 0.2687 0.0000
vt -0.1244 0.2596 0.0000
vt -0.1166 0.2566 0.0000
vt 0.2335 0.2566 0.0000
vt 0.2410 0.2598 0.0000
vt 0.2448 0.2691 0.0000
vt 0.2442 0.7427 0.0000
vt 0.2999 0.6302 0.0000
vt -0.1274 0.7427 0.0000
vt 0.3459 0.3151 0.0000
vt 0.3459 0.4817 0.0000
vt -0.3251 0.4817 0.0000
vt -0.3251 0.3151 0.0000
vt 0.3675 0.3151 0.0000
vt 0.3675 0.4817 0.0000
vt 0.3679 0.4817 0.0000
vt 0.3679 0.3151 0.0000
vt -0.3423 0.3151 0.0000
vt -0.3423 0.4817 0.0000
vt 0.3447 0.4817 0.0000
vt 0.3447 0.3151 0.0000
vt -0.5661 0.3151 0.0000
vt -0.5661 0.4817 0.0000
vt -0.5657 0.4817 0.0000
vt -0.5657 0.3151 0.0000
vt -0.5554 0.6668 0.0000
vt -0.5554 0.5002 0.0000
vt -0.3225 0.5002 0.0000
vt -0.3225 0.6668 0.0000
vt 0.2378 0.6335 0.0000
vt -0.0038 0.6335 0.0000
vt -0.0038 0.3665 0.0000
vt 0.2378 0.3665 0.0000
vt 0.3584 0.6668 0.0000
vt 0.3584 0.5076 0.0000
vt 0.3584 0.5002 0.0000
vt -0.3400 0.6668 0.0000
vt 0.3356 0.6668 0.0000
vt 0.3356 0.5002 0.0000
vt -0.3400 0.5002 0.0000
vt -0.1311 0.7549 0.0000
vt 0.2489 0.7546 0.0000
vt -0.2279 0.6233 0.0000
vt -0.1351 0.2571 0.0000
vt 0.2403 0.2453 0.0000
vt -0.1226 0.2451 0.0000
vt 0.3095 0.6327 0.0000
vt 0.2516 0.2578 0.0000
vt 0.2127 0.5002 0.0000
vt 0.3364 0.5002 0.0000
vt -0.3194 0.6853 0.0000
vt 0.1031 0.6668 0.0000
vt 0.3364 0.6668 0.0000
vt 0.3248 0.6853 0.0000
vt 0.3468 0.6853 0.0000
vt 0.3240 0.6853 0.0000
vt -0.3376 0.6853 0.0000
vt -0.5437 0.6853 0.0000
vt 0.2127 0.6242 0.0000
vt 0.2127 0.6094 0.0000
vt 0.3364 0.6242 0.0000
vt 0.3373 0.3665 0.0000
vt 0.9962 0.3665 0.0000
vt 0.6495 0.6335 0.0000
vt 0.3373 0.6335 0.0000
vt 0.3135 0.5002 0.0000
vt 0.2036 0.5002 0.0000
vt 0.3538 0.5002 0.0000
vt 0.3305 0.5002 0.0000
vt 0.3353 0.5002 0.0000
vt 0.3326 0.6168 0.0000
vt 0.2112 0.6168 0.0000
vt 0.2036 0.6168 0.0000
vt 0.3135 0.6168 0.0000
vt 0.3538 0.6168 0.0000
vt 0.3545 0.6168 0.0000
vt 0.3353 0.6168 0.0000
vt 0.3331 0.6168 0.0000
vt 0.3584 0.6242 0.0000
vt 0.3624 0.4817 0.0000
vt 0.3624 0.3151 0.0000
vt 0.2876 0.6335 0.0000
vt 0.2876 0.3665 0.0000
vt -0.1305 0.2481 0.0000
vt 0.3529 0.5002 0.0000
vt 0.3529 0.6668 0.0000
vt 0.3413 0.6853 0.0000
vt 0.3529 0.6242 0.0000
vt 0.3301 0.5002 0.0000
vt 0.3301 0.6168 0.0000
vt 0.3491 0.6168 0.0000
vt 0.3618 0.4817 0.0000
vt 0.3618 0.3151 0.0000
vt 0.3527 0.6668 0.0000
vt 0.3527 0.5002 0.0000
vt 0.2478 0.2485 0.0000
vt 0.3411 0.6853 0.0000
# 108 texture coords

g Box001
s 2
f 1/1/1 2/2/1 3/3/1 4/4/1 
f 3/3/1 5/5/1 6/6/1 4/4/1 
f 4/4/1 7/7/1 8/8/1 9/9/1 
f 1/1/1 4/4/1 9/9/1 10/10/1 
s 4
f 11/11/2 12/12/2 13/13/2 14/14/2 
f 14/14/2 15/15/2 16/16/2 17/17/2 
f 11/11/2 14/14/2 17/17/2 18/18/2 
f 17/17/2 19/19/2 18/18/2 
f 20/20/2 11/11/2 18/18/2 
s 8
f 21/21/3 22/22/3 23/23/3 24/24/3 
s 16
f 25/25/4 26/26/4 27/27/4 28/28/4 
s 32
f 29/29/5 30/30/5 31/31/5 32/32/5 
s 64
f 33/33/6 34/34/6 35/35/6 36/36/6 
s off
f 36/36/7 35/35/7 30/30/7 29/29/7 
f 37/37/8 38/38/8 39/39/8 40/40/8 
s 8
f 41/41/9 42/42/9 43/43/9 44/44/9 
s 16
f 45/45/10 46/46/10 47/47/10 48/45/10 
f 49/47/10 48/45/10 47/47/10 
s 32
f 50/48/11 51/49/11 52/50/11 53/51/11 
s 64
f 37/37/12 54/37/12 55/38/12 38/38/12 
s off
f 54/37/13 50/48/13 53/51/13 55/38/13 
f 33/33/14 24/24/14 23/23/14 34/34/14 
f 2/2/1 1/1/1 33/52/1 36/53/1 
f 1/1/1 10/10/1 24/54/1 33/52/1 
f 10/10/1 9/9/1 21/55/1 24/54/1 
f 7/7/1 4/4/1 25/56/1 28/57/1 
f 5/5/1 3/3/1 29/58/1 32/59/1 
f 3/3/1 2/2/1 36/53/1 29/58/1 
f 56/60/15 39/39/15 23/23/15 57/61/15 
f 57/61/16 23/23/16 22/22/16 
f 39/39/17 38/38/17 34/34/17 23/23/17 
f 38/38/18 55/38/18 35/35/18 34/34/18 
f 55/38/19 53/51/19 30/30/19 35/35/19 
f 53/51/20 52/50/20 31/31/20 30/30/20 
f 49/47/21 47/47/21 58/47/21 27/27/21 
f 58/47/21 59/47/21 27/27/21 
f 49/47/22 27/27/22 26/26/22 
f 11/62/23 40/40/23 60/63/23 61/64/23 
f 11/62/23 61/64/23 12/65/23 
f 14/66/24 62/45/24 63/45/24 45/45/24 
f 14/66/24 45/45/24 48/45/24 15/66/24 
f 17/67/25 51/49/25 50/48/25 19/68/25 
f 18/69/26 54/37/26 37/37/26 20/69/26 
f 54/37/27 18/69/27 19/68/27 50/48/27 
f 40/40/28 11/62/28 20/69/28 37/37/28 
s 8
f 40/40/29 39/39/30 56/60/29 64/70/29 
f 56/60/29 65/71/31 64/70/29 
f 60/63/29 40/40/29 64/70/29 
f 61/64/29 60/63/29 64/70/29 66/72/30 
s 16
f 67/73/32 68/74/33 69/75/34 70/76/35 
s off
f 56/60/36 57/61/36 44/77/36 43/78/36 
f 59/47/2 58/47/2 71/79/2 68/80/2 
f 59/47/2 68/80/2 67/81/2 
f 72/82/1 73/83/1 42/84/1 41/85/1 
f 65/71/37 56/60/37 43/78/37 42/84/37 
f 73/83/38 65/71/38 42/84/38 
f 74/86/1 75/87/1 70/88/1 69/89/1 
s 1
f 69/89/39 68/80/39 71/79/39 74/86/39 
s 2
f 76/90/10 63/45/10 62/45/10 77/90/10 
s 4
f 45/45/40 63/45/40 76/90/40 46/46/10 
s off
f 58/47/41 47/47/41 46/46/41 71/79/41 
f 65/71/42 73/83/42 64/70/42 
f 72/82/43 66/72/43 64/70/43 73/83/43 
f 74/86/44 76/90/44 77/90/44 75/87/44 
f 71/79/45 46/46/45 76/90/45 74/86/45 
f 78/91/46 22/22/46 21/21/46 79/92/46 
f 80/93/47 41/41/47 44/44/47 81/94/47 
f 79/95/1 21/55/1 9/9/1 8/8/1 
f 78/91/48 27/27/48 59/47/48 82/96/48 
f 83/97/49 62/45/49 14/66/49 13/98/49 
f 83/97/50 61/64/50 66/72/50 84/99/50 
f 81/100/2 44/77/2 57/61/2 82/96/2 
f 80/101/1 70/88/1 75/87/1 85/102/1 
f 84/99/51 66/72/51 72/82/51 85/102/51 
f 27/27/52 78/91/52 79/92/52 28/28/52 
f 70/76/53 80/93/53 81/94/53 67/73/53 
f 28/57/1 79/95/1 8/8/1 7/7/1 
f 22/22/54 78/91/54 82/96/54 57/61/54 
f 61/64/55 83/97/55 13/98/55 12/65/55 
f 62/45/56 83/97/56 84/99/56 77/90/56 
f 67/81/2 81/100/2 82/96/2 59/47/2 
f 41/85/1 80/101/1 85/102/1 72/82/1 
f 77/90/57 84/99/57 85/102/57 75/87/57 
f 86/103/58 26/26/58 25/25/58 87/104/58 
f 88/105/59 48/45/59 49/47/59 89/106/59 
f 87/107/1 25/56/1 4/4/1 6/6/1 
f 86/103/60 31/31/60 52/50/60 89/106/60 
f 88/105/61 51/49/61 17/67/61 16/108/61 
f 31/31/62 86/103/62 87/104/62 32/32/62 
f 51/49/63 88/105/63 89/106/63 52/50/63 
f 32/59/1 87/107/1 6/6/1 5/5/1 
f 26/26/64 86/103/64 89/106/64 49/47/64 
f 48/45/65 88/105/65 16/108/65 15/66/65 
# 81 polygons - 12 triangles

