# 3ds Max Wavefront OBJ Exporter v0.97b - (c)2007 guruware
# File Created: 15.10.2012 21:38:53

#
# object Box001
#

v  -12.8526 1.9685 11.8393
v  5.4298 1.9685 16.6821
v  13.8817 1.9685 -15.6799
v  -4.1819 1.9685 -20.5200
v  16.3014 1.3123 -15.2456
v  7.8740 1.3123 17.7165
v  7.8740 0.6562 17.7165
v  16.3014 0.6562 -15.2456
v  -4.6573 -1.4764 -20.6474
v  -13.3283 -0.9843 11.7133
v  -13.3283 0.9843 11.7133
v  -4.6573 1.4764 -20.6474
v  7.8740 1.3123 37.4016
v  7.8740 0.6562 37.4016
v  -12.8362 1.9685 27.3002
v  1.4412 1.9685 37.1294
v  5.4486 1.9685 39.1873
v  1.4764 1.9685 50.5808
v  5.4134 1.9685 49.7934
v  14.3570 1.4764 -15.5525
v  5.9055 1.4764 16.8081
v  5.9055 1.3123 16.8081
v  14.3570 1.3123 -15.5525
v  5.9055 1.4764 39.3701
v  5.9055 1.3123 39.3701
v  14.3570 0.6562 -15.5526
v  5.9055 0.6562 39.3701
v  5.9055 0.6562 16.8081
v  -13.3283 -0.9843 33.5642
v  -13.3283 0.9843 33.5642
v  -13.3283 0.9843 27.5591
v  -13.3283 -0.9843 27.5591
v  -3.9370 -0.9843 47.2441
v  0.9843 -0.9843 51.1811
v  0.9843 0.9843 51.1811
v  -3.9370 0.9843 47.2441
v  0.9842 0.9843 37.4016
v  -3.9370 0.9843 39.4697
v  0.9843 1.4764 51.1811
v  0.9842 1.4764 37.4016
v  -13.3283 1.4764 27.5591
v  -13.3283 1.4764 11.7133
v  5.9055 1.4764 50.1968
v  5.9055 0.9843 50.1968
v  -12.8526 -1.9685 11.8393
v  -4.1819 -1.9685 -20.5200
v  13.8817 -1.9685 -15.6799
v  5.4298 -1.9685 16.6821
v  -3.9370 -0.9843 39.4697
v  16.3014 -1.3123 -15.2456
v  16.3014 -0.6562 -15.2456
v  7.8740 -0.6562 17.7165
v  7.8740 -1.3123 17.7165
v  14.3570 -1.3123 -15.5525
v  14.3570 -1.4764 -15.5525
v  14.3570 -0.6562 -15.5526
v  7.8740 -0.6562 37.4016
v  7.8740 -1.3123 37.4016
v  5.4486 -1.9685 39.1873
v  1.4412 -1.9685 37.1294
v  -12.8362 -1.9685 27.3002
v  5.9055 -0.9843 50.1968
v  5.9055 -0.6562 39.3701
v  5.4134 -1.9685 49.7934
v  1.4764 -1.9685 50.5808
v  5.9055 -1.3123 16.8081
v  5.9055 -1.4764 16.8081
v  5.9055 -0.6562 16.8081
v  5.9055 -1.3123 39.3701
v  5.9055 -1.4764 39.3701
v  0.9842 -0.9843 37.4016
v  0.9842 -1.4764 37.4016
v  0.9843 -1.4764 51.1811
v  -13.3283 -1.4764 11.7133
v  -13.3283 -1.4764 27.5591
v  5.9055 -1.4764 50.1968
# 76 vertices

vn 0.0000 1.0000 -0.0000
vn 0.9688 0.0000 0.2477
vn -0.9659 0.0000 -0.2588
vn 1.0000 0.0000 -0.0000
vn 0.9675 0.0000 0.2527
vn 1.0000 0.0000 0.0000
vn 0.1559 0.0000 -0.9878
vn -0.0000 1.0000 -0.0000
vn -0.0000 1.0000 0.0000
vn 0.7071 -0.0000 0.7071
vn 0.0000 -1.0000 -0.0000
vn 0.0000 -1.0000 0.0000
vn -1.0000 0.0000 -0.0000
vn -0.6247 0.0000 0.7809
vn 0.0000 1.0000 0.0000
vn -1.0000 0.0000 0.0000
vn -0.5666 0.0000 0.8240
vn 1.0000 -0.0000 0.0000
vn 0.1961 0.0000 0.9806
vn 0.6842 0.7071 0.1787
vn -0.6830 0.7071 -0.1830
vn -0.7130 0.7012 0.0004
vn 0.1387 0.7071 0.6934
vn 0.7195 0.6945 0.0012
vn 0.7259 0.6878 -0.0003
vn -0.4026 0.7039 0.5852
vn -0.7194 0.6945 0.0009
vn -0.5323 0.0000 0.8465
vn 0.9688 -0.0000 0.2477
vn 0.2588 -0.0000 -0.9659
vn 0.2588 0.0000 -0.9659
vn 0.1559 -0.0000 -0.9878
vn -0.0000 -1.0000 -0.0000
vn -0.0000 -1.0000 0.0000
vn 0.7071 0.0000 0.7071
vn 0.6842 -0.7071 0.1787
vn -0.6830 -0.7071 -0.1830
vn -0.7130 -0.7012 0.0004
vn 0.1387 -0.7071 0.6934
vn 0.7195 -0.6945 0.0012
vn 0.7259 -0.6878 -0.0003
vn -0.4026 -0.7039 0.5852
vn -0.7194 -0.6945 0.0009
# 43 vertex normals

vt 0.4432 0.3772 0.0000
vt 0.4418 0.6342 0.0000
vt -0.4300 0.6313 0.0000
vt -0.4300 0.3772 0.0000
vt -0.4354 0.8333 0.0000
vt 0.4514 0.8333 0.0000
vt 0.4514 0.6667 0.0000
vt -0.4354 0.6667 0.0000
vt -0.4300 0.1250 0.0000
vt 0.4433 0.2500 0.0000
vt 0.4433 0.7500 0.0000
vt -0.4300 0.8750 0.0000
vt 0.3956 0.8333 0.0000
vt 0.6487 0.8333 0.0000
vt 0.6487 0.6667 0.0000
vt 0.3956 0.6667 0.0000
vt 0.5188 0.2525 0.0000
vt 0.6452 0.4529 0.0000
vt 0.6717 0.5092 0.0000
vt 0.3200 0.2522 0.0000
vt 0.3823 0.5089 0.0000
vt 0.8182 0.4534 0.0000
vt 0.8081 0.5087 0.0000
vt 0.4418 0.8750 0.0000
vt 0.4418 0.8333 0.0000
vt -0.4300 0.8333 0.0000
vt 0.3839 0.8750 0.0000
vt 0.6740 0.8750 0.0000
vt 0.6740 0.8333 0.0000
vt 0.3839 0.8333 0.0000
vt 0.6667 0.6343 0.0000
vt 0.8333 0.6343 0.0000
vt 0.8333 0.6616 0.0000
vt 0.6667 0.6616 0.0000
vt -0.4300 0.6380 0.0000
vt 0.4418 0.6409 0.0000
vt 0.4514 0.6699 0.0000
vt -0.4354 0.6646 0.0000
vt 0.3839 0.5156 0.0000
vt 0.6740 0.5156 0.0000
vt 0.6487 0.5433 0.0000
vt 0.3956 0.5433 0.0000
vt 0.6740 0.6667 0.0000
vt 0.5994 0.2500 0.0000
vt 0.5994 0.7500 0.0000
vt 0.5221 0.7500 0.0000
vt 0.5221 0.2500 0.0000
vt 0.4883 0.2508 0.0000
vt 0.7441 0.2508 0.0000
vt 0.7441 0.7492 0.0000
vt 0.4883 0.7492 0.0000
vt 0.6487 0.4465 0.0000
vt 0.5221 0.2455 0.0000
vt 0.5994 0.2455 0.0000
vt 0.6753 0.3774 0.0000
vt 0.7753 0.3774 0.0000
vt 0.8259 0.4465 0.0000
vt 0.8259 0.7500 0.0000
vt 0.8259 0.8750 0.0000
vt 0.6487 0.8750 0.0000
vt 0.6487 0.7500 0.0000
vt 0.5221 0.8750 0.0000
vt 0.3184 0.8750 0.0000
vt 0.3184 0.7500 0.0000
vt 0.7500 0.4465 0.0000
vt 0.8750 0.4465 0.0000
vt 0.8750 0.2455 0.0000
vt 0.7500 0.2455 0.0000
vt 0.8132 0.8750 0.0000
vt 0.8132 0.7500 0.0000
vt 0.7500 0.5156 0.0000
vt 0.8750 0.5156 0.0000
vt -0.4300 0.3705 0.0000
vt 0.4433 0.3705 0.0000
vt 0.3184 0.2455 0.0000
vt 0.8132 0.5156 0.0000
vt 0.6717 1.0000 0.0000
vt 0.8081 1.0000 0.0000
vt 0.6452 1.0000 0.0000
vt 0.8182 1.0000 0.0000
vt -0.0000 0.2508 0.0000
vt -0.0000 0.7492 0.0000
vt -0.4354 0.1667 0.0000
vt -0.4354 0.3333 0.0000
vt 0.4514 0.3333 0.0000
vt 0.4514 0.1667 0.0000
vt -0.0323 0.1667 0.0000
vt -0.0323 0.1250 0.0000
vt -0.0978 0.1250 0.0000
vt -0.0323 0.3333 0.0000
vt -0.0978 0.8750 0.0000
vt -0.0323 0.8750 0.0000
vt -0.0323 0.8333 0.0000
vt -0.0323 0.6667 0.0000
vt 0.3956 0.1667 0.0000
vt 0.3956 0.3333 0.0000
vt 0.6487 0.3333 0.0000
vt 0.6487 0.1667 0.0000
vt 1.0000 0.2508 0.0000
vt 1.0000 0.7492 0.0000
vt 0.8132 0.2500 0.0000
vt 0.6740 0.3333 0.0000
vt -0.4300 0.1667 0.0000
vt 0.4418 0.1667 0.0000
vt 0.4418 0.1250 0.0000
vt -0.4300 0.3333 0.0000
vt -0.4300 0.6667 0.0000
vt 0.4418 0.6667 0.0000
vt 0.4418 0.3333 0.0000
vt 0.3839 0.1250 0.0000
vt 0.3839 0.1667 0.0000
vt 0.6740 0.1667 0.0000
vt 0.6740 0.1250 0.0000
vt 0.3839 0.3333 0.0000
vt 0.3839 0.6667 0.0000
vt 0.3333 0.6343 0.0000
vt 0.3333 0.6616 0.0000
vt 0.1667 0.6616 0.0000
vt 0.1667 0.6343 0.0000
vt 0.7753 0.2500 0.0000
vt 0.7753 0.7500 0.0000
vt 0.6753 0.7500 0.0000
vt 0.6753 0.2500 0.0000
vt 0.8259 0.2500 0.0000
vt 0.6487 0.2500 0.0000
vt 0.6487 0.1250 0.0000
vt 0.8259 0.1250 0.0000
vt 0.3184 0.2500 0.0000
vt 0.3184 0.1250 0.0000
vt 0.5221 0.1250 0.0000
vt 0.2500 0.4465 0.0000
vt 0.2500 0.2455 0.0000
vt 0.1250 0.2455 0.0000
vt 0.1250 0.4465 0.0000
vt 0.8132 0.1250 0.0000
vt 0.2500 0.5156 0.0000
vt 0.1250 0.5156 0.0000
vt 0.6717 -0.0000 0.0000
vt 0.3823 -0.0000 0.0000
vt 0.4433 0.8750 0.0000
vt 0.4433 0.1250 0.0000
vt 0.6250 0.0000 0.6718
vt 0.1250 -0.0000 0.6718
vt 0.1250 0.1250 0.7071
vt 0.6250 0.1250 0.7071
vt 0.1250 1.0000 0.6718
vt 0.6250 1.0000 0.6718
vt 0.6250 0.8750 0.7071
vt 0.1250 0.8750 0.7071
# 149 texture coords

g Box001
s 4
f 1/1/1 2/2/1 3/3/1 4/4/1 
s 16
f 5/5/2 6/6/2 7/7/2 8/8/2 
s 64
f 9/9/3 10/10/3 11/11/3 12/12/3 
s off
f 6/13/4 13/14/4 14/15/4 7/16/4 
f 15/17/1 16/18/1 17/19/1 1/20/1 
f 2/21/1 1/20/1 17/19/1 
f 17/19/1 16/18/1 18/22/1 19/23/1 
s 16
f 20/12/5 21/24/5 22/25/5 23/26/5 
s off
f 21/27/6 24/28/6 25/29/6 22/30/6 
f 26/31/7 23/32/7 5/33/7 8/34/7 
f 23/35/8 22/36/8 6/37/8 5/38/8 
f 22/39/9 25/40/9 13/41/9 6/42/9 
f 25/29/10 27/43/10 14/15/10 13/14/10 
f 27/40/11 28/39/11 7/42/11 14/41/11 
f 28/36/12 26/35/12 8/38/12 7/37/12 
f 29/44/13 30/45/13 31/46/13 32/47/13 
f 33/48/14 34/49/14 35/50/14 36/51/14 
s 4
f 37/52/1 31/53/15 30/54/1 38/55/1 
s 16
f 37/52/1 38/55/15 36/56/1 35/57/1 
s 2
f 35/58/16 39/59/16 40/60/16 37/61/16 
s 1
f 31/46/13 41/62/13 42/63/13 11/64/13 
s 8
f 37/65/17 40/66/17 41/67/17 31/68/17 
s off
f 24/28/6 43/69/6 44/70/6 25/29/6 
f 27/43/18 25/29/18 44/70/18 
s 1
f 44/71/19 43/72/19 39/66/19 35/65/19 
s off
f 2/2/20 21/36/20 20/35/20 3/3/20 
f 4/4/21 12/73/21 42/74/21 1/1/21 
f 1/20/22 42/75/22 41/53/22 15/17/22 
f 18/22/23 39/57/23 43/76/23 19/23/23 
f 24/28/24 17/77/24 19/78/24 43/69/24 
f 21/39/25 2/21/25 17/19/25 24/40/25 
f 15/17/26 41/53/26 40/52/26 16/18/26 
f 16/79/27 40/60/27 39/59/27 18/80/27 
s 4
f 45/1/11 46/4/11 47/3/11 48/2/11 
s 8
f 29/81/28 49/48/28 38/51/28 30/82/28 
s 16
f 50/83/29 51/84/29 52/85/29 53/86/2 
s 32
f 54/87/30 55/88/31 9/89/30 56/90/30 
f 9/89/30 12/91/31 20/92/31 23/93/31 
f 9/89/30 23/93/31 26/94/31 56/90/30 
s off
f 53/95/4 52/96/4 57/97/4 58/98/4 
f 59/19/11 60/18/11 61/17/11 45/20/11 
f 48/21/11 59/19/11 45/20/11 
s 8
f 34/49/19 62/99/19 44/100/19 35/50/19 
s off
f 27/43/4 44/70/4 62/101/4 63/102/4 
f 59/19/11 64/23/11 65/22/11 60/18/11 
s 16
f 55/9/5 54/103/5 66/104/5 67/105/5 
f 56/106/5 26/107/5 28/108/5 68/109/5 
s off
f 67/110/6 66/111/6 69/112/6 70/113/6 
f 68/114/6 28/115/6 27/43/6 63/102/6 
f 56/116/32 51/117/32 50/118/32 54/119/32 
f 54/35/33 50/38/33 53/37/33 66/36/33 
f 66/39/34 53/42/34 58/41/34 69/40/34 
f 69/112/35 58/98/35 57/97/35 63/102/35 
f 63/40/1 57/41/1 52/42/1 68/39/1 
f 68/36/15 52/37/15 51/38/15 56/35/15 
f 33/120/13 36/121/13 38/122/13 49/123/13 
s 4
f 71/52/11 49/55/11 29/54/11 32/53/12 
s 16
f 71/52/11 34/57/11 33/56/11 49/55/12 
s 2
f 34/124/16 71/125/16 72/126/16 73/127/16 
s off
f 32/47/13 31/46/13 11/64/13 10/128/13 
s 1
f 32/47/13 10/128/13 74/129/13 75/130/13 
s 8
f 71/131/17 32/132/17 75/133/17 72/134/17 
s off
f 70/113/6 69/112/6 62/101/6 76/135/6 
f 63/102/6 62/101/6 69/112/6 
s 1
f 62/136/19 34/131/19 73/134/19 76/137/19 
s off
f 48/2/36 47/3/36 55/35/36 67/36/36 
f 46/4/37 45/1/37 74/74/37 9/73/37 
f 45/20/38 61/17/38 75/53/38 74/75/38 
f 65/22/39 64/23/39 76/76/39 73/57/39 
f 70/40/40 76/76/40 64/23/40 59/19/40 
f 67/110/41 70/113/41 59/138/41 48/139/41 
f 61/17/42 60/18/42 72/52/42 75/53/42 
f 60/18/43 65/22/43 73/57/43 72/52/43 
s 64
f 11/11/3 42/140/3 12/12/3 
f 9/9/3 74/141/3 10/10/3 
s 32
f 4/142/31 3/143/31 20/144/31 12/145/31 
f 47/146/31 46/147/31 9/148/30 55/149/31 
# 71 polygons - 6 triangles

