# 3ds Max Wavefront OBJ Exporter v0.97b - (c)2007 guruware
# File Created: 21.11.2012 19:50:24

#
# object Box001
#

v  -0.0000 21.1614 -0.0000
v  14.7638 21.1614 -0.0000
v  -0.0000 -3.9370 0.0000
v  14.7638 -3.9370 0.0000
v  -0.0000 21.6240 -0.7402
v  14.7638 21.6240 -0.7402
v  -0.0000 -3.9370 -0.5906
v  14.7638 -3.9370 -0.5906
v  -0.0000 27.0472 4.9213
v  14.7638 27.0472 4.9213
v  13.7795 28.0315 3.6417
v  -0.0000 27.4314 4.4219
v  2.9528 -3.9370 0.0000
v  11.8110 -3.9370 0.0000
v  11.8110 -3.9370 -1.5748
v  2.9528 -3.9370 -1.5748
v  9.8425 -12.7953 0.0000
v  4.9213 -12.7953 0.0000
v  4.9213 -12.7953 -0.5905
v  9.8425 -12.7953 -0.5905
v  4.9213 -5.9055 0.0000
v  6.8898 -3.9370 0.0000
v  7.8740 -3.9370 0.0000
v  9.8425 -5.9055 0.0000
v  9.8425 -5.9055 -1.5748
v  7.8740 -3.9370 -1.5748
v  6.8898 -3.9370 -1.5748
v  4.9213 -5.9055 -1.5748
v  4.9213 -10.6299 -1.5748
v  9.8425 -10.6299 -1.5748
v  0.9843 22.1457 -1.5748
v  13.7795 22.1457 -1.5748
v  0.9843 -3.9370 -1.5748
v  13.7795 -3.9370 -1.5748
v  14.7638 27.4314 4.4219
v  0.9843 28.0315 3.6417
v  13.7795 17.7165 -1.5748
v  13.7795 15.7480 -1.5748
v  13.7795 13.7795 -1.5748
v  0.9843 13.7795 -1.5748
v  0.9843 15.7480 -1.5748
v  0.9843 17.7165 -1.5748
v  9.5144 22.1457 -1.5748
v  5.2493 22.1457 -1.5748
v  9.5271 13.6819 -1.5748
v  5.2367 13.6819 -1.5748
v  9.6129 15.7480 -1.5748
v  5.1509 15.7480 -1.5748
v  5.1509 17.7165 -1.5748
v  9.6129 17.7165 -1.5748
v  9.5144 13.8780 -1.5748
v  9.6129 13.7795 -1.5748
v  5.1509 13.7795 -1.5748
v  5.2493 13.8780 -1.5748
v  9.5144 15.6496 -1.5748
v  9.5144 15.8465 -1.5748
v  5.2493 15.8465 -1.5748
v  5.2493 15.6496 -1.5748
v  5.2493 17.8150 -1.5748
v  5.2493 17.6181 -1.5748
v  9.5144 17.6181 -1.5748
v  9.5144 17.8150 -1.5748
v  5.2493 13.8780 -1.4764
v  9.5144 13.8780 -1.4764
v  9.5271 13.6819 -1.4764
v  5.2367 13.6819 -1.4764
v  5.2493 15.8465 -1.4764
v  9.5144 15.8465 -1.4764
v  9.5144 15.6496 -1.4764
v  5.2493 15.6496 -1.4764
v  9.5144 17.6181 -1.4764
v  5.2493 17.6181 -1.4764
v  5.2493 17.8150 -1.4764
v  9.5144 17.8150 -1.4764
# 74 vertices

vn -0.0000 0.0000 1.0000
vn 0.0000 0.0000 1.0000
vn -0.0000 0.0000 1.0000
vn 0.0000 0.0000 1.0000
vn -0.0000 0.0000 1.0000
vn 0.0000 0.0052 -1.0000
vn 0.0000 0.0000 1.0000
vn -0.0000 0.0000 1.0000
vn 0.0000 0.0000 1.0000
vn 0.0000 0.0000 1.0000
vn -0.0000 0.0000 1.0000
vn -0.0000 0.0000 1.0000
vn -0.0000 0.0000 1.0000
vn -0.0000 0.0000 1.0000
vn 0.0000 -0.0000 -1.0000
vn 0.0000 -0.0000 -1.0000
vn 0.0000 -0.0000 -1.0000
vn 0.0000 -0.0000 -1.0000
vn -0.0000 0.7926 0.6097
vn -0.0000 0.7926 0.6097
vn -0.0000 0.7926 0.6097
vn -0.0000 0.7926 0.6097
vn -0.0000 0.7926 0.6097
vn 0.0000 0.7926 0.6097
vn -0.0000 0.7926 0.6097
vn -0.0000 0.7926 0.6097
vn 1.0000 0.0000 -0.0000
vn 1.0000 0.0000 -0.0000
vn 1.0000 0.0000 -0.0000
vn 1.0000 0.0000 -0.0000
vn 0.0000 -1.0000 0.0000
vn 0.0000 -1.0000 0.0000
vn 0.0000 -1.0000 0.0000
vn 0.0000 -1.0000 0.0000
vn 0.0000 -0.6414 0.7672
vn 0.0000 -0.6414 0.7672
vn 0.0000 -0.6414 0.7672
vn 0.0000 -0.6414 0.7672
vn 1.0000 0.0000 -0.0000
vn 1.0000 0.0000 -0.0000
vn 1.0000 0.0000 -0.0000
vn 1.0000 0.0000 -0.0000
vn 0.0000 0.6633 -0.7484
vn 0.0000 0.6633 -0.7484
vn 0.0000 0.6633 -0.7484
vn 0.0000 0.6633 -0.7484
vn 0.0000 0.6633 -0.7484
vn 0.0000 0.6633 -0.7484
vn 0.0000 0.6633 -0.7484
vn 0.0000 0.6633 -0.7484
vn -1.0000 0.0000 -0.0000
vn -1.0000 0.0000 -0.0000
vn -1.0000 0.0000 -0.0000
vn -1.0000 0.0000 -0.0000
vn -1.0000 0.0000 -0.0000
vn -1.0000 0.0000 -0.0000
vn -1.0000 0.0000 -0.0000
vn -1.0000 0.0000 -0.0000
vn 0.0000 -1.0000 0.0000
vn 0.0000 -1.0000 0.0000
vn 0.0000 -1.0000 0.0000
vn 0.0000 -1.0000 0.0000
vn 0.0000 -1.0000 0.0000
vn 0.0000 -1.0000 0.0000
vn 0.0000 -1.0000 0.0000
vn 0.0000 -1.0000 0.0000
vn 0.0000 -1.0000 0.0000
vn 0.0000 -1.0000 0.0000
vn 0.0000 -1.0000 0.0000
vn 0.0000 -1.0000 0.0000
vn 0.0000 -1.0000 0.0000
vn 0.0000 -1.0000 0.0000
vn 0.0000 0.0000 1.0000
vn 0.0000 0.0000 1.0000
vn 0.0000 0.0000 1.0000
vn 0.0000 0.0000 1.0000
vn -0.0000 0.0000 1.0000
vn -0.0000 0.0000 1.0000
vn -0.0000 0.0000 1.0000
vn -0.0000 0.0000 1.0000
vn -1.0000 0.0000 0.0000
vn -1.0000 0.0000 0.0000
vn -1.0000 0.0000 0.0000
vn -1.0000 0.0000 0.0000
vn -1.0000 0.0000 -0.0000
vn -1.0000 0.0000 -0.0000
vn -1.0000 0.0000 -0.0000
vn -0.0000 -0.0000 -1.0000
vn -0.0000 -0.0000 -1.0000
vn -0.0000 -0.0000 -1.0000
vn -0.0000 -0.0000 -1.0000
vn 0.0000 -0.0000 -1.0000
vn 0.0000 -0.0000 -1.0000
vn 0.0000 -0.0000 -1.0000
vn 0.0000 -0.0000 -1.0000
vn 1.0000 -0.0000 -0.0000
vn 1.0000 -0.0000 -0.0000
vn 1.0000 -0.0000 -0.0000
vn 1.0000 -0.0000 -0.0000
vn 1.0000 0.0000 -0.0000
vn 1.0000 0.0000 -0.0000
vn 1.0000 0.0000 -0.0000
vn -0.0000 0.0000 1.0000
vn -0.0000 0.0000 1.0000
vn -0.0000 0.0000 1.0000
vn 0.0000 0.0000 1.0000
vn 0.0000 0.0000 1.0000
vn 0.0000 0.0000 1.0000
vn 0.0000 0.0000 -1.0000
vn 0.0000 0.0000 -1.0000
vn 0.0000 0.0000 -1.0000
vn -0.0000 0.0000 -1.0000
vn -0.0000 0.0000 -1.0000
vn -0.0000 0.0000 -1.0000
vn -0.7071 -0.7071 0.0000
vn -0.7071 -0.7071 0.0000
vn -0.7071 -0.7071 0.0000
vn -0.7071 -0.7071 0.0000
vn 0.7071 -0.7071 0.0000
vn 0.7071 -0.7071 0.0000
vn 0.7071 -0.7071 0.0000
vn 0.7071 -0.7071 0.0000
vn 0.0000 -0.4138 -0.9104
vn 0.0000 -0.4138 -0.9104
vn 0.0000 -0.4138 -0.9104
vn 0.0000 -0.4138 -0.9104
vn 0.6554 -0.0038 -0.7553
vn 0.6554 -0.0038 -0.7553
vn 0.6554 -0.0038 -0.7553
vn 0.6554 -0.0038 -0.7553
vn 0.7071 -0.0000 -0.7071
vn 0.7071 -0.0000 -0.7071
vn 0.7071 -0.0000 -0.7071
vn 0.7071 -0.0000 -0.7071
vn 0.7071 -0.0000 -0.7071
vn 0.7071 -0.0000 -0.7071
vn 0.7071 -0.0000 -0.7071
vn -0.6840 -0.0025 -0.7294
vn -0.6840 -0.0025 -0.7294
vn -0.6840 -0.0025 -0.7294
vn -0.6840 -0.0025 -0.7294
vn -0.6468 -0.0000 -0.7627
vn -0.6468 -0.0000 -0.7627
vn -0.6468 -0.0000 -0.7627
vn -0.6468 -0.0000 -0.7627
vn -0.6468 -0.0000 -0.7627
vn -0.6468 -0.0000 -0.7627
vn -0.6468 -0.0000 -0.7627
vn 0.7042 0.4713 -0.5310
vn 0.7042 0.4713 -0.5310
vn 0.7042 0.4713 -0.5310
vn 0.7042 0.4713 -0.5310
vn -0.7026 0.4721 -0.5325
vn -0.7062 0.4704 -0.5292
vn -0.7058 0.4706 -0.5296
vn -0.7022 0.4723 -0.5329
vn -0.0000 -0.0000 -1.0000
vn 0.0000 -0.0000 -1.0000
vn 0.0000 -0.0000 -1.0000
vn 0.0000 -0.0000 -1.0000
vn 0.0000 -0.0000 -1.0000
vn 0.0000 -0.0000 -1.0000
vn 0.0000 -0.0000 -1.0000
vn 0.0000 -0.0000 -1.0000
vn 0.0000 -0.0000 -1.0000
vn 0.0000 -0.0000 -1.0000
vn 0.0000 -0.0000 -1.0000
vn 0.0000 -0.0000 -1.0000
vn -0.0000 -0.0000 -1.0000
vn 0.0000 -0.0000 -1.0000
vn 0.0000 -0.0000 -1.0000
vn 0.0000 -0.0000 -1.0000
vn 0.0000 -0.0000 -1.0000
vn 0.0000 -0.0000 -1.0000
vn -0.0000 -0.0000 -1.0000
vn 0.0000 -0.0000 -1.0000
vn -0.0000 -0.0000 -1.0000
vn 0.0000 -0.0000 -1.0000
vn 0.0000 -0.0000 -1.0000
vn -0.0000 -0.0000 -1.0000
vn 0.0000 -0.0000 -1.0000
vn 0.0000 -0.0000 -1.0000
vn -0.0000 -0.0000 -1.0000
vn 0.0000 -0.0000 -1.0000
vn -0.0000 -0.0000 -1.0000
vn 0.0000 -0.0000 -1.0000
vn 0.0000 -0.0000 -1.0000
vn -0.0000 -0.0000 -1.0000
vn 0.0000 -0.0000 -1.0000
vn 0.0000 -0.0000 -1.0000
vn 0.0000 -0.0000 -1.0000
vn 0.0000 -0.0000 -1.0000
vn 0.0000 -0.0000 -1.0000
vn 0.0000 -0.0000 -1.0000
vn 0.0000 -0.0000 -1.0000
vn -0.0000 -0.0000 -1.0000
vn 0.0000 -0.0000 -1.0000
vn 0.0000 -0.0000 -1.0000
vn -0.0000 -0.0000 -1.0000
vn 0.0000 -0.0000 -1.0000
vn -0.0000 -0.0000 -1.0000
vn 0.0000 -0.0000 -1.0000
vn 0.0000 -0.0000 -1.0000
vn -0.0000 -0.0000 -1.0000
vn 0.0000 -0.0000 -1.0000
vn -0.0000 -0.0000 -1.0000
vn -0.0000 -0.0000 -1.0000
vn 0.0000 -0.0000 -1.0000
vn -0.0000 -0.0000 -1.0000
vn -0.0000 -0.0000 -1.0000
vn 0.0000 -0.0000 -1.0000
vn 0.0000 -0.0000 -1.0000
vn 0.0000 -0.0000 -1.0000
vn 0.0000 -0.0000 -1.0000
vn 0.0000 -0.0000 -1.0000
vn 0.0000 -0.0000 -1.0000
vn 0.0000 -0.0000 -1.0000
vn -0.0000 -0.0000 -1.0000
vn 0.0000 -0.0000 -1.0000
vn 0.0000 -0.0000 -1.0000
vn 0.0000 -0.0000 -1.0000
vn 0.0000 -0.0000 -1.0000
vn 0.0000 -0.0000 -1.0000
vn 0.0000 -0.0000 -1.0000
vn 0.0000 -0.0000 -1.0000
vn 0.0000 -0.0000 -1.0000
vn 0.0000 -0.0000 -1.0000
vn 0.0000 -0.0000 -1.0000
vn 0.0000 -0.0000 -1.0000
vn 0.0000 -0.0000 -1.0000
vn 0.0000 -0.0000 -1.0000
vn 0.0000 -0.0000 -1.0000
vn 0.0000 -0.0000 -1.0000
vn 0.0000 -0.0000 -1.0000
vn 0.0000 -0.0000 -1.0000
vn 0.0000 -0.0000 -1.0000
vn 0.0000 -0.0000 -1.0000
vn 0.0000 -0.0000 -1.0000
vn 0.0000 -0.0000 -1.0000
vn 0.0000 -0.0000 -1.0000
vn 0.0000 -0.0000 -1.0000
vn 0.0000 -0.0000 -1.0000
vn 0.0000 -0.0000 -1.0000
vn 0.0000 -0.0000 -1.0000
vn 0.0000 -0.0000 -1.0000
vn 0.0000 -0.0000 -1.0000
vn 0.0000 -0.0000 -1.0000
vn 0.0000 -0.0000 -1.0000
vn 0.0000 -0.0000 -1.0000
vn -0.0000 -0.0000 -1.0000
vn 0.0000 -1.0000 0.0000
vn 0.0000 -1.0000 0.0000
vn 0.0000 -1.0000 0.0000
vn 0.0000 -1.0000 0.0000
vn -0.9979 -0.0644 0.0000
vn -0.9979 -0.0644 0.0000
vn -0.9979 -0.0644 0.0000
vn -0.9979 -0.0644 0.0000
vn 0.0000 1.0000 -0.0000
vn 0.0000 1.0000 -0.0000
vn 0.0000 1.0000 -0.0000
vn 0.0000 1.0000 -0.0000
vn 0.9979 -0.0644 0.0000
vn 0.9979 -0.0644 0.0000
vn 0.9979 -0.0644 0.0000
vn 0.9979 -0.0644 0.0000
vn 0.0000 -1.0000 0.0000
vn 0.0000 -1.0000 0.0000
vn 0.0000 -1.0000 0.0000
vn 0.0000 -1.0000 0.0000
vn -1.0000 0.0000 -0.0000
vn -1.0000 0.0000 -0.0000
vn -1.0000 0.0000 -0.0000
vn -1.0000 0.0000 -0.0000
vn 0.0000 1.0000 -0.0000
vn 0.0000 1.0000 -0.0000
vn 0.0000 1.0000 -0.0000
vn 0.0000 1.0000 -0.0000
vn 1.0000 0.0000 -0.0000
vn 1.0000 0.0000 -0.0000
vn 1.0000 0.0000 -0.0000
vn 1.0000 0.0000 -0.0000
vn 0.0000 1.0000 -0.0000
vn 0.0000 1.0000 -0.0000
vn 0.0000 1.0000 -0.0000
vn 0.0000 1.0000 -0.0000
vn 1.0000 0.0000 -0.0000
vn 1.0000 0.0000 -0.0000
vn 1.0000 0.0000 -0.0000
vn 1.0000 0.0000 -0.0000
vn 0.0000 -1.0000 0.0000
vn 0.0000 -1.0000 0.0000
vn 0.0000 -1.0000 0.0000
vn 0.0000 -1.0000 0.0000
vn -1.0000 0.0000 -0.0000
vn -1.0000 0.0000 -0.0000
vn -1.0000 0.0000 -0.0000
vn -1.0000 0.0000 -0.0000
# 298 vertex normals

vt 1.1682 0.8829 0.0000
vt 0.4421 0.8829 0.0000
vt 0.4421 0.8049 0.0000
vt 0.4421 0.7010 0.0000
vt 0.4421 0.6750 0.0000
vt 0.4421 0.5711 0.0000
vt 0.4421 0.4931 0.0000
vt 1.1682 0.4931 0.0000
vt 1.0144 0.6317 0.0000
vt 1.0144 0.7443 0.0000
vt 1.0657 0.7443 0.0000
vt 1.0657 0.6317 0.0000
vt 1.3384 0.8829 0.0000
vt 1.3384 0.4931 0.0000
vt 1.3495 0.4931 0.0000
vt 1.3669 0.5191 0.0000
vt 1.3669 0.8569 0.0000
vt 1.3495 0.8829 0.0000
vt 0.4421 0.4931 0.0000
vt 1.1815 0.4931 0.0000
vt 0.1858 0.6230 0.0000
vt 0.1858 0.7529 0.0000
vt 0.1858 0.7529 0.0000
vt 0.1858 0.6230 0.0000
vt 1.1966 0.5191 0.0000
vt 1.1966 0.6317 0.0000
vt 1.1966 0.7443 0.0000
vt 1.1966 0.8569 0.0000
vt 1.1815 0.8829 0.0000
vt 0.4421 0.8829 0.0000
vt 0.4421 0.8569 0.0000
vt 0.4421 0.8049 0.0000
vt 0.4421 0.5711 0.0000
vt 0.4421 0.5191 0.0000
vt 0.3852 0.6230 0.0000
vt 0.3852 0.7529 0.0000
vt 0.3852 0.7529 0.0000
vt 0.2485 0.7529 0.0000
vt 0.4421 0.7010 0.0000
vt 0.4421 0.6750 0.0000
vt 0.3852 0.6230 0.0000
vt 0.2485 0.6230 0.0000
vt 0.9546 0.5191 0.0000
vt 1.0116 0.5191 0.0000
vt 1.0685 0.5191 0.0000
vt 1.0685 0.8569 0.0000
vt 1.0116 0.8569 0.0000
vt 0.9546 0.8569 0.0000
vt 0.9518 0.6314 0.0000
vt 0.9546 0.6291 0.0000
vt 0.9575 0.6317 0.0000
vt 0.9575 0.7443 0.0000
vt 1.0087 0.7443 0.0000
vt 1.0087 0.6317 0.0000
vt 1.0714 0.6317 0.0000
vt 1.0714 0.7443 0.0000
vt 1.0116 0.7469 0.0000
vt 1.0685 0.7469 0.0000
vt 1.0685 0.6291 0.0000
vt 1.0116 0.6291 0.0000
vt 0.9546 0.7469 0.0000
vt 0.9518 0.7446 0.0000
vt 0.9575 0.6317 0.0000
vt 0.9575 0.7443 0.0000
vt 0.9518 0.6314 0.0000
vt 0.9518 0.7446 0.0000
vt 1.0144 0.6317 0.0000
vt 1.0144 0.7443 0.0000
vt 1.0087 0.6317 0.0000
vt 1.0087 0.7443 0.0000
vt 1.0657 0.7443 0.0000
vt 1.0657 0.6317 0.0000
vt 1.0714 0.7443 0.0000
vt 1.0714 0.6317 0.0000
# 74 texture coords

g Box001
s 2
f 1/1/1 3/2/2 13/3/3 23/5/4 
f 13/3/5 22/4/6 23/5/7 
f 1/1/8 23/5/9 14/6/10 4/7/11 
f 1/1/12 4/7/13 2/8/14 
s 4
f 57/10/15 60/11/16 61/12/17 56/9/18 
s 8
f 10/14/19 35/15/20 11/16/21 9/13/22 
f 11/16/23 36/17/24 12/18/25 9/13/26 
s 16
f 2/8/27 4/7/28 8/19/29 6/20/30 
s 32
f 18/22/31 19/23/32 20/24/33 17/21/34 
s off
f 1/1/35 2/8/36 10/14/37 9/13/38 
f 2/8/39 6/20/40 35/15/41 10/14/42 
f 44/27/43 31/28/44 36/17/45 43/26/46 
f 32/25/47 43/26/48 36/17/49 11/16/50 
s 1
f 12/18/51 5/29/52 1/1/53 9/13/54 
s 8
f 7/30/55 3/2/56 1/1/57 5/29/58 
s 32
f 3/2/59 7/30/60 33/31/61 16/32/62 
f 13/3/63 3/2/64 16/32/65 
f 15/33/66 34/34/67 8/19/68 14/6/69 
f 8/19/70 4/7/71 14/6/72 
s off
f 22/4/73 21/36/74 18/22/75 23/5/76 
f 24/35/77 23/5/78 18/22/79 17/21/80 
f 21/36/81 28/37/82 29/38/83 19/23/84 
f 21/36/85 19/23/86 18/22/87 
f 27/39/88 26/40/89 25/41/90 30/42/91 
f 27/39/92 30/42/93 29/38/94 28/37/95 
f 25/41/96 24/35/97 17/21/98 30/42/99 
f 17/21/100 20/24/101 30/42/102 
f 13/3/103 21/36/104 22/4/105 
f 14/6/106 23/5/107 24/35/108 
f 15/33/109 25/41/110 26/40/111 
f 16/32/112 27/39/113 28/37/114 
f 21/36/115 13/3/116 16/32/117 28/37/118 
f 25/41/119 15/33/120 14/6/121 24/35/122 
f 19/23/123 29/38/124 30/42/125 20/24/126 
f 32/25/127 6/20/128 8/19/129 37/45/130 
f 8/19/131 34/34/132 39/43/133 38/44/134 
f 8/19/135 38/44/136 37/45/137 
f 33/31/138 7/30/139 5/29/140 40/48/141 
f 5/29/142 31/28/143 42/46/144 41/47/145 
f 5/29/146 41/47/147 40/48/148 
f 6/20/149 32/25/150 11/16/151 35/15/152 
s 2
f 5/29/153 12/18/154 36/17/155 31/28/156 
s 4
f 39/43/157 34/34/158 15/33/159 52/50/160 
f 15/33/161 45/49/162 52/50/163 
f 54/52/164 58/53/165 55/54/166 51/51/167 
f 43/26/168 62/55/169 59/56/170 44/27/171 
f 42/46/172 49/58/173 60/11/174 41/47/175 
f 48/57/176 41/47/177 60/11/178 57/10/179 
f 38/44/180 47/60/181 56/9/182 37/45/183 
f 50/59/184 37/45/185 56/9/186 61/12/187 
f 41/47/188 48/57/189 58/53/190 40/48/191 
f 53/61/192 40/48/193 58/53/194 54/52/195 
f 39/43/196 52/50/197 51/51/198 38/44/199 
f 47/60/200 38/44/201 51/51/202 55/54/203 
f 37/45/204 50/59/205 62/55/206 32/25/207 
f 43/26/208 32/25/209 62/55/210 
f 42/46/211 31/28/212 44/27/213 49/58/214 
f 59/56/215 49/58/216 44/27/217 
f 27/39/218 16/32/219 46/62/220 26/40/221 
f 15/33/222 26/40/223 46/62/224 45/49/225 
f 16/32/226 33/31/227 40/48/228 46/62/229 
f 40/48/230 53/61/231 46/62/232 
f 45/49/233 51/51/234 52/50/235 
f 46/62/236 53/61/237 54/52/238 
f 47/60/239 55/54/240 56/9/241 
f 48/57/242 57/10/243 58/53/244 
f 49/58/245 59/56/246 60/11/247 
f 50/59/248 61/12/249 62/55/250 
s off
f 54/52/251 51/51/252 64/63/253 63/64/254 
f 51/51/255 45/49/256 65/65/257 64/63/258 
f 45/49/259 46/62/260 66/66/261 65/65/262 
f 46/62/263 54/52/264 63/64/265 66/66/266 
f 57/10/267 56/9/268 68/67/269 67/68/270 
f 56/9/271 55/54/272 69/69/273 68/67/274 
f 55/54/275 58/53/276 70/70/277 69/69/278 
f 58/53/279 57/10/280 67/68/281 70/70/282 
f 61/12/283 60/11/284 72/71/285 71/72/286 
f 60/11/287 59/56/288 73/73/289 72/71/290 
f 59/56/291 62/55/292 74/74/293 73/73/294 
f 62/55/295 61/12/296 71/72/297 74/74/298 
# 58 polygons - 22 triangles

#
# object Object001
#

v  5.2493 13.8780 -1.4764
v  9.5144 13.8780 -1.4764
v  9.5271 13.6819 -1.4764
v  5.2367 13.6819 -1.4764
v  5.2493 15.8465 -1.4764
v  9.5144 15.8465 -1.4764
v  9.5144 15.6496 -1.4764
v  5.2493 15.6496 -1.4764
v  9.5144 17.6181 -1.4764
v  5.2493 17.6181 -1.4764
v  5.2493 17.8150 -1.4764
v  9.5144 17.8150 -1.4764
# 12 vertices

vn 0.0000 -0.0000 -1.0000
vn 0.0000 -0.0000 -1.0000
vn 0.0000 -0.0000 -1.0000
vn 0.0000 -0.0000 -1.0000
vn 0.0000 -0.0000 -1.0000
vn 0.0000 -0.0000 -1.0000
vn 0.0000 -0.0000 -1.0000
vn 0.0000 -0.0000 -1.0000
vn 0.0000 -0.0000 -1.0000
vn 0.0000 -0.0000 -1.0000
vn 0.0000 -0.0000 -1.0000
vn 0.0000 -0.0000 -1.0000
# 12 vertex normals

vt 0.3556 0.5712 0.0000
vt 0.6444 0.5713 0.0000
vt 0.6453 0.5773 0.0000
vt 0.3547 0.5773 0.0000
vt 0.3556 0.4963 0.0000
vt 0.6444 0.4963 0.0000
vt 0.6444 0.5038 0.0000
vt 0.3556 0.5038 0.0000
vt 0.6444 0.4287 0.0000
vt 0.3556 0.4287 0.0000
vt 0.3556 0.4156 0.0000
vt 0.6444 0.4156 0.0000
# 12 texture coords

g Object001
s 4
f 76/76/299 77/77/300 78/78/301 75/75/302 
f 80/80/303 81/81/304 82/82/305 79/79/306 
f 84/84/307 85/85/308 86/86/309 83/83/310 
# 3 polygons

