# 3ds Max Wavefront OBJ Exporter v0.97b - (c)2007 guruware
# File Created: 01.09.2012 00:43:29

mtllib Shield_01b.mtl

#
# object Plane003
#

v  0.9843 21.6535 9.4488
v  -3.5433 22.5393 3.7322
v  3.5433 22.5393 3.7322
v  3.5433 21.6535 6.8898
v  -3.5433 22.5393 2.1806
v  -3.5433 20.0787 -9.8425
v  3.5433 20.0787 -9.8425
v  3.5433 22.5393 2.1806
v  -3.9370 20.9496 3.7756
v  -3.9370 22.1328 3.7431
v  -3.9370 21.2638 9.4488
v  -3.9370 20.0945 9.4488
v  -3.9370 18.5345 -9.8425
v  -3.9370 19.6926 -9.8425
v  -3.9370 22.0898 2.1916
v  -3.9370 20.9078 2.2246
v  -3.5433 21.6535 9.4488
v  3.9370 22.1328 3.7431
v  3.9370 21.2638 6.8898
v  3.9370 19.6850 -9.8425
v  3.9370 22.0898 2.1916
v  -3.5433 20.0945 9.8425
v  -3.5433 20.9496 3.7756
v  -3.5433 20.9078 2.2246
v  -3.5433 18.5345 -9.8425
v  -3.5433 20.8661 9.8425
v  -3.5433 21.7396 3.7449
v  -3.5433 21.6963 2.1940
v  -3.5433 19.2913 -9.8425
v  -3.1496 19.6850 -9.8425
v  -3.1496 22.0897 2.1794
v  -3.1496 21.2598 9.8425
v  -3.1496 22.0748 3.7449
v  0.9843 21.2618 9.8425
# 34 vertices

vn 0.0430 0.9842 0.1717
vn 0.0000 0.9970 0.0768
vn 0.0360 0.9951 0.0925
vn 0.2608 0.9295 0.2608
vn 0.0000 0.9949 -0.1008
vn 0.0000 0.9797 -0.2005
vn -1.0000 0.0000 -0.0000
vn -0.7062 0.6998 0.1075
vn 0.6964 0.6913 0.1924
vn -0.7218 0.6784 -0.1370
vn 0.7249 0.6751 -0.1365
vn -0.7361 0.6768 -0.0094
vn 0.7361 0.6768 -0.0094
vn 0.0719 -0.9870 -0.1438
vn 0.0000 -0.9812 0.1930
vn 0.0000 -0.9996 0.0269
vn 1.0000 0.0000 -0.0000
vn -0.0001 -0.9806 0.1960
vn -0.0003 -0.9806 0.1961
vn -0.0002 -0.9806 0.1961
vn 0.0000 -0.9806 0.1960
vn 0.7013 -0.6990 0.1397
vn 0.0000 0.0000 -1.0000
vn 0.6758 -0.7301 -0.1011
vn 0.6613 -0.7500 0.0151
vn 0.7067 -0.7075 -0.0068
vn 0.6952 -0.7188 -0.0011
vn 0.6480 -0.7613 0.0213
vn -0.4068 0.4085 0.8171
vn -0.4048 0.4089 0.8179
vn -0.4063 0.4086 0.8173
vn -0.4082 0.4082 0.8165
vn -0.7071 0.0000 0.7071
vn 0.0000 0.7072 0.7070
vn 0.0000 0.7071 0.7071
vn 0.3452 0.6653 0.6620
vn 0.2408 0.6881 0.6845
vn -0.0351 -0.9874 -0.1543
vn -0.2567 -0.9316 -0.2573
vn -0.0699 -0.9822 -0.1741
vn 0.0052 -0.9907 -0.1356
vn 0.0011 -0.9997 0.0226
vn 0.0000 -0.9996 0.0277
vn 0.0071 -1.0000 -0.0044
vn 0.0082 -0.9999 -0.0096
vn 0.5753 0.5810 0.5757
vn 0.5753 0.5811 0.5757
vn 0.0000 0.9882 0.1531
vn 0.0005 -0.9912 -0.1325
# 49 vertex normals

vt 0.9800 0.3750 0.0000
vt 0.6896 0.9500 0.0000
vt 0.6896 0.0500 0.0000
vt 0.8500 0.0500 0.0000
vt 0.6108 0.9500 0.0000
vt 0.0000 0.9500 0.0000
vt -0.0000 0.0500 0.0000
vt 0.6108 0.0500 0.0000
vt 0.9542 0.2170 0.0000
vt 0.9827 0.7873 0.0000
vt 0.0403 0.7787 0.0000
vt 0.0173 0.2127 0.0000
vt 1.0272 0.3391 0.0000
vt 1.0086 0.6587 0.0000
vt -0.0083 0.6627 0.0000
vt 0.0080 0.3347 0.0000
vt 0.0000 0.0341 0.0000
vt 0.9792 0.0000 0.0000
vt 1.0000 0.9649 0.0000
vt 0.0205 1.0000 0.0000
vt 0.0083 4.6265 0.0000
vt -0.0013 4.3178 0.0000
vt 1.0112 4.3416 0.0000
vt 1.0231 4.6563 0.0000
vt -0.0392 0.6552 0.0000
vt -0.0011 0.3418 0.0000
vt 1.0392 0.3448 0.0000
vt 1.0059 0.6530 0.0000
vt -0.0187 1.0122 0.0000
vt -0.0120 0.8596 0.0000
vt 1.0196 0.8736 0.0000
vt 1.0130 1.0142 0.0000
vt -0.0127 0.5796 0.0000
vt -0.0196 0.4375 0.0000
vt 1.0118 0.4102 0.0000
vt 1.0187 0.5630 0.0000
vt 2.4567 1.0000 0.0000
vt 2.4844 0.0957 0.0000
vt -1.4564 -0.0000 0.0000
vt -1.4844 1.0000 0.0000
vt 0.0000 0.9786 0.0000
vt 0.0101 -0.0000 0.0000
vt 1.0000 0.0732 0.0000
vt 0.9899 1.0000 0.0000
vt 0.6918 1.0000 0.0000
vt 0.9800 1.0000 0.0000
vt 1.0000 0.9500 0.0000
vt 0.6918 0.9500 0.0000
vt 0.0000 1.0000 0.0000
vt 0.6130 1.0000 0.0000
vt 0.6130 0.9500 0.0000
vt 0.6712 0.3082 0.0000
vt 0.4335 0.0000 0.0000
vt 0.6480 0.0000 0.0000
vt 0.8907 0.3098 0.0000
vt -0.0000 1.0000 0.0000
vt 0.6596 0.3870 0.0000
vt 0.8787 0.3885 0.0000
vt 0.2103 1.0000 0.0000
vt 0.9474 1.0000 0.0000
vt 0.9474 0.3893 0.0000
vt 0.0000 0.3887 0.0000
vt 0.9880 0.3893 0.0000
vt 0.3197 1.0000 0.0000
vt 0.2873 0.9000 0.0000
vt 0.3856 0.9500 0.0000
vt 0.2892 1.0000 0.0000
vt 0.1890 0.9500 0.0000
vt 0.2873 0.0000 0.0000
vt 0.3856 0.0500 0.0000
vt -0.0000 0.9500 0.0000
vt 0.7574 0.0000 0.0000
vt 0.9474 0.3098 0.0000
vt 1.0000 0.3885 0.0000
vt 1.0000 0.3098 0.0000
vt 0.8113 0.1008 0.0000
vt 0.8179 0.8938 0.0000
vt 0.1887 0.8992 0.0000
vt 0.1789 0.1089 0.0000
vt 0.1642 0.2619 0.0000
vt 1.5501 0.2619 0.0000
vt 1.5501 0.7381 0.0000
vt -0.5501 0.7381 0.0000
vt 0.9130 0.0001 0.0000
vt 1.0000 0.9987 0.0000
vt 0.0000 1.0001 0.0000
vt 0.0000 0.0039 0.0000
vt 0.3947 0.0000 0.0000
vt 0.0000 0.1500 0.0000
vt 0.0000 0.3099 0.0000
vt 0.0667 1.0050 0.0000
vt 0.0000 0.0092 0.0000
vt 1.0000 0.0050 0.0000
vt 0.9333 1.0043 0.0000
vt 0.9800 0.9500 0.0000
vt 0.9474 0.0000 0.0000
# 96 texture coords

g Plane003
usemtl wire_149149149
s 1
f 4/4/4 3/3/3 2/2/2 1/1/1 
f 8/8/5 7/7/6 6/6/6 5/5/5 
s off
f 12/12/7 11/11/7 10/10/7 9/9/7 
f 16/16/7 15/15/7 14/14/7 13/13/7 
s 1
f 3/3/3 8/8/5 5/5/5 2/2/2 
s off
f 10/20/7 15/19/7 16/18/7 9/17/7 
f 2/24/8 10/23/8 11/22/8 17/21/8 
f 4/28/9 19/27/9 18/26/9 3/25/9 
f 6/32/10 14/31/10 15/30/10 5/29/10 
f 8/36/11 21/35/11 20/34/11 7/33/11 
f 5/40/12 15/39/12 10/38/12 2/37/12 
f 3/44/13 18/43/13 21/42/13 8/41/13 
f 23/48/14 22/47/14 12/46/14 9/45/14 
f 25/6/15 24/51/15 16/50/15 13/49/15 
f 24/51/16 23/48/16 9/45/16 16/50/16 
f 27/55/17 26/54/17 22/53/17 23/52/17 
f 29/59/17 28/58/17 24/57/17 25/56/17 
f 28/58/17 27/55/17 23/52/17 24/57/17 
s 1
f 20/49/21 21/62/20 31/61/19 30/60/18 
s off
f 29/59/22 30/64/22 31/63/22 28/58/22 
s 2
f 29/68/23 14/67/23 6/66/23 30/65/23 
s 4
f 6/66/23 7/70/23 20/69/23 30/65/23 
s 1
f 25/71/23 13/56/23 14/67/23 29/68/23 
s off
f 33/73/24 32/72/24 26/54/24 27/55/24 
s 2
f 27/75/28 28/74/27 31/61/26 33/73/25 
f 32/79/32 17/78/31 11/77/30 26/76/29 
s 1
f 11/83/33 12/82/33 22/81/33 26/80/33 
s 4
f 34/87/37 1/86/36 17/85/35 32/84/34 
s 1
f 33/73/41 18/90/40 19/89/39 34/88/38 
s 4
f 33/73/45 31/61/44 21/62/43 18/90/42 
f 1/94/36 34/93/37 19/92/47 4/91/46 
s 1
f 2/2/2 17/95/48 1/1/1 
f 34/88/38 32/96/49 33/73/41 
# 31 polygons - 2 triangles

