# 3ds Max Wavefront OBJ Exporter v0.97b - (c)2007 guruware
# File Created: 27.08.2012 18:57:44

mtllib slant_wall_01.mtl

#
# object Plane003
#

v  19.6850 0.0000 9.8425
v  19.6850 0.0000 49.2126
v  -9.8425 0.0000 49.2126
v  -9.8425 0.0000 29.5276
v  -9.8425 0.0000 -88.5827
v  -9.8425 0.0000 -127.9528
v  19.6850 0.0000 -127.9528
v  19.6850 0.0000 -108.2677
v  19.6850 0.0000 -18.7008
v  -9.8425 0.0000 0.9843
v  -9.8425 0.0000 -0.9843
v  19.6850 0.0000 -20.6693
v  19.6850 0.0000 -48.2283
v  -9.8425 0.0000 -28.5433
v  -9.8425 0.0000 -30.5118
v  19.6850 0.0000 -50.1969
v  19.6850 0.0000 -77.7559
v  -9.8425 0.0000 -58.0709
v  -9.8425 0.0000 -60.0394
v  19.6850 0.0000 -79.7244
v  -9.8425 0.9843 29.5276
v  19.6850 0.9843 9.8425
v  -9.8425 0.9843 49.2126
v  19.6850 0.9843 49.2126
v  19.6850 0.9843 -18.7008
v  -9.8425 0.9843 0.9843
v  -9.8425 0.9843 -0.9843
v  19.6850 0.9843 -20.6693
v  19.6850 0.9843 -48.2283
v  -9.8425 0.9843 -28.5433
v  -9.8425 0.9843 -30.5118
v  19.6850 0.9843 -50.1969
v  19.6850 0.9843 -77.7559
v  -9.8425 0.9843 -58.0709
v  -9.8425 0.9843 -60.0394
v  19.6850 0.9843 -79.7244
v  19.6850 0.9843 -108.2677
v  -9.8425 0.9843 -88.5827
v  -9.8425 0.9843 -127.9528
v  19.6850 0.9843 -127.9528
# 40 vertices

vn 0.0000 -1.0000 -0.0000
vn -0.5547 0.0000 -0.8321
vn -1.0000 0.0000 -0.0000
vn 1.0000 0.0000 -0.0000
vn 0.0000 0.0000 1.0000
vn 0.0000 1.0000 -0.0000
vn 0.5547 0.0000 0.8321
vn 0.0000 0.0000 -1.0000
# 8 vertex normals

vt 1.0000 0.0000 0.0000
vt 0.0000 0.0000 0.0000
vt 0.0000 1.0000 0.0000
vt 1.0000 1.0000 0.0000
vt 1.0000 0.9667 0.0000
vt 0.0000 0.9667 0.0000
# 6 texture coords

g Plane003
usemtl wire_214229166
s off
f 1/1/1 2/1/1 3/2/1 4/2/1 
f 5/3/1 6/3/1 7/4/1 8/4/1 
f 9/5/1 10/6/1 11/3/1 12/4/1 
f 13/4/1 14/3/1 15/3/1 16/4/1 
f 17/4/1 18/3/1 19/3/1 20/4/1 
f 4/2/2 21/2/2 22/1/2 1/1/2 
f 3/2/3 23/2/3 21/2/3 4/2/3 
f 1/1/4 22/1/4 24/1/4 2/1/4 
f 2/1/5 24/1/5 23/2/5 3/2/5 
s 1
f 24/1/6 22/2/6 21/1/6 23/2/6 
s off
f 9/5/7 25/5/7 26/6/7 10/6/7 
f 10/6/3 26/6/3 27/3/3 11/3/3 
f 12/4/4 28/4/4 25/5/4 9/5/4 
f 11/3/2 27/3/2 28/4/2 12/4/2 
s 1
f 27/3/6 26/6/6 25/4/6 28/5/6 
s off
f 13/4/7 29/4/7 30/3/7 14/3/7 
f 14/3/3 30/3/3 31/3/3 15/3/3 
f 16/4/4 32/4/4 29/4/4 13/4/4 
f 15/3/2 31/3/2 32/4/2 16/4/2 
s 1
f 31/3/6 30/3/6 29/4/6 32/4/6 
s off
f 17/4/7 33/4/7 34/3/7 18/3/7 
f 18/3/3 34/3/3 35/3/3 19/3/3 
f 20/4/4 36/4/4 33/4/4 17/4/4 
f 19/3/2 35/3/2 36/4/2 20/4/2 
s 1
f 35/3/6 34/3/6 33/4/6 36/4/6 
s off
f 8/4/7 37/4/7 38/3/7 5/3/7 
f 5/3/3 38/3/3 39/3/3 6/3/3 
f 7/4/4 40/4/4 37/4/4 8/4/4 
f 6/3/8 39/3/8 40/4/8 7/4/8 
s 1
f 37/4/6 40/4/6 39/3/6 38/3/6 
# 30 polygons

