mtllib AeonTower01c.mtl
o AeonTower01c.obj
v -0.177322 0.992181 -0.334909
v -0.177322 0.992181 0.334909
v -0.159906 0.992181 0.294838
v -0.159906 0.992181 -0.294838
v 0.120514 0.992181 0.190328
v 0.120514 0.992181 -0.190328
v 0.083935 0.992181 -0.174279
v 0.083935 0.992181 0.174279
v -0.375757 0.992181 -0.431153
v -0.380012 0.992181 -0.430752
v -0.470714 0.992181 -0.363264
v -0.472720 0.992181 -0.359272
v -0.472720 0.992181 0.359272
v -0.470714 0.992181 0.363264
v -0.380012 0.992181 0.430752
v -0.375757 0.992181 0.431153
v 0.320348 0.992181 0.096595
v 0.326006 0.992181 0.087690
v 0.326006 0.992181 -0.087690
v 0.320348 0.992181 -0.096595
vn 0.000000 1.000000 0.000000
vn 0.000000 1.000000 0.000000
vn 0.000000 1.000000 0.000000
vn 0.000000 1.000000 0.000000
vn 0.000000 1.000000 0.000000
vn 0.000000 1.000000 0.000000
vn 0.000000 1.000000 0.000000
vn 0.000000 1.000000 0.000000
vn 0.000000 1.000000 0.000000
vn 0.000000 1.000000 0.000000
vn 0.000000 1.000000 0.000000
vn 0.000000 1.000000 0.000000
vn 0.000000 1.000000 0.000000
vn 0.000000 1.000000 0.000000
vn 0.000000 1.000000 0.000000
vn 0.000000 1.000000 0.000000
vn 0.000000 1.000000 0.000000
vn 0.000000 1.000000 0.000000
vn 0.000000 1.000000 0.000000
vn 0.000000 1.000000 0.000000
vt 0.390370 0.856064
vt 0.390370 0.143936
vt 0.408886 0.186538
vt 0.408886 0.813462
vt 0.707019 0.297650
vt 0.707019 0.702350
vt 0.668130 0.685288
vt 0.668130 0.314712
vt 0.919476 0.397303
vt 0.925491 0.406771
vt 0.925491 0.593229
vt 0.919476 0.602697
vt 0.179401 0.958387
vt 0.174877 0.957961
vt 0.174877 0.042039
vt 0.179401 0.041613
vt 0.078446 0.886210
vt 0.078446 0.113790
vt 0.076313 0.881966
vt 0.076313 0.118034
g Generic
usemtl Default
f 1/1/1 2/2/2 3/3/3 4/4/4 
f 5/5/5 6/6/6 7/7/7 8/8/8 
f 8/8/8 7/7/7 4/4/4 3/3/3 
f 17/9/17 18/10/18 19/11/19 20/12/20 
f 5/5/5 17/9/17 20/12/20 6/6/6 
f 9/13/9 10/14/10 15/15/15 16/16/16 
f 10/14/10 11/17/11 14/18/14 15/15/15 
f 11/17/11 12/19/12 13/20/13 14/18/14 
f 1/1/1 9/13/9 16/16/16 2/2/2 
