# 3ds Max Wavefront OBJ Exporter v0.97b - (c)2007 guruware
# File Created: 28.11.2012 18:40:08

#
# object Cylinder001
#

v  4.9213 0.7874 -8.5239
v  9.8425 0.7874 -0.0000
v  -4.9213 0.7874 -8.5239
v  2.7067 0.9843 -4.6881
v  5.4134 0.9843 -0.0000
v  -2.7067 0.9843 -4.6881
v  -5.4134 0.9843 -0.0000
v  2.4606 0.4921 -4.2619
v  4.9213 0.4921 -0.0000
v  -2.4606 0.4921 -4.2619
v  -4.9213 0.4921 -0.0000
v  4.8229 0.9843 -8.3534
v  9.6456 0.9843 -0.0000
v  -4.8229 0.9843 -8.3534
v  4.9213 0.7874 8.5239
v  -4.9213 0.7874 8.5239
v  -9.8425 0.7874 -0.0000
v  4.8229 0.9843 8.3534
v  2.7067 0.9843 4.6881
v  -4.8229 0.9843 8.3534
v  -2.7067 0.9843 4.6881
v  -9.6456 0.9843 -0.0000
v  -2.4606 0.4921 4.2619
v  2.4606 0.4921 4.2619
v  4.9213 0.0000 -8.5239
v  9.8425 0.0000 -0.0000
v  2.4606 0.0000 -4.2619
v  4.9213 0.0000 -0.0000
v  -4.9213 0.0000 8.5239
v  -9.8425 0.0000 -0.0000
v  -2.4606 0.0000 4.2619
v  2.4606 0.0000 4.2619
v  9.6456 -0.9843 -0.0000
v  4.8229 -0.9843 -8.3534
v  2.7067 -0.9843 -4.6881
v  5.4134 -0.9843 -0.0000
v  -4.8229 -0.9843 -8.3534
v  -2.7067 -0.9843 -4.6881
v  -9.6456 -0.9843 -0.0000
v  -5.4134 -0.9843 -0.0000
v  -4.9213 -0.4921 -0.0000
v  -4.9213 0.0000 -0.0000
v  -2.4606 0.0000 -4.2619
v  -2.4606 -0.4921 -4.2619
v  2.4606 -0.4921 -4.2619
v  4.9213 -0.4921 -0.0000
v  4.9213 -0.7874 -8.5239
v  9.8425 -0.7874 -0.0000
v  -4.9213 -0.7874 -8.5239
v  -9.8425 -0.7874 -0.0000
v  2.7067 -0.9843 4.6881
v  4.8229 -0.9843 8.3534
v  -2.7067 -0.9843 4.6881
v  -4.8229 -0.9843 8.3534
v  -2.4606 -0.4921 4.2619
v  2.4606 -0.4921 4.2619
v  4.9213 -0.7874 8.5239
v  -4.9213 -0.7874 8.5239
v  -4.9213 0.0000 -8.5239
v  4.9213 0.0000 8.5239
# 60 vertices

vn 0.0000 1.0000 -0.0000
vn 0.0000 1.0000 -0.0000
vn 0.0000 1.0000 -0.0000
vn 0.0000 1.0000 -0.0000
vn 0.0000 1.0000 -0.0000
vn 0.0000 1.0000 -0.0000
vn 0.0000 1.0000 -0.0000
vn 0.0000 1.0000 -0.0000
vn 0.0000 1.0000 -0.0000
vn 0.0000 1.0000 -0.0000
vn 0.0000 1.0000 -0.0000
vn 0.0000 1.0000 -0.0000
vn 0.0000 0.0000 1.0000
vn 0.0000 0.0000 1.0000
vn 0.0000 0.0000 1.0000
vn 0.0000 0.0000 1.0000
vn 0.0000 0.0000 1.0000
vn 0.0000 0.0000 1.0000
vn 0.0000 0.0000 1.0000
vn 0.0000 0.0000 1.0000
vn -0.8660 0.0000 0.5000
vn -0.8660 0.0000 0.5000
vn -1.0000 0.0000 0.0000
vn -1.0000 0.0000 -0.0000
vn -0.8660 0.0000 0.5000
vn -1.0000 0.0000 -0.0000
vn -1.0000 0.0000 -0.0000
vn -0.8660 0.0000 0.5000
vn -0.6546 0.6547 0.3780
vn -0.6546 0.6547 0.3780
vn -0.6546 0.6547 0.3780
vn -0.6546 0.6547 0.3780
vn 0.0000 0.6547 0.7559
vn 0.0000 0.6547 0.7559
vn 0.0000 0.6547 0.7559
vn 0.0000 0.6547 0.7559
vn 0.6546 0.6547 0.3780
vn 0.6546 0.6547 0.3780
vn 0.6546 0.6547 0.3780
vn 0.6546 0.6547 0.3780
vn 0.6547 0.6547 -0.3780
vn 0.6547 0.6547 -0.3780
vn 0.6547 0.6547 -0.3780
vn 0.6547 0.6547 -0.3780
vn 0.0000 0.6547 -0.7559
vn 0.0000 0.6547 -0.7559
vn 0.0000 0.6547 -0.7559
vn 0.0000 0.6547 -0.7559
vn -0.6547 0.6547 -0.3780
vn -0.6547 0.6547 -0.3780
vn -0.6547 0.6547 -0.3780
vn -0.6547 0.6547 -0.3780
vn 0.0000 1.0000 -0.0000
vn 0.0000 1.0000 -0.0000
vn 0.0000 1.0000 -0.0000
vn 0.0000 1.0000 -0.0000
vn 0.0000 1.0000 -0.0000
vn 0.0000 1.0000 -0.0000
vn 0.0000 1.0000 -0.0000
vn 0.0000 1.0000 -0.0000
vn 0.0000 1.0000 -0.0000
vn 0.0000 1.0000 -0.0000
vn 0.0000 1.0000 -0.0000
vn 0.0000 1.0000 -0.0000
vn 0.0000 0.0000 -1.0000
vn 0.0000 0.0000 -1.0000
vn 0.0000 0.0000 -1.0000
vn 0.0000 0.0000 -1.0000
vn 0.0000 0.0000 -1.0000
vn 0.0000 0.0000 -1.0000
vn 0.0000 0.0000 -1.0000
vn 0.0000 0.0000 -1.0000
vn -1.0000 0.0000 0.0000
vn -0.8660 0.0000 -0.5000
vn -0.8660 0.0000 -0.5000
vn -1.0000 0.0000 -0.0000
vn -1.0000 0.0000 -0.0000
vn -1.0000 0.0000 -0.0000
vn -0.8660 0.0000 -0.5000
vn -0.8660 0.0000 -0.5000
vn -0.6546 0.6547 -0.3780
vn -0.6546 0.6547 -0.3780
vn -0.6546 0.6547 -0.3780
vn -0.6546 0.6547 -0.3780
vn 0.0000 0.6547 -0.7559
vn 0.0000 0.6547 -0.7559
vn 0.0000 0.6547 -0.7559
vn 0.0000 0.6547 -0.7559
vn 0.6546 0.6547 -0.3780
vn 0.6546 0.6547 -0.3780
vn 0.6546 0.6547 -0.3780
vn 0.6546 0.6547 -0.3780
vn 0.6547 0.6547 0.3780
vn 0.6547 0.6547 0.3780
vn 0.6547 0.6547 0.3780
vn 0.6547 0.6547 0.3780
vn 0.0000 0.6547 0.7559
vn 0.0000 0.6547 0.7559
vn 0.0000 0.6547 0.7559
vn 0.0000 0.6547 0.7559
vn -0.6547 0.6547 0.3780
vn -0.6547 0.6547 0.3780
vn -0.6547 0.6547 0.3780
vn -0.6547 0.6547 0.3780
vn 0.8660 0.0000 -0.5000
vn 0.8660 0.0000 -0.5000
vn 0.8660 0.0000 -0.5000
vn 0.8660 0.0000 -0.5000
vn 0.8660 0.0000 -0.5000
vn 0.8660 0.0000 -0.5000
vn 0.8660 0.0000 -0.5000
vn 0.8660 0.0000 -0.5000
vn 0.0000 0.0000 -1.0000
vn 0.0000 0.0000 -1.0000
vn 0.0000 0.0000 -1.0000
vn 0.0000 0.0000 -1.0000
vn 0.0000 0.0000 -1.0000
vn 0.0000 0.0000 -1.0000
vn 0.0000 0.0000 -1.0000
vn 0.0000 0.0000 -1.0000
vn 0.8660 0.0000 0.5000
vn 0.8660 0.0000 0.5000
vn 0.8660 0.0000 0.5000
vn 0.8660 0.0000 0.5000
vn 0.8660 0.0000 0.5000
vn 0.8660 0.0000 0.5000
vn 0.8660 0.0000 0.5000
vn 0.8660 0.0000 0.5000
vn -0.8660 0.0000 0.5000
vn -0.8660 0.0000 0.5000
vn -0.8660 0.0000 0.5000
vn -0.8660 0.0000 0.5000
vn -0.8660 0.0000 0.5000
vn -0.8660 0.0000 0.5000
vn -0.8660 0.0000 0.5000
vn -0.8660 0.0000 0.5000
vn 0.0000 -1.0000 -0.0000
vn 0.0000 -1.0000 -0.0000
vn 0.0000 -1.0000 -0.0000
vn 0.0000 -1.0000 -0.0000
vn 0.0000 -1.0000 -0.0000
vn 0.0000 -1.0000 -0.0000
vn 0.0000 -1.0000 -0.0000
vn 0.0000 -1.0000 -0.0000
vn 0.0000 -1.0000 -0.0000
vn 0.0000 -1.0000 -0.0000
vn 0.0000 -1.0000 -0.0000
vn 0.0000 -1.0000 -0.0000
vn 0.8660 0.0000 0.5000
vn 0.8660 0.0000 0.5000
vn 0.8660 0.0000 0.5000
vn 0.8660 0.0000 0.5000
vn 0.8660 0.0000 0.5000
vn 0.8660 0.0000 0.5000
vn 0.8660 0.0000 0.5000
vn 0.8660 0.0000 0.5000
vn -0.6546 -0.6547 0.3780
vn -0.6546 -0.6547 0.3780
vn -0.6546 -0.6547 0.3780
vn -0.6546 -0.6547 0.3780
vn 0.0000 -0.6547 0.7559
vn 0.0000 -0.6547 0.7559
vn 0.0000 -0.6547 0.7559
vn 0.0000 -0.6547 0.7559
vn 0.6546 -0.6547 0.3780
vn 0.6546 -0.6547 0.3780
vn 0.6546 -0.6547 0.3780
vn 0.6546 -0.6547 0.3780
vn 0.6547 -0.6547 -0.3780
vn 0.6547 -0.6547 -0.3780
vn 0.6547 -0.6547 -0.3780
vn 0.6547 -0.6547 -0.3780
vn 0.0000 -0.6547 -0.7559
vn 0.0000 -0.6547 -0.7559
vn 0.0000 -0.6547 -0.7559
vn 0.0000 -0.6547 -0.7559
vn -0.6547 -0.6547 -0.3780
vn -0.6547 -0.6547 -0.3780
vn -0.6547 -0.6547 -0.3780
vn -0.6547 -0.6547 -0.3780
vn 0.0000 -1.0000 -0.0000
vn 0.0000 -1.0000 -0.0000
vn 0.0000 -1.0000 -0.0000
vn 0.0000 -1.0000 -0.0000
vn 0.0000 -1.0000 -0.0000
vn 0.0000 -1.0000 -0.0000
vn 0.0000 -1.0000 -0.0000
vn 0.0000 -1.0000 -0.0000
vn 0.0000 -1.0000 -0.0000
vn 0.0000 -1.0000 -0.0000
vn 0.0000 -1.0000 -0.0000
vn 0.0000 -1.0000 -0.0000
vn 0.8660 0.0000 -0.5000
vn 0.8660 0.0000 -0.5000
vn 0.8660 0.0000 -0.5000
vn 0.8660 0.0000 -0.5000
vn 0.8660 0.0000 -0.5000
vn 0.8660 0.0000 -0.5000
vn 0.8660 0.0000 -0.5000
vn 0.8660 0.0000 -0.5000
vn -0.6546 -0.6547 -0.3780
vn -0.6546 -0.6547 -0.3780
vn -0.6546 -0.6547 -0.3780
vn -0.6546 -0.6547 -0.3780
vn 0.0000 -0.6547 -0.7559
vn 0.0000 -0.6547 -0.7559
vn 0.0000 -0.6547 -0.7559
vn 0.0000 -0.6547 -0.7559
vn 0.6546 -0.6547 -0.3780
vn 0.6546 -0.6547 -0.3780
vn 0.6546 -0.6547 -0.3780
vn 0.6546 -0.6547 -0.3780
vn 0.6547 -0.6547 0.3780
vn 0.6547 -0.6547 0.3780
vn 0.6547 -0.6547 0.3780
vn 0.6547 -0.6547 0.3780
vn 0.0000 -0.6547 0.7559
vn 0.0000 -0.6547 0.7559
vn 0.0000 -0.6547 0.7559
vn 0.0000 -0.6547 0.7559
vn -0.6547 -0.6547 0.3780
vn -0.6547 -0.6547 0.3780
vn -0.6547 -0.6547 0.3780
vn -0.6547 -0.6547 0.3780
vn -0.8660 0.0000 -0.5000
vn -0.8660 0.0000 -0.5000
vn -0.8660 0.0000 -0.5000
vn -0.8660 0.0000 -0.5000
vn -0.8660 0.0000 -0.5000
vn -0.8660 0.0000 -0.5000
vn -0.8660 0.0000 -0.5000
vn -0.8660 0.0000 -0.5000
vn 0.0000 0.0000 1.0000
vn 0.0000 0.0000 1.0000
vn 0.0000 0.0000 1.0000
vn 0.0000 0.0000 1.0000
vn 0.0000 0.0000 1.0000
vn 0.0000 0.0000 1.0000
vn 0.0000 0.0000 1.0000
vn 0.0000 0.0000 1.0000
# 240 vertex normals

vt 1.0269 0.6267 0.0000
vt 1.6187 0.6282 0.0000
vt 4.5097 0.4143 0.0000
vt 1.0506 0.6264 0.0000
vt 1.5170 0.4096 0.0000
vt -0.2868 0.6270 0.0000
vt 4.4291 0.6325 0.0000
vt -3.4694 0.6325 0.0000
vt -3.5500 0.4143 0.0000
vt 4.3829 0.4148 0.0000
vt 0.1664 0.6234 0.0000
vt 4.3057 0.6316 0.0000
vt -0.2136 0.4149 0.0000
vt -3.2670 0.6316 0.0000
vt -3.3443 0.4148 0.0000
vt 0.8336 0.6234 0.0000
vt 4.4172 0.4125 0.0000
vt 4.3388 0.6296 0.0000
vt 0.8336 0.6234 0.0000
vt -0.6187 0.6282 0.0000
vt -0.5170 0.4096 0.0000
vt 1.0367 0.6331 0.0000
vt -0.0367 0.6331 0.0000
vt 0.1988 0.2123 0.0000
vt 0.8012 0.2123 0.0000
vt -0.0382 0.6267 0.0000
vt 0.1954 0.2138 0.0000
vt 0.7932 0.2138 0.0000
vt -0.0715 0.6264 0.0000
vt 0.1747 0.2131 0.0000
vt 0.8044 0.2131 0.0000
vt 1.0738 0.6310 0.0000
vt -0.0738 0.6310 0.0000
vt -0.0738 0.6310 0.0000
vt 1.0738 0.6310 0.0000
vt -0.1564 0.6310 0.0000
vt 1.1564 0.6310 0.0000
vt -0.3800 0.6276 0.0000
vt -0.3018 0.4136 0.0000
vt 1.2627 0.4136 0.0000
vt 1.3409 0.6276 0.0000
vt 1.2502 0.4149 0.0000
vt 1.3234 0.6270 0.0000
vt 0.1013 0.6234 0.0000
vt 0.1664 0.6234 0.0000
vt 0.8987 0.6234 0.0000
vt -3.3388 0.6296 0.0000
vt -3.4172 0.4125 0.0000
vt 1.0738 0.6310 0.0000
vt -0.0738 0.6310 0.0000
vt -0.1564 0.6310 0.0000
vt 1.1564 0.6310 0.0000
vt -0.0738 0.6310 0.0000
vt 1.0738 0.6310 0.0000
vt 1.0269 0.6267 0.0000
vt -0.0382 0.6267 0.0000
vt 0.1954 0.2138 0.0000
vt 0.7932 0.2138 0.0000
vt 1.0367 0.6331 0.0000
vt -0.0367 0.6331 0.0000
vt 0.1988 0.2123 0.0000
vt 0.8012 0.2123 0.0000
vt 1.0506 0.6264 0.0000
vt -0.0715 0.6264 0.0000
vt 0.1747 0.2131 0.0000
vt 0.8044 0.2131 0.0000
vt 0.1664 0.6234 0.0000
vt 0.8336 0.6234 0.0000
vt 0.1013 0.6234 0.0000
vt 0.8987 0.6234 0.0000
vt 0.8336 0.6234 0.0000
vt 0.1664 0.6234 0.0000
vt -0.2868 0.6270 0.0000
vt -0.2136 0.4149 0.0000
vt 1.2502 0.4149 0.0000
vt 1.3234 0.6270 0.0000
vt -0.6187 0.6282 0.0000
vt -0.5170 0.4096 0.0000
vt 1.5170 0.4096 0.0000
vt 1.6187 0.6282 0.0000
vt -0.3800 0.6276 0.0000
vt -0.3018 0.4136 0.0000
vt 1.2627 0.4136 0.0000
vt 1.3409 0.6276 0.0000
vt 4.5097 0.4143 0.0000
vt 4.4291 0.6325 0.0000
vt -3.4694 0.6325 0.0000
vt -3.5500 0.4143 0.0000
vt 4.4172 0.4125 0.0000
vt 4.3388 0.6296 0.0000
vt -3.3388 0.6296 0.0000
vt -3.4172 0.4125 0.0000
vt 4.3829 0.4148 0.0000
vt 4.3057 0.6316 0.0000
vt -3.2670 0.6316 0.0000
vt -3.3443 0.4148 0.0000
vt 1.0738 0.5233 0.0000
vt 1.1564 0.5233 0.0000
vt -0.0738 0.5233 0.0000
vt -0.0738 0.5233 0.0000
vt -0.1564 0.5233 0.0000
vt 0.1013 0.5456 0.0000
vt 0.8987 0.5456 0.0000
vt 0.8336 0.5456 0.0000
vt 0.1664 0.5456 0.0000
vt 0.1664 0.5456 0.0000
vt 1.0738 0.5233 0.0000
vt 1.0738 0.5233 0.0000
vt -0.0738 0.5233 0.0000
vt 0.1013 0.5456 0.0000
vt 0.8987 0.5456 0.0000
vt 0.8336 0.5456 0.0000
vt 1.0269 0.6267 0.0000
vt -0.0382 0.6267 0.0000
vt 0.1954 0.2138 0.0000
vt 0.7932 0.2138 0.0000
vt 1.0367 0.6331 0.0000
vt -0.0367 0.6331 0.0000
vt 0.1988 0.2123 0.0000
vt 0.8012 0.2123 0.0000
vt 1.0506 0.6264 0.0000
vt -0.0715 0.6264 0.0000
vt 0.1747 0.2131 0.0000
vt 0.8044 0.2131 0.0000
vt 0.1664 0.6234 0.0000
vt 0.1664 0.5456 0.0000
vt 0.8336 0.5456 0.0000
vt 0.8336 0.6234 0.0000
vt 0.1013 0.6234 0.0000
vt 0.8987 0.6234 0.0000
vt 0.8336 0.6234 0.0000
vt 0.1664 0.6234 0.0000
vt -0.2868 0.6270 0.0000
vt -0.2136 0.4149 0.0000
vt 1.2502 0.4149 0.0000
vt 1.3234 0.6270 0.0000
vt -0.6187 0.6282 0.0000
vt -0.5170 0.4096 0.0000
vt 1.5170 0.4096 0.0000
vt 1.6187 0.6282 0.0000
vt -0.3800 0.6276 0.0000
vt -0.3018 0.4136 0.0000
vt 1.2627 0.4136 0.0000
vt 1.3409 0.6276 0.0000
vt 4.5097 0.4143 0.0000
vt 4.4291 0.6325 0.0000
vt -3.4694 0.6325 0.0000
vt -3.5500 0.4143 0.0000
vt 4.4172 0.4125 0.0000
vt 4.3388 0.6296 0.0000
vt -3.3388 0.6296 0.0000
vt -3.4172 0.4125 0.0000
vt 4.3829 0.4148 0.0000
vt 4.3057 0.6316 0.0000
vt -3.2670 0.6316 0.0000
vt -3.3443 0.4148 0.0000
vt 1.0269 0.6267 0.0000
vt 0.7932 0.2138 0.0000
vt 0.1954 0.2138 0.0000
vt -0.0382 0.6267 0.0000
vt 1.0367 0.6331 0.0000
vt 0.8012 0.2123 0.0000
vt 0.1988 0.2123 0.0000
vt -0.0367 0.6331 0.0000
vt 1.0506 0.6264 0.0000
vt 0.8044 0.2131 0.0000
vt 0.1747 0.2131 0.0000
vt -0.0715 0.6264 0.0000
vt 0.1664 0.6234 0.0000
vt 0.8336 0.6234 0.0000
vt 0.8336 0.5456 0.0000
vt 0.1664 0.5456 0.0000
vt 0.1013 0.6234 0.0000
vt 0.8987 0.6234 0.0000
vt 0.8336 0.6234 0.0000
vt 0.1664 0.6234 0.0000
vt -0.2868 0.6270 0.0000
vt 1.3234 0.6270 0.0000
vt 1.2502 0.4149 0.0000
vt -0.2136 0.4149 0.0000
vt -0.6187 0.6282 0.0000
vt 1.6187 0.6282 0.0000
vt 1.5170 0.4096 0.0000
vt -0.5170 0.4096 0.0000
vt -0.3800 0.6276 0.0000
vt 1.3409 0.6276 0.0000
vt 1.2627 0.4136 0.0000
vt -0.3018 0.4136 0.0000
vt 4.5097 0.4143 0.0000
vt -3.5500 0.4143 0.0000
vt -3.4694 0.6325 0.0000
vt 4.4291 0.6325 0.0000
vt 4.4172 0.4125 0.0000
vt -3.4172 0.4125 0.0000
vt -3.3388 0.6296 0.0000
vt 4.3388 0.6296 0.0000
vt 4.3829 0.4148 0.0000
vt -3.3443 0.4148 0.0000
vt -3.2670 0.6316 0.0000
vt 4.3057 0.6316 0.0000
vt 1.0738 0.6310 0.0000
vt -0.0738 0.6310 0.0000
vt -0.1564 0.6310 0.0000
vt 1.1564 0.6310 0.0000
vt -0.0738 0.5233 0.0000
vt -0.0738 0.6310 0.0000
vt 1.0738 0.6310 0.0000
vt 1.0738 0.5233 0.0000
vt -0.0738 0.6310 0.0000
vt 1.0738 0.6310 0.0000
vt 1.1564 0.5233 0.0000
vt 1.1564 0.6310 0.0000
vt -0.1564 0.6310 0.0000
vt -0.1564 0.5233 0.0000
vt 1.0738 0.6310 0.0000
vt -0.0738 0.6310 0.0000
# 216 texture coords

g Cylinder001
s off
f 4/27/1 5/28/2 13/1/3 12/26/4 
f 6/24/5 4/25/6 12/22/7 14/23/8 
f 7/30/9 6/31/10 14/4/11 22/29/12 
f 43/102/13 44/129/14 45/130/15 27/103/16 
f 43/102/17 27/103/18 8/46/19 10/44/20 
s 1
f 27/104/21 45/131/22 46/132/23 28/105/24 
f 27/104/25 28/105/26 9/45/27 8/16/28 
s off
f 4/6/29 8/13/30 9/42/31 5/43/32 
f 6/20/33 10/21/34 8/5/35 4/2/36 
f 7/38/37 11/39/38 10/40/39 6/41/40 
f 1/3/41 12/7/42 13/8/43 2/9/44 
f 3/17/45 14/18/46 12/47/47 1/48/48 
f 17/10/49 22/12/50 14/14/51 3/15/52 
f 19/57/53 18/56/54 13/55/55 5/58/56 
f 21/61/57 20/60/58 18/59/59 19/62/60 
f 7/65/61 22/64/62 20/63/63 21/66/64 
f 56/174/65 55/173/66 31/110/67 32/111/68 
f 24/70/69 32/111/70 31/110/71 23/69/72 
s 1
f 46/176/73 56/175/74 32/112/75 28/106/76 
f 9/72/77 28/106/78 32/112/79 24/71/80 
s off
f 19/73/81 5/76/82 9/75/83 24/74/84 
f 21/77/85 19/80/86 24/79/87 23/78/88 
f 7/81/89 21/84/90 23/83/91 11/82/92 
f 15/85/93 2/88/94 13/87/95 18/86/96 
f 16/89/97 15/92/98 18/91/99 20/90/100 
f 17/93/101 16/96/102 20/95/103 22/94/104 
f 1/32/105 2/33/106 26/99/107 25/97/108 
f 26/99/109 48/202/110 47/201/111 25/97/112 
f 3/36/113 1/37/114 25/98/115 59/101/116 
f 25/98/117 47/204/118 49/203/119 59/101/120 
f 2/50/121 15/49/122 60/107/123 26/100/124 
f 60/107/125 57/210/126 48/209/127 26/100/128 
f 16/54/129 17/53/130 30/109/131 29/108/132 
f 30/109/133 50/216/134 58/215/135 29/108/136 
f 35/115/137 34/114/138 33/113/139 36/116/140 
f 38/119/141 37/118/142 34/117/143 35/120/144 
f 40/123/145 39/122/146 37/121/147 38/124/148 
f 10/19/149 11/11/150 42/126/151 43/127/152 
f 44/128/153 43/127/154 42/126/155 41/125/156 
f 35/133/157 36/136/158 46/135/159 45/134/160 
f 38/137/161 35/140/162 45/139/163 44/138/164 
f 40/141/165 38/144/166 44/143/167 41/142/168 
f 47/145/169 48/148/170 33/147/171 34/146/172 
f 49/149/173 47/152/174 34/151/175 37/150/176 
f 50/153/177 49/156/178 37/155/179 39/154/180 
f 51/159/181 36/158/182 33/157/183 52/160/184 
f 53/163/185 51/162/186 52/161/187 54/164/188 
f 40/167/189 53/166/190 54/165/191 39/168/192 
f 42/172/193 11/67/194 23/68/195 31/171/196 
f 42/172/197 31/171/198 55/170/199 41/169/200 
f 51/177/201 56/180/202 46/179/203 36/178/204 
f 53/181/205 55/184/206 56/183/207 51/182/208 
f 40/185/209 41/188/210 55/187/211 53/186/212 
f 57/189/213 52/192/214 33/191/215 48/190/216 
f 58/193/217 54/196/218 52/195/219 57/194/220 
f 50/197/221 39/200/222 54/199/223 58/198/224 
f 17/34/225 3/35/226 59/208/227 30/205/228 
f 59/208/229 49/207/230 50/206/231 30/205/232 
f 15/52/233 16/51/234 29/214/235 60/211/236 
f 29/214/237 58/213/238 57/212/239 60/211/240 
# 60 polygons

